ISO-10303-21;
HEADER;
FILE_DESCRIPTION (( 'STEP AP203' ),
    '1' );
FILE_NAME ('END-EFFECTOR_Défaut_sldprt.STEP',
    '2025-05-01T13:41:14',
    ( '' ),
    ( '' ),
    'SwSTEP 2.0',
    'SolidWorks 2022',
    '' );
FILE_SCHEMA (( 'CONFIG_CONTROL_DESIGN' ));
ENDSEC;

DATA;
#1 = CARTESIAN_POINT ( 'NONE',  ( -0.2766317805542286012, -4.763139720814413280, -10.51918215668645651 ) ) ;
#2 = VECTOR ( 'NONE', #504, 1000.000000000000000 ) ;
#3 = CARTESIAN_POINT ( 'NONE',  ( 4.397591985467164122, 1.909426691842002644, -10.57270005857390061 ) ) ;
#4 = ORIENTED_EDGE ( 'NONE', *, *, #33, .F. ) ;
#5 = ORIENTED_EDGE ( 'NONE', *, *, #219, .F. ) ;
#6 = DIRECTION ( 'NONE',  ( 0.000000000000000000, 0.000000000000000000, -1.000000000000000000 ) ) ;
#7 = CALENDAR_DATE ( 2025, 1, 5 ) ;
#8 = CARTESIAN_POINT ( 'NONE',  ( 3.584520840353944582, 3.317707225346304689, -10.77048107766757035 ) ) ;
#9 = EDGE_LOOP ( 'NONE', ( #545, #50, #449, #393, #588, #296 ) ) ;
#10 = VERTEX_POINT ( 'NONE', #593 ) ;
#11 = CARTESIAN_POINT ( 'NONE',  ( -2.749999999999998224, 4.763139720814411504, -50.00000000000000000 ) ) ;
#12 = CARTESIAN_POINT ( 'NONE',  ( -2.570011250222499211, -4.763139720814414169, -12.00477963425691108 ) ) ;
#13 = CARTESIAN_POINT ( 'NONE',  ( -2.749999999999998224, -4.763139720814413280, -12.21341637568218452 ) ) ;
#14 = ORIENTED_EDGE ( 'NONE', *, *, #322, .F. ) ;
#15 = PLANE ( 'NONE',  #365 ) ;
#16 = APPROVAL_PERSON_ORGANIZATION ( #354, #317, #459 ) ;
#17 = CARTESIAN_POINT ( 'NONE',  ( 2.934824160746871691, 4.443014883934555570, -11.80018235078181732 ) ) ;
#18 = ORIENTED_EDGE ( 'NONE', *, *, #77, .F. ) ;
#19 = EDGE_CURVE ( 'NONE', #110, #453, #404, .T. ) ;
#20 = CYLINDRICAL_SURFACE ( 'NONE', #297, 1.000000000000000222 ) ;
#21 = APPROVAL_STATUS ( 'not_yet_approved' ) ;
#22 = ADVANCED_FACE ( 'NONE', ( #356 ), #325, .F. ) ;
#23 = CARTESIAN_POINT ( 'NONE',  ( -0.5515128784867839862, 4.763139720814412392, -10.57437316367797742 ) ) ;
#24 = CALENDAR_DATE ( 2025, 1, 5 ) ;
#25 = CARTESIAN_POINT ( 'NONE',  ( 3.153182604756094086E-15, 5.736860279185590272, -40.19780099631149994 ) ) ;
#26 = VECTOR ( 'NONE', #235, 1000.000000000000000 ) ;
#27 = CARTESIAN_POINT ( 'NONE',  ( 2.569005130711521367, 4.763139720814412392, -12.00361337527397509 ) ) ;
#28 = AXIS2_PLACEMENT_3D ( 'NONE', #276, #340, #142 ) ;
#29 = APPROVAL ( #531, 'UNSPECIFIED' ) ;
#30 = CARTESIAN_POINT ( 'NONE',  ( -4.198272957983150810, 2.254657374359526845, -10.50570365459579669 ) ) ;
#31 = VERTEX_POINT ( 'NONE', #138 ) ;
#32 = CARTESIAN_POINT ( 'NONE',  ( 2.750000000000001332, -4.763139720814411504, -12.21341637568218452 ) ) ;
#33 = EDGE_CURVE ( 'NONE', #145, #31, #370, .T. ) ;
#34 = DIRECTION ( 'NONE',  ( 1.365740544306508121E-16, 1.000000000000000000, -0.000000000000000000 ) ) ;
#35 = CARTESIAN_POINT ( 'NONE',  ( -5.499999999999997335, 0.000000000000000000, 1.000000000000028644 ) ) ;
#36 = CARTESIAN_POINT ( 'NONE',  ( -4.658033426155456347, -1.458328884173439421, -10.77503460561982074 ) ) ;
#37 = CC_DESIGN_APPROVAL ( #623, ( #410 ) ) ;
#38 = CARTESIAN_POINT ( 'NONE',  ( 2.750000000000000000, 4.763139720814414169, -12.21341637568218985 ) ) ;
#39 = FACE_BOUND ( 'NONE', #486, .T. ) ;
#40 = AXIS2_PLACEMENT_3D ( 'NONE', #205, #489, #56 ) ;
#41 = ADVANCED_FACE ( 'NONE', ( #575 ), #192, .T. ) ;
#42 = CARTESIAN_POINT ( 'NONE',  ( -3.852408014532832770, 2.853713028972411525, -10.57270005857389705 ) ) ;
#43 = CARTESIAN_POINT ( 'NONE',  ( 1.979732875457533403, -4.763139720814410616, -11.41356399015350043 ) ) ;
#44 = CARTESIAN_POINT ( 'NONE',  ( 2.750000000000001332, -4.763139720814411504, 1.000000000000028644 ) ) ;
#45 = VERTEX_POINT ( 'NONE', #331 ) ;
#46 = CARTESIAN_POINT ( 'NONE',  ( 3.470555127115363625, -3.515101630996350757, -10.91121161740679923 ) ) ;
#47 = FACE_OUTER_BOUND ( 'NONE', #130, .T. ) ;
#48 = CARTESIAN_POINT ( 'NONE',  ( -1.981671858374314255, -4.763139720814414169, -11.41524324394047873 ) ) ;
#49 = CARTESIAN_POINT ( 'NONE',  ( -4.051727042016844749, -2.508482346454889100, -10.50570365459579669 ) ) ;
#50 = ORIENTED_EDGE ( 'NONE', *, *, #79, .T. ) ;
#51 = ORIENTED_EDGE ( 'NONE', *, *, #164, .F. ) ;
#52 = CARTESIAN_POINT ( 'NONE',  ( 1.719155033234260312E-15, -4.763139720814412392, -40.19780099631149994 ) ) ;
#53 = PERSON_AND_ORGANIZATION ( #165, #422 ) ;
#54 = EDGE_CURVE ( 'NONE', #587, #10, #327, .T. ) ;
#55 = CIRCLE ( 'NONE', #216, 1.000000000000000222 ) ;
#56 = DIRECTION ( 'NONE',  ( 1.000000000000000000, 0.000000000000000000, 0.000000000000000000 ) ) ;
#57 = CIRCLE ( 'NONE', #181, 1.000000000000000222 ) ;
#58 = EDGE_LOOP ( 'NONE', ( #185, #196, #350, #514 ) ) ;
#59 = ORIENTED_EDGE ( 'NONE', *, *, #219, .T. ) ;
#60 = FACE_OUTER_BOUND ( 'NONE', #150, .T. ) ;
#61 = LINE ( 'NONE', #204, #78 ) ;
#62 = LINE ( 'NONE', #295, #600 ) ;
#63 = VERTEX_POINT ( 'NONE', #328 ) ;
#64 = EDGE_LOOP ( 'NONE', ( #87, #250, #201, #255 ) ) ;
#65 = DIRECTION ( 'NONE',  ( 0.4999999999999997780, 0.8660254037844387076, 0.000000000000000000 ) ) ;
#66 = CARTESIAN_POINT ( 'NONE',  ( 2.750000000000000000, 4.763139720814414169, -50.00000000000000000 ) ) ;
#67 = ORIENTED_EDGE ( 'NONE', *, *, #471, .T. ) ;
#68 = CARTESIAN_POINT ( 'NONE',  ( 1.000000000000003553, 5.736860279185590272, -40.19780099631149994 ) ) ;
#69 = PRODUCT_DEFINITION_FORMATION_WITH_SPECIFIED_SOURCE ( 'ANY', '', #122, .NOT_KNOWN. ) ;
#70 = AXIS2_PLACEMENT_3D ( 'NONE', #279, #91, #430 ) ;
#71 = LINE ( 'NONE', #342, #423 ) ;
#72 = CARTESIAN_POINT ( 'NONE',  ( 2.750000000000000000, 4.763139720814414169, -12.21341637568218985 ) ) ;
#73 = DIRECTION ( 'NONE',  ( -1.365740544306508121E-16, -1.000000000000000000, 0.000000000000000000 ) ) ;
#74 = LOCAL_TIME ( 14, 41, 14.00000000000000000, #240 ) ;
#75 = EDGE_CURVE ( 'NONE', #500, #101, #84, .T. ) ;
#76 = AXIS2_PLACEMENT_3D ( 'NONE', #35, #283, #426 ) ;
#77 = EDGE_CURVE ( 'NONE', #500, #145, #523, .T. ) ;
#78 = VECTOR ( 'NONE', #418, 1000.000000000000000 ) ;
#79 = EDGE_CURVE ( 'NONE', #137, #335, #538, .T. ) ;
#80 = VECTOR ( 'NONE', #498, 1000.000000000000114 ) ;
#81 = CARTESIAN_POINT ( 'NONE',  ( -5.313949452063437384, -0.3222490018021502145, -11.79744843602301430 ) ) ;
#82 = CARTESIAN_POINT ( 'NONE',  ( 4.198272957983152587, -2.254657374359526401, -10.50570365459579847 ) ) ;
#83 = CARTESIAN_POINT ( 'NONE',  ( -3.846100729795636664, -2.864637566595042539, -10.57609923580110589 ) ) ;
#84 = LINE ( 'NONE', #287, #247 ) ;
#85 = CARTESIAN_POINT ( 'NONE',  ( -3.133155301654781955, -4.099495271158944298, -11.41718641259502931 ) ) ;
#86 = EDGE_CURVE ( 'NONE', #45, #298, #308, .T. ) ;
#87 = ORIENTED_EDGE ( 'NONE', *, *, #565, .T. ) ;
#88 = APPROVAL_PERSON_ORGANIZATION ( #90, #29, #441 ) ;
#89 = CARTESIAN_POINT ( 'NONE',  ( 3.591966573844541433, -3.304810836640974525, -10.77503460561982962 ) ) ;
#90 = PERSON_AND_ORGANIZATION ( #165, #422 ) ;
#91 = DIRECTION ( 'NONE',  ( 0.000000000000000000, 0.000000000000000000, -1.000000000000000000 ) ) ;
#92 = VERTEX_POINT ( 'NONE', #13 ) ;
#93 = CARTESIAN_POINT ( 'NONE',  ( 5.012702754168934405, -0.8440235881677872198, -11.23682905512176866 ) ) ;
#94 = CARTESIAN_POINT ( 'NONE',  ( -0.9999999999999986677, -5.763139720814412392, -40.19780099631149994 ) ) ;
#95 = APPROVAL_DATE_TIME ( #477, #29 ) ;
#96 = CARTESIAN_POINT ( 'NONE',  ( -3.584520840353943250, -3.317707225346304689, -10.77048107766757035 ) ) ;
#97 = ORIENTED_EDGE ( 'NONE', *, *, #372, .T. ) ;
#98 = ORIENTED_EDGE ( 'NONE', *, *, #576, .F. ) ;
#99 = DIRECTION ( 'NONE',  ( -1.365740544306508121E-16, -1.000000000000000000, 0.000000000000000000 ) ) ;
#100 = CARTESIAN_POINT ( 'NONE',  ( 3.020197640216865042E-15, 4.763139720814413280, -40.19780099631149994 ) ) ;
#101 = VERTEX_POINT ( 'NONE', #66 ) ;
#102 = ORIENTED_EDGE ( 'NONE', *, *, #607, .T. ) ;
#103 = LINE ( 'NONE', #455, #324 ) ;
#104 =( NAMED_UNIT ( * ) SI_UNIT ( $, .STERADIAN. ) SOLID_ANGLE_UNIT ( ) );
#105 = FACE_OUTER_BOUND ( 'NONE', #302, .T. ) ;
#106 = ORIENTED_EDGE ( 'NONE', *, *, #527, .T. ) ;
#107 = EDGE_LOOP ( 'NONE', ( #491, #386 ) ) ;
#108 = DIRECTION ( 'NONE',  ( 0.000000000000000000, 0.000000000000000000, -1.000000000000000000 ) ) ;
#109 = CARTESIAN_POINT ( 'NONE',  ( 4.190002780203890609, 2.268981742460838280, -10.50459045695471261 ) ) ;
#110 = VERTEX_POINT ( 'NONE', #195 ) ;
#111 = DIRECTION ( 'NONE',  ( 0.3960696342174735429, 4.850454097838919505E-17, -0.9182204772552379213 ) ) ;
#112 = DATE_AND_TIME ( #24, #596 ) ;
#113 = CARTESIAN_POINT ( 'NONE',  ( 5.500000000000000000, 7.862240281645218806E-16, -12.21341637568218630 ) ) ;
#114 = APPLICATION_CONTEXT ( 'configuration controlled 3d designs of mechanical parts and assemblies' ) ;
#115 = CARTESIAN_POINT ( 'NONE',  ( -2.749999999999998224, 4.763139720814412392, -50.00000000000000000 ) ) ;
#116 = APPROVAL_ROLE ( '' ) ;
#117 = DIRECTION ( 'NONE',  ( 1.365740544306508121E-16, 1.000000000000000000, -0.000000000000000000 ) ) ;
#118 = APPROVAL_DATE_TIME ( #112, #623 ) ;
#119 = EDGE_CURVE ( 'NONE', #518, #397, #463, .T. ) ;
#120 = CARTESIAN_POINT ( 'NONE',  ( 1.318692951223357390, 4.763139720814414169, -10.90968448910356514 ) ) ;
#121 = CARTESIAN_POINT ( 'NONE',  ( 1.582580978803609402E-15, -5.763139720814412392, -40.19780099631149994 ) ) ;
#122 = PRODUCT ( 'END-EFFECTOR_D\X2\00e9\X0\faut_sldprt', 'END-EFFECTOR_D\X2\00e9\X0\faut_sldprt', '', ( #493 ) ) ;
#123 = DIRECTION ( 'NONE',  ( 1.000000000000000000, 0.000000000000000000, 0.000000000000000000 ) ) ;
#124 = VECTOR ( 'NONE', #543, 1000.000000000000114 ) ;
#125 = EDGE_CURVE ( 'NONE', #10, #335, #62, .T. ) ;
#126 = ORIENTED_EDGE ( 'NONE', *, *, #391, .F. ) ;
#127 = EDGE_CURVE ( 'NONE', #282, #63, #611, .T. ) ;
#128 = ORIENTED_EDGE ( 'NONE', *, *, #189, .T. ) ;
#129 = LOCAL_TIME ( 14, 41, 14.00000000000000000, #556 ) ;
#130 = EDGE_LOOP ( 'NONE', ( #128, #540, #126, #496 ) ) ;
#131 = CARTESIAN_POINT ( 'NONE',  ( -3.136964929560773996, 4.092896802067838458, -11.41020459187398650 ) ) ;
#132 = AXIS2_PLACEMENT_3D ( 'NONE', #225, #574, #123 ) ;
#133 = DIRECTION ( 'NONE',  ( -1.365740544306508121E-16, -1.000000000000000000, 0.000000000000000000 ) ) ;
#134 = CARTESIAN_POINT ( 'NONE',  ( -4.471415712431748624, 1.781560245935241316, -10.61742126249915330 ) ) ;
#135 = CC_DESIGN_PERSON_AND_ORGANIZATION_ASSIGNMENT ( #53, #246, ( #122 ) ) ;
#136 = CARTESIAN_POINT ( 'NONE',  ( 2.750000000000001332, -4.763139720814411504, 1.000000000000028644 ) ) ;
#137 = VERTEX_POINT ( 'NONE', #248 ) ;
#138 = CARTESIAN_POINT ( 'NONE',  ( 2.750000000000001332, -4.763139720814411504, -12.21341637568218452 ) ) ;
#139 = DIRECTION ( 'NONE',  ( -0.000000000000000000, -0.000000000000000000, -1.000000000000000000 ) ) ;
#140 = ORIENTED_EDGE ( 'NONE', *, *, #345, .T. ) ;
#141 =( GEOMETRIC_REPRESENTATION_CONTEXT ( 3 ) GLOBAL_UNCERTAINTY_ASSIGNED_CONTEXT ( ( #364 ) ) GLOBAL_UNIT_ASSIGNED_CONTEXT ( ( #148, #284, #104 ) ) REPRESENTATION_CONTEXT ( 'NONE', 'WORKASPACE' ) );
#142 = DIRECTION ( 'NONE',  ( 1.000000000000000000, 0.000000000000000000, 0.000000000000000000 ) ) ;
#143 = FACE_OUTER_BOUND ( 'NONE', #242, .T. ) ;
#144 = CARTESIAN_POINT ( 'NONE',  ( 2.750000000000001332, -4.763139720814411504, -50.00000000000000000 ) ) ;
#145 = VERTEX_POINT ( 'NONE', #452 ) ;
#146 = CARTESIAN_POINT ( 'NONE',  ( -5.116844698345211384, 0.6636444496554682049, -11.41718641259502931 ) ) ;
#147 = DIRECTION ( 'NONE',  ( -1.000000000000000000, 0.000000000000000000, 0.000000000000000000 ) ) ;
#148 =( LENGTH_UNIT ( ) NAMED_UNIT ( * ) SI_UNIT ( .MILLI., .METRE. ) );
#149 = CARTESIAN_POINT ( 'NONE',  ( 2.840738892453828157, 4.605975348861855778, -12.00305359616949019 ) ) ;
#150 = EDGE_LOOP ( 'NONE', ( #236, #319, #151, #539 ) ) ;
#151 = ORIENTED_EDGE ( 'NONE', *, *, #194, .T. ) ;
#152 = FACE_OUTER_BOUND ( 'NONE', #438, .T. ) ;
#153 = CARTESIAN_POINT ( 'NONE',  ( -5.499999999999997335, 0.000000000000000000, -50.00000000000000000 ) ) ;
#154 = ORIENTED_EDGE ( 'NONE', *, *, #615, .F. ) ;
#155 = ORIENTED_EDGE ( 'NONE', *, *, #345, .F. ) ;
#156 = CC_DESIGN_SECURITY_CLASSIFICATION ( #410, ( #69 ) ) ;
#157 = PLANE ( 'NONE',  #280 ) ;
#158 = DATE_AND_TIME ( #558, #129 ) ;
#159 = DIRECTION ( 'NONE',  ( -1.000000000000000000, 0.000000000000000000, 0.000000000000000000 ) ) ;
#160 = ORIENTED_EDGE ( 'NONE', *, *, #274, .F. ) ;
#161 = DIRECTION ( 'NONE',  ( -0.4999999999999998335, 0.8660254037844387076, 0.000000000000000000 ) ) ;
#162 = CALENDAR_DATE ( 2025, 1, 5 ) ;
#163 = CARTESIAN_POINT ( 'NONE',  ( 4.051727042016846525, 2.508482346454888656, -10.50570365459580024 ) ) ;
#164 = EDGE_CURVE ( 'NONE', #145, #45, #442, .T. ) ;
#165 = PERSON ( 'UNSPECIFIED', 'UNSPECIFIED', 'UNSPECIFIED', ('UNSPECIFIED'), ('UNSPECIFIED'), ('UNSPECIFIED') ) ;
#166 = CARTESIAN_POINT ( 'NONE',  ( 2.378927609459975390, 4.763139720814415057, -11.79861221001185001 ) ) ;
#167 = SHAPE_DEFINITION_REPRESENTATION ( #563, #221 ) ;
#168 = CARTESIAN_POINT ( 'NONE',  ( -0.2766317805542189423, 4.763139720814412392, -10.51918215668645473 ) ) ;
#169 = AXIS2_PLACEMENT_3D ( 'NONE', #251, #6, #492 ) ;
#170 = ADVANCED_FACE ( 'NONE', ( #105 ), #447, .T. ) ;
#171 = AXIS2_PLACEMENT_3D ( 'NONE', #468, #470, #275 ) ;
#172 = LINE ( 'NONE', #212, #351 ) ;
#173 = B_SPLINE_CURVE_WITH_KNOTS ( 'NONE', 3,
 ( #407, #511, #313, #606, #604, #214, #266, #507, #23, #168, #361, #316, #366, #315, #120, #462, #371, #166, #27, #72 ),
 .UNSPECIFIED., .F., .F.,
 ( 4, 2, 2, 2, 2, 2, 2, 2, 2, 4 ),
 ( 0.02534793641572736372, 0.02617353298491847599, 0.02699912955410958826, 0.02782472612330070053, 0.02823752440789625492, 0.02865032269249181279, 0.02947591926168292853, 0.03030151583087404080, 0.03112711240006515306, 0.03195270896925626880 ),
 .UNSPECIFIED. ) ;
#174 = CARTESIAN_POINT ( 'NONE',  ( -2.749999999999998224, 4.763139720814412392, 1.000000000000028644 ) ) ;
#175 = CARTESIAN_POINT ( 'NONE',  ( -2.749999999999998224, -4.763139720814413280, -12.21341637568218452 ) ) ;
#176 = DESIGN_CONTEXT ( 'detailed design', #566, 'design' ) ;
#177 = CARTESIAN_POINT ( 'NONE',  ( 3.242961180304056779, -3.909305910368661596, -11.22759881564810591 ) ) ;
#178 = CARTESIAN_POINT ( 'NONE',  ( -5.007038819695941001, -0.8538338104457494637, -11.22759881564810769 ) ) ;
#179 = AXIS2_PLACEMENT_3D ( 'NONE', #193, #341, #293 ) ;
#180 = CARTESIAN_POINT ( 'NONE',  ( -4.267047286600487155, 2.135536742937861554, -10.52023925726412656 ) ) ;
#181 = AXIS2_PLACEMENT_3D ( 'NONE', #571, #133, #474 ) ;
#182 = CARTESIAN_POINT ( 'NONE',  ( -2.749999999999998224, -4.763139720814413280, 1.000000000000028644 ) ) ;
#183 = CARTESIAN_POINT ( 'NONE',  ( 3.852408014532837210, -2.853713028972410637, -10.57270005857390238 ) ) ;
#184 = DIRECTION ( 'NONE',  ( -1.365740544306508121E-16, -1.000000000000000000, 0.000000000000000000 ) ) ;
#185 = ORIENTED_EDGE ( 'NONE', *, *, #54, .T. ) ;
#186 = CARTESIAN_POINT ( 'NONE',  ( 3.989747645744663451, -2.615833809820754308, -10.51837300202537584 ) ) ;
#187 = LINE ( 'NONE', #399, #620 ) ;
#188 = CARTESIAN_POINT ( 'NONE',  ( -0.1367627300887802322, -4.763139720814413280, -10.50502763766310999 ) ) ;
#189 = EDGE_CURVE ( 'NONE', #92, #587, #231, .T. ) ;
#190 = CARTESIAN_POINT ( 'NONE',  ( -4.260252354255333884, -2.147305910993660305, -10.51837300202536873 ) ) ;
#191 = VERTEX_POINT ( 'NONE', #376 ) ;
#192 = PLANE ( 'NONE',  #76 ) ;
#193 = CARTESIAN_POINT ( 'NONE',  ( -2.749999999999998224, -4.763139720814413280, 1.000000000000028644 ) ) ;
#194 = EDGE_CURVE ( 'NONE', #320, #444, #424, .T. ) ;
#195 = CARTESIAN_POINT ( 'NONE',  ( -0.9999999999999970024, 5.736860279185590272, -40.19780099631149994 ) ) ;
#196 = ORIENTED_EDGE ( 'NONE', *, *, #125, .T. ) ;
#197 = ORIENTED_EDGE ( 'NONE', *, *, #417, .T. ) ;
#198 = DIRECTION ( 'NONE',  ( 1.365740544306508121E-16, 1.000000000000000000, -0.000000000000000000 ) ) ;
#199 = CARTESIAN_POINT ( 'NONE',  ( -2.749999999999998224, -4.763139720814413280, -12.21341637568218452 ) ) ;
#200 = DIRECTION ( 'NONE',  ( -0.000000000000000000, -0.000000000000000000, -1.000000000000000000 ) ) ;
#201 = ORIENTED_EDGE ( 'NONE', *, *, #567, .F. ) ;
#202 = ORIENTED_EDGE ( 'NONE', *, *, #322, .T. ) ;
#203 = CARTESIAN_POINT ( 'NONE',  ( -0.9999999999999972244, 4.763139720814413280, -40.19780099631149994 ) ) ;
#204 = CARTESIAN_POINT ( 'NONE',  ( 1.000000000000001776, -5.763139720814412392, -40.19780099631149994 ) ) ;
#205 = CARTESIAN_POINT ( 'NONE',  ( 0.000000000000000000, 0.000000000000000000, 0.000000000000000000 ) ) ;
#206 = DIRECTION ( 'NONE',  ( -1.365740544306508121E-16, -1.000000000000000000, 0.000000000000000000 ) ) ;
#207 = CC_DESIGN_PERSON_AND_ORGANIZATION_ASSIGNMENT ( #367, #605, ( #69 ) ) ;
#208 = CYLINDRICAL_SURFACE ( 'NONE', #610, 1.000000000000000222 ) ;
#209 = DATE_AND_TIME ( #395, #74 ) ;
#210 = CARTESIAN_POINT ( 'NONE',  ( 4.779444872884634599, 1.248038089818062746, -10.91121161740679391 ) ) ;
#211 = ORIENTED_EDGE ( 'NONE', *, *, #77, .T. ) ;
#212 = CARTESIAN_POINT ( 'NONE',  ( 2.750000000000000000, 4.763139720814414169, -50.00000000000000000 ) ) ;
#213 = DATE_AND_TIME ( #162, #321 ) ;
#214 = CARTESIAN_POINT ( 'NONE',  ( -1.317629577489465076, 4.763139720814411504, -10.90900847285570663 ) ) ;
#215 = CARTESIAN_POINT ( 'NONE',  ( 2.750000000000000000, 4.763139720814414169, -12.21341637568218985 ) ) ;
#216 = AXIS2_PLACEMENT_3D ( 'NONE', #445, #394, #589 ) ;
#217 = VECTOR ( 'NONE', #628, 1000.000000000000000 ) ;
#218 = LINE ( 'NONE', #115, #2 ) ;
#219 = EDGE_CURVE ( 'NONE', #191, #320, #57, .T. ) ;
#220 = ORIENTED_EDGE ( 'NONE', *, *, #237, .T. ) ;
#221 = ADVANCED_BREP_SHAPE_REPRESENTATION ( 'END-EFFECTOR_D\X2\00e9\X0\faut_sldprt', ( #427, #267 ), #141 ) ;
#222 = DIRECTION ( 'NONE',  ( -1.000000000000000000, -3.154042683594195121E-16, 0.000000000000000000 ) ) ;
#223 = CARTESIAN_POINT ( 'NONE',  ( 4.059997219796110279, -2.494157978353575889, -10.50459045695471261 ) ) ;
#224 = EDGE_CURVE ( 'NONE', #92, #244, #562, .T. ) ;
#225 = CARTESIAN_POINT ( 'NONE',  ( 0.000000000000000000, 0.000000000000000000, 0.000000000000000000 ) ) ;
#226 = CARTESIAN_POINT ( 'NONE',  ( -3.655584601853009818, 3.194621179852962456, -10.71365568223458276 ) ) ;
#227 = CARTESIAN_POINT ( 'NONE',  ( -5.499999999999997335, 6.744103781326492671E-17, -12.21341637568217919 ) ) ;
#228 = CARTESIAN_POINT ( 'NONE',  ( 5.500000000000000000, 7.862240281645218806E-16, -12.21341637568218630 ) ) ;
#229 = CLOSED_SHELL ( 'NONE', ( #485, #506, #363, #263, #416, #465, #269, #312, #461, #533, #41, #22, #454, #334, #360, #170 ) ) ;
#230 = FACE_OUTER_BOUND ( 'NONE', #406, .T. ) ;
#231 = B_SPLINE_CURVE_WITH_KNOTS ( 'NONE', 3,
 ( #175, #483, #625, #85, #329, #618, #96, #478, #83, #577, #49, #332, #190, #522, #241, #613, #36, #326, #373, #178, #381, #81, #277, #227 ),
 .UNSPECIFIED., .F., .F.,
 ( 4, 2, 2, 2, 2, 2, 2, 2, 2, 2, 2, 4 ),
 ( 3.505767027413654357E-07, 0.0008268098458405329955, 0.001653269114978324784, 0.002479728384116116572, 0.002892958018685013333, 0.003306187653253910095, 0.003719417287822807724, 0.004132646922391704052, 0.004545876556960601680, 0.004959106191529497575, 0.005785565460667294567, 0.006612024729805091559 ),
 .UNSPECIFIED. ) ;
#232 = EDGE_CURVE ( 'NONE', #587, #137, #520, .T. ) ;
#233 = CARTESIAN_POINT ( 'NONE',  ( -3.785714812615922575, 2.969229043211953023, -10.61265903350330220 ) ) ;
#234 = CARTESIAN_POINT ( 'NONE',  ( -0.5515128784867913136, -4.763139720814412392, -10.57437316367797564 ) ) ;
#235 = DIRECTION ( 'NONE',  ( -0.000000000000000000, -0.000000000000000000, -1.000000000000000000 ) ) ;
#236 = ORIENTED_EDGE ( 'NONE', *, *, #607, .F. ) ;
#237 = EDGE_CURVE ( 'NONE', #63, #282, #622, .T. ) ;
#238 = CARTESIAN_POINT ( 'NONE',  ( -5.012702754168929964, 0.8440235881677875529, -11.23682905512176511 ) ) ;
#239 = CARTESIAN_POINT ( 'NONE',  ( 3.153182604756094086E-15, 5.736860279185590272, -40.19780099631149994 ) ) ;
#240 = COORDINATED_UNIVERSAL_TIME_OFFSET ( 1, 0, .AHEAD. ) ;
#241 = CARTESIAN_POINT ( 'NONE',  ( -4.464285187384071207, -1.793910677602462256, -10.61265903350329864 ) ) ;
#242 = EDGE_LOOP ( 'NONE', ( #528, #220 ) ) ;
#243 = CONICAL_SURFACE ( 'NONE', #169, 5.999999999999997335, 0.4072324579130551792 ) ;
#244 = VERTEX_POINT ( 'NONE', #516 ) ;
#245 = DIRECTION ( 'NONE',  ( -3.154042683594195121E-16, 1.000000000000000000, -0.000000000000000000 ) ) ;
#246 = PERSON_AND_ORGANIZATION_ROLE ( 'design_owner' ) ;
#247 = VECTOR ( 'NONE', #432, 1000.000000000000000 ) ;
#248 = CARTESIAN_POINT ( 'NONE',  ( -5.499999999999997335, 0.000000000000000000, -50.00000000000000000 ) ) ;
#249 = ORIENTED_EDGE ( 'NONE', *, *, #380, .T. ) ;
#250 = ORIENTED_EDGE ( 'NONE', *, *, #75, .T. ) ;
#251 = CARTESIAN_POINT ( 'NONE',  ( 0.000000000000000000, 0.000000000000000000, -13.37258183287431379 ) ) ;
#252 = DIRECTION ( 'NONE',  ( 0.000000000000000000, 0.000000000000000000, 1.000000000000000000 ) ) ;
#253 = CARTESIAN_POINT ( 'NONE',  ( 5.500000000000000000, 7.862240281645218806E-16, 1.000000000000028644 ) ) ;
#254 = EDGE_CURVE ( 'NONE', #320, #191, #412, .T. ) ;
#255 = ORIENTED_EDGE ( 'NONE', *, *, #125, .F. ) ;
#256 = FACE_OUTER_BOUND ( 'NONE', #107, .T. ) ;
#257 = DIRECTION ( 'NONE',  ( 3.154042683594196107E-16, -1.000000000000000000, -0.000000000000000000 ) ) ;
#258 = ORIENTED_EDGE ( 'NONE', *, *, #119, .F. ) ;
#259 = AXIS2_PLACEMENT_3D ( 'NONE', #601, #536, #450 ) ;
#260 = DIRECTION ( 'NONE',  ( 0.8660254037844387076, 0.4999999999999998890, -0.000000000000000000 ) ) ;
#261 = DIRECTION ( 'NONE',  ( 1.000000000000000000, 0.000000000000000000, 0.000000000000000000 ) ) ;
#262 = DATE_TIME_ROLE ( 'classification_date' ) ;
#263 = ADVANCED_FACE ( 'NONE', ( #526 ), #475, .T. ) ;
#264 = DIRECTION ( 'NONE',  ( -1.000000000000000000, 0.000000000000000000, 0.000000000000000000 ) ) ;
#265 = DATE_TIME_ROLE ( 'creation_date' ) ;
#266 = CARTESIAN_POINT ( 'NONE',  ( -1.073017933617565811, 4.763139720814412392, -10.76638028895975197 ) ) ;
#267 = AXIS2_PLACEMENT_3D ( 'NONE', #389, #252, #525 ) ;
#268 = CARTESIAN_POINT ( 'NONE',  ( 5.116844698345214937, -0.6636444496554666506, -11.41718641259503642 ) ) ;
#269 = ADVANCED_FACE ( 'NONE', ( #39, #230 ), #378, .T. ) ;
#270 = AXIS2_PLACEMENT_3D ( 'NONE', #52, #245, #555 ) ;
#271 = APPLICATION_PROTOCOL_DEFINITION ( 'international standard', 'config_control_design', 1994, #566 ) ;
#272 = ORIENTED_EDGE ( 'NONE', *, *, #615, .T. ) ;
#273 = VECTOR ( 'NONE', #200, 1000.000000000000000 ) ;
#274 = EDGE_CURVE ( 'NONE', #31, #298, #285, .T. ) ;
#275 = DIRECTION ( 'NONE',  ( 1.000000000000000000, 0.000000000000000000, 0.000000000000000000 ) ) ;
#276 = CARTESIAN_POINT ( 'NONE',  ( 0.000000000000000000, 0.000000000000000000, -50.00000000000000000 ) ) ;
#277 = CARTESIAN_POINT ( 'NONE',  ( -5.408781297678858735, -0.1579954270207096778, -12.00194123812097935 ) ) ;
#278 = CARTESIAN_POINT ( 'NONE',  ( 3.655584601853011595, -3.194621179852962456, -10.71365568223458276 ) ) ;
#279 = CARTESIAN_POINT ( 'NONE',  ( 0.000000000000000000, 0.000000000000000000, -13.37258183287431379 ) ) ;
#280 = AXIS2_PLACEMENT_3D ( 'NONE', #337, #108, #530 ) ;
#281 = CC_DESIGN_PERSON_AND_ORGANIZATION_ASSIGNMENT ( #508, #362, ( #410 ) ) ;
#282 = VERTEX_POINT ( 'NONE', #385 ) ;
#283 = DIRECTION ( 'NONE',  ( -0.8660254037844387076, 0.4999999999999998335, 0.000000000000000000 ) ) ;
#284 =( NAMED_UNIT ( * ) PLANE_ANGLE_UNIT ( ) SI_UNIT ( $, .RADIAN. ) );
#285 = LINE ( 'NONE', #44, #26 ) ;
#286 = VERTEX_POINT ( 'NONE', #582 ) ;
#287 = CARTESIAN_POINT ( 'NONE',  ( 2.750000000000000000, 4.763139720814414169, 1.000000000000028644 ) ) ;
#288 = FACE_OUTER_BOUND ( 'NONE', #583, .T. ) ;
#289 = PERSON_AND_ORGANIZATION ( #165, #422 ) ;
#290 = DIRECTION ( 'NONE',  ( 1.000000000000000000, -1.365740544306508121E-16, 0.000000000000000000 ) ) ;
#291 = ORIENTED_EDGE ( 'NONE', *, *, #86, .F. ) ;
#292 = ORIENTED_EDGE ( 'NONE', *, *, #54, .F. ) ;
#293 = DIRECTION ( 'NONE',  ( 0.4999999999999997780, -0.8660254037844387076, 0.000000000000000000 ) ) ;
#294 = APPLICATION_PROTOCOL_DEFINITION ( 'international standard', 'config_control_design', 1994, #114 ) ;
#295 = CARTESIAN_POINT ( 'NONE',  ( -2.749999999999998224, 4.763139720814412392, 1.000000000000028644 ) ) ;
#296 = ORIENTED_EDGE ( 'NONE', *, *, #576, .T. ) ;
#297 = AXIS2_PLACEMENT_3D ( 'NONE', #121, #409, #264 ) ;
#298 = VERTEX_POINT ( 'NONE', #144 ) ;
#299 = CARTESIAN_POINT ( 'NONE',  ( 1.582580978803609402E-15, -5.763139720814412392, -40.19780099631149994 ) ) ;
#300 = AXIS2_PLACEMENT_3D ( 'NONE', #303, #206, #402 ) ;
#301 = CARTESIAN_POINT ( 'NONE',  ( 3.237297245831064263, 3.919116132646627282, -11.23682905512177577 ) ) ;
#302 = EDGE_LOOP ( 'NONE', ( #534, #59 ) ) ;
#303 = CARTESIAN_POINT ( 'NONE',  ( 3.153182604756094086E-15, 5.736860279185590272, -40.19780099631149994 ) ) ;
#304 = DIRECTION ( 'NONE',  ( 1.365740544306508121E-16, 1.000000000000000000, -0.000000000000000000 ) ) ;
#305 = CARTESIAN_POINT ( 'NONE',  ( 5.500000000000000000, 7.862240281645218806E-16, -50.00000000000000000 ) ) ;
#306 = EDGE_LOOP ( 'NONE', ( #155, #484, #599, #578, #154, #4 ) ) ;
#307 = LINE ( 'NONE', #94, #436 ) ;
#308 = LINE ( 'NONE', #305, #124 ) ;
#309 = EDGE_CURVE ( 'NONE', #282, #587, #338, .T. ) ;
#310 = CC_DESIGN_APPROVAL ( #317, ( #69 ) ) ;
#311 = FACE_OUTER_BOUND ( 'NONE', #437, .T. ) ;
#312 = ADVANCED_FACE ( 'NONE', ( #440 ), #548, .T. ) ;
#313 = CARTESIAN_POINT ( 'NONE',  ( -2.382236583075139080, 4.763139720814412392, -11.80199745697415104 ) ) ;
#314 = PERSON_AND_ORGANIZATION_ROLE ( 'design_supplier' ) ;
#315 = CARTESIAN_POINT ( 'NONE',  ( 1.074435415488795842, 4.763139720814411504, -10.76718460949444456 ) ) ;
#316 = CARTESIAN_POINT ( 'NONE',  ( 0.2781314224965948378, 4.763139720814413280, -10.50533767823031717 ) ) ;
#317 = APPROVAL ( #21, 'UNSPECIFIED' ) ;
#318 = CARTESIAN_POINT ( 'NONE',  ( -5.499999999999997335, 0.000000000000000000, 1.000000000000028644 ) ) ;
#319 = ORIENTED_EDGE ( 'NONE', *, *, #254, .F. ) ;
#320 = VERTEX_POINT ( 'NONE', #487 ) ;
#321 = LOCAL_TIME ( 14, 41, 14.00000000000000000, #456 ) ;
#322 = EDGE_CURVE ( 'NONE', #397, #518, #564, .T. ) ;
#323 = CARTESIAN_POINT ( 'NONE',  ( -2.382236583075135528, -4.763139720814414169, -11.80199745697415281 ) ) ;
#324 = VECTOR ( 'NONE', #111, 999.9999999999998863 ) ;
#325 = PLANE ( 'NONE',  #28 ) ;
#326 = CARTESIAN_POINT ( 'NONE',  ( -4.779444872884631934, -1.248038089818062968, -10.91121161740679213 ) ) ;
#327 = B_SPLINE_CURVE_WITH_KNOTS ( 'NONE', 3,
 ( #617, #619, #529, #146, #238, #569, #521, #134, #524, #180, #30, #419, #476, #42, #233, #226, #374, #336, #377, #429, #131, #519, #421, #383 ),
 .UNSPECIFIED., .F., .F.,
 ( 4, 2, 2, 2, 2, 2, 2, 2, 2, 2, 2, 4 ),
 ( 3.505767027434062557E-07, 0.0008268098458405358144, 0.001653269114978328253, 0.002479728384116120475, 0.002892958018685016803, 0.003306187653253913564, 0.003719417287822810326, 0.004132646922391706654, 0.004545876556960602548, 0.004959106191529498442, 0.005785565460667294567, 0.006612024729805089825 ),
 .UNSPECIFIED. ) ;
#328 = CARTESIAN_POINT ( 'NONE',  ( 0.2318062749786596322, 3.529074133740571651E-16, 0.000000000000000000 ) ) ;
#329 = CARTESIAN_POINT ( 'NONE',  ( -3.237297245831064263, -3.919116132646625505, -11.23682905512177044 ) ) ;
#330 = ORIENTED_EDGE ( 'NONE', *, *, #75, .F. ) ;
#331 = CARTESIAN_POINT ( 'NONE',  ( 5.500000000000000000, 7.862240281645218806E-16, -50.00000000000000000 ) ) ;
#332 = CARTESIAN_POINT ( 'NONE',  ( -4.190002780203886168, -2.268981742460839168, -10.50459045695470905 ) ) ;
#333 = LOCAL_TIME ( 14, 41, 14.00000000000000000, #466 ) ;
#334 = ADVANCED_FACE ( 'NONE', ( #152 ), #208, .T. ) ;
#335 = VERTEX_POINT ( 'NONE', #11 ) ;
#336 = CARTESIAN_POINT ( 'NONE',  ( -3.470555127115361849, 3.515101630996351201, -10.91121161740679923 ) ) ;
#337 = CARTESIAN_POINT ( 'NONE',  ( 0.000000000000000000, 0.2318062749786596322, 0.000000000000000000 ) ) ;
#338 = LINE ( 'NONE', #532, #512 ) ;
#339 = ORIENTED_EDGE ( 'NONE', *, *, #19, .T. ) ;
#340 = DIRECTION ( 'NONE',  ( 0.000000000000000000, -0.000000000000000000, 1.000000000000000000 ) ) ;
#341 = DIRECTION ( 'NONE',  ( -0.8660254037844388186, -0.4999999999999998335, 0.000000000000000000 ) ) ;
#342 = CARTESIAN_POINT ( 'NONE',  ( 2.750000000000001332, -4.763139720814411504, -50.00000000000000000 ) ) ;
#343 = CARTESIAN_POINT ( 'NONE',  ( 5.007038819695942777, 0.8538338104457494637, -11.22759881564811302 ) ) ;
#344 = ORIENTED_EDGE ( 'NONE', *, *, #224, .T. ) ;
#345 = EDGE_CURVE ( 'NONE', #63, #145, #103, .T. ) ;
#346 = ORIENTED_EDGE ( 'NONE', *, *, #499, .F. ) ;
#347 = LINE ( 'NONE', #595, #415 ) ;
#348 = CARTESIAN_POINT ( 'NONE',  ( 2.378927609459974946, -4.763139720814409728, -11.79861221001184468 ) ) ;
#349 = CARTESIAN_POINT ( 'NONE',  ( 4.594415398146987073, 1.568518540961450825, -10.71365568223458098 ) ) ;
#350 = ORIENTED_EDGE ( 'NONE', *, *, #79, .F. ) ;
#351 = VECTOR ( 'NONE', #460, 1000.000000000000000 ) ;
#352 = DIRECTION ( 'NONE',  ( -0.3960696342174735429, 0.000000000000000000, -0.9182204772552379213 ) ) ;
#353 = CYLINDRICAL_SURFACE ( 'NONE', #259, 1.000000000000000222 ) ;
#354 = PERSON_AND_ORGANIZATION ( #165, #422 ) ;
#355 = CARTESIAN_POINT ( 'NONE',  ( 1.582580978803609402E-15, -5.763139720814412392, -40.19780099631149994 ) ) ;
#356 = FACE_OUTER_BOUND ( 'NONE', #9, .T. ) ;
#357 = DIRECTION ( 'NONE',  ( 1.000000000000000000, -1.365740544306508121E-16, 0.000000000000000000 ) ) ;
#358 = COORDINATED_UNIVERSAL_TIME_OFFSET ( 1, 0, .AHEAD. ) ;
#359 = CARTESIAN_POINT ( 'NONE',  ( 5.313949452063440049, 0.3222490018021503810, -11.79744843602302140 ) ) ;
#360 = ADVANCED_FACE ( 'NONE', ( #60 ), #353, .T. ) ;
#361 = CARTESIAN_POINT ( 'NONE',  ( -0.1367627300887764852, 4.763139720814413280, -10.50502763766310643 ) ) ;
#362 = PERSON_AND_ORGANIZATION_ROLE ( 'classification_officer' ) ;
#363 = ADVANCED_FACE ( 'NONE', ( #580 ), #243, .T. ) ;
#364 = UNCERTAINTY_MEASURE_WITH_UNIT (LENGTH_MEASURE( 1.000000000000000082E-05 ), #148, 'distance_accuracy_value', 'NONE');
#365 = AXIS2_PLACEMENT_3D ( 'NONE', #239, #99, #357 ) ;
#366 = CARTESIAN_POINT ( 'NONE',  ( 0.5578015201988489880, 4.763139720814413280, -10.56491293012869725 ) ) ;
#367 = PERSON_AND_ORGANIZATION ( #165, #422 ) ;
#368 = AXIS2_PLACEMENT_3D ( 'NONE', #355, #184, #290 ) ;
#369 = CARTESIAN_POINT ( 'NONE',  ( 1.582580978803609402E-15, -5.763139720814412392, -40.19780099631149994 ) ) ;
#370 = B_SPLINE_CURVE_WITH_KNOTS ( 'NONE', 3,
 ( #228, #464, #379, #268, #93, #387, #579, #480, #624, #626, #82, #223, #186, #183, #630, #278, #89, #46, #573, #177, #472, #584, #535, #469 ),
 .UNSPECIFIED., .F., .F.,
 ( 4, 2, 2, 2, 2, 2, 2, 2, 2, 2, 2, 4 ),
 ( 3.505767027416942962E-07, 0.0008268098458405353807, 0.001653269114978329121, 0.002479728384116122644, 0.002892958018685019405, 0.003306187653253916166, 0.003719417287822813795, 0.004132646922391710990, 0.004545876556960607752, 0.004959106191529503646, 0.005785565460667298904, 0.006612024729805093294 ),
 .UNSPECIFIED. ) ;
#371 = CARTESIAN_POINT ( 'NONE',  ( 1.979732875457534735, 4.763139720814415057, -11.41356399015350576 ) ) ;
#372 = EDGE_CURVE ( 'NONE', #518, #453, #187, .T. ) ;
#373 = CARTESIAN_POINT ( 'NONE',  ( -4.837721938022773394, -1.147099252082802723, -10.98632237732552674 ) ) ;
#374 = CARTESIAN_POINT ( 'NONE',  ( -3.591966573844538768, 3.304810836640976301, -10.77503460561982784 ) ) ;
#375 = CIRCLE ( 'NONE', #473, 1.000000000000000222 ) ;
#376 = CARTESIAN_POINT ( 'NONE',  ( 1.000000000000001776, -5.763139720814412392, -40.19780099631149994 ) ) ;
#377 = CARTESIAN_POINT ( 'NONE',  ( -3.412278061977221277, 3.616040468731612556, -10.98632237732553207 ) ) ;
#378 = PLANE ( 'NONE',  #572 ) ;
#379 = CARTESIAN_POINT ( 'NONE',  ( 5.315175839253129197, -0.3201248368798577659, -11.80018235078181377 ) ) ;
#380 = EDGE_CURVE ( 'NONE', #444, #286, #55, .T. ) ;
#381 = CARTESIAN_POINT ( 'NONE',  ( -5.113035070439221563, -0.6702429187465759330, -11.41020459187397940 ) ) ;
#382 = EDGE_LOOP ( 'NONE', ( #258, #97, #106, #443 ) ) ;
#383 = CARTESIAN_POINT ( 'NONE',  ( -2.749999999999998224, 4.763139720814412392, -12.21341637568218452 ) ) ;
#384 = DIRECTION ( 'NONE',  ( 0.8660254037844388186, -0.4999999999999998335, 0.000000000000000000 ) ) ;
#385 = CARTESIAN_POINT ( 'NONE',  ( -0.2318062749786596322, 0.000000000000000000, 0.000000000000000000 ) ) ;
#386 = ORIENTED_EDGE ( 'NONE', *, *, #527, .F. ) ;
#387 = CARTESIAN_POINT ( 'NONE',  ( 4.787591037335513278, -1.233928519102328814, -10.91378681253685201 ) ) ;
#388 = CARTESIAN_POINT ( 'NONE',  ( 3.020197640216865042E-15, 4.763139720814413280, -40.19780099631149994 ) ) ;
#389 = CARTESIAN_POINT ( 'NONE',  ( 0.000000000000000000, 0.000000000000000000, 0.000000000000000000 ) ) ;
#390 = CARTESIAN_POINT ( 'NONE',  ( 4.658033426155458123, 1.458328884173439866, -10.77503460561982784 ) ) ;
#391 = EDGE_CURVE ( 'NONE', #244, #137, #347, .T. ) ;
#392 = ORIENTED_EDGE ( 'NONE', *, *, #380, .F. ) ;
#393 = ORIENTED_EDGE ( 'NONE', *, *, #499, .T. ) ;
#394 = DIRECTION ( 'NONE',  ( -3.154042683594195121E-16, 1.000000000000000000, -0.000000000000000000 ) ) ;
#395 = CALENDAR_DATE ( 2025, 1, 5 ) ;
#396 = CARTESIAN_POINT ( 'NONE',  ( 3.778584287568247380, 2.981579474879173741, -10.61742126249916041 ) ) ;
#397 = VERTEX_POINT ( 'NONE', #203 ) ;
#398 = ORIENTED_EDGE ( 'NONE', *, *, #33, .T. ) ;
#399 = CARTESIAN_POINT ( 'NONE',  ( 1.000000000000001776, -5.763139720814412392, -40.19780099631149994 ) ) ;
#400 = CARTESIAN_POINT ( 'NONE',  ( -1.073017933617563591, -4.763139720814411504, -10.76638028895975019 ) ) ;
#401 = CARTESIAN_POINT ( 'NONE',  ( 4.837721938022776946, 1.147099252082803389, -10.98632237732553740 ) ) ;
#402 = DIRECTION ( 'NONE',  ( 1.000000000000000000, 0.000000000000000000, 0.000000000000000000 ) ) ;
#403 = DIRECTION ( 'NONE',  ( 3.154042683594196107E-16, -1.000000000000000000, -0.000000000000000000 ) ) ;
#404 = CIRCLE ( 'NONE', #300, 1.000000000000000222 ) ;
#405 = CARTESIAN_POINT ( 'NONE',  ( 4.464285187384075648, 1.793910677602461812, -10.61265903350330575 ) ) ;
#406 = EDGE_LOOP ( 'NONE', ( #272, #344, #98, #160 ) ) ;
#407 = CARTESIAN_POINT ( 'NONE',  ( -2.749999999999998224, 4.763139720814412392, -12.21341637568218452 ) ) ;
#408 = PERSON_AND_ORGANIZATION ( #165, #422 ) ;
#409 = DIRECTION ( 'NONE',  ( 1.365740544306508121E-16, 1.000000000000000000, -0.000000000000000000 ) ) ;
#410 = SECURITY_CLASSIFICATION ( '', '', #451 ) ;
#411 = DIRECTION ( 'NONE',  ( -1.000000000000000000, 0.000000000000000000, 0.000000000000000000 ) ) ;
#412 = CIRCLE ( 'NONE', #171, 1.000000000000000222 ) ;
#413 = PLANE ( 'NONE',  #608 ) ;
#414 = B_SPLINE_CURVE_WITH_KNOTS ( 'NONE', 3,
 ( #32, #488, #348, #43, #590, #446, #542, #616, #581, #188, #1, #234, #513, #400, #537, #434, #48, #323, #12, #199 ),
 .UNSPECIFIED., .F., .F.,
 ( 4, 2, 2, 2, 2, 2, 2, 2, 2, 4 ),
 ( 0.03090355627670206620, 0.03172950206571104048, 0.03255544785472001129, 0.03338139364372898904, 0.03420733943273795985, 0.03462031232724244872, 0.03503328522174693760, 0.03585923101075590841, 0.03668517679976487922, 0.03751112258877385003 ),
 .UNSPECIFIED. ) ;
#415 = VECTOR ( 'NONE', #161, 1000.000000000000114 ) ;
#416 = ADVANCED_FACE ( 'NONE', ( #143 ), #157, .F. ) ;
#417 = EDGE_CURVE ( 'NONE', #397, #110, #307, .T. ) ;
#418 = DIRECTION ( 'NONE',  ( 1.365740544306508121E-16, 1.000000000000000000, -0.000000000000000000 ) ) ;
#419 = CARTESIAN_POINT ( 'NONE',  ( -4.059997219796107615, 2.494157978353575444, -10.50459045695470728 ) ) ;
#420 = DIRECTION ( 'NONE',  ( 1.000000000000000000, 3.154042683594195121E-16, 0.000000000000000000 ) ) ;
#421 = CARTESIAN_POINT ( 'NONE',  ( -2.841218702321134604, 4.605144293793703270, -12.00194123812098823 ) ) ;
#422 = ORGANIZATION ( 'UNSPECIFIED', 'UNSPECIFIED', '' ) ;
#423 = VECTOR ( 'NONE', #222, 1000.000000000000000 ) ;
#424 = LINE ( 'NONE', #621, #439 ) ;
#425 = CC_DESIGN_DATE_AND_TIME_ASSIGNMENT ( #209, #265, ( #594 ) ) ;
#426 = DIRECTION ( 'NONE',  ( -0.4999999999999998335, -0.8660254037844387076, 0.000000000000000000 ) ) ;
#427 = MANIFOLD_SOLID_BREP ( 'Boss.-Extru.1', #229 ) ;
#428 = DIRECTION ( 'NONE',  ( 3.154042683594195121E-16, -1.000000000000000000, 0.000000000000000000 ) ) ;
#429 = CARTESIAN_POINT ( 'NONE',  ( -3.242961180304053670, 3.909305910368663373, -11.22759881564810591 ) ) ;
#430 = DIRECTION ( 'NONE',  ( -1.000000000000000000, 0.000000000000000000, 0.000000000000000000 ) ) ;
#431 = ORIENTED_EDGE ( 'NONE', *, *, #274, .T. ) ;
#432 = DIRECTION ( 'NONE',  ( -0.000000000000000000, -0.000000000000000000, -1.000000000000000000 ) ) ;
#433 = CARTESIAN_POINT ( 'NONE',  ( 5.500000000000000000, 7.862240281645218806E-16, 1.000000000000028644 ) ) ;
#434 = CARTESIAN_POINT ( 'NONE',  ( -1.769614558738755061, -4.763139720814414169, -11.23205190193962011 ) ) ;
#435 = CARTESIAN_POINT ( 'NONE',  ( 3.462408962664484058, 3.529211201712086687, -10.91378681253685379 ) ) ;
#436 = VECTOR ( 'NONE', #304, 1000.000000000000000 ) ;
#437 = EDGE_LOOP ( 'NONE', ( #5, #102, #392, #603 ) ) ;
#438 = EDGE_LOOP ( 'NONE', ( #495, #14, #197, #339 ) ) ;
#439 = VECTOR ( 'NONE', #34, 1000.000000000000000 ) ;
#440 = FACE_OUTER_BOUND ( 'NONE', #551, .T. ) ;
#441 = APPROVAL_ROLE ( '' ) ;
#442 = LINE ( 'NONE', #253, #273 ) ;
#443 = ORIENTED_EDGE ( 'NONE', *, *, #417, .F. ) ;
#444 = VERTEX_POINT ( 'NONE', #497 ) ;
#445 = CARTESIAN_POINT ( 'NONE',  ( 1.719155033234260312E-15, -4.763139720814412392, -40.19780099631149994 ) ) ;
#446 = CARTESIAN_POINT ( 'NONE',  ( 1.318692951223358278, -4.763139720814412392, -10.90968448910356514 ) ) ;
#447 = PLANE ( 'NONE',  #368 ) ;
#448 = PRODUCT_RELATED_PRODUCT_CATEGORY ( 'detail', '', ( #122 ) ) ;
#449 = ORIENTED_EDGE ( 'NONE', *, *, #567, .T. ) ;
#450 = DIRECTION ( 'NONE',  ( -1.000000000000000000, 0.000000000000000000, 0.000000000000000000 ) ) ;
#451 = SECURITY_CLASSIFICATION_LEVEL ( 'unclassified' ) ;
#452 = CARTESIAN_POINT ( 'NONE',  ( 5.500000000000000000, 7.862240281645218806E-16, -12.21341637568218630 ) ) ;
#453 = VERTEX_POINT ( 'NONE', #68 ) ;
#454 = ADVANCED_FACE ( 'NONE', ( #256 ), #15, .F. ) ;
#455 = CARTESIAN_POINT ( 'NONE',  ( 5.999999999999997335, 7.347880794884116778E-16, -13.37258183287431379 ) ) ;
#456 = COORDINATED_UNIVERSAL_TIME_OFFSET ( 1, 0, .AHEAD. ) ;
#457 = AXIS2_PLACEMENT_3D ( 'NONE', #388, #403, #147 ) ;
#458 = DIRECTION ( 'NONE',  ( -1.000000000000000000, -3.154042683594196107E-16, 0.000000000000000000 ) ) ;
#459 = APPROVAL_ROLE ( '' ) ;
#460 = DIRECTION ( 'NONE',  ( 0.4999999999999999445, -0.8660254037844387076, 0.000000000000000000 ) ) ;
#461 = ADVANCED_FACE ( 'NONE', ( #288 ), #552, .T. ) ;
#462 = CARTESIAN_POINT ( 'NONE',  ( 1.770330354854976251, 4.763139720814414169, -11.23264782838363018 ) ) ;
#463 = CIRCLE ( 'NONE', #517, 1.000000000000000222 ) ;
#464 = CARTESIAN_POINT ( 'NONE',  ( 5.409261107546172731, -0.1571643719525570304, -12.00305359616948842 ) ) ;
#465 = ADVANCED_FACE ( 'NONE', ( #47 ), #631, .T. ) ;
#466 = COORDINATED_UNIVERSAL_TIME_OFFSET ( 1, 0, .AHEAD. ) ;
#467 = EDGE_LOOP ( 'NONE', ( #546, #140, #18, #592, #292, #629 ) ) ;
#468 = CARTESIAN_POINT ( 'NONE',  ( 1.582580978803609402E-15, -5.763139720814412392, -40.19780099631149994 ) ) ;
#469 = CARTESIAN_POINT ( 'NONE',  ( 2.750000000000001332, -4.763139720814411504, -12.21341637568218452 ) ) ;
#470 = DIRECTION ( 'NONE',  ( -1.365740544306508121E-16, -1.000000000000000000, 0.000000000000000000 ) ) ;
#471 = EDGE_CURVE ( 'NONE', #286, #444, #570, .T. ) ;
#472 = CARTESIAN_POINT ( 'NONE',  ( 3.136964929560775772, -4.092896802067834905, -11.41020459187398295 ) ) ;
#473 = AXIS2_PLACEMENT_3D ( 'NONE', #25, #73, #261 ) ;
#474 = DIRECTION ( 'NONE',  ( 1.000000000000000000, 0.000000000000000000, 0.000000000000000000 ) ) ;
#475 = CONICAL_SURFACE ( 'NONE', #70, 5.999999999999997335, 0.4072324579130551792 ) ;
#476 = CARTESIAN_POINT ( 'NONE',  ( -3.989747645744661675, 2.615833809820755196, -10.51837300202537229 ) ) ;
#477 = DATE_AND_TIME ( #7, #333 ) ;
#478 = CARTESIAN_POINT ( 'NONE',  ( -3.778584287568244271, -2.981579474879171965, -10.61742126249915508 ) ) ;
#479 = ORIENTED_EDGE ( 'NONE', *, *, #164, .T. ) ;
#480 = CARTESIAN_POINT ( 'NONE',  ( 4.471415712431752176, -1.781560245935241094, -10.61742126249916041 ) ) ;
#481 = DIRECTION ( 'NONE',  ( -0.4999999999999998890, 0.8660254037844387076, 0.000000000000000000 ) ) ;
#482 = PERSON_AND_ORGANIZATION_ROLE ( 'creator' ) ;
#483 = CARTESIAN_POINT ( 'NONE',  ( -2.840738892453826381, -4.605975348861854890, -12.00305359616948309 ) ) ;
#484 = ORIENTED_EDGE ( 'NONE', *, *, #127, .F. ) ;
#485 = ADVANCED_FACE ( 'NONE', ( #311 ), #20, .T. ) ;
#486 = EDGE_LOOP ( 'NONE', ( #249, #67 ) ) ;
#487 = CARTESIAN_POINT ( 'NONE',  ( -0.9999999999999986677, -5.763139720814412392, -40.19780099631149994 ) ) ;
#488 = CARTESIAN_POINT ( 'NONE',  ( 2.569005130711523588, -4.763139720814411504, -12.00361337527398042 ) ) ;
#489 = DIRECTION ( 'NONE',  ( -0.000000000000000000, -0.000000000000000000, 1.000000000000000000 ) ) ;
#490 = ORIENTED_EDGE ( 'NONE', *, *, #119, .T. ) ;
#491 = ORIENTED_EDGE ( 'NONE', *, *, #19, .F. ) ;
#492 = DIRECTION ( 'NONE',  ( -1.000000000000000000, 0.000000000000000000, 0.000000000000000000 ) ) ;
#493 = MECHANICAL_CONTEXT ( 'NONE', #114, 'mechanical' ) ;
#494 = CARTESIAN_POINT ( 'NONE',  ( 3.846100729795638440, 2.864637566595042095, -10.57609923580111300 ) ) ;
#495 = ORIENTED_EDGE ( 'NONE', *, *, #372, .F. ) ;
#496 = ORIENTED_EDGE ( 'NONE', *, *, #224, .F. ) ;
#497 = CARTESIAN_POINT ( 'NONE',  ( -0.9999999999999985567, -4.763139720814412392, -40.19780099631149994 ) ) ;
#498 = DIRECTION ( 'NONE',  ( 0.4999999999999998890, 0.8660254037844387076, 0.000000000000000000 ) ) ;
#499 = EDGE_CURVE ( 'NONE', #101, #45, #172, .T. ) ;
#500 = VERTEX_POINT ( 'NONE', #215 ) ;
#501 = CARTESIAN_POINT ( 'NONE',  ( 2.750000000000000000, 4.763139720814414169, 1.000000000000028644 ) ) ;
#502 = APPROVAL_STATUS ( 'not_yet_approved' ) ;
#503 = AXIS2_PLACEMENT_3D ( 'NONE', #501, #260, #481 ) ;
#504 = DIRECTION ( 'NONE',  ( 1.000000000000000000, 3.154042683594196107E-16, 0.000000000000000000 ) ) ;
#505 = APPROVAL_DATE_TIME ( #213, #317 ) ;
#506 = ADVANCED_FACE ( 'NONE', ( #557 ), #509, .T. ) ;
#507 = CARTESIAN_POINT ( 'NONE',  ( -0.6845576749195066979, 4.763139720814412392, -10.61466647666432550 ) ) ;
#508 = PERSON_AND_ORGANIZATION ( #165, #422 ) ;
#509 = CYLINDRICAL_SURFACE ( 'NONE', #515, 1.000000000000000222 ) ;
#510 = CC_DESIGN_APPROVAL ( #29, ( #594 ) ) ;
#511 = CARTESIAN_POINT ( 'NONE',  ( -2.570011250222502319, 4.763139720814413280, -12.00477963425690930 ) ) ;
#512 = VECTOR ( 'NONE', #352, 999.9999999999998863 ) ;
#513 = CARTESIAN_POINT ( 'NONE',  ( -0.6845576749195073640, -4.763139720814413280, -10.61466647666432728 ) ) ;
#514 = ORIENTED_EDGE ( 'NONE', *, *, #232, .F. ) ;
#515 = AXIS2_PLACEMENT_3D ( 'NONE', #369, #117, #411 ) ;
#516 = CARTESIAN_POINT ( 'NONE',  ( -2.749999999999998224, -4.763139720814413280, -50.00000000000000000 ) ) ;
#517 = AXIS2_PLACEMENT_3D ( 'NONE', #100, #257, #159 ) ;
#518 = VERTEX_POINT ( 'NONE', #560 ) ;
#519 = CARTESIAN_POINT ( 'NONE',  ( -2.936050547936556843, 4.440890719012264398, -11.79744843602302318 ) ) ;
#520 = LINE ( 'NONE', #318, #217 ) ;
#521 = CARTESIAN_POINT ( 'NONE',  ( -4.665479159646052310, 1.445432495468109702, -10.77048107766756146 ) ) ;
#522 = CARTESIAN_POINT ( 'NONE',  ( -4.397591985467161457, -1.909426691842002866, -10.57270005857389705 ) ) ;
#523 = B_SPLINE_CURVE_WITH_KNOTS ( 'NONE', 3,
 ( #38, #149, #17, #602, #301, #435, #8, #396, #494, #591, #163, #109, #554, #3, #405, #349, #390, #210, #401, #343, #549, #359, #597, #113 ),
 .UNSPECIFIED., .F., .F.,
 ( 4, 2, 2, 2, 2, 2, 2, 2, 2, 2, 2, 4 ),
 ( 3.505767027413654357E-07, 0.0008268098458405347302, 0.001653269114978328253, 0.002479728384116120041, 0.002892958018685017237, 0.003306187653253912697, 0.003719417287822809459, 0.004132646922391706654, 0.004545876556960602548, 0.004959106191529499309, 0.005785565460667294567, 0.006612024729805091559 ),
 .UNSPECIFIED. ) ;
#524 = CARTESIAN_POINT ( 'NONE',  ( -4.403899270204358452, 1.898502154219374294, -10.57609923580110589 ) ) ;
#525 = DIRECTION ( 'NONE',  ( 1.000000000000000000, 0.000000000000000000, 0.000000000000000000 ) ) ;
#526 = FACE_OUTER_BOUND ( 'NONE', #306, .T. ) ;
#527 = EDGE_CURVE ( 'NONE', #453, #110, #375, .T. ) ;
#528 = ORIENTED_EDGE ( 'NONE', *, *, #127, .T. ) ;
#529 = CARTESIAN_POINT ( 'NONE',  ( -5.315175839253125645, 0.3201248368798598753, -11.80018235078180844 ) ) ;
#530 = DIRECTION ( 'NONE',  ( -1.000000000000000000, 0.000000000000000000, -0.000000000000000000 ) ) ;
#531 = APPROVAL_STATUS ( 'not_yet_approved' ) ;
#532 = CARTESIAN_POINT ( 'NONE',  ( -5.999999999999997335, 0.000000000000000000, -13.37258183287431379 ) ) ;
#533 = ADVANCED_FACE ( 'NONE', ( #609, #612 ), #413, .T. ) ;
#534 = ORIENTED_EDGE ( 'NONE', *, *, #254, .T. ) ;
#535 = CARTESIAN_POINT ( 'NONE',  ( 2.841218702321137712, -4.605144293793703270, -12.00194123812098645 ) ) ;
#536 = DIRECTION ( 'NONE',  ( 1.365740544306508121E-16, 1.000000000000000000, -0.000000000000000000 ) ) ;
#537 = CARTESIAN_POINT ( 'NONE',  ( -1.317629577489463300, -4.763139720814412392, -10.90900847285569952 ) ) ;
#538 = LINE ( 'NONE', #153, #80 ) ;
#539 = ORIENTED_EDGE ( 'NONE', *, *, #471, .F. ) ;
#540 = ORIENTED_EDGE ( 'NONE', *, *, #232, .T. ) ;
#541 = DIRECTION ( 'NONE',  ( -1.000000000000000000, 0.000000000000000000, 0.000000000000000000 ) ) ;
#542 = CARTESIAN_POINT ( 'NONE',  ( 1.074435415488798951, -4.763139720814412392, -10.76718460949444633 ) ) ;
#543 = DIRECTION ( 'NONE',  ( -0.4999999999999998335, -0.8660254037844387076, 0.000000000000000000 ) ) ;
#544 = APPROVAL_PERSON_ORGANIZATION ( #553, #623, #116 ) ;
#545 = ORIENTED_EDGE ( 'NONE', *, *, #391, .T. ) ;
#546 = ORIENTED_EDGE ( 'NONE', *, *, #237, .F. ) ;
#547 = VECTOR ( 'NONE', #139, 1000.000000000000000 ) ;
#548 = PLANE ( 'NONE',  #598 ) ;
#549 = CARTESIAN_POINT ( 'NONE',  ( 5.113035070439222451, 0.6702429187465770433, -11.41020459187398295 ) ) ;
#550 = CC_DESIGN_PERSON_AND_ORGANIZATION_ASSIGNMENT ( #289, #482, ( #594 ) ) ;
#551 = EDGE_LOOP ( 'NONE', ( #398, #431, #291, #51 ) ) ;
#552 = PLANE ( 'NONE',  #503 ) ;
#553 = PERSON_AND_ORGANIZATION ( #165, #422 ) ;
#554 = CARTESIAN_POINT ( 'NONE',  ( 4.260252354255338325, 2.147305910993660749, -10.51837300202537939 ) ) ;
#555 = DIRECTION ( 'NONE',  ( 1.000000000000000000, 0.000000000000000000, 0.000000000000000000 ) ) ;
#556 = COORDINATED_UNIVERSAL_TIME_OFFSET ( 1, 0, .AHEAD. ) ;
#557 = FACE_OUTER_BOUND ( 'NONE', #382, .T. ) ;
#558 = CALENDAR_DATE ( 2025, 1, 5 ) ;
#559 = DIRECTION ( 'NONE',  ( -3.154042683594196107E-16, 1.000000000000000000, 0.000000000000000000 ) ) ;
#560 = CARTESIAN_POINT ( 'NONE',  ( 1.000000000000003331, 4.763139720814413280, -40.19780099631149994 ) ) ;
#561 = CC_DESIGN_DATE_AND_TIME_ASSIGNMENT ( #158, #262, ( #410 ) ) ;
#562 = LINE ( 'NONE', #182, #547 ) ;
#563 = PRODUCT_DEFINITION_SHAPE ( 'NONE', 'NONE',  #594 ) ;
#564 = CIRCLE ( 'NONE', #457, 1.000000000000000222 ) ;
#565 = EDGE_CURVE ( 'NONE', #10, #500, #173, .T. ) ;
#566 = APPLICATION_CONTEXT ( 'configuration controlled 3d designs of mechanical parts and assemblies' ) ;
#567 = EDGE_CURVE ( 'NONE', #335, #101, #218, .T. ) ;
#568 = EDGE_LOOP ( 'NONE', ( #202, #490 ) ) ;
#569 = CARTESIAN_POINT ( 'NONE',  ( -4.787591037335512389, 1.233928519102329480, -10.91378681253684668 ) ) ;
#570 = CIRCLE ( 'NONE', #270, 1.000000000000000222 ) ;
#571 = CARTESIAN_POINT ( 'NONE',  ( 1.582580978803609402E-15, -5.763139720814412392, -40.19780099631149994 ) ) ;
#572 = AXIS2_PLACEMENT_3D ( 'NONE', #136, #428, #420 ) ;
#573 = CARTESIAN_POINT ( 'NONE',  ( 3.412278061977224386, -3.616040468731609003, -10.98632237732553385 ) ) ;
#574 = DIRECTION ( 'NONE',  ( -0.000000000000000000, -0.000000000000000000, 1.000000000000000000 ) ) ;
#575 = FACE_OUTER_BOUND ( 'NONE', #58, .T. ) ;
#576 = EDGE_CURVE ( 'NONE', #298, #244, #71, .T. ) ;
#577 = CARTESIAN_POINT ( 'NONE',  ( -3.982952713399506628, -2.627602977876554835, -10.52023925726412834 ) ) ;
#578 = ORIENTED_EDGE ( 'NONE', *, *, #189, .F. ) ;
#579 = CARTESIAN_POINT ( 'NONE',  ( 4.665479159646054086, -1.445432495468109479, -10.77048107766756857 ) ) ;
#580 = FACE_OUTER_BOUND ( 'NONE', #467, .T. ) ;
#581 = CARTESIAN_POINT ( 'NONE',  ( 0.2781314224965912296, -4.763139720814412392, -10.50533767823032072 ) ) ;
#582 = CARTESIAN_POINT ( 'NONE',  ( 1.000000000000001998, -4.763139720814412392, -40.19780099631149994 ) ) ;
#583 = EDGE_LOOP ( 'NONE', ( #211, #479, #346, #330 ) ) ;
#584 = CARTESIAN_POINT ( 'NONE',  ( 2.936050547936559951, -4.440890719012261734, -11.79744843602302140 ) ) ;
#585 = DIRECTION ( 'NONE',  ( 1.365740544306508121E-16, 1.000000000000000000, -0.000000000000000000 ) ) ;
#586 = DIRECTION ( 'NONE',  ( -0.000000000000000000, -0.000000000000000000, -1.000000000000000000 ) ) ;
#587 = VERTEX_POINT ( 'NONE', #627 ) ;
#588 = ORIENTED_EDGE ( 'NONE', *, *, #86, .T. ) ;
#589 = DIRECTION ( 'NONE',  ( 1.000000000000000000, 0.000000000000000000, 0.000000000000000000 ) ) ;
#590 = CARTESIAN_POINT ( 'NONE',  ( 1.770330354854977806, -4.763139720814411504, -11.23264782838362486 ) ) ;
#591 = CARTESIAN_POINT ( 'NONE',  ( 3.982952713399509292, 2.627602977876554391, -10.52023925726413545 ) ) ;
#592 = ORIENTED_EDGE ( 'NONE', *, *, #565, .F. ) ;
#593 = CARTESIAN_POINT ( 'NONE',  ( -2.749999999999998224, 4.763139720814412392, -12.21341637568218452 ) ) ;
#594 = PRODUCT_DEFINITION ( 'UNKNOWN', '', #69, #176 ) ;
#595 = CARTESIAN_POINT ( 'NONE',  ( -2.749999999999998224, -4.763139720814413280, -50.00000000000000000 ) ) ;
#596 = LOCAL_TIME ( 14, 41, 14.00000000000000000, #358 ) ;
#597 = CARTESIAN_POINT ( 'NONE',  ( 5.408781297678863176, 0.1579954270207089007, -12.00194123812098645 ) ) ;
#598 = AXIS2_PLACEMENT_3D ( 'NONE', #433, #384, #65 ) ;
#599 = ORIENTED_EDGE ( 'NONE', *, *, #309, .T. ) ;
#600 = VECTOR ( 'NONE', #586, 1000.000000000000000 ) ;
#601 = CARTESIAN_POINT ( 'NONE',  ( 1.582580978803609402E-15, -5.763139720814412392, -40.19780099631149994 ) ) ;
#602 = CARTESIAN_POINT ( 'NONE',  ( 3.133155301654783731, 4.099495271158945187, -11.41718641259503642 ) ) ;
#603 = ORIENTED_EDGE ( 'NONE', *, *, #194, .F. ) ;
#604 = CARTESIAN_POINT ( 'NONE',  ( -1.769614558738757060, 4.763139720814413280, -11.23205190193961833 ) ) ;
#605 = PERSON_AND_ORGANIZATION_ROLE ( 'creator' ) ;
#606 = CARTESIAN_POINT ( 'NONE',  ( -1.981671858374315587, 4.763139720814411504, -11.41524324394047873 ) ) ;
#607 = EDGE_CURVE ( 'NONE', #191, #286, #61, .T. ) ;
#608 = AXIS2_PLACEMENT_3D ( 'NONE', #174, #559, #458 ) ;
#609 = FACE_BOUND ( 'NONE', #568, .T. ) ;
#610 = AXIS2_PLACEMENT_3D ( 'NONE', #299, #585, #541 ) ;
#611 = CIRCLE ( 'NONE', #40, 0.2318062749786596322 ) ;
#612 = FACE_OUTER_BOUND ( 'NONE', #64, .T. ) ;
#613 = CARTESIAN_POINT ( 'NONE',  ( -4.594415398146982632, -1.568518540961452379, -10.71365568223457743 ) ) ;
#614 = CC_DESIGN_PERSON_AND_ORGANIZATION_ASSIGNMENT ( #408, #314, ( #69 ) ) ;
#615 = EDGE_CURVE ( 'NONE', #31, #92, #414, .T. ) ;
#616 = CARTESIAN_POINT ( 'NONE',  ( 0.5578015201988518745, -4.763139720814411504, -10.56491293012869548 ) ) ;
#617 = CARTESIAN_POINT ( 'NONE',  ( -5.499999999999997335, 6.744103781326492671E-17, -12.21341637568217919 ) ) ;
#618 = CARTESIAN_POINT ( 'NONE',  ( -3.462408962664484058, -3.529211201712084911, -10.91378681253685023 ) ) ;
#619 = CARTESIAN_POINT ( 'NONE',  ( -5.409261107546170955, 0.1571643719525585015, -12.00305359616948309 ) ) ;
#620 = VECTOR ( 'NONE', #198, 1000.000000000000000 ) ;
#621 = CARTESIAN_POINT ( 'NONE',  ( -0.9999999999999986677, -5.763139720814412392, -40.19780099631149994 ) ) ;
#622 = CIRCLE ( 'NONE', #132, 0.2318062749786596322 ) ;
#623 = APPROVAL ( #502, 'UNSPECIFIED' ) ;
#624 = CARTESIAN_POINT ( 'NONE',  ( 4.403899270204362892, -1.898502154219372740, -10.57609923580110944 ) ) ;
#625 = CARTESIAN_POINT ( 'NONE',  ( -2.934824160746869470, -4.443014883934553794, -11.80018235078181021 ) ) ;
#626 = CARTESIAN_POINT ( 'NONE',  ( 4.267047286600491596, -2.135536742937860222, -10.52023925726413367 ) ) ;
#627 = CARTESIAN_POINT ( 'NONE',  ( -5.499999999999997335, 6.744103781326492671E-17, -12.21341637568217919 ) ) ;
#628 = DIRECTION ( 'NONE',  ( -0.000000000000000000, -0.000000000000000000, -1.000000000000000000 ) ) ;
#629 = ORIENTED_EDGE ( 'NONE', *, *, #309, .F. ) ;
#630 = CARTESIAN_POINT ( 'NONE',  ( 3.785714812615924796, -2.969229043211952135, -10.61265903350330397 ) ) ;
#631 = PLANE ( 'NONE',  #179 ) ;
ENDSEC;
END-ISO-10303-21;
