ISO-10303-21;
HEADER;
FILE_DESCRIPTION (( 'STEP AP203' ),
    '1' );
FILE_NAME ('H1_Défaut_sldprt.STEP',
    '2025-05-01T13:41:19',
    ( '' ),
    ( '' ),
    'SwSTEP 2.0',
    'SolidWorks 2022',
    '' );
FILE_SCHEMA (( 'CONFIG_CONTROL_DESIGN' ));
ENDSEC;

DATA;
#1 = ORIENTED_EDGE ( 'NONE', *, *, #200, .F. ) ;
#2 = EDGE_CURVE ( 'NONE', #21, #1000, #1044, .T. ) ;
#3 = CARTESIAN_POINT ( 'NONE',  ( -16.25915574283120080, -2.579967435894637617, -2.309401076758505589 ) ) ;
#4 = DIRECTION ( 'NONE',  ( 1.051620219116011716E-16, -0.8660254037844388186, 0.4999999999999996114 ) ) ;
#5 = EDGE_LOOP ( 'NONE', ( #567, #265, #494, #988 ) ) ;
#6 = EDGE_CURVE ( 'NONE', #1052, #1000, #92, .T. ) ;
#7 = FACE_OUTER_BOUND ( 'NONE', #429, .T. ) ;
#8 = DIRECTION ( 'NONE',  ( 0.9486832980505137680, -0.3162277660168382187, 3.872673214540392245E-17 ) ) ;
#9 = AXIS2_PLACEMENT_3D ( 'NONE', #372, #366, #691 ) ;
#10 = CIRCLE ( 'NONE', #111, 5.112500000000001599 ) ;
#11 = AXIS2_PLACEMENT_3D ( 'NONE', #690, #371, #862 ) ;
#12 = ORIENTED_EDGE ( 'NONE', *, *, #179, .T. ) ;
#13 = VECTOR ( 'NONE', #285, 1000.000000000000000 ) ;
#14 = DIRECTION ( 'NONE',  ( 0.000000000000000000, 0.8660254037844387076, -0.4999999999999998890 ) ) ;
#15 = FACE_OUTER_BOUND ( 'NONE', #760, .T. ) ;
#16 = ADVANCED_FACE ( 'NONE', ( #558, #645 ), #83, .F. ) ;
#17 = EDGE_LOOP ( 'NONE', ( #324, #570 ) ) ;
#18 = PERSON_AND_ORGANIZATION_ROLE ( 'classification_officer' ) ;
#19 = FACE_OUTER_BOUND ( 'NONE', #947, .T. ) ;
#20 = DIRECTION ( 'NONE',  ( 1.000000000000000000, 1.214306433183764966E-16, 0.000000000000000000 ) ) ;
#21 = VERTEX_POINT ( 'NONE', #334 ) ;
#22 = COORDINATED_UNIVERSAL_TIME_OFFSET ( 1, 0, .AHEAD. ) ;
#23 = LINE ( 'NONE', #349, #958 ) ;
#24 = CARTESIAN_POINT ( 'NONE',  ( 21.24084425716880276, -6.579967435894634065, 0.000000000000000000 ) ) ;
#25 = ADVANCED_FACE ( 'NONE', ( #650 ), #973, .T. ) ;
#26 = ORIENTED_EDGE ( 'NONE', *, *, #462, .T. ) ;
#27 = AXIS2_PLACEMENT_3D ( 'NONE', #585, #1008, #177 ) ;
#28 = VECTOR ( 'NONE', #568, 1000.000000000000000 ) ;
#29 = CIRCLE ( 'NONE', #921, 3.000000000000000000 ) ;
#30 = ORGANIZATION ( 'UNSPECIFIED', 'UNSPECIFIED', '' ) ;
#31 = ORIENTED_EDGE ( 'NONE', *, *, #771, .F. ) ;
#32 = CIRCLE ( 'NONE', #241, 2.999999999999995559 ) ;
#33 = APPROVAL_ROLE ( '' ) ;
#34 = CARTESIAN_POINT ( 'NONE',  ( 4.740844257168800979, -6.579967435894635841, 0.000000000000000000 ) ) ;
#35 = DIRECTION ( 'NONE',  ( 1.000000000000000000, 0.000000000000000000, 0.000000000000000000 ) ) ;
#36 = EDGE_LOOP ( 'NONE', ( #681, #472, #220, #1017 ) ) ;
#37 = VERTEX_POINT ( 'NONE', #167 ) ;
#38 = EDGE_CURVE ( 'NONE', #796, #248, #1053, .T. ) ;
#39 = CARTESIAN_POINT ( 'NONE',  ( -12.25915574283120080, -2.579967435894637617, -2.816839872632169856E-16 ) ) ;
#40 = DIRECTION ( 'NONE',  ( 1.000000000000000000, 1.214306433183764966E-16, 0.000000000000000000 ) ) ;
#41 = ORIENTED_EDGE ( 'NONE', *, *, #269, .F. ) ;
#42 = COORDINATED_UNIVERSAL_TIME_OFFSET ( 1, 0, .AHEAD. ) ;
#43 = CARTESIAN_POINT ( 'NONE',  ( 21.24084425716880276, -6.579967435894633176, -1.500000000000003775 ) ) ;
#44 = FACE_OUTER_BOUND ( 'NONE', #693, .T. ) ;
#45 = DIRECTION ( 'NONE',  ( 0.000000000000000000, -1.000000000000000000, 0.000000000000000000 ) ) ;
#46 = ORIENTED_EDGE ( 'NONE', *, *, #376, .T. ) ;
#47 = LINE ( 'NONE', #199, #807 ) ;
#48 = VECTOR ( 'NONE', #803, 1000.000000000000000 ) ;
#49 = LINE ( 'NONE', #125, #136 ) ;
#50 = DIRECTION ( 'NONE',  ( 1.000000000000000000, 1.214306433183764966E-16, -0.000000000000000000 ) ) ;
#51 = CARTESIAN_POINT ( 'NONE',  ( -16.25915574283120080, -2.329967435894638506, 2.165063509461098157 ) ) ;
#52 = ORIENTED_EDGE ( 'NONE', *, *, #856, .T. ) ;
#53 = CARTESIAN_POINT ( 'NONE',  ( -12.25915574283120080, -6.579967435894636729, -4.618802153517009401 ) ) ;
#54 = PRODUCT_DEFINITION ( 'UNKNOWN', '', #744, #999 ) ;
#55 = CARTESIAN_POINT ( 'NONE',  ( -12.25915574283120080, -10.57996743589464117, 2.309401076758503812 ) ) ;
#56 = VERTEX_POINT ( 'NONE', #154 ) ;
#57 = ADVANCED_FACE ( 'NONE', ( #725 ), #983, .T. ) ;
#58 = PLANE ( 'NONE',  #135 ) ;
#59 = DIRECTION ( 'NONE',  ( -1.000000000000000000, 1.696551076749932839E-16, 0.000000000000000000 ) ) ;
#60 = EDGE_CURVE ( 'NONE', #700, #682, #477, .T. ) ;
#61 = CARTESIAN_POINT ( 'NONE',  ( 21.24084425716880276, -6.579967435894634065, 0.000000000000000000 ) ) ;
#62 = ORIENTED_EDGE ( 'NONE', *, *, #701, .T. ) ;
#63 = EDGE_LOOP ( 'NONE', ( #160, #216, #648, #596, #209, #315 ) ) ;
#64 = VECTOR ( 'NONE', #506, 1000.000000000000000 ) ;
#65 = CIRCLE ( 'NONE', #439, 2.999999999999997335 ) ;
#66 = AXIS2_PLACEMENT_3D ( 'NONE', #378, #868, #702 ) ;
#67 = DIRECTION ( 'NONE',  ( 1.000000000000000000, 1.214306433183764966E-16, 0.000000000000000000 ) ) ;
#68 = AXIS2_PLACEMENT_3D ( 'NONE', #533, #866, #129 ) ;
#69 = AXIS2_PLACEMENT_3D ( 'NONE', #497, #579, #590 ) ;
#70 = FACE_OUTER_BOUND ( 'NONE', #872, .T. ) ;
#71 = DIRECTION ( 'NONE',  ( -1.000000000000000000, -1.214306433183764966E-16, -0.000000000000000000 ) ) ;
#72 = EDGE_LOOP ( 'NONE', ( #838, #769, #604, #750, #680 ) ) ;
#73 = EDGE_LOOP ( 'NONE', ( #446, #163, #549, #149, #1 ) ) ;
#74 = PLANE ( 'NONE',  #992 ) ;
#75 = CARTESIAN_POINT ( 'NONE',  ( 17.24084425716879920, -6.579967435894634953, 0.000000000000000000 ) ) ;
#76 = CARTESIAN_POINT ( 'NONE',  ( -28.75915574283120080, -6.579967435894639394, 0.000000000000000000 ) ) ;
#77 = EDGE_CURVE ( 'NONE', #831, #416, #627, .T. ) ;
#78 = ORIENTED_EDGE ( 'NONE', *, *, #1051, .F. ) ;
#79 = LINE ( 'NONE', #571, #906 ) ;
#80 = DIRECTION ( 'NONE',  ( 0.000000000000000000, -1.000000000000000000, 0.000000000000000000 ) ) ;
#81 = ORIENTED_EDGE ( 'NONE', *, *, #856, .F. ) ;
#82 = VECTOR ( 'NONE', #247, 1000.000000000000000 ) ;
#83 = PLANE ( 'NONE',  #715 ) ;
#84 = CARTESIAN_POINT ( 'NONE',  ( -33.64665574283120719, -6.579967435894639394, 0.000000000000000000 ) ) ;
#85 = AXIS2_PLACEMENT_3D ( 'NONE', #738, #742, #261 ) ;
#86 = ORIENTED_EDGE ( 'NONE', *, *, #133, .T. ) ;
#87 = ADVANCED_FACE ( 'NONE', ( #243 ), #991, .T. ) ;
#88 = DIRECTION ( 'NONE',  ( -1.000000000000000000, -1.214306433183764966E-16, -0.000000000000000000 ) ) ;
#89 = DIRECTION ( 'NONE',  ( -1.214306433183764966E-16, 1.000000000000000000, 9.389466242107237782E-17 ) ) ;
#90 = VERTEX_POINT ( 'NONE', #1058 ) ;
#91 = ADVANCED_FACE ( 'NONE', ( #904 ), #826, .T. ) ;
#92 = LINE ( 'NONE', #890, #113 ) ;
#93 = DIRECTION ( 'NONE',  ( -1.000000000000000000, -1.214306433183764966E-16, -0.000000000000000000 ) ) ;
#94 = ORIENTED_EDGE ( 'NONE', *, *, #708, .F. ) ;
#95 = LINE ( 'NONE', #600, #676 ) ;
#96 = DIRECTION ( 'NONE',  ( -1.000000000000000000, -1.214306433183764966E-16, -0.000000000000000000 ) ) ;
#97 = EDGE_CURVE ( 'NONE', #1000, #723, #330, .T. ) ;
#98 = CIRCLE ( 'NONE', #541, 1.499999999999998668 ) ;
#99 = CARTESIAN_POINT ( 'NONE',  ( 21.24084425716880276, -5.079967435894634065, 1.836970198721030181E-16 ) ) ;
#100 = ADVANCED_FACE ( 'NONE', ( #978 ), #565, .T. ) ;
#101 = APPROVAL_DATE_TIME ( #194, #121 ) ;
#102 = CARTESIAN_POINT ( 'NONE',  ( 8.740844257168804532, -6.579967435894635841, 0.000000000000000000 ) ) ;
#103 = CARTESIAN_POINT ( 'NONE',  ( -24.75915574283120080, -6.579967435894638506, 0.000000000000000000 ) ) ;
#104 = VERTEX_POINT ( 'NONE', #897 ) ;
#105 = ORIENTED_EDGE ( 'NONE', *, *, #467, .F. ) ;
#106 = PERSON_AND_ORGANIZATION ( #234, #30 ) ;
#107 = FACE_OUTER_BOUND ( 'NONE', #232, .T. ) ;
#108 = CYLINDRICAL_SURFACE ( 'NONE', #808, 1.499999999999998668 ) ;
#109 = ORIENTED_EDGE ( 'NONE', *, *, #789, .F. ) ;
#110 = VERTEX_POINT ( 'NONE', #1062 ) ;
#111 = AXIS2_PLACEMENT_3D ( 'NONE', #839, #678, #915 ) ;
#112 = DIRECTION ( 'NONE',  ( 0.000000000000000000, -1.000000000000000000, 0.000000000000000000 ) ) ;
#113 = VECTOR ( 'NONE', #161, 1000.000000000000000 ) ;
#114 = AXIS2_PLACEMENT_3D ( 'NONE', #478, #795, #559 ) ;
#115 = AXIS2_PLACEMENT_3D ( 'NONE', #863, #455, #126 ) ;
#116 = ADVANCED_FACE ( 'NONE', ( #158 ), #482, .T. ) ;
#117 = CIRCLE ( 'NONE', #342, 1.500000000000000444 ) ;
#118 = PERSON_AND_ORGANIZATION ( #234, #30 ) ;
#119 = DIRECTION ( 'NONE',  ( 1.000000000000000000, 0.000000000000000000, 0.000000000000000000 ) ) ;
#120 = CYLINDRICAL_SURFACE ( 'NONE', #9, 3.000000000000000000 ) ;
#121 = APPROVAL ( #867, 'UNSPECIFIED' ) ;
#122 = ORIENTED_EDGE ( 'NONE', *, *, #367, .F. ) ;
#123 = APPLICATION_CONTEXT ( 'configuration controlled 3d designs of mechanical parts and assemblies' ) ;
#124 = APPLICATION_PROTOCOL_DEFINITION ( 'international standard', 'config_control_design', 1994, #123 ) ;
#125 = CARTESIAN_POINT ( 'NONE',  ( 4.740844257168800979, -2.579967435894635397, 9.389466242107271062E-17 ) ) ;
#126 = DIRECTION ( 'NONE',  ( 0.000000000000000000, -1.000000000000000000, 0.000000000000000000 ) ) ;
#127 = DIRECTION ( 'NONE',  ( -1.000000000000000000, -1.214306433183764966E-16, -0.000000000000000000 ) ) ;
#128 = ORIENTED_EDGE ( 'NONE', *, *, #580, .T. ) ;
#129 = DIRECTION ( 'NONE',  ( 1.000000000000000000, 0.000000000000000000, 0.000000000000000000 ) ) ;
#130 = CYLINDRICAL_SURFACE ( 'NONE', #664, 2.999999999999998224 ) ;
#131 = LINE ( 'NONE', #459, #765 ) ;
#132 = DIRECTION ( 'NONE',  ( 1.000000000000000000, 1.214306433183764966E-16, -0.000000000000000000 ) ) ;
#133 = EDGE_CURVE ( 'NONE', #887, #56, #79, .T. ) ;
#134 = ORIENTED_EDGE ( 'NONE', *, *, #903, .F. ) ;
#135 = AXIS2_PLACEMENT_3D ( 'NONE', #145, #67, #633 ) ;
#136 = VECTOR ( 'NONE', #944, 1000.000000000000000 ) ;
#137 = CARTESIAN_POINT ( 'NONE',  ( -16.25915574283120080, -2.579967435894638061, 2.309401076758504701 ) ) ;
#138 = PLANE ( 'NONE',  #907 ) ;
#139 = ORIENTED_EDGE ( 'NONE', *, *, #1012, .F. ) ;
#140 = EDGE_CURVE ( 'NONE', #110, #336, #893, .T. ) ;
#141 = DIRECTION ( 'NONE',  ( -1.000000000000000000, -1.214306433183764966E-16, -0.000000000000000000 ) ) ;
#142 = FACE_OUTER_BOUND ( 'NONE', #767, .T. ) ;
#143 = VERTEX_POINT ( 'NONE', #3 ) ;
#144 = VERTEX_POINT ( 'NONE', #256 ) ;
#145 = CARTESIAN_POINT ( 'NONE',  ( -16.25915574283120080, -3.579967435894638506, 0.000000000000000000 ) ) ;
#146 = CARTESIAN_POINT ( 'NONE',  ( -18.25915574283120435, -10.57996743589464117, 2.309401076758503812 ) ) ;
#147 = DIRECTION ( 'NONE',  ( -1.000000000000000000, -1.214306433183764966E-16, -0.000000000000000000 ) ) ;
#148 = VERTEX_POINT ( 'NONE', #436 ) ;
#149 = ORIENTED_EDGE ( 'NONE', *, *, #736, .F. ) ;
#150 = VECTOR ( 'NONE', #447, 1000.000000000000000 ) ;
#151 = CIRCLE ( 'NONE', #202, 2.999999999999998224 ) ;
#152 = DIRECTION ( 'NONE',  ( 1.051620219116011593E-16, -0.8660254037844387076, 0.4999999999999998890 ) ) ;
#153 = CIRCLE ( 'NONE', #258, 1.499999999999998668 ) ;
#154 = CARTESIAN_POINT ( 'NONE',  ( -20.25915574283120080, -3.579967435894638950, 0.000000000000000000 ) ) ;
#155 = CARTESIAN_POINT ( 'NONE',  ( -12.25915574283119902, -10.57996743589464117, -2.309401076758504701 ) ) ;
#156 = VERTEX_POINT ( 'NONE', #344 ) ;
#157 = VERTEX_POINT ( 'NONE', #926 ) ;
#158 = FACE_OUTER_BOUND ( 'NONE', #457, .T. ) ;
#159 = LINE ( 'NONE', #635, #588 ) ;
#160 = ORIENTED_EDGE ( 'NONE', *, *, #1056, .F. ) ;
#161 = DIRECTION ( 'NONE',  ( 1.000000000000000000, 1.214306433183764966E-16, -0.000000000000000000 ) ) ;
#162 = CARTESIAN_POINT ( 'NONE',  ( -12.25915574283120080, -2.579967435894634509, -2.309401076758504701 ) ) ;
#163 = ORIENTED_EDGE ( 'NONE', *, *, #881, .T. ) ;
#164 = AXIS2_PLACEMENT_3D ( 'NONE', #989, #815, #653 ) ;
#165 = CIRCLE ( 'NONE', #873, 5.112500000000002487 ) ;
#166 =( GEOMETRIC_REPRESENTATION_CONTEXT ( 3 ) GLOBAL_UNCERTAINTY_ASSIGNED_CONTEXT ( ( #917 ) ) GLOBAL_UNIT_ASSIGNED_CONTEXT ( ( #1022, #848, #193 ) ) REPRESENTATION_CONTEXT ( 'NONE', 'WORKASPACE' ) );
#167 = CARTESIAN_POINT ( 'NONE',  ( -12.25915574283120080, -3.579967435894638950, 3.673940397442058389E-16 ) ) ;
#168 = DIRECTION ( 'NONE',  ( 0.000000000000000000, -1.000000000000000000, 0.000000000000000000 ) ) ;
#169 = CIRCLE ( 'NONE', #443, 1.500000000000000444 ) ;
#170 = EDGE_CURVE ( 'NONE', #157, #186, #65, .T. ) ;
#171 = ORIENTED_EDGE ( 'NONE', *, *, #504, .F. ) ;
#172 = EDGE_CURVE ( 'NONE', #682, #509, #422, .T. ) ;
#173 = DIRECTION ( 'NONE',  ( -1.000000000000000000, -1.214306433183764966E-16, -0.000000000000000000 ) ) ;
#174 = CARTESIAN_POINT ( 'NONE',  ( 8.740844257168804532, -9.579967435894630512, 0.000000000000000000 ) ) ;
#175 = ORIENTED_EDGE ( 'NONE', *, *, #479, .F. ) ;
#176 = EDGE_CURVE ( 'NONE', #1018, #481, #23, .T. ) ;
#177 = DIRECTION ( 'NONE',  ( 0.000000000000000000, 0.8660254037844387076, -0.4999999999999998890 ) ) ;
#178 = PLANE ( 'NONE',  #853 ) ;
#179 = EDGE_CURVE ( 'NONE', #532, #899, #663, .T. ) ;
#180 = CARTESIAN_POINT ( 'NONE',  ( -28.75915574283120080, -3.579967435894641614, 3.673940397442057896E-16 ) ) ;
#181 = FACE_OUTER_BOUND ( 'NONE', #72, .T. ) ;
#182 = VECTOR ( 'NONE', #546, 1000.000000000000000 ) ;
#183 = AXIS2_PLACEMENT_3D ( 'NONE', #298, #1032, #620 ) ;
#184 = PLANE ( 'NONE',  #305 ) ;
#185 = PLANE ( 'NONE',  #994 ) ;
#186 = VERTEX_POINT ( 'NONE', #594 ) ;
#187 = COORDINATED_UNIVERSAL_TIME_OFFSET ( 1, 0, .AHEAD. ) ;
#188 = DIRECTION ( 'NONE',  ( -1.051620219116011470E-16, 0.8660254037844385966, 0.4999999999999999445 ) ) ;
#189 = CARTESIAN_POINT ( 'NONE',  ( -28.75915574283120080, -6.579967435894639394, 0.000000000000000000 ) ) ;
#190 = EDGE_LOOP ( 'NONE', ( #556, #1046 ) ) ;
#191 = EDGE_CURVE ( 'NONE', #555, #143, #934, .T. ) ;
#192 = ORIENTED_EDGE ( 'NONE', *, *, #212, .T. ) ;
#193 =( NAMED_UNIT ( * ) SI_UNIT ( $, .STERADIAN. ) SOLID_ANGLE_UNIT ( ) );
#194 = DATE_AND_TIME ( #511, #523 ) ;
#195 = DIRECTION ( 'NONE',  ( 0.000000000000000000, -1.000000000000000000, 0.000000000000000000 ) ) ;
#196 = DIRECTION ( 'NONE',  ( 0.000000000000000000, -1.000000000000000000, 0.000000000000000000 ) ) ;
#197 = ORIENTED_EDGE ( 'NONE', *, *, #510, .T. ) ;
#198 = ORIENTED_EDGE ( 'NONE', *, *, #720, .F. ) ;
#199 = CARTESIAN_POINT ( 'NONE',  ( -16.25915574283120080, -6.329967435894638506, -4.763139720814415057 ) ) ;
#200 = EDGE_CURVE ( 'NONE', #156, #336, #337, .T. ) ;
#201 = AXIS2_PLACEMENT_3D ( 'NONE', #756, #340, #359 ) ;
#202 = AXIS2_PLACEMENT_3D ( 'NONE', #779, #871, #45 ) ;
#203 = CONICAL_SURFACE ( 'NONE', #717, 1.499999999999998668, 0.3217505543966426296 ) ;
#204 = ORIENTED_EDGE ( 'NONE', *, *, #172, .T. ) ;
#205 = AXIS2_PLACEMENT_3D ( 'NONE', #24, #341, #1009 ) ;
#206 = CARTESIAN_POINT ( 'NONE',  ( -12.25915574283120080, -6.579967435894637617, 0.000000000000000000 ) ) ;
#207 = DIRECTION ( 'NONE',  ( 0.000000000000000000, 1.000000000000000000, 0.000000000000000000 ) ) ;
#208 = DIRECTION ( 'NONE',  ( -1.000000000000000000, -1.214306433183764966E-16, -0.000000000000000000 ) ) ;
#209 = ORIENTED_EDGE ( 'NONE', *, *, #990, .F. ) ;
#210 = DIRECTION ( 'NONE',  ( -1.000000000000000000, -1.214306433183764966E-16, -0.000000000000000000 ) ) ;
#211 = CALENDAR_DATE ( 2025, 1, 5 ) ;
#212 = EDGE_CURVE ( 'NONE', #268, #598, #10, .T. ) ;
#213 = DIRECTION ( 'NONE',  ( 1.051620219116011470E-16, -0.8660254037844385966, -0.4999999999999999445 ) ) ;
#214 = DIRECTION ( 'NONE',  ( -1.000000000000000000, -1.214306433183764966E-16, -0.000000000000000000 ) ) ;
#215 = DIRECTION ( 'NONE',  ( 1.224646799147353207E-16, 1.000000000000000000, -0.000000000000000000 ) ) ;
#216 = ORIENTED_EDGE ( 'NONE', *, *, #38, .F. ) ;
#217 = LINE ( 'NONE', #784, #13 ) ;
#218 = EDGE_CURVE ( 'NONE', #597, #273, #95, .T. ) ;
#219 = LINE ( 'NONE', #51, #338 ) ;
#220 = ORIENTED_EDGE ( 'NONE', *, *, #948, .T. ) ;
#221 = ADVANCED_FACE ( 'NONE', ( #107 ), #500, .T. ) ;
#222 = AXIS2_PLACEMENT_3D ( 'NONE', #496, #732, #829 ) ;
#223 = CIRCLE ( 'NONE', #11, 1.499999999999999556 ) ;
#224 = AXIS2_PLACEMENT_3D ( 'NONE', #189, #538, #874 ) ;
#225 = DIRECTION ( 'NONE',  ( 0.000000000000000000, 0.8660254037844385966, 0.4999999999999999445 ) ) ;
#226 = CARTESIAN_POINT ( 'NONE',  ( -18.25915574283120790, -6.579967435894639394, 4.618802153517006737 ) ) ;
#227 = EDGE_LOOP ( 'NONE', ( #938, #320, #198, #814, #26 ) ) ;
#228 = EDGE_LOOP ( 'NONE', ( #466, #550 ) ) ;
#229 = LINE ( 'NONE', #475, #697 ) ;
#230 = DIRECTION ( 'NONE',  ( 0.000000000000000000, -1.000000000000000000, 0.000000000000000000 ) ) ;
#231 = LINE ( 'NONE', #569, #82 ) ;
#232 = EDGE_LOOP ( 'NONE', ( #440, #735, #81, #134 ) ) ;
#233 = ADVANCED_FACE ( 'NONE', ( #276 ), #184, .T. ) ;
#234 = PERSON ( 'UNSPECIFIED', 'UNSPECIFIED', 'UNSPECIFIED', ('UNSPECIFIED'), ('UNSPECIFIED'), ('UNSPECIFIED') ) ;
#235 = ORIENTED_EDGE ( 'NONE', *, *, #914, .T. ) ;
#236 = DIRECTION ( 'NONE',  ( 1.000000000000000000, 1.214306433183764966E-16, -0.000000000000000000 ) ) ;
#237 = DIRECTION ( 'NONE',  ( -6.071532165918826063E-17, 0.5000000000000000000, -0.8660254037844387076 ) ) ;
#238 = CARTESIAN_POINT ( 'NONE',  ( 4.740844257168800979, -6.329967435894637617, 4.763139720814412392 ) ) ;
#239 = ORIENTED_EDGE ( 'NONE', *, *, #587, .T. ) ;
#240 = ORIENTED_EDGE ( 'NONE', *, *, #278, .F. ) ;
#241 = AXIS2_PLACEMENT_3D ( 'NONE', #437, #935, #196 ) ;
#242 = AXIS2_PLACEMENT_3D ( 'NONE', #61, #984, #987 ) ;
#243 = FACE_OUTER_BOUND ( 'NONE', #296, .T. ) ;
#244 = DIRECTION ( 'NONE',  ( 1.224646799147353207E-16, 1.000000000000000000, -0.000000000000000000 ) ) ;
#245 = ORIENTED_EDGE ( 'NONE', *, *, #1012, .T. ) ;
#246 = CARTESIAN_POINT ( 'NONE',  ( -18.25915574283120790, -6.579967435894637617, -4.618802153517009401 ) ) ;
#247 = DIRECTION ( 'NONE',  ( -1.000000000000000000, -1.214306433183764966E-16, -0.000000000000000000 ) ) ;
#248 = VERTEX_POINT ( 'NONE', #518 ) ;
#249 = CC_DESIGN_PERSON_AND_ORGANIZATION_ASSIGNMENT ( #689, #1027, ( #442 ) ) ;
#250 = DIRECTION ( 'NONE',  ( 0.000000000000000000, -0.8660254037844388186, 0.4999999999999996114 ) ) ;
#251 = FACE_OUTER_BOUND ( 'NONE', #797, .T. ) ;
#252 = ORIENTED_EDGE ( 'NONE', *, *, #77, .T. ) ;
#253 = ADVANCED_FACE ( 'NONE', ( #7 ), #833, .T. ) ;
#254 = VECTOR ( 'NONE', #317, 1000.000000000000000 ) ;
#255 = CIRCLE ( 'NONE', #851, 1.499999999999997780 ) ;
#256 = CARTESIAN_POINT ( 'NONE',  ( 4.740844257168800979, -10.57996743589463762, 2.309401076758503812 ) ) ;
#257 = PLANE ( 'NONE',  #69 ) ;
#258 = AXIS2_PLACEMENT_3D ( 'NONE', #927, #493, #419 ) ;
#259 = EDGE_LOOP ( 'NONE', ( #724, #197, #1005, #781 ) ) ;
#260 = CARTESIAN_POINT ( 'NONE',  ( 26.12834425716880205, -6.579967435894634065, 0.000000000000000000 ) ) ;
#261 = DIRECTION ( 'NONE',  ( 0.000000000000000000, -1.000000000000000000, 0.000000000000000000 ) ) ;
#262 = ADVANCED_FACE ( 'NONE', ( #997 ), #995, .T. ) ;
#263 = CARTESIAN_POINT ( 'NONE',  ( -28.75915574283120080, -6.579967435894639394, 1.499999999999998224 ) ) ;
#264 = FACE_OUTER_BOUND ( 'NONE', #754, .T. ) ;
#265 = ORIENTED_EDGE ( 'NONE', *, *, #587, .F. ) ;
#266 = DIRECTION ( 'NONE',  ( -6.071532165918821133E-17, 0.4999999999999996114, 0.8660254037844388186 ) ) ;
#267 = DIRECTION ( 'NONE',  ( -1.000000000000000000, -1.214306433183764966E-16, 0.000000000000000000 ) ) ;
#268 = VERTEX_POINT ( 'NONE', #263 ) ;
#269 = EDGE_CURVE ( 'NONE', #104, #509, #918, .T. ) ;
#270 = DIRECTION ( 'NONE',  ( -1.000000000000000000, -1.214306433183764966E-16, -0.000000000000000000 ) ) ;
#271 = CARTESIAN_POINT ( 'NONE',  ( -20.25915574283120080, -6.579967435894638506, 0.000000000000000000 ) ) ;
#272 = EDGE_LOOP ( 'NONE', ( #356, #485, #964, #239 ) ) ;
#273 = VERTEX_POINT ( 'NONE', #922 ) ;
#274 = ORIENTED_EDGE ( 'NONE', *, *, #977, .T. ) ;
#275 = APPROVAL_STATUS ( 'not_yet_approved' ) ;
#276 = FACE_OUTER_BOUND ( 'NONE', #5, .T. ) ;
#277 = CARTESIAN_POINT ( 'NONE',  ( -20.25915574283120080, -6.579967435894638506, 0.000000000000000000 ) ) ;
#278 = EDGE_CURVE ( 'NONE', #144, #847, #502, .T. ) ;
#279 = EDGE_LOOP ( 'NONE', ( #877, #730, #175, #953 ) ) ;
#280 = ORIENTED_EDGE ( 'NONE', *, *, #363, .F. ) ;
#281 = LINE ( 'NONE', #859, #150 ) ;
#282 = VERTEX_POINT ( 'NONE', #99 ) ;
#283 = PERSON_AND_ORGANIZATION_ROLE ( 'creator' ) ;
#284 = DIRECTION ( 'NONE',  ( -1.000000000000000000, -1.214306433183764966E-16, -0.000000000000000000 ) ) ;
#285 = DIRECTION ( 'NONE',  ( -3.755786496842896099E-16, 0.8660254037844387076, -0.4999999999999999445 ) ) ;
#286 = ORIENTED_EDGE ( 'NONE', *, *, #662, .F. ) ;
#287 = DIRECTION ( 'NONE',  ( -1.051620219116011593E-16, 0.8660254037844387076, -0.4999999999999998890 ) ) ;
#288 = AXIS2_PLACEMENT_3D ( 'NONE', #75, #88, #322 ) ;
#289 = CIRCLE ( 'NONE', #242, 1.499999999999999556 ) ;
#290 = ADVANCED_FACE ( 'NONE', ( #19 ), #346, .T. ) ;
#291 = VECTOR ( 'NONE', #837, 1000.000000000000114 ) ;
#292 = APPROVAL_DATE_TIME ( #949, #531 ) ;
#293 = DIRECTION ( 'NONE',  ( -1.000000000000000000, -1.214306433183764966E-16, -0.000000000000000000 ) ) ;
#294 = CARTESIAN_POINT ( 'NONE',  ( 8.740844257168800979, -6.579967435894634953, -4.618802153517009401 ) ) ;
#295 = CARTESIAN_POINT ( 'NONE',  ( -28.75915574283120080, -3.579967435894642058, 3.673940397442057403E-16 ) ) ;
#296 = EDGE_LOOP ( 'NONE', ( #1021, #623, #413, #304 ) ) ;
#297 = EDGE_CURVE ( 'NONE', #899, #282, #223, .T. ) ;
#298 = CARTESIAN_POINT ( 'NONE',  ( -20.25915574283120080, -6.579967435894638506, 0.000000000000000000 ) ) ;
#299 = CARTESIAN_POINT ( 'NONE',  ( 26.12834425716880205, -6.579967435894634065, -5.112500000000001599 ) ) ;
#300 = CARTESIAN_POINT ( 'NONE',  ( -12.25915574283120080, -9.579967435894635841, 0.000000000000000000 ) ) ;
#301 = ORIENTED_EDGE ( 'NONE', *, *, #736, .T. ) ;
#302 = DIRECTION ( 'NONE',  ( 0.000000000000000000, 0.8660254037844385966, 0.5000000000000000000 ) ) ;
#303 = DIRECTION ( 'NONE',  ( 1.051620219116011716E-16, -0.8660254037844388186, 0.4999999999999996114 ) ) ;
#304 = ORIENTED_EDGE ( 'NONE', *, *, #1039, .F. ) ;
#305 = AXIS2_PLACEMENT_3D ( 'NONE', #747, #685, #14 ) ;
#306 = ORIENTED_EDGE ( 'NONE', *, *, #749, .F. ) ;
#307 = VECTOR ( 'NONE', #970, 1000.000000000000114 ) ;
#308 = AXIS2_PLACEMENT_3D ( 'NONE', #146, #387, #963 ) ;
#309 = CONICAL_SURFACE ( 'NONE', #630, 3.000000000000000000, 0.3217505543966425741 ) ;
#310 = DIRECTION ( 'NONE',  ( -6.071532165918826063E-17, 0.5000000000000000000, -0.8660254037844387076 ) ) ;
#311 = EDGE_CURVE ( 'NONE', #56, #273, #835, .T. ) ;
#312 = CARTESIAN_POINT ( 'NONE',  ( 26.12834425716880205, -6.579967435894634065, 0.000000000000000000 ) ) ;
#313 = CARTESIAN_POINT ( 'NONE',  ( -16.25915574283120080, -6.579967435894636729, -4.618802153517009401 ) ) ;
#314 = VERTEX_POINT ( 'NONE', #43 ) ;
#315 = ORIENTED_EDGE ( 'NONE', *, *, #191, .F. ) ;
#316 = DIRECTION ( 'NONE',  ( -0.9486832980505136570, -0.3162277660168383853, 0.000000000000000000 ) ) ;
#317 = DIRECTION ( 'NONE',  ( 0.000000000000000000, 0.000000000000000000, -1.000000000000000000 ) ) ;
#318 = CYLINDRICAL_SURFACE ( 'NONE', #875, 2.999999999999998224 ) ;
#319 = EDGE_CURVE ( 'NONE', #37, #404, #822, .T. ) ;
#320 = ORIENTED_EDGE ( 'NONE', *, *, #551, .T. ) ;
#321 = VERTEX_POINT ( 'NONE', #695 ) ;
#322 = DIRECTION ( 'NONE',  ( 0.000000000000000000, -1.000000000000000000, 0.000000000000000000 ) ) ;
#323 = CYLINDRICAL_SURFACE ( 'NONE', #1060, 1.499999999999998668 ) ;
#324 = ORIENTED_EDGE ( 'NONE', *, *, #170, .F. ) ;
#325 = ADVANCED_FACE ( 'NONE', ( #449 ), #130, .T. ) ;
#326 = AXIS2_PLACEMENT_3D ( 'NONE', #464, #707, #373 ) ;
#327 = CARTESIAN_POINT ( 'NONE',  ( -33.64665574283120719, -6.579967435894639394, 0.000000000000000000 ) ) ;
#328 = DIRECTION ( 'NONE',  ( 0.000000000000000000, -1.000000000000000000, 0.000000000000000000 ) ) ;
#329 = ORIENTED_EDGE ( 'NONE', *, *, #896, .F. ) ;
#330 = LINE ( 'NONE', #819, #850 ) ;
#331 = LINE ( 'NONE', #812, #1026 ) ;
#332 = EDGE_CURVE ( 'NONE', #813, #525, #454, .T. ) ;
#333 = VERTEX_POINT ( 'NONE', #1019 ) ;
#334 = CARTESIAN_POINT ( 'NONE',  ( 8.740844257168800979, -2.579967435894634953, 2.309401076758504701 ) ) ;
#335 = CARTESIAN_POINT ( 'NONE',  ( 4.740844257168800979, -6.329967435894638506, -4.763139720814413280 ) ) ;
#336 = VERTEX_POINT ( 'NONE', #783 ) ;
#337 = CIRCLE ( 'NONE', #939, 1.500000000000000444 ) ;
#338 = VECTOR ( 'NONE', #303, 1000.000000000000114 ) ;
#339 = CC_DESIGN_APPROVAL ( #531, ( #920 ) ) ;
#340 = DIRECTION ( 'NONE',  ( -1.000000000000000000, -1.214306433183764966E-16, -0.000000000000000000 ) ) ;
#341 = DIRECTION ( 'NONE',  ( -1.000000000000000000, -1.214306433183764966E-16, -0.000000000000000000 ) ) ;
#342 = AXIS2_PLACEMENT_3D ( 'NONE', #583, #93, #347 ) ;
#343 = CC_DESIGN_PERSON_AND_ORGANIZATION_ASSIGNMENT ( #606, #18, ( #920 ) ) ;
#344 = CARTESIAN_POINT ( 'NONE',  ( -28.75915574283120080, -5.079967435894640282, 1.836970198721029441E-16 ) ) ;
#345 = FACE_BOUND ( 'NONE', #17, .T. ) ;
#346 = PLANE ( 'NONE',  #959 ) ;
#347 = DIRECTION ( 'NONE',  ( 0.000000000000000000, -1.000000000000000000, 0.000000000000000000 ) ) ;
#348 = ORIENTED_EDGE ( 'NONE', *, *, #720, .T. ) ;
#349 = CARTESIAN_POINT ( 'NONE',  ( 4.740844257168800979, -2.329967435894636729, -2.165063509461100377 ) ) ;
#350 = DIRECTION ( 'NONE',  ( 0.000000000000000000, -1.000000000000000000, 0.000000000000000000 ) ) ;
#352 = ORIENTED_EDGE ( 'NONE', *, *, #564, .F. ) ;
#351 = AXIS2_PLACEMENT_3D ( 'NONE', #401, #411, #250 ) ;
#353 = AXIS2_PLACEMENT_3D ( 'NONE', #1030, #397, #1042 ) ;
#354 = CC_DESIGN_PERSON_AND_ORGANIZATION_ASSIGNMENT ( #517, #526, ( #744 ) ) ;
#355 = VECTOR ( 'NONE', #586, 1000.000000000000114 ) ;
#356 = ORIENTED_EDGE ( 'NONE', *, *, #662, .T. ) ;
#357 = EDGE_CURVE ( 'NONE', #525, #882, #528, .T. ) ;
#358 = CALENDAR_DATE ( 2025, 1, 5 ) ;
#359 = DIRECTION ( 'NONE',  ( 0.000000000000000000, -1.000000000000000000, 0.000000000000000000 ) ) ;
#360 = CARTESIAN_POINT ( 'NONE',  ( -16.25915574283120080, -6.579967435894639394, 4.618802153517006737 ) ) ;
#361 = ORIENTED_EDGE ( 'NONE', *, *, #870, .F. ) ;
#362 = ORIENTED_EDGE ( 'NONE', *, *, #2, .T. ) ;
#363 = EDGE_CURVE ( 'NONE', #481, #828, #49, .T. ) ;
#364 = CALENDAR_DATE ( 2025, 1, 5 ) ;
#365 = DIRECTION ( 'NONE',  ( -1.140168926195260892E-32, 9.389466242107237782E-17, -1.000000000000000000 ) ) ;
#366 = DIRECTION ( 'NONE',  ( -1.000000000000000000, -1.214306433183764966E-16, -0.000000000000000000 ) ) ;
#367 = EDGE_CURVE ( 'NONE', #420, #461, #98, .T. ) ;
#368 = ORIENTED_EDGE ( 'NONE', *, *, #367, .T. ) ;
#369 = CARTESIAN_POINT ( 'NONE',  ( 4.740844257168800979, -6.579967435894636729, 4.618802153517006737 ) ) ;
#370 = COORDINATED_UNIVERSAL_TIME_OFFSET ( 1, 0, .AHEAD. ) ;
#371 = DIRECTION ( 'NONE',  ( -1.000000000000000000, -1.214306433183764966E-16, -0.000000000000000000 ) ) ;
#372 = CARTESIAN_POINT ( 'NONE',  ( -28.75915574283120080, -6.579967435894639394, 0.000000000000000000 ) ) ;
#373 = DIRECTION ( 'NONE',  ( 1.000000000000000000, 1.214306433183764966E-16, 0.000000000000000000 ) ) ;
#374 = ORIENTED_EDGE ( 'NONE', *, *, #176, .F. ) ;
#375 = CC_DESIGN_APPROVAL ( #544, ( #744 ) ) ;
#376 = EDGE_CURVE ( 'NONE', #700, #104, #611, .T. ) ;
#377 = VECTOR ( 'NONE', #787, 1000.000000000000000 ) ;
#378 = CARTESIAN_POINT ( 'NONE',  ( 12.74084425716880098, -6.579967435894634953, 0.000000000000000000 ) ) ;
#379 = CARTESIAN_POINT ( 'NONE',  ( -28.75915574283120080, -6.579967435894639394, 0.000000000000000000 ) ) ;
#380 = CARTESIAN_POINT ( 'NONE',  ( -28.75915574283120080, -6.579967435894639394, 0.000000000000000000 ) ) ;
#381 = VERTEX_POINT ( 'NONE', #55 ) ;
#382 = DIRECTION ( 'NONE',  ( -1.051620219116011716E-16, 0.8660254037844388186, -0.4999999999999996114 ) ) ;
#383 = LINE ( 'NONE', #530, #806 ) ;
#384 = EDGE_LOOP ( 'NONE', ( #895, #245, #306, #465 ) ) ;
#385 = EDGE_CURVE ( 'NONE', #1018, #148, #946, .T. ) ;
#386 = LINE ( 'NONE', #463, #908 ) ;
#387 = DIRECTION ( 'NONE',  ( 1.214306433183764966E-16, -1.000000000000000000, 0.000000000000000000 ) ) ;
#388 = CARTESIAN_POINT ( 'NONE',  ( -28.75915574283120080, -8.079967435894639394, 0.000000000000000000 ) ) ;
#389 = ORIENTED_EDGE ( 'NONE', *, *, #385, .F. ) ;
#390 = AXIS2_PLACEMENT_3D ( 'NONE', #260, #1002, #582 ) ;
#391 = EDGE_LOOP ( 'NONE', ( #857, #521, #591, #361 ) ) ;
#392 = VECTOR ( 'NONE', #968, 1000.000000000000114 ) ;
#393 = CC_DESIGN_APPROVAL ( #121, ( #54 ) ) ;
#394 = CIRCLE ( 'NONE', #910, 2.999999999999999112 ) ;
#395 = ADVANCED_FACE ( 'NONE', ( #634 ), #802, .T. ) ;
#396 = LINE ( 'NONE', #1047, #852 ) ;
#397 = DIRECTION ( 'NONE',  ( -1.000000000000000000, -1.214306433183764966E-16, 0.000000000000000000 ) ) ;
#398 = DIRECTION ( 'NONE',  ( 0.000000000000000000, 0.000000000000000000, -1.000000000000000000 ) ) ;
#399 = ORIENTED_EDGE ( 'NONE', *, *, #357, .T. ) ;
#400 = EDGE_LOOP ( 'NONE', ( #705, #473, #301, #655, #192 ) ) ;
#401 = CARTESIAN_POINT ( 'NONE',  ( -18.25915574283120790, -2.579967435894638506, 2.309401076758504701 ) ) ;
#402 = DIRECTION ( 'NONE',  ( 1.000000000000000000, 1.214306433183764966E-16, -0.000000000000000000 ) ) ;
#403 = EDGE_CURVE ( 'NONE', #887, #156, #712, .T. ) ;
#404 = VERTEX_POINT ( 'NONE', #300 ) ;
#405 = DIRECTION ( 'NONE',  ( 0.9486832980505136570, 0.3162277660168383298, 0.000000000000000000 ) ) ;
#406 = DIRECTION ( 'NONE',  ( -1.000000000000000000, -1.214306433183764966E-16, -0.000000000000000000 ) ) ;
#407 = ORIENTED_EDGE ( 'NONE', *, *, #476, .T. ) ;
#408 = EDGE_CURVE ( 'NONE', #157, #404, #383, .T. ) ;
#409 = CIRCLE ( 'NONE', #940, 5.112499999999998934 ) ;
#410 = APPROVAL_PERSON_ORGANIZATION ( #118, #531, #942 ) ;
#411 = DIRECTION ( 'NONE',  ( -6.071532165918821133E-17, 0.4999999999999996114, 0.8660254037844388186 ) ) ;
#412 = LINE ( 'NONE', #1043, #48 ) ;
#413 = ORIENTED_EDGE ( 'NONE', *, *, #376, .F. ) ;
#414 = DIRECTION ( 'NONE',  ( 0.000000000000000000, -1.000000000000000000, 0.000000000000000000 ) ) ;
#415 = DIRECTION ( 'NONE',  ( 0.000000000000000000, -1.000000000000000000, 0.000000000000000000 ) ) ;
#416 = VERTEX_POINT ( 'NONE', #952 ) ;
#417 = EDGE_CURVE ( 'NONE', #104, #700, #29, .T. ) ;
#418 = DIRECTION ( 'NONE',  ( 1.214306433183764966E-16, -1.000000000000000000, 0.000000000000000000 ) ) ;
#419 = DIRECTION ( 'NONE',  ( 0.000000000000000000, -1.000000000000000000, 0.000000000000000000 ) ) ;
#420 = VERTEX_POINT ( 'NONE', #460 ) ;
#421 = ADVANCED_FACE ( 'NONE', ( #699, #70 ), #794, .F. ) ;
#422 = CIRCLE ( 'NONE', #1025, 2.999999999999995559 ) ;
#423 = VECTOR ( 'NONE', #402, 1000.000000000000000 ) ;
#424 = DIRECTION ( 'NONE',  ( -1.000000000000000000, -1.214306433183764966E-16, -0.000000000000000000 ) ) ;
#425 = FACE_OUTER_BOUND ( 'NONE', #391, .T. ) ;
#426 = ORIENTED_EDGE ( 'NONE', *, *, #1039, .T. ) ;
#427 = CARTESIAN_POINT ( 'NONE',  ( -16.25915574283120080, -2.329967435894636729, -2.165063509461099045 ) ) ;
#428 = CARTESIAN_POINT ( 'NONE',  ( 8.740844257168800979, -2.579967435894634509, -2.309401076758505589 ) ) ;
#429 = EDGE_LOOP ( 'NONE', ( #886, #252, #975, #562, #352 ) ) ;
#430 = SECURITY_CLASSIFICATION_LEVEL ( 'unclassified' ) ;
#431 = EDGE_CURVE ( 'NONE', #143, #525, #721, .T. ) ;
#432 = DIRECTION ( 'NONE',  ( 0.000000000000000000, -1.000000000000000000, 0.000000000000000000 ) ) ;
#433 = CARTESIAN_POINT ( 'NONE',  ( 12.74084425716880098, -9.579967435894634065, 0.000000000000000000 ) ) ;
#434 = ORIENTED_EDGE ( 'NONE', *, *, #133, .F. ) ;
#435 = PERSON_AND_ORGANIZATION ( #234, #30 ) ;
#436 = CARTESIAN_POINT ( 'NONE',  ( 8.740844257168800979, -6.579967435894636729, -4.618802153517011178 ) ) ;
#437 = CARTESIAN_POINT ( 'NONE',  ( 8.740844257168804532, -6.579967435894635841, 0.000000000000000000 ) ) ;
#438 = EDGE_CURVE ( 'NONE', #186, #37, #536, .T. ) ;
#440 = ORIENTED_EDGE ( 'NONE', *, *, #739, .T. ) ;
#439 = AXIS2_PLACEMENT_3D ( 'NONE', #34, #424, #432 ) ;
#441 = CIRCLE ( 'NONE', #458, 2.999999999999997335 ) ;
#442 = PRODUCT ( 'H1_D\X2\00e9\X0\faut_sldprt', 'H1_D\X2\00e9\X0\faut_sldprt', '', ( #516 ) ) ;
#443 = AXIS2_PLACEMENT_3D ( 'NONE', #668, #748, #415 ) ;
#444 = ORIENTED_EDGE ( 'NONE', *, *, #759, .F. ) ;
#445 = CARTESIAN_POINT ( 'NONE',  ( 4.740844257168800979, -10.57996743589463762, -2.309401076758504701 ) ) ;
#446 = ORIENTED_EDGE ( 'NONE', *, *, #403, .F. ) ;
#447 = DIRECTION ( 'NONE',  ( 1.000000000000000000, 1.214306433183764966E-16, -0.000000000000000000 ) ) ;
#448 = APPROVAL_ROLE ( '' ) ;
#449 = FACE_OUTER_BOUND ( 'NONE', #279, .T. ) ;
#450 = CARTESIAN_POINT ( 'NONE',  ( -16.25915574283120080, -6.329967435894638506, 4.763139720814414169 ) ) ;
#451 = EDGE_CURVE ( 'NONE', #865, #846, #617, .T. ) ;
#452 = FACE_OUTER_BOUND ( 'NONE', #660, .T. ) ;
#453 = ORIENTED_EDGE ( 'NONE', *, *, #969, .F. ) ;
#454 = LINE ( 'NONE', #39, #490 ) ;
#455 = DIRECTION ( 'NONE',  ( -1.000000000000000000, -1.214306433183764966E-16, -0.000000000000000000 ) ) ;
#456 = LINE ( 'NONE', #625, #377 ) ;
#457 = EDGE_LOOP ( 'NONE', ( #46, #688, #804, #641 ) ) ;
#458 = AXIS2_PLACEMENT_3D ( 'NONE', #651, #406, #80 ) ;
#459 = CARTESIAN_POINT ( 'NONE',  ( -18.25915574283120790, -2.579967435894638061, -2.309401076758505589 ) ) ;
#460 = CARTESIAN_POINT ( 'NONE',  ( 17.24084425716879920, -5.079967435894635841, 1.836970198721028208E-16 ) ) ;
#461 = VERTEX_POINT ( 'NONE', #884 ) ;
#462 = EDGE_CURVE ( 'NONE', #899, #416, #165, .T. ) ;
#463 = CARTESIAN_POINT ( 'NONE',  ( -28.75915574283120080, -3.579967435894639838, 3.673940397442059868E-16 ) ) ;
#464 = CARTESIAN_POINT ( 'NONE',  ( -18.25915574283120435, -10.57996743589464117, 2.309401076758503812 ) ) ;
#465 = ORIENTED_EDGE ( 'NONE', *, *, #218, .F. ) ;
#466 = ORIENTED_EDGE ( 'NONE', *, *, #479, .T. ) ;
#467 = EDGE_CURVE ( 'NONE', #858, #813, #456, .T. ) ;
#468 = CARTESIAN_POINT ( 'NONE',  ( 8.740844257168800979, -6.579967435894636729, 4.618802153517006737 ) ) ;
#469 = CYLINDRICAL_SURFACE ( 'NONE', #762, 1.499999999999998668 ) ;
#470 = ADVANCED_FACE ( 'NONE', ( #452 ), #539, .T. ) ;
#471 = DIRECTION ( 'NONE',  ( -1.000000000000000000, 1.696551076749933825E-16, 0.000000000000000000 ) ) ;
#472 = ORIENTED_EDGE ( 'NONE', *, *, #451, .F. ) ;
#473 = ORIENTED_EDGE ( 'NONE', *, *, #140, .T. ) ;
#474 = VECTOR ( 'NONE', #879, 1000.000000000000000 ) ;
#475 = CARTESIAN_POINT ( 'NONE',  ( -12.25915574283120080, -3.329967435894636729, 6.495190528383289141 ) ) ;
#476 = EDGE_CURVE ( 'NONE', #858, #865, #219, .T. ) ;
#477 = LINE ( 'NONE', #486, #28 ) ;
#478 = CARTESIAN_POINT ( 'NONE',  ( -20.25915574283120080, -6.579967435894638506, 0.000000000000000000 ) ) ;
#479 = EDGE_CURVE ( 'NONE', #404, #37, #151, .T. ) ;
#480 = ORIENTED_EDGE ( 'NONE', *, *, #60, .T. ) ;
#481 = VERTEX_POINT ( 'NONE', #612 ) ;
#482 = CYLINDRICAL_SURFACE ( 'NONE', #164, 2.999999999999998224 ) ;
#483 = DIRECTION ( 'NONE',  ( 0.000000000000000000, 0.000000000000000000, 1.000000000000000000 ) ) ;
#484 = ADVANCED_FACE ( 'NONE', ( #142 ), #469, .T. ) ;
#485 = ORIENTED_EDGE ( 'NONE', *, *, #548, .F. ) ;
#486 = CARTESIAN_POINT ( 'NONE',  ( -28.75915574283120080, -9.579967435894637617, 0.000000000000000000 ) ) ;
#487 = LINE ( 'NONE', #640, #423 ) ;
#488 = ORIENTED_EDGE ( 'NONE', *, *, #403, .T. ) ;
#489 = VECTOR ( 'NONE', #844, 1000.000000000000114 ) ;
#490 = VECTOR ( 'NONE', #365, 1000.000000000000000 ) ;
#491 = VECTOR ( 'NONE', #4, 1000.000000000000114 ) ;
#492 = DIRECTION ( 'NONE',  ( 0.000000000000000000, -1.000000000000000000, 0.000000000000000000 ) ) ;
#493 = DIRECTION ( 'NONE',  ( -1.000000000000000000, -1.214306433183764966E-16, -0.000000000000000000 ) ) ;
#494 = ORIENTED_EDGE ( 'NONE', *, *, #1056, .T. ) ;
#495 = ADVANCED_FACE ( 'NONE', ( #791 ), #138, .T. ) ;
#496 = CARTESIAN_POINT ( 'NONE',  ( -18.25915574283120790, -6.579967435894639394, 4.618802153517006737 ) ) ;
#497 = CARTESIAN_POINT ( 'NONE',  ( -18.25915574283120790, -2.579967435894638061, -2.309401076758505589 ) ) ;
#498 = ORIENTED_EDGE ( 'NONE', *, *, #2, .F. ) ;
#499 = EDGE_CURVE ( 'NONE', #110, #598, #409, .T. ) ;
#500 = PLANE ( 'NONE',  #27 ) ;
#501 = DIRECTION ( 'NONE',  ( 0.000000000000000000, -1.000000000000000000, 0.000000000000000000 ) ) ;
#502 = LINE ( 'NONE', #836, #801 ) ;
#503 = DIRECTION ( 'NONE',  ( -1.214306433183764966E-16, 1.000000000000000000, 0.000000000000000000 ) ) ;
#504 = EDGE_CURVE ( 'NONE', #1052, #144, #816, .T. ) ;
#505 = ORIENTED_EDGE ( 'NONE', *, *, #932, .T. ) ;
#506 = DIRECTION ( 'NONE',  ( -1.000000000000000000, -1.214306433183764966E-16, -0.000000000000000000 ) ) ;
#507 = DIRECTION ( 'NONE',  ( 1.000000000000000000, 0.000000000000000000, 0.000000000000000000 ) ) ;
#508 = ORIENTED_EDGE ( 'NONE', *, *, #311, .T. ) ;
#509 = VERTEX_POINT ( 'NONE', #654 ) ;
#510 = EDGE_CURVE ( 'NONE', #186, #157, #441, .T. ) ;
#511 = CALENDAR_DATE ( 2025, 1, 5 ) ;
#512 = DIRECTION ( 'NONE',  ( -1.000000000000000000, -1.214306433183764966E-16, -0.000000000000000000 ) ) ;
#513 = CARTESIAN_POINT ( 'NONE',  ( 21.24084425716880276, -6.579967435894633176, 1.500000000000003775 ) ) ;
#514 = EDGE_LOOP ( 'NONE', ( #592, #937, #993, #389 ) ) ;
#515 = ORIENTED_EDGE ( 'NONE', *, *, #332, .F. ) ;
#516 = MECHANICAL_CONTEXT ( 'NONE', #527, 'mechanical' ) ;
#517 = PERSON_AND_ORGANIZATION ( #234, #30 ) ;
#518 = CARTESIAN_POINT ( 'NONE',  ( -16.25915574283120080, -10.57996743589464117, -2.309401076758504701 ) ) ;
#519 = FACE_OUTER_BOUND ( 'NONE', #540, .T. ) ;
#521 = ORIENTED_EDGE ( 'NONE', *, *, #573, .T. ) ;
#520 = AXIS2_PLACEMENT_3D ( 'NONE', #327, #728, #737 ) ;
#522 = CONICAL_SURFACE ( 'NONE', #114, 3.000000000000000000, 0.3217505543966425741 ) ;
#523 = LOCAL_TIME ( 14, 41, 19.00000000000000000, #187 ) ;
#524 = VECTOR ( 'NONE', #8, 1000.000000000000114 ) ;
#525 = VERTEX_POINT ( 'NONE', #162 ) ;
#526 = PERSON_AND_ORGANIZATION_ROLE ( 'design_supplier' ) ;
#527 = APPLICATION_CONTEXT ( 'configuration controlled 3d designs of mechanical parts and assemblies' ) ;
#528 = LINE ( 'NONE', #607, #980 ) ;
#529 = DIRECTION ( 'NONE',  ( 0.000000000000000000, -1.000000000000000000, 0.000000000000000000 ) ) ;
#530 = CARTESIAN_POINT ( 'NONE',  ( -28.75915574283120080, -9.579967435894637617, 0.000000000000000000 ) ) ;
#531 = APPROVAL ( #275, 'UNSPECIFIED' ) ;
#532 = VERTEX_POINT ( 'NONE', #554 ) ;
#533 = CARTESIAN_POINT ( 'NONE',  ( 0.000000000000000000, 0.000000000000000000, 0.000000000000000000 ) ) ;
#534 = DIRECTION ( 'NONE',  ( 0.000000000000000000, -1.000000000000000000, 0.000000000000000000 ) ) ;
#535 = DIRECTION ( 'NONE',  ( 0.000000000000000000, 1.000000000000000000, 0.000000000000000000 ) ) ;
#536 = LINE ( 'NONE', #295, #745 ) ;
#537 = ORIENTED_EDGE ( 'NONE', *, *, #903, .T. ) ;
#538 = DIRECTION ( 'NONE',  ( -1.000000000000000000, -1.214306433183764966E-16, -0.000000000000000000 ) ) ;
#539 = PLANE ( 'NONE',  #308 ) ;
#540 = EDGE_LOOP ( 'NONE', ( #139, #505, #709, #637 ) ) ;
#541 = AXIS2_PLACEMENT_3D ( 'NONE', #1028, #293, #534 ) ;
#542 = CIRCLE ( 'NONE', #115, 3.000000000000000000 ) ;
#543 = AXIS2_PLACEMENT_3D ( 'NONE', #1036, #774, #529 ) ;
#544 = APPROVAL ( #1007, 'UNSPECIFIED' ) ;
#545 = MANIFOLD_SOLID_BREP ( 'Enlèv. mat.-Extru.3', #610 ) ;
#546 = DIRECTION ( 'NONE',  ( 1.140168926195260892E-32, -9.389466242107237782E-17, 1.000000000000000000 ) ) ;
#547 = DIRECTION ( 'NONE',  ( 6.071532165918822365E-17, -0.4999999999999998335, 0.8660254037844387076 ) ) ;
#548 = EDGE_CURVE ( 'NONE', #796, #381, #412, .T. ) ;
#549 = ORIENTED_EDGE ( 'NONE', *, *, #619, .T. ) ;
#550 = ORIENTED_EDGE ( 'NONE', *, *, #319, .T. ) ;
#551 = EDGE_CURVE ( 'NONE', #831, #314, #698, .T. ) ;
#552 = CARTESIAN_POINT ( 'NONE',  ( -18.25915574283120790, -6.579967435894637617, -4.618802153517009401 ) ) ;
#553 = CARTESIAN_POINT ( 'NONE',  ( -18.25915574283120790, -2.579967435894638061, -2.309401076758505589 ) ) ;
#554 = CARTESIAN_POINT ( 'NONE',  ( 21.24084425716880276, -8.079967435894634065, 0.000000000000000000 ) ) ;
#555 = VERTEX_POINT ( 'NONE', #313 ) ;
#556 = ORIENTED_EDGE ( 'NONE', *, *, #798, .F. ) ;
#557 = DIRECTION ( 'NONE',  ( 0.000000000000000000, -9.389466242107237782E-17, 1.000000000000000000 ) ) ;
#558 = FACE_BOUND ( 'NONE', #228, .T. ) ;
#559 = DIRECTION ( 'NONE',  ( 0.000000000000000000, 1.000000000000000000, 0.000000000000000000 ) ) ;
#560 = VERTEX_POINT ( 'NONE', #388 ) ;
#561 = VECTOR ( 'NONE', #152, 1000.000000000000114 ) ;
#562 = ORIENTED_EDGE ( 'NONE', *, *, #179, .F. ) ;
#563 = VECTOR ( 'NONE', #208, 1000.000000000000000 ) ;
#564 = EDGE_CURVE ( 'NONE', #314, #532, #289, .T. ) ;
#565 = PLANE ( 'NONE',  #222 ) ;
#566 = DIRECTION ( 'NONE',  ( 1.224646799147353207E-16, 1.000000000000000000, -0.000000000000000000 ) ) ;
#567 = ORIENTED_EDGE ( 'NONE', *, *, #961, .T. ) ;
#568 = DIRECTION ( 'NONE',  ( -1.000000000000000000, -1.214306433183764966E-16, -0.000000000000000000 ) ) ;
#569 = CARTESIAN_POINT ( 'NONE',  ( -28.75915574283120080, -8.079967435894637617, 0.000000000000000000 ) ) ;
#570 = ORIENTED_EDGE ( 'NONE', *, *, #510, .F. ) ;
#571 = CARTESIAN_POINT ( 'NONE',  ( -20.25915574283120080, -3.579967435894638950, 0.000000000000000000 ) ) ;
#572 = FACE_OUTER_BOUND ( 'NONE', #1010, .T. ) ;
#573 = EDGE_CURVE ( 'NONE', #828, #21, #487, .T. ) ;
#574 = ORIENTED_EDGE ( 'NONE', *, *, #749, .T. ) ;
#575 = AXIS2_PLACEMENT_3D ( 'NONE', #76, #1049, #898 ) ;
#576 = VECTOR ( 'NONE', #945, 1000.000000000000000 ) ;
#577 = CIRCLE ( 'NONE', #543, 1.500000000000000444 ) ;
#578 = DIRECTION ( 'NONE',  ( 3.755786496842897578E-16, -0.8660254037844387076, -0.4999999999999998335 ) ) ;
#579 = DIRECTION ( 'NONE',  ( -1.214306433183764966E-16, 1.000000000000000000, 9.389466242107237782E-17 ) ) ;
#580 = EDGE_CURVE ( 'NONE', #532, #461, #231, .T. ) ;
#581 = ORIENTED_EDGE ( 'NONE', *, *, #417, .T. ) ;
#582 = DIRECTION ( 'NONE',  ( 1.000000000000000000, 0.000000000000000000, 0.000000000000000000 ) ) ;
#583 = CARTESIAN_POINT ( 'NONE',  ( -28.75915574283120080, -6.579967435894639394, 0.000000000000000000 ) ) ;
#584 = ADVANCED_FACE ( 'NONE', ( #251 ), #323, .T. ) ;
#585 = CARTESIAN_POINT ( 'NONE',  ( -18.25915574283120435, -10.57996743589464117, -2.309401076758504701 ) ) ;
#586 = DIRECTION ( 'NONE',  ( -0.9486832980505137680, 0.3162277660168382742, 3.872673214540392861E-17 ) ) ;
#587 = EDGE_CURVE ( 'NONE', #248, #605, #733, .T. ) ;
#588 = VECTOR ( 'NONE', #147, 1000.000000000000000 ) ;
#589 = DIRECTION ( 'NONE',  ( 0.000000000000000000, -1.000000000000000000, 0.000000000000000000 ) ) ;
#590 = DIRECTION ( 'NONE',  ( -1.000000000000000000, -1.214306433183764966E-16, 0.000000000000000000 ) ) ;
#591 = ORIENTED_EDGE ( 'NONE', *, *, #982, .F. ) ;
#592 = ORIENTED_EDGE ( 'NONE', *, *, #176, .T. ) ;
#593 = APPROVAL_DATE_TIME ( #751, #544 ) ;
#594 = CARTESIAN_POINT ( 'NONE',  ( 4.740844257168800979, -3.579967435894638506, 3.673940397442058389E-16 ) ) ;
#595 = LINE ( 'NONE', #923, #491 ) ;
#596 = ORIENTED_EDGE ( 'NONE', *, *, #476, .F. ) ;
#597 = VERTEX_POINT ( 'NONE', #885 ) ;
#598 = VERTEX_POINT ( 'NONE', #713 ) ;
#599 = SHAPE_DEFINITION_REPRESENTATION ( #800, #661 ) ;
#600 = CARTESIAN_POINT ( 'NONE',  ( -28.75915574283120080, -9.579967435894639394, 0.000000000000000000 ) ) ;
#601 = FACE_OUTER_BOUND ( 'NONE', #73, .T. ) ;
#602 = ORIENTED_EDGE ( 'NONE', *, *, #573, .F. ) ;
#603 = EDGE_CURVE ( 'NONE', #723, #90, #331, .T. ) ;
#604 = ORIENTED_EDGE ( 'NONE', *, *, #212, .F. ) ;
#605 = VERTEX_POINT ( 'NONE', #155 ) ;
#606 = PERSON_AND_ORGANIZATION ( #234, #30 ) ;
#607 = CARTESIAN_POINT ( 'NONE',  ( -12.25915574283120080, 0.6700325641053629377, -0.4330127018922224069 ) ) ;
#608 = LINE ( 'NONE', #686, #613 ) ;
#609 = VECTOR ( 'NONE', #236, 1000.000000000000000 ) ;
#610 = CLOSED_SHELL ( 'NONE', ( #57, #657, #484, #817, #325, #116, #87, #631, #262, #421, #253, #584, #1045, #832, #221, #470, #100, #290, #780, #25, #692, #643, #16, #1001, #684, #91, #495, #395, #233, #669, #825, #849, #925, #1023 ) ) ;
#611 = CIRCLE ( 'NONE', #66, 3.000000000000000000 ) ;
#612 = CARTESIAN_POINT ( 'NONE',  ( 4.740844257168800979, -2.579967435894635397, -2.309401076758505589 ) ) ;
#613 = VECTOR ( 'NONE', #845, 1000.000000000000000 ) ;
#614 = ORIENTED_EDGE ( 'NONE', *, *, #97, .T. ) ;
#615 = DIRECTION ( 'NONE',  ( -1.000000000000000000, -1.214306433183764966E-16, -0.000000000000000000 ) ) ;
#616 = CARTESIAN_POINT ( 'NONE',  ( -24.75915574283120080, -5.079967435894641170, 1.836970198721028701E-16 ) ) ;
#617 = LINE ( 'NONE', #967, #628 ) ;
#618 = ORIENTED_EDGE ( 'NONE', *, *, #451, .T. ) ;
#619 = EDGE_CURVE ( 'NONE', #333, #560, #159, .T. ) ;
#620 = DIRECTION ( 'NONE',  ( 0.000000000000000000, -1.000000000000000000, 0.000000000000000000 ) ) ;
#621 = DIRECTION ( 'NONE',  ( 0.000000000000000000, -1.000000000000000000, 0.000000000000000000 ) ) ;
#622 = CARTESIAN_POINT ( 'NONE',  ( 12.74084425716880098, -6.579967435894634953, 0.000000000000000000 ) ) ;
#623 = ORIENTED_EDGE ( 'NONE', *, *, #708, .T. ) ;
#624 = DIRECTION ( 'NONE',  ( 0.000000000000000000, -1.000000000000000000, 0.000000000000000000 ) ) ;
#625 = CARTESIAN_POINT ( 'NONE',  ( -18.25915574283120790, -2.579967435894638506, 2.309401076758504701 ) ) ;
#626 = ORIENTED_EDGE ( 'NONE', *, *, #357, .F. ) ;
#627 = CIRCLE ( 'NONE', #821, 5.112500000000001599 ) ;
#628 = VECTOR ( 'NONE', #956, 1000.000000000000000 ) ;
#629 = LOCAL_TIME ( 14, 41, 19.00000000000000000, #933 ) ;
#630 = AXIS2_PLACEMENT_3D ( 'NONE', #277, #40, #535 ) ;
#631 = ADVANCED_FACE ( 'NONE', ( #572 ), #820, .T. ) ;
#632 = ORIENTED_EDGE ( 'NONE', *, *, #97, .F. ) ;
#633 = DIRECTION ( 'NONE',  ( -1.214306433183764966E-16, 1.000000000000000000, 0.000000000000000000 ) ) ;
#634 = FACE_OUTER_BOUND ( 'NONE', #272, .T. ) ;
#635 = CARTESIAN_POINT ( 'NONE',  ( -28.75915574283120080, -8.079967435894637617, 0.000000000000000000 ) ) ;
#636 = CARTESIAN_POINT ( 'NONE',  ( 8.740844257168800979, -2.579967435894634953, 2.309401076758504701 ) ) ;
#637 = ORIENTED_EDGE ( 'NONE', *, *, #311, .F. ) ;
#638 = LINE ( 'NONE', #972, #785 ) ;
#639 = CARTESIAN_POINT ( 'NONE',  ( -28.75915574283120080, -6.579967435894639394, 0.000000000000000000 ) ) ;
#640 = CARTESIAN_POINT ( 'NONE',  ( -18.25915574283120790, -2.579967435894638506, 2.309401076758504701 ) ) ;
#641 = ORIENTED_EDGE ( 'NONE', *, *, #60, .F. ) ;
#642 = ORIENTED_EDGE ( 'NONE', *, *, #431, .F. ) ;
#643 = ADVANCED_FACE ( 'NONE', ( #646 ), #318, .T. ) ;
#644 = CC_DESIGN_DATE_AND_TIME_ASSIGNMENT ( #764, #860, ( #920 ) ) ;
#645 = FACE_OUTER_BOUND ( 'NONE', #1061, .T. ) ;
#646 = FACE_OUTER_BOUND ( 'NONE', #259, .T. ) ;
#647 = APPROVAL_PERSON_ORGANIZATION ( #106, #544, #448 ) ;
#648 = ORIENTED_EDGE ( 'NONE', *, *, #948, .F. ) ;
#649 = VECTOR ( 'NONE', #1059, 1000.000000000000000 ) ;
#650 = FACE_OUTER_BOUND ( 'NONE', #514, .T. ) ;
#651 = CARTESIAN_POINT ( 'NONE',  ( 4.740844257168800979, -6.579967435894635841, 0.000000000000000000 ) ) ;
#652 = ORIENTED_EDGE ( 'NONE', *, *, #332, .T. ) ;
#653 = DIRECTION ( 'NONE',  ( 0.000000000000000000, -1.000000000000000000, 0.000000000000000000 ) ) ;
#654 = CARTESIAN_POINT ( 'NONE',  ( 8.740844257168804532, -3.579967435894638950, 3.673940397442056417E-16 ) ) ;
#655 = ORIENTED_EDGE ( 'NONE', *, *, #789, .T. ) ;
#656 = CC_DESIGN_PERSON_AND_ORGANIZATION_ASSIGNMENT ( #435, #283, ( #54 ) ) ;
#657 = ADVANCED_FACE ( 'NONE', ( #974 ), #522, .T. ) ;
#658 = DIRECTION ( 'NONE',  ( 0.000000000000000000, 0.8660254037844385966, 0.4999999999999999445 ) ) ;
#659 = DIRECTION ( 'NONE',  ( 0.000000000000000000, 1.000000000000000000, 0.000000000000000000 ) ) ;
#660 = EDGE_LOOP ( 'NONE', ( #971, #537, #792, #740 ) ) ;
#661 = ADVANCED_BREP_SHAPE_REPRESENTATION ( 'H1_D\X2\00e9\X0\faut_sldprt', ( #545, #68 ), #166 ) ;
#662 = EDGE_CURVE ( 'NONE', #605, #381, #726, .T. ) ;
#663 = CIRCLE ( 'NONE', #201, 1.499999999999999556 ) ;
#664 = AXIS2_PLACEMENT_3D ( 'NONE', #950, #284, #777 ) ;
#665 = LOCAL_TIME ( 14, 41, 19.00000000000000000, #22 ) ;
#666 = CIRCLE ( 'NONE', #205, 1.499999999999999556 ) ;
#667 = CARTESIAN_POINT ( 'NONE',  ( -28.75915574283120080, -6.579967435894639394, 0.000000000000000000 ) ) ;
#668 = CARTESIAN_POINT ( 'NONE',  ( -28.75915574283120080, -6.579967435894639394, 0.000000000000000000 ) ) ;
#669 = ADVANCED_FACE ( 'NONE', ( #840 ), #996, .T. ) ;
#670 = DIRECTION ( 'NONE',  ( -1.000000000000000000, -1.214306433183764966E-16, -0.000000000000000000 ) ) ;
#671 = DIRECTION ( 'NONE',  ( -1.000000000000000000, -1.214306433183764966E-16, -0.000000000000000000 ) ) ;
#672 = EDGE_CURVE ( 'NONE', #333, #887, #255, .T. ) ;
#673 = CARTESIAN_POINT ( 'NONE',  ( -18.25915574283120790, -2.579967435894638506, 2.309401076758504701 ) ) ;
#674 = LINE ( 'NONE', #335, #291 ) ;
#675 = ORIENTED_EDGE ( 'NONE', *, *, #6, .F. ) ;
#676 = VECTOR ( 'NONE', #670, 1000.000000000000000 ) ;
#677 = VECTOR ( 'NONE', #483, 1000.000000000000000 ) ;
#678 = DIRECTION ( 'NONE',  ( 0.000000000000000000, -1.000000000000000000, 0.000000000000000000 ) ) ;
#679 = CARTESIAN_POINT ( 'NONE',  ( 17.24084425716879920, -5.079967435894635841, 1.836970198721028208E-16 ) ) ;
#680 = ORIENTED_EDGE ( 'NONE', *, *, #200, .T. ) ;
#681 = ORIENTED_EDGE ( 'NONE', *, *, #969, .T. ) ;
#682 = VERTEX_POINT ( 'NONE', #174 ) ;
#683 = PERSON_AND_ORGANIZATION ( #234, #30 ) ;
#684 = ADVANCED_FACE ( 'NONE', ( #15 ), #257, .T. ) ;
#685 = DIRECTION ( 'NONE',  ( 6.071532165918823598E-17, -0.4999999999999998890, -0.8660254037844387076 ) ) ;
#686 = CARTESIAN_POINT ( 'NONE',  ( -18.25915574283120435, -10.57996743589464117, -2.309401076758504701 ) ) ;
#687 = ORIENTED_EDGE ( 'NONE', *, *, #603, .T. ) ;
#688 = ORIENTED_EDGE ( 'NONE', *, *, #269, .T. ) ;
#689 = PERSON_AND_ORGANIZATION ( #234, #30 ) ;
#690 = CARTESIAN_POINT ( 'NONE',  ( 21.24084425716880276, -6.579967435894634065, 0.000000000000000000 ) ) ;
#691 = DIRECTION ( 'NONE',  ( 0.000000000000000000, -1.000000000000000000, 0.000000000000000000 ) ) ;
#692 = ADVANCED_FACE ( 'NONE', ( #345, #264 ), #178, .F. ) ;
#693 = EDGE_LOOP ( 'NONE', ( #1011, #913, #86, #508 ) ) ;
#694 = CALENDAR_DATE ( 2025, 1, 5 ) ;
#695 = CARTESIAN_POINT ( 'NONE',  ( -16.25915574283120080, -3.579967435894637617, 3.673940397442060854E-16 ) ) ;
#696 = CARTESIAN_POINT ( 'NONE',  ( 4.740844257168800979, -2.579967435894635841, 2.309401076758504701 ) ) ;
#697 = VECTOR ( 'NONE', #810, 1000.000000000000114 ) ;
#698 = CIRCLE ( 'NONE', #731, 5.112500000000002487 ) ;
#699 = FACE_BOUND ( 'NONE', #775, .T. ) ;
#700 = VERTEX_POINT ( 'NONE', #433 ) ;
#701 = EDGE_CURVE ( 'NONE', #333, #273, #757, .T. ) ;
#702 = DIRECTION ( 'NONE',  ( 0.000000000000000000, -1.000000000000000000, 0.000000000000000000 ) ) ;
#703 = CARTESIAN_POINT ( 'NONE',  ( -33.64665574283120719, -6.579967435894639394, 0.000000000000000000 ) ) ;
#704 = CARTESIAN_POINT ( 'NONE',  ( -18.25915574283120790, -6.579967435894637617, -4.618802153517009401 ) ) ;
#705 = ORIENTED_EDGE ( 'NONE', *, *, #499, .F. ) ;
#706 = FACE_OUTER_BOUND ( 'NONE', #727, .T. ) ;
#707 = DIRECTION ( 'NONE',  ( 1.214306433183764966E-16, -1.000000000000000000, 0.000000000000000000 ) ) ;
#708 = EDGE_CURVE ( 'NONE', #420, #104, #827, .T. ) ;
#709 = ORIENTED_EDGE ( 'NONE', *, *, #218, .T. ) ;
#710 = CARTESIAN_POINT ( 'NONE',  ( 4.740844257168801867, -6.579967435894636729, -4.618802153517009401 ) ) ;
#711 = AXIS2_PLACEMENT_3D ( 'NONE', #1015, #854, #119 ) ;
#712 = LINE ( 'NONE', #1037, #563 ) ;
#713 = CARTESIAN_POINT ( 'NONE',  ( -33.64665574283120719, -6.579967435894639394, 5.112500000000001599 ) ) ;
#714 = ORIENTED_EDGE ( 'NONE', *, *, #6, .T. ) ;
#715 = AXIS2_PLACEMENT_3D ( 'NONE', #986, #900, #418 ) ;
#716 = AXIS2_PLACEMENT_3D ( 'NONE', #916, #659, #507 ) ;
#717 = AXIS2_PLACEMENT_3D ( 'NONE', #770, #210, #112 ) ;
#718 = ORIENTED_EDGE ( 'NONE', *, *, #759, .T. ) ;
#719 = LINE ( 'NONE', #878, #561 ) ;
#720 = EDGE_CURVE ( 'NONE', #282, #314, #666, .T. ) ;
#721 = LINE ( 'NONE', #553, #894 ) ;
#722 = CARTESIAN_POINT ( 'NONE',  ( 26.12834425716880205, -6.579967435894634065, 0.000000000000000000 ) ) ;
#723 = VERTEX_POINT ( 'NONE', #830 ) ;
#724 = ORIENTED_EDGE ( 'NONE', *, *, #438, .F. ) ;
#725 = FACE_OUTER_BOUND ( 'NONE', #384, .T. ) ;
#726 = LINE ( 'NONE', #1054, #677 ) ;
#727 = EDGE_LOOP ( 'NONE', ( #41, #581, #480, #1038 ) ) ;
#728 = DIRECTION ( 'NONE',  ( 0.000000000000000000, -1.000000000000000000, 0.000000000000000000 ) ) ;
#729 = DIRECTION ( 'NONE',  ( -1.000000000000000000, 1.696551076749932839E-16, 0.000000000000000000 ) ) ;
#730 = ORIENTED_EDGE ( 'NONE', *, *, #438, .T. ) ;
#731 = AXIS2_PLACEMENT_3D ( 'NONE', #722, #566, #729 ) ;
#732 = DIRECTION ( 'NONE',  ( 6.071532165918822365E-17, -0.4999999999999998335, 0.8660254037844387076 ) ) ;
#733 = LINE ( 'NONE', #901, #649 ) ;
#734 = CC_DESIGN_DATE_AND_TIME_ASSIGNMENT ( #1014, #776, ( #54 ) ) ;
#735 = ORIENTED_EDGE ( 'NONE', *, *, #385, .T. ) ;
#736 = EDGE_CURVE ( 'NONE', #336, #560, #117, .T. ) ;
#737 = DIRECTION ( 'NONE',  ( 0.000000000000000000, 0.000000000000000000, -1.000000000000000000 ) ) ;
#738 = CARTESIAN_POINT ( 'NONE',  ( -16.25915574283120080, -6.579967435894637617, 0.000000000000000000 ) ) ;
#739 = EDGE_CURVE ( 'NONE', #847, #1018, #674, .T. ) ;
#740 = ORIENTED_EDGE ( 'NONE', *, *, #977, .F. ) ;
#741 = CARTESIAN_POINT ( 'NONE',  ( 26.12834425716880205, -6.579967435894634065, 0.000000000000000000 ) ) ;
#742 = DIRECTION ( 'NONE',  ( -1.000000000000000000, -1.214306433183764966E-16, -0.000000000000000000 ) ) ;
#743 = ORIENTED_EDGE ( 'NONE', *, *, #990, .T. ) ;
#744 = PRODUCT_DEFINITION_FORMATION_WITH_SPECIFIED_SOURCE ( 'ANY', '', #442, .NOT_KNOWN. ) ;
#745 = VECTOR ( 'NONE', #127, 1000.000000000000000 ) ;
#746 = CIRCLE ( 'NONE', #1041, 1.499999999999997780 ) ;
#747 = CARTESIAN_POINT ( 'NONE',  ( -18.25915574283120435, -10.57996743589464117, -2.309401076758504701 ) ) ;
#748 = DIRECTION ( 'NONE',  ( -1.000000000000000000, -1.214306433183764966E-16, -0.000000000000000000 ) ) ;
#749 = EDGE_CURVE ( 'NONE', #273, #56, #394, .T. ) ;
#750 = ORIENTED_EDGE ( 'NONE', *, *, #896, .T. ) ;
#751 = DATE_AND_TIME ( #358, #763 ) ;
#752 = DIRECTION ( 'NONE',  ( 0.000000000000000000, 0.000000000000000000, -1.000000000000000000 ) ) ;
#753 = SPHERICAL_SURFACE ( 'NONE', #943, 5.112500000000001599 ) ;
#754 = EDGE_LOOP ( 'NONE', ( #957, #240, #171, #444, #280, #374 ) ) ;
#755 = PERSON_AND_ORGANIZATION_ROLE ( 'creator' ) ;
#756 = CARTESIAN_POINT ( 'NONE',  ( 21.24084425716880276, -6.579967435894634065, 0.000000000000000000 ) ) ;
#757 = LINE ( 'NONE', #912, #524 ) ;
#758 = ORIENTED_EDGE ( 'NONE', *, *, #297, .T. ) ;
#759 = EDGE_CURVE ( 'NONE', #828, #1052, #595, .T. ) ;
#760 = EDGE_LOOP ( 'NONE', ( #652, #642, #743, #788 ) ) ;
#761 = AXIS2_PLACEMENT_3D ( 'NONE', #639, #173, #492 ) ;
#762 = AXIS2_PLACEMENT_3D ( 'NONE', #380, #1048, #876 ) ;
#763 = LOCAL_TIME ( 14, 41, 19.00000000000000000, #370 ) ;
#764 = DATE_AND_TIME ( #211, #665 ) ;
#765 = VECTOR ( 'NONE', #50, 1000.000000000000000 ) ;
#766 = CARTESIAN_POINT ( 'NONE',  ( -12.25915574283120080, 0.6700325641053628267, 0.4330127018922225179 ) ) ;
#767 = EDGE_LOOP ( 'NONE', ( #929, #488, #329, #109, #841 ) ) ;
#768 = PRODUCT_RELATED_PRODUCT_CATEGORY ( 'detail', '', ( #442 ) ) ;
#769 = ORIENTED_EDGE ( 'NONE', *, *, #499, .T. ) ;
#770 = CARTESIAN_POINT ( 'NONE',  ( 17.24084425716879920, -6.579967435894634953, 0.000000000000000000 ) ) ;
#771 = EDGE_CURVE ( 'NONE', #461, #420, #153, .T. ) ;
#772 = PERSON_AND_ORGANIZATION ( #234, #30 ) ;
#773 = DIRECTION ( 'NONE',  ( 0.000000000000000000, -1.000000000000000000, 0.000000000000000000 ) ) ;
#774 = DIRECTION ( 'NONE',  ( -1.000000000000000000, -1.214306433183764966E-16, -0.000000000000000000 ) ) ;
#775 = EDGE_LOOP ( 'NONE', ( #204, #235 ) ) ;
#776 = DATE_TIME_ROLE ( 'creation_date' ) ;
#777 = DIRECTION ( 'NONE',  ( 0.000000000000000000, -1.000000000000000000, 0.000000000000000000 ) ) ;
#778 = CARTESIAN_POINT ( 'NONE',  ( -12.25915574283120080, -6.579967435894638506, 4.618802153517006737 ) ) ;
#779 = CARTESIAN_POINT ( 'NONE',  ( -12.25915574283120080, -6.579967435894637617, 0.000000000000000000 ) ) ;
#780 = ADVANCED_FACE ( 'NONE', ( #425 ), #185, .T. ) ;
#781 = ORIENTED_EDGE ( 'NONE', *, *, #319, .F. ) ;
#782 = APPLICATION_PROTOCOL_DEFINITION ( 'international standard', 'config_control_design', 1994, #527 ) ;
#783 = CARTESIAN_POINT ( 'NONE',  ( -28.75915574283120080, -6.579967435894639394, -1.499999999999998224 ) ) ;
#784 = CARTESIAN_POINT ( 'NONE',  ( 8.740844257168802756, -10.57996743589463762, -2.309401076758504701 ) ) ;
#785 = VECTOR ( 'NONE', #557, 1000.000000000000000 ) ;
#786 = AXIS2_PLACEMENT_3D ( 'NONE', #206, #615, #773 ) ;
#787 = DIRECTION ( 'NONE',  ( 1.000000000000000000, 1.214306433183764966E-16, -0.000000000000000000 ) ) ;
#788 = ORIENTED_EDGE ( 'NONE', *, *, #467, .T. ) ;
#789 = EDGE_CURVE ( 'NONE', #560, #268, #169, .T. ) ;
#790 = CARTESIAN_POINT ( 'NONE',  ( -24.75915574283120080, -6.579967435894638506, 0.000000000000000000 ) ) ;
#791 = FACE_OUTER_BOUND ( 'NONE', #36, .T. ) ;
#792 = ORIENTED_EDGE ( 'NONE', *, *, #603, .F. ) ;
#793 = FACE_OUTER_BOUND ( 'NONE', #63, .T. ) ;
#794 = PLANE ( 'NONE',  #353 ) ;
#795 = DIRECTION ( 'NONE',  ( 1.000000000000000000, 1.214306433183764966E-16, 0.000000000000000000 ) ) ;
#796 = VERTEX_POINT ( 'NONE', #919 ) ;
#797 = EDGE_LOOP ( 'NONE', ( #936, #348, #880, #128, #122 ) ) ;
#798 = EDGE_CURVE ( 'NONE', #597, #321, #824, .T. ) ;
#799 = LINE ( 'NONE', #966, #182 ) ;
#800 = PRODUCT_DEFINITION_SHAPE ( 'NONE', 'NONE',  #54 ) ;
#801 = VECTOR ( 'NONE', #752, 1000.000000000000000 ) ;
#802 = PLANE ( 'NONE',  #326 ) ;
#803 = DIRECTION ( 'NONE',  ( 1.000000000000000000, 1.214306433183764966E-16, -0.000000000000000000 ) ) ;
#804 = ORIENTED_EDGE ( 'NONE', *, *, #172, .F. ) ;
#805 = AXIS2_PLACEMENT_3D ( 'NONE', #246, #237, #658 ) ;
#806 = VECTOR ( 'NONE', #864, 1000.000000000000000 ) ;
#807 = VECTOR ( 'NONE', #287, 1000.000000000000114 ) ;
#808 = AXIS2_PLACEMENT_3D ( 'NONE', #379, #214, #621 ) ;
#809 = ORIENTED_EDGE ( 'NONE', *, *, #928, .T. ) ;
#810 = DIRECTION ( 'NONE',  ( -1.051620219116011593E-16, 0.8660254037844387076, 0.4999999999999998335 ) ) ;
#811 = DIRECTION ( 'NONE',  ( 0.000000000000000000, 0.000000000000000000, -1.000000000000000000 ) ) ;
#812 = CARTESIAN_POINT ( 'NONE',  ( 8.740844257168802756, -10.57996743589463762, 2.309401076758503812 ) ) ;
#813 = VERTEX_POINT ( 'NONE', #834 ) ;
#814 = ORIENTED_EDGE ( 'NONE', *, *, #297, .F. ) ;
#815 = DIRECTION ( 'NONE',  ( -1.000000000000000000, -1.214306433183764966E-16, -0.000000000000000000 ) ) ;
#816 = LINE ( 'NONE', #238, #392 ) ;
#817 = ADVANCED_FACE ( 'NONE', ( #181 ), #753, .T. ) ;
#818 = EDGE_LOOP ( 'NONE', ( #1050, #62, #574, #434 ) ) ;
#819 = CARTESIAN_POINT ( 'NONE',  ( 8.740844257168800979, -6.579967435894636729, 4.618802153517006737 ) ) ;
#820 = CYLINDRICAL_SURFACE ( 'NONE', #575, 1.499999999999998668 ) ;
#821 = AXIS2_PLACEMENT_3D ( 'NONE', #741, #414, #811 ) ;
#822 = CIRCLE ( 'NONE', #786, 2.999999999999998224 ) ;
#823 = VERTEX_POINT ( 'NONE', #428 ) ;
#824 = CIRCLE ( 'NONE', #85, 3.000000000000000000 ) ;
#825 = ADVANCED_FACE ( 'NONE', ( #601 ), #108, .T. ) ;
#826 = PLANE ( 'NONE',  #351 ) ;
#827 = LINE ( 'NONE', #679, #355 ) ;
#828 = VERTEX_POINT ( 'NONE', #696 ) ;
#829 = DIRECTION ( 'NONE',  ( 0.000000000000000000, -0.8660254037844387076, -0.4999999999999998335 ) ) ;
#830 = CARTESIAN_POINT ( 'NONE',  ( 8.740844257168802756, -10.57996743589463762, 2.309401076758503812 ) ) ;
#831 = VERTEX_POINT ( 'NONE', #299 ) ;
#832 = ADVANCED_FACE ( 'NONE', ( #706 ), #1016, .T. ) ;
#833 = SPHERICAL_SURFACE ( 'NONE', #711, 5.112500000000001599 ) ;
#834 = CARTESIAN_POINT ( 'NONE',  ( -12.25915574283120080, -2.579967435894637617, 2.309401076758504701 ) ) ;
#835 = CIRCLE ( 'NONE', #183, 2.999999999999999112 ) ;
#836 = CARTESIAN_POINT ( 'NONE',  ( 4.740844257168801867, -10.57996743589463939, 0.000000000000000000 ) ) ;
#837 = DIRECTION ( 'NONE',  ( -1.051620219116011593E-16, 0.8660254037844387076, -0.4999999999999998890 ) ) ;
#838 = ORIENTED_EDGE ( 'NONE', *, *, #140, .F. ) ;
#839 = CARTESIAN_POINT ( 'NONE',  ( -33.64665574283120719, -6.579967435894639394, 0.000000000000000000 ) ) ;
#840 = FACE_OUTER_BOUND ( 'NONE', #400, .T. ) ;
#841 = ORIENTED_EDGE ( 'NONE', *, *, #619, .F. ) ;
#842 = EDGE_LOOP ( 'NONE', ( #94, #368, #426, #1031 ) ) ;
#843 = CC_DESIGN_PERSON_AND_ORGANIZATION_ASSIGNMENT ( #683, #755, ( #744 ) ) ;
#844 = DIRECTION ( 'NONE',  ( -1.051620219116011470E-16, 0.8660254037844385966, 0.4999999999999999445 ) ) ;
#845 = DIRECTION ( 'NONE',  ( 1.000000000000000000, 1.214306433183764966E-16, -0.000000000000000000 ) ) ;
#846 = VERTEX_POINT ( 'NONE', #778 ) ;
#847 = VERTEX_POINT ( 'NONE', #445 ) ;
#848 =( NAMED_UNIT ( * ) PLANE_ANGLE_UNIT ( ) SI_UNIT ( $, .RADIAN. ) );
#849 = ADVANCED_FACE ( 'NONE', ( #44 ), #309, .T. ) ;
#850 = VECTOR ( 'NONE', #578, 1000.000000000000114 ) ;
#851 = AXIS2_PLACEMENT_3D ( 'NONE', #103, #96, #350 ) ;
#852 = VECTOR ( 'NONE', #316, 1000.000000000000114 ) ;
#853 = AXIS2_PLACEMENT_3D ( 'NONE', #1003, #20, #503 ) ;
#854 = DIRECTION ( 'NONE',  ( 0.000000000000000000, 1.000000000000000000, 0.000000000000000000 ) ) ;
#855 = LINE ( 'NONE', #766, #1006 ) ;
#856 = EDGE_CURVE ( 'NONE', #90, #148, #217, .T. ) ;
#857 = ORIENTED_EDGE ( 'NONE', *, *, #363, .T. ) ;
#858 = VERTEX_POINT ( 'NONE', #137 ) ;
#859 = CARTESIAN_POINT ( 'NONE',  ( -18.25915574283120790, -6.579967435894637617, -4.618802153517009401 ) ) ;
#860 = DATE_TIME_ROLE ( 'classification_date' ) ;
#861 = EDGE_CURVE ( 'NONE', #148, #823, #955, .T. ) ;
#862 = DIRECTION ( 'NONE',  ( 0.000000000000000000, -1.000000000000000000, 0.000000000000000000 ) ) ;
#863 = CARTESIAN_POINT ( 'NONE',  ( -16.25915574283120080, -6.579967435894637617, 0.000000000000000000 ) ) ;
#864 = DIRECTION ( 'NONE',  ( -1.000000000000000000, -1.214306433183764966E-16, -0.000000000000000000 ) ) ;
#865 = VERTEX_POINT ( 'NONE', #360 ) ;
#866 = DIRECTION ( 'NONE',  ( 0.000000000000000000, 0.000000000000000000, 1.000000000000000000 ) ) ;
#867 = APPROVAL_STATUS ( 'not_yet_approved' ) ;
#868 = DIRECTION ( 'NONE',  ( -1.000000000000000000, -1.214306433183764966E-16, -0.000000000000000000 ) ) ;
#869 = LINE ( 'NONE', #1020, #576 ) ;
#870 = EDGE_CURVE ( 'NONE', #481, #823, #131, .T. ) ;
#871 = DIRECTION ( 'NONE',  ( -1.000000000000000000, -1.214306433183764966E-16, -0.000000000000000000 ) ) ;
#872 = EDGE_LOOP ( 'NONE', ( #52, #965, #976, #362, #614, #687 ) ) ;
#873 = AXIS2_PLACEMENT_3D ( 'NONE', #312, #215, #59 ) ;
#874 = DIRECTION ( 'NONE',  ( 0.000000000000000000, -1.000000000000000000, 0.000000000000000000 ) ) ;
#875 = AXIS2_PLACEMENT_3D ( 'NONE', #905, #1063, #168 ) ;
#876 = DIRECTION ( 'NONE',  ( 0.000000000000000000, -1.000000000000000000, 0.000000000000000000 ) ) ;
#877 = ORIENTED_EDGE ( 'NONE', *, *, #170, .T. ) ;
#878 = CARTESIAN_POINT ( 'NONE',  ( -12.25915574283120080, -3.329967435894638950, -6.495190528383292694 ) ) ;
#879 = DIRECTION ( 'NONE',  ( 1.000000000000000000, 1.214306433183764966E-16, -0.000000000000000000 ) ) ;
#880 = ORIENTED_EDGE ( 'NONE', *, *, #564, .T. ) ;
#881 = EDGE_CURVE ( 'NONE', #887, #333, #746, .T. ) ;
#882 = VERTEX_POINT ( 'NONE', #53 ) ;
#883 = FACE_BOUND ( 'NONE', #190, .T. ) ;
#884 = CARTESIAN_POINT ( 'NONE',  ( 17.24084425716879920, -8.079967435894634065, 0.000000000000000000 ) ) ;
#885 = CARTESIAN_POINT ( 'NONE',  ( -16.25915574283120080, -9.579967435894637617, 0.000000000000000000 ) ) ;
#886 = ORIENTED_EDGE ( 'NONE', *, *, #551, .F. ) ;
#887 = VERTEX_POINT ( 'NONE', #616 ) ;
#888 = EDGE_CURVE ( 'NONE', #846, #813, #855, .T. ) ;
#889 = FACE_OUTER_BOUND ( 'NONE', #924, .T. ) ;
#890 = CARTESIAN_POINT ( 'NONE',  ( -18.25915574283120790, -6.579967435894639394, 4.618802153517006737 ) ) ;
#891 = CARTESIAN_POINT ( 'NONE',  ( -28.75915574283120080, -6.579967435894639394, 0.000000000000000000 ) ) ;
#892 = ORIENTED_EDGE ( 'NONE', *, *, #961, .F. ) ;
#893 = CIRCLE ( 'NONE', #520, 5.112500000000001599 ) ;
#894 = VECTOR ( 'NONE', #132, 1000.000000000000000 ) ;
#895 = ORIENTED_EDGE ( 'NONE', *, *, #798, .T. ) ;
#896 = EDGE_CURVE ( 'NONE', #268, #156, #577, .T. ) ;
#897 = CARTESIAN_POINT ( 'NONE',  ( 12.74084425716880098, -3.579967435894635397, 3.673940397442059375E-16 ) ) ;
#898 = DIRECTION ( 'NONE',  ( 0.000000000000000000, -1.000000000000000000, 0.000000000000000000 ) ) ;
#899 = VERTEX_POINT ( 'NONE', #513 ) ;
#900 = DIRECTION ( 'NONE',  ( -1.000000000000000000, -1.214306433183764966E-16, 0.000000000000000000 ) ) ;
#901 = CARTESIAN_POINT ( 'NONE',  ( -18.25915574283120435, -10.57996743589464117, -2.309401076758504701 ) ) ;
#902 = ORIENTED_EDGE ( 'NONE', *, *, #504, .T. ) ;
#903 = EDGE_CURVE ( 'NONE', #847, #90, #608, .T. ) ;
#904 = FACE_OUTER_BOUND ( 'NONE', #930, .T. ) ;
#905 = CARTESIAN_POINT ( 'NONE',  ( -28.75915574283120080, -6.579967435894639394, 0.000000000000000000 ) ) ;
#906 = VECTOR ( 'NONE', #405, 1000.000000000000114 ) ;
#907 = AXIS2_PLACEMENT_3D ( 'NONE', #226, #547, #979 ) ;
#908 = VECTOR ( 'NONE', #141, 1000.000000000000000 ) ;
#909 = ORIENTED_EDGE ( 'NONE', *, *, #888, .F. ) ;
#910 = AXIS2_PLACEMENT_3D ( 'NONE', #271, #671, #501 ) ;
#911 = CARTESIAN_POINT ( 'NONE',  ( -16.25915574283120080, -10.57996743589464117, 0.000000000000000000 ) ) ;
#912 = CARTESIAN_POINT ( 'NONE',  ( -20.25915574283120080, -9.579967435894637617, 3.673940397442059868E-16 ) ) ;
#913 = ORIENTED_EDGE ( 'NONE', *, *, #881, .F. ) ;
#914 = EDGE_CURVE ( 'NONE', #509, #682, #32, .T. ) ;
#915 = DIRECTION ( 'NONE',  ( 0.000000000000000000, 0.000000000000000000, -1.000000000000000000 ) ) ;
#916 = CARTESIAN_POINT ( 'NONE',  ( -33.64665574283120719, -6.579967435894639394, 0.000000000000000000 ) ) ;
#917 = UNCERTAINTY_MEASURE_WITH_UNIT (LENGTH_MEASURE( 1.000000000000000082E-05 ), #1022, 'distance_accuracy_value', 'NONE');
#918 = LINE ( 'NONE', #180, #64 ) ;
#919 = CARTESIAN_POINT ( 'NONE',  ( -16.25915574283120080, -10.57996743589464117, 2.309401076758503812 ) ) ;
#920 = SECURITY_CLASSIFICATION ( '', '', #430 ) ;
#921 = AXIS2_PLACEMENT_3D ( 'NONE', #622, #1034, #230 ) ;
#922 = CARTESIAN_POINT ( 'NONE',  ( -20.25915574283120080, -9.579967435894637617, 3.673940397442059868E-16 ) ) ;
#923 = CARTESIAN_POINT ( 'NONE',  ( 4.740844257168800979, -2.329967435894638061, 2.165063509461099933 ) ) ;
#924 = EDGE_LOOP ( 'NONE', ( #399, #78, #1055, #1035 ) ) ;
#925 = ADVANCED_FACE ( 'NONE', ( #519 ), #120, .T. ) ;
#926 = CARTESIAN_POINT ( 'NONE',  ( 4.740844257168800979, -9.579967435894632288, 0.000000000000000000 ) ) ;
#927 = CARTESIAN_POINT ( 'NONE',  ( 17.24084425716879920, -6.579967435894634953, 0.000000000000000000 ) ) ;
#928 = EDGE_CURVE ( 'NONE', #282, #420, #869, .T. ) ;
#929 = ORIENTED_EDGE ( 'NONE', *, *, #672, .T. ) ;
#930 = EDGE_LOOP ( 'NONE', ( #1013, #105, #407, #618 ) ) ;
#931 = FACE_OUTER_BOUND ( 'NONE', #842, .T. ) ;
#932 = EDGE_CURVE ( 'NONE', #321, #597, #542, .T. ) ;
#933 = COORDINATED_UNIVERSAL_TIME_OFFSET ( 1, 0, .AHEAD. ) ;
#934 = LINE ( 'NONE', #427, #489 ) ;
#935 = DIRECTION ( 'NONE',  ( -1.000000000000000000, -1.214306433183764966E-16, -0.000000000000000000 ) ) ;
#936 = ORIENTED_EDGE ( 'NONE', *, *, #928, .F. ) ;
#937 = ORIENTED_EDGE ( 'NONE', *, *, #870, .T. ) ;
#938 = ORIENTED_EDGE ( 'NONE', *, *, #77, .F. ) ;
#939 = AXIS2_PLACEMENT_3D ( 'NONE', #667, #512, #195 ) ;
#940 = AXIS2_PLACEMENT_3D ( 'NONE', #84, #244, #471 ) ;
#941 = CC_DESIGN_SECURITY_CLASSIFICATION ( #920, ( #744 ) ) ;
#942 = APPROVAL_ROLE ( '' ) ;
#943 = AXIS2_PLACEMENT_3D ( 'NONE', #703, #207, #35 ) ;
#944 = DIRECTION ( 'NONE',  ( 1.140168926195260892E-32, -9.389466242107237782E-17, 1.000000000000000000 ) ) ;
#945 = DIRECTION ( 'NONE',  ( -1.000000000000000000, -1.214306433183764966E-16, -0.000000000000000000 ) ) ;
#946 = LINE ( 'NONE', #704, #474 ) ;
#947 = EDGE_LOOP ( 'NONE', ( #718, #714, #498, #602 ) ) ;
#948 = EDGE_CURVE ( 'NONE', #865, #796, #1029, .T. ) ;
#949 = DATE_AND_TIME ( #694, #1004 ) ;
#950 = CARTESIAN_POINT ( 'NONE',  ( -28.75915574283120080, -6.579967435894639394, 0.000000000000000000 ) ) ;
#951 = DIRECTION ( 'NONE',  ( 1.051620219116011593E-16, -0.8660254037844387076, -0.4999999999999998335 ) ) ;
#952 = CARTESIAN_POINT ( 'NONE',  ( 26.12834425716880205, -6.579967435894634065, 5.112500000000001599 ) ) ;
#953 = ORIENTED_EDGE ( 'NONE', *, *, #408, .F. ) ;
#954 = DIRECTION ( 'NONE',  ( 0.000000000000000000, -0.8660254037844388186, 0.4999999999999996114 ) ) ;
#955 = LINE ( 'NONE', #294, #962 ) ;
#956 = DIRECTION ( 'NONE',  ( 1.000000000000000000, 1.214306433183764966E-16, -0.000000000000000000 ) ) ;
#957 = ORIENTED_EDGE ( 'NONE', *, *, #739, .F. ) ;
#958 = VECTOR ( 'NONE', #188, 1000.000000000000114 ) ;
#959 = AXIS2_PLACEMENT_3D ( 'NONE', #673, #266, #954 ) ;
#960 = LINE ( 'NONE', #1040, #609 ) ;
#961 = EDGE_CURVE ( 'NONE', #882, #605, #719, .T. ) ;
#962 = VECTOR ( 'NONE', #302, 1000.000000000000227 ) ;
#963 = DIRECTION ( 'NONE',  ( 1.000000000000000000, 1.214306433183764966E-16, 0.000000000000000000 ) ) ;
#964 = ORIENTED_EDGE ( 'NONE', *, *, #38, .T. ) ;
#965 = ORIENTED_EDGE ( 'NONE', *, *, #861, .T. ) ;
#966 = CARTESIAN_POINT ( 'NONE',  ( -16.25915574283120080, -2.579967435894638061, 9.389466242107241480E-17 ) ) ;
#967 = CARTESIAN_POINT ( 'NONE',  ( -18.25915574283120790, -6.579967435894639394, 4.618802153517006737 ) ) ;
#968 = DIRECTION ( 'NONE',  ( 1.051620219116011593E-16, -0.8660254037844387076, -0.4999999999999998335 ) ) ;
#969 = EDGE_CURVE ( 'NONE', #381, #846, #229, .T. ) ;
#970 = DIRECTION ( 'NONE',  ( 0.000000000000000000, -0.8660254037844388186, 0.4999999999999996114 ) ) ;
#971 = ORIENTED_EDGE ( 'NONE', *, *, #278, .T. ) ;
#972 = CARTESIAN_POINT ( 'NONE',  ( 8.740844257168800979, -2.579967435894634509, -2.309401076758505589 ) ) ;
#973 = PLANE ( 'NONE',  #805 ) ;
#974 = FACE_OUTER_BOUND ( 'NONE', #818, .T. ) ;
#975 = ORIENTED_EDGE ( 'NONE', *, *, #462, .F. ) ;
#976 = ORIENTED_EDGE ( 'NONE', *, *, #982, .T. ) ;
#977 = EDGE_CURVE ( 'NONE', #144, #723, #960, .T. ) ;
#978 = FACE_OUTER_BOUND ( 'NONE', #985, .T. ) ;
#979 = DIRECTION ( 'NONE',  ( 0.000000000000000000, -0.8660254037844387076, -0.4999999999999998335 ) ) ;
#980 = VECTOR ( 'NONE', #213, 1000.000000000000114 ) ;
#981 = ORIENTED_EDGE ( 'NONE', *, *, #580, .F. ) ;
#982 = EDGE_CURVE ( 'NONE', #823, #21, #638, .T. ) ;
#983 = CYLINDRICAL_SURFACE ( 'NONE', #761, 3.000000000000000000 ) ;
#984 = DIRECTION ( 'NONE',  ( -1.000000000000000000, -1.214306433183764966E-16, -0.000000000000000000 ) ) ;
#985 = EDGE_LOOP ( 'NONE', ( #902, #274, #632, #675 ) ) ;
#986 = CARTESIAN_POINT ( 'NONE',  ( -12.25915574283120080, 0.4200325641053612724, 0.000000000000000000 ) ) ;
#987 = DIRECTION ( 'NONE',  ( 0.000000000000000000, -1.000000000000000000, 0.000000000000000000 ) ) ;
#988 = ORIENTED_EDGE ( 'NONE', *, *, #1051, .T. ) ;
#989 = CARTESIAN_POINT ( 'NONE',  ( -28.75915574283120080, -6.579967435894639394, 0.000000000000000000 ) ) ;
#990 = EDGE_CURVE ( 'NONE', #143, #858, #799, .T. ) ;
#991 = CONICAL_SURFACE ( 'NONE', #288, 1.499999999999998668, 0.3217505543966426296 ) ;
#992 = AXIS2_PLACEMENT_3D ( 'NONE', #552, #310, #225 ) ;
#993 = ORIENTED_EDGE ( 'NONE', *, *, #861, .F. ) ;
#994 = AXIS2_PLACEMENT_3D ( 'NONE', #998, #89, #267 ) ;
#995 = SPHERICAL_SURFACE ( 'NONE', #390, 5.112500000000001599 ) ;
#996 = SPHERICAL_SURFACE ( 'NONE', #716, 5.112500000000001599 ) ;
#997 = FACE_OUTER_BOUND ( 'NONE', #227, .T. ) ;
#998 = CARTESIAN_POINT ( 'NONE',  ( -18.25915574283120790, -2.579967435894638061, -2.309401076758505589 ) ) ;
#999 = DESIGN_CONTEXT ( 'detailed design', #123, 'design' ) ;
#1000 = VERTEX_POINT ( 'NONE', #468 ) ;
#1001 = ADVANCED_FACE ( 'NONE', ( #889 ), #74, .T. ) ;
#1002 = DIRECTION ( 'NONE',  ( 0.000000000000000000, 1.000000000000000000, 0.000000000000000000 ) ) ;
#1003 = CARTESIAN_POINT ( 'NONE',  ( 4.740844257168800979, -3.579967435894638950, 0.000000000000000000 ) ) ;
#1004 = LOCAL_TIME ( 14, 41, 19.00000000000000000, #42 ) ;
#1005 = ORIENTED_EDGE ( 'NONE', *, *, #408, .T. ) ;
#1006 = VECTOR ( 'NONE', #382, 1000.000000000000114 ) ;
#1007 = APPROVAL_STATUS ( 'not_yet_approved' ) ;
#1008 = DIRECTION ( 'NONE',  ( 6.071532165918823598E-17, -0.4999999999999998890, -0.8660254037844387076 ) ) ;
#1009 = DIRECTION ( 'NONE',  ( 0.000000000000000000, -1.000000000000000000, 0.000000000000000000 ) ) ;
#1010 = EDGE_LOOP ( 'NONE', ( #758, #809, #31, #981, #12 ) ) ;
#1011 = ORIENTED_EDGE ( 'NONE', *, *, #701, .F. ) ;
#1012 = EDGE_CURVE ( 'NONE', #321, #56, #386, .T. ) ;
#1013 = ORIENTED_EDGE ( 'NONE', *, *, #888, .T. ) ;
#1014 = DATE_AND_TIME ( #364, #629 ) ;
#1015 = CARTESIAN_POINT ( 'NONE',  ( 26.12834425716880205, -6.579967435894634065, 0.000000000000000000 ) ) ;
#1016 = CYLINDRICAL_SURFACE ( 'NONE', #224, 2.999999999999998224 ) ;
#1017 = ORIENTED_EDGE ( 'NONE', *, *, #548, .T. ) ;
#1018 = VERTEX_POINT ( 'NONE', #710 ) ;
#1019 = CARTESIAN_POINT ( 'NONE',  ( -24.75915574283120080, -8.079967435894637617, 0.000000000000000000 ) ) ;
#1020 = CARTESIAN_POINT ( 'NONE',  ( -28.75915574283120080, -5.079967435894641170, 1.836970198721028948E-16 ) ) ;
#1021 = ORIENTED_EDGE ( 'NONE', *, *, #771, .T. ) ;
#1022 =( LENGTH_UNIT ( ) NAMED_UNIT ( * ) SI_UNIT ( .MILLI., .METRE. ) );
#1023 = ADVANCED_FACE ( 'NONE', ( #883, #793 ), #58, .F. ) ;
#1024 = APPROVAL_PERSON_ORGANIZATION ( #772, #121, #33 ) ;
#1025 = AXIS2_PLACEMENT_3D ( 'NONE', #102, #270, #589 ) ;
#1026 = VECTOR ( 'NONE', #398, 1000.000000000000000 ) ;
#1027 = PERSON_AND_ORGANIZATION_ROLE ( 'design_owner' ) ;
#1028 = CARTESIAN_POINT ( 'NONE',  ( 17.24084425716879920, -6.579967435894634953, 0.000000000000000000 ) ) ;
#1029 = LINE ( 'NONE', #450, #1057 ) ;
#1030 = CARTESIAN_POINT ( 'NONE',  ( 8.740844257168800979, 0.4200325641053612724, 0.000000000000000000 ) ) ;
#1031 = ORIENTED_EDGE ( 'NONE', *, *, #417, .F. ) ;
#1032 = DIRECTION ( 'NONE',  ( -1.000000000000000000, -1.214306433183764966E-16, -0.000000000000000000 ) ) ;
#1033 = DIRECTION ( 'NONE',  ( -1.000000000000000000, -1.214306433183764966E-16, -0.000000000000000000 ) ) ;
#1034 = DIRECTION ( 'NONE',  ( -1.000000000000000000, -1.214306433183764966E-16, -0.000000000000000000 ) ) ;
#1035 = ORIENTED_EDGE ( 'NONE', *, *, #431, .T. ) ;
#1036 = CARTESIAN_POINT ( 'NONE',  ( -28.75915574283120080, -6.579967435894639394, 0.000000000000000000 ) ) ;
#1037 = CARTESIAN_POINT ( 'NONE',  ( -28.75915574283120080, -5.079967435894641170, 1.836970198721028208E-16 ) ) ;
#1038 = ORIENTED_EDGE ( 'NONE', *, *, #914, .F. ) ;
#1039 = EDGE_CURVE ( 'NONE', #461, #700, #396, .T. ) ;
#1040 = CARTESIAN_POINT ( 'NONE',  ( -18.25915574283120435, -10.57996743589464117, 2.309401076758503812 ) ) ;
#1041 = AXIS2_PLACEMENT_3D ( 'NONE', #790, #1033, #624 ) ;
#1042 = DIRECTION ( 'NONE',  ( 1.214306433183764966E-16, -1.000000000000000000, 0.000000000000000000 ) ) ;
#1043 = CARTESIAN_POINT ( 'NONE',  ( -18.25915574283120435, -10.57996743589464117, 2.309401076758503812 ) ) ;
#1044 = LINE ( 'NONE', #636, #307 ) ;
#1045 = ADVANCED_FACE ( 'NONE', ( #931 ), #203, .T. ) ;
#1046 = ORIENTED_EDGE ( 'NONE', *, *, #932, .F. ) ;
#1047 = CARTESIAN_POINT ( 'NONE',  ( 17.24084425716879920, -8.079967435894634065, 0.000000000000000000 ) ) ;
#1048 = DIRECTION ( 'NONE',  ( -1.000000000000000000, -1.214306433183764966E-16, -0.000000000000000000 ) ) ;
#1049 = DIRECTION ( 'NONE',  ( -1.000000000000000000, -1.214306433183764966E-16, -0.000000000000000000 ) ) ;
#1050 = ORIENTED_EDGE ( 'NONE', *, *, #672, .F. ) ;
#1051 = EDGE_CURVE ( 'NONE', #555, #882, #281, .T. ) ;
#1052 = VERTEX_POINT ( 'NONE', #369 ) ;
#1053 = LINE ( 'NONE', #911, #254 ) ;
#1054 = CARTESIAN_POINT ( 'NONE',  ( -12.25915574283119902, -10.57996743589464295, 0.000000000000000000 ) ) ;
#1055 = ORIENTED_EDGE ( 'NONE', *, *, #191, .T. ) ;
#1056 = EDGE_CURVE ( 'NONE', #248, #555, #47, .T. ) ;
#1057 = VECTOR ( 'NONE', #951, 1000.000000000000114 ) ;
#1058 = CARTESIAN_POINT ( 'NONE',  ( 8.740844257168802756, -10.57996743589463762, -2.309401076758504701 ) ) ;
#1059 = DIRECTION ( 'NONE',  ( 1.000000000000000000, 1.214306433183764966E-16, -0.000000000000000000 ) ) ;
#1060 = AXIS2_PLACEMENT_3D ( 'NONE', #891, #71, #328 ) ;
#1061 = EDGE_LOOP ( 'NONE', ( #892, #626, #515, #909, #453, #286 ) ) ;
#1062 = CARTESIAN_POINT ( 'NONE',  ( -33.64665574283120719, -6.579967435894639394, -5.112500000000001599 ) ) ;
#1063 = DIRECTION ( 'NONE',  ( -1.000000000000000000, -1.214306433183764966E-16, -0.000000000000000000 ) ) ;
ENDSEC;
END-ISO-10303-21;
