ISO-10303-21;
HEADER;
FILE_DESCRIPTION (( 'STEP AP203' ),
    '1' );
FILE_NAME ('H2_Défaut_sldprt.STEP',
    '2025-05-01T13:41:21',
    ( '' ),
    ( '' ),
    'SwSTEP 2.0',
    'SolidWorks 2022',
    '' );
FILE_SCHEMA (( 'CONFIG_CONTROL_DESIGN' ));
ENDSEC;

DATA;
#1 = DIRECTION ( 'NONE',  ( -1.000000000000000000, -1.214306433183764966E-16, -0.000000000000000000 ) ) ;
#2 = CARTESIAN_POINT ( 'NONE',  ( 6.240844257168800979, -2.579967435894634509, -2.309401076758505589 ) ) ;
#3 = EDGE_CURVE ( 'NONE', #885, #651, #190, .T. ) ;
#4 = APPROVAL_DATE_TIME ( #739, #365 ) ;
#5 = LINE ( 'NONE', #504, #919 ) ;
#6 = DIRECTION ( 'NONE',  ( 0.000000000000000000, -1.000000000000000000, 0.000000000000000000 ) ) ;
#7 = PERSON_AND_ORGANIZATION ( #795, #389 ) ;
#8 = CARTESIAN_POINT ( 'NONE',  ( -28.75915574283120080, -3.579967435894639838, 3.673940397442059868E-16 ) ) ;
#9 = EDGE_CURVE ( 'NONE', #858, #598, #205, .T. ) ;
#10 = AXIS2_PLACEMENT_3D ( 'NONE', #822, #582, #19 ) ;
#11 = ORIENTED_EDGE ( 'NONE', *, *, #272, .T. ) ;
#12 = LINE ( 'NONE', #506, #174 ) ;
#13 = AXIS2_PLACEMENT_3D ( 'NONE', #38, #684, #701 ) ;
#14 = CC_DESIGN_APPROVAL ( #474, ( #659 ) ) ;
#15 = ORIENTED_EDGE ( 'NONE', *, *, #62, .T. ) ;
#16 = EDGE_CURVE ( 'NONE', #694, #263, #417, .T. ) ;
#17 = EDGE_LOOP ( 'NONE', ( #605, #265, #548, #698 ) ) ;
#18 = LINE ( 'NONE', #573, #453 ) ;
#19 = DIRECTION ( 'NONE',  ( 1.000000000000000000, 0.000000000000000000, 0.000000000000000000 ) ) ;
#20 = ORIENTED_EDGE ( 'NONE', *, *, #62, .F. ) ;
#21 = APPROVAL_STATUS ( 'not_yet_approved' ) ;
#22 = DIRECTION ( 'NONE',  ( -1.000000000000000000, -1.214306433183764966E-16, -0.000000000000000000 ) ) ;
#23 = FACE_BOUND ( 'NONE', #540, .T. ) ;
#24 = VERTEX_POINT ( 'NONE', #771 ) ;
#25 = CARTESIAN_POINT ( 'NONE',  ( 6.240844257168800979, 0.4200325641053612724, 0.000000000000000000 ) ) ;
#26 = DIRECTION ( 'NONE',  ( 0.000000000000000000, 1.000000000000000000, 0.000000000000000000 ) ) ;
#27 = AXIS2_PLACEMENT_3D ( 'NONE', #765, #530, #445 ) ;
#28 = AXIS2_PLACEMENT_3D ( 'NONE', #714, #972, #468 ) ;
#29 = ORIENTED_EDGE ( 'NONE', *, *, #528, .F. ) ;
#30 = EDGE_CURVE ( 'NONE', #284, #767, #862, .T. ) ;
#31 = VECTOR ( 'NONE', #1003, 1000.000000000000000 ) ;
#32 = EDGE_CURVE ( 'NONE', #598, #847, #685, .T. ) ;
#33 = DIRECTION ( 'NONE',  ( 0.000000000000000000, -1.000000000000000000, 0.000000000000000000 ) ) ;
#34 = CARTESIAN_POINT ( 'NONE',  ( -20.25915574283120080, -6.579967435894638506, 0.000000000000000000 ) ) ;
#35 = ORIENTED_EDGE ( 'NONE', *, *, #211, .T. ) ;
#36 = ORIENTED_EDGE ( 'NONE', *, *, #360, .F. ) ;
#37 = CARTESIAN_POINT ( 'NONE',  ( -28.75915574283120080, -6.579967435894639394, 0.000000000000000000 ) ) ;
#38 = CARTESIAN_POINT ( 'NONE',  ( 26.12834425716880205, -6.579967435894634065, 0.000000000000000000 ) ) ;
#39 = CARTESIAN_POINT ( 'NONE',  ( 2.240844257168802311, -6.329967435894638506, -4.763139720814415057 ) ) ;
#40 = VERTEX_POINT ( 'NONE', #620 ) ;
#41 = DIRECTION ( 'NONE',  ( -1.000000000000000000, -1.214306433183764966E-16, -0.000000000000000000 ) ) ;
#42 = EDGE_CURVE ( 'NONE', #847, #165, #45, .T. ) ;
#43 = LINE ( 'NONE', #366, #433 ) ;
#44 = ORIENTED_EDGE ( 'NONE', *, *, #578, .T. ) ;
#45 = LINE ( 'NONE', #1016, #650 ) ;
#46 = ORIENTED_EDGE ( 'NONE', *, *, #496, .T. ) ;
#47 = CONICAL_SURFACE ( 'NONE', #486, 1.499999999999998668, 0.3217505543966426296 ) ;
#48 = VECTOR ( 'NONE', #493, 1000.000000000000114 ) ;
#49 = DIRECTION ( 'NONE',  ( 1.224646799147353207E-16, 1.000000000000000000, -0.000000000000000000 ) ) ;
#50 = CARTESIAN_POINT ( 'NONE',  ( -9.759155742831200797, -3.579967435894638061, 3.673940397442058389E-16 ) ) ;
#51 = ORIENTED_EDGE ( 'NONE', *, *, #712, .F. ) ;
#52 = CARTESIAN_POINT ( 'NONE',  ( -20.25915574283120080, -6.579967435894638506, 0.000000000000000000 ) ) ;
#53 = CARTESIAN_POINT ( 'NONE',  ( 2.240844257168801867, -2.329967435894638061, 2.165063509461099933 ) ) ;
#54 = VERTEX_POINT ( 'NONE', #939 ) ;
#55 = DIRECTION ( 'NONE',  ( 1.000000000000000000, 1.214306433183764966E-16, -0.000000000000000000 ) ) ;
#56 = FACE_OUTER_BOUND ( 'NONE', #630, .T. ) ;
#57 = FACE_OUTER_BOUND ( 'NONE', #126, .T. ) ;
#58 = ORIENTED_EDGE ( 'NONE', *, *, #121, .F. ) ;
#59 = CARTESIAN_POINT ( 'NONE',  ( -9.759155742831200797, -2.579967435894637173, -2.816839872632169856E-16 ) ) ;
#60 = ORIENTED_EDGE ( 'NONE', *, *, #169, .T. ) ;
#61 = VECTOR ( 'NONE', #997, 1000.000000000000000 ) ;
#62 = EDGE_CURVE ( 'NONE', #500, #617, #635, .T. ) ;
#63 = DIRECTION ( 'NONE',  ( 0.000000000000000000, -1.000000000000000000, 0.000000000000000000 ) ) ;
#64 = AXIS2_PLACEMENT_3D ( 'NONE', #287, #615, #435 ) ;
#65 = AXIS2_PLACEMENT_3D ( 'NONE', #467, #796, #1030 ) ;
#66 = DIRECTION ( 'NONE',  ( -1.000000000000000000, 1.696551076749933825E-16, 0.000000000000000000 ) ) ;
#67 = DIRECTION ( 'NONE',  ( 1.000000000000000000, 1.214306433183764966E-16, -0.000000000000000000 ) ) ;
#68 = LINE ( 'NONE', #479, #586 ) ;
#69 = DIRECTION ( 'NONE',  ( -1.000000000000000000, -1.214306433183764966E-16, -0.000000000000000000 ) ) ;
#70 = CARTESIAN_POINT ( 'NONE',  ( -28.75915574283120080, -6.579967435894639394, 0.000000000000000000 ) ) ;
#71 = FACE_OUTER_BOUND ( 'NONE', #597, .T. ) ;
#72 = ADVANCED_FACE ( 'NONE', ( #398 ), #808, .T. ) ;
#73 = SPHERICAL_SURFACE ( 'NONE', #554, 5.112500000000001599 ) ;
#74 = SECURITY_CLASSIFICATION_LEVEL ( 'unclassified' ) ;
#75 = AXIS2_PLACEMENT_3D ( 'NONE', #197, #527, #437 ) ;
#76 = AXIS2_PLACEMENT_3D ( 'NONE', #37, #516, #682 ) ;
#77 = DIRECTION ( 'NONE',  ( -1.877893248421449282E-16, 0.8660254037844385966, 0.5000000000000000000 ) ) ;
#78 = CIRCLE ( 'NONE', #621, 2.999999999999997335 ) ;
#79 = DIRECTION ( 'NONE',  ( 1.000000000000000000, 0.000000000000000000, 0.000000000000000000 ) ) ;
#80 = CALENDAR_DATE ( 2025, 1, 5 ) ;
#81 = CARTESIAN_POINT ( 'NONE',  ( 6.240844257168802756, -6.579967435894635841, 0.000000000000000000 ) ) ;
#82 = DIRECTION ( 'NONE',  ( 0.000000000000000000, -1.000000000000000000, 0.000000000000000000 ) ) ;
#83 = ORIENTED_EDGE ( 'NONE', *, *, #806, .T. ) ;
#84 = DIRECTION ( 'NONE',  ( -1.000000000000000000, -1.214306433183764966E-16, -0.000000000000000000 ) ) ;
#85 = FACE_OUTER_BOUND ( 'NONE', #686, .T. ) ;
#86 = EDGE_CURVE ( 'NONE', #1010, #431, #887, .T. ) ;
#87 = COORDINATED_UNIVERSAL_TIME_OFFSET ( 1, 0, .AHEAD. ) ;
#88 = EDGE_CURVE ( 'NONE', #702, #177, #933, .T. ) ;
#89 = DIRECTION ( 'NONE',  ( 0.000000000000000000, -1.000000000000000000, 0.000000000000000000 ) ) ;
#90 = DIRECTION ( 'NONE',  ( 1.051620219116011593E-16, -0.8660254037844387076, 0.4999999999999997224 ) ) ;
#91 = VECTOR ( 'NONE', #782, 1000.000000000000000 ) ;
#92 = AXIS2_PLACEMENT_3D ( 'NONE', #286, #779, #374 ) ;
#93 = ORIENTED_EDGE ( 'NONE', *, *, #740, .F. ) ;
#94 = CARTESIAN_POINT ( 'NONE',  ( -13.75915574283120080, -6.329967435894638506, -4.763139720814415945 ) ) ;
#95 = DIRECTION ( 'NONE',  ( -0.9486832980505136570, -0.3162277660168383853, 0.000000000000000000 ) ) ;
#96 = ORIENTED_EDGE ( 'NONE', *, *, #378, .F. ) ;
#97 = UNCERTAINTY_MEASURE_WITH_UNIT (LENGTH_MEASURE( 1.000000000000000082E-05 ), #535, 'distance_accuracy_value', 'NONE');
#98 = CYLINDRICAL_SURFACE ( 'NONE', #194, 2.999999999999998224 ) ;
#99 = FACE_OUTER_BOUND ( 'NONE', #531, .T. ) ;
#100 = ADVANCED_FACE ( 'NONE', ( #880 ), #73, .T. ) ;
#101 = ORIENTED_EDGE ( 'NONE', *, *, #483, .T. ) ;
#102 = CARTESIAN_POINT ( 'NONE',  ( 2.240844257168802311, -2.579967435894635397, -2.309401076758505589 ) ) ;
#103 = CARTESIAN_POINT ( 'NONE',  ( 2.240844257168802311, -6.329967435894636729, 4.763139720814413280 ) ) ;
#104 = VECTOR ( 'NONE', #547, 1000.000000000000000 ) ;
#105 = ORIENTED_EDGE ( 'NONE', *, *, #644, .F. ) ;
#106 = AXIS2_PLACEMENT_3D ( 'NONE', #1004, #770, #264 ) ;
#107 = ORIENTED_EDGE ( 'NONE', *, *, #644, .T. ) ;
#108 = CC_DESIGN_PERSON_AND_ORGANIZATION_ASSIGNMENT ( #326, #321, ( #1001 ) ) ;
#109 = CIRCLE ( 'NONE', #129, 3.000000000000000000 ) ;
#110 = CARTESIAN_POINT ( 'NONE',  ( -33.64665574283120719, -6.579967435894639394, -5.112500000000001599 ) ) ;
#111 = LINE ( 'NONE', #441, #813 ) ;
#112 = ORIENTED_EDGE ( 'NONE', *, *, #512, .T. ) ;
#113 = ORIENTED_EDGE ( 'NONE', *, *, #994, .F. ) ;
#114 = ADVANCED_FACE ( 'NONE', ( #631 ), #801, .T. ) ;
#115 = FACE_OUTER_BOUND ( 'NONE', #324, .T. ) ;
#116 = ORIENTED_EDGE ( 'NONE', *, *, #975, .F. ) ;
#117 = CARTESIAN_POINT ( 'NONE',  ( -9.759155742831200797, -2.579967435894634509, -2.309401076758504701 ) ) ;
#118 = ORIENTED_EDGE ( 'NONE', *, *, #788, .F. ) ;
#119 = CARTESIAN_POINT ( 'NONE',  ( 6.240844257168801867, -10.57996743589463939, 2.309401076758503812 ) ) ;
#120 = ORIENTED_EDGE ( 'NONE', *, *, #221, .F. ) ;
#121 = EDGE_CURVE ( 'NONE', #363, #192, #804, .T. ) ;
#122 = EDGE_CURVE ( 'NONE', #575, #766, #553, .T. ) ;
#123 = CARTESIAN_POINT ( 'NONE',  ( 12.74084425716880098, -6.579967435894634953, 0.000000000000000000 ) ) ;
#124 = DIRECTION ( 'NONE',  ( 0.000000000000000000, -0.8660254037844387076, -0.4999999999999997224 ) ) ;
#125 = ORIENTED_EDGE ( 'NONE', *, *, #275, .F. ) ;
#126 = EDGE_LOOP ( 'NONE', ( #229, #868, #382, #908, #873 ) ) ;
#127 = CONICAL_SURFACE ( 'NONE', #864, 3.000000000000000000, 0.3217505543966425741 ) ;
#128 = VECTOR ( 'NONE', #831, 1000.000000000000000 ) ;
#129 = AXIS2_PLACEMENT_3D ( 'NONE', #123, #449, #614 ) ;
#130 = CYLINDRICAL_SURFACE ( 'NONE', #421, 2.999999999999998224 ) ;
#131 = ORIENTED_EDGE ( 'NONE', *, *, #1044, .T. ) ;
#132 = FACE_OUTER_BOUND ( 'NONE', #187, .T. ) ;
#133 = EDGE_LOOP ( 'NONE', ( #270, #932, #940, #995, #356, #337 ) ) ;
#134 = ORIENTED_EDGE ( 'NONE', *, *, #992, .T. ) ;
#135 = DIRECTION ( 'NONE',  ( 0.000000000000000000, -1.000000000000000000, 0.000000000000000000 ) ) ;
#136 = DIRECTION ( 'NONE',  ( -1.000000000000000000, -1.214306433183764966E-16, -0.000000000000000000 ) ) ;
#137 = EDGE_CURVE ( 'NONE', #533, #1010, #968, .T. ) ;
#138 = DIRECTION ( 'NONE',  ( 0.000000000000000000, -1.000000000000000000, 0.000000000000000000 ) ) ;
#139 = ORIENTED_EDGE ( 'NONE', *, *, #86, .T. ) ;
#140 = ADVANCED_FACE ( 'NONE', ( #485 ), #1058, .T. ) ;
#141 = CARTESIAN_POINT ( 'NONE',  ( -13.75915574283120080, -2.579967435894637173, -2.309401076758505589 ) ) ;
#142 = CARTESIAN_POINT ( 'NONE',  ( -20.75915574283120790, -6.579967435894637617, -4.618802153517009401 ) ) ;
#143 = DIRECTION ( 'NONE',  ( -6.071532165918821133E-17, 0.4999999999999996114, 0.8660254037844388186 ) ) ;
#144 = APPROVAL ( #580, 'UNSPECIFIED' ) ;
#145 = FACE_OUTER_BOUND ( 'NONE', #611, .T. ) ;
#146 = VECTOR ( 'NONE', #893, 1000.000000000000000 ) ;
#147 = APPROVAL_PERSON_ORGANIZATION ( #252, #144, #820 ) ;
#148 = CYLINDRICAL_SURFACE ( 'NONE', #334, 1.499999999999998668 ) ;
#149 = EDGE_LOOP ( 'NONE', ( #352, #1005, #959, #1029 ) ) ;
#150 = CARTESIAN_POINT ( 'NONE',  ( -33.64665574283120719, -6.579967435894639394, 0.000000000000000000 ) ) ;
#151 = EDGE_CURVE ( 'NONE', #744, #851, #625, .T. ) ;
#152 = DIRECTION ( 'NONE',  ( -1.000000000000000000, -1.214306433183764966E-16, -0.000000000000000000 ) ) ;
#153 = DIRECTION ( 'NONE',  ( 1.000000000000000000, 0.000000000000000000, 0.000000000000000000 ) ) ;
#154 = CALENDAR_DATE ( 2025, 1, 5 ) ;
#155 = CC_DESIGN_DATE_AND_TIME_ASSIGNMENT ( #654, #170, ( #457 ) ) ;
#156 = CARTESIAN_POINT ( 'NONE',  ( -28.75915574283120080, -8.079967435894637617, 0.000000000000000000 ) ) ;
#157 = DIRECTION ( 'NONE',  ( 0.000000000000000000, -1.000000000000000000, 0.000000000000000000 ) ) ;
#158 = VERTEX_POINT ( 'NONE', #642 ) ;
#159 = PERSON_AND_ORGANIZATION_ROLE ( 'creator' ) ;
#160 = VECTOR ( 'NONE', #981, 1000.000000000000114 ) ;
#161 = CIRCLE ( 'NONE', #1019, 2.999999999999999112 ) ;
#162 = DIRECTION ( 'NONE',  ( -1.000000000000000000, -1.214306433183764966E-16, -0.000000000000000000 ) ) ;
#163 = VECTOR ( 'NONE', #379, 1000.000000000000000 ) ;
#164 = LINE ( 'NONE', #907, #61 ) ;
#165 = VERTEX_POINT ( 'NONE', #2 ) ;
#166 = DATE_AND_TIME ( #154, #244 ) ;
#167 = CARTESIAN_POINT ( 'NONE',  ( -13.75915574283120080, -10.57996743589464295, 2.309401076758503812 ) ) ;
#168 = SPHERICAL_SURFACE ( 'NONE', #10, 5.112500000000001599 ) ;
#169 = EDGE_CURVE ( 'NONE', #626, #408, #1054, .T. ) ;
#170 = DATE_TIME_ROLE ( 'classification_date' ) ;
#171 = CARTESIAN_POINT ( 'NONE',  ( 21.24084425716880276, -6.579967435894633176, -1.500000000000003775 ) ) ;
#172 = DIRECTION ( 'NONE',  ( -1.000000000000000000, -1.214306433183764966E-16, -0.000000000000000000 ) ) ;
#173 = LINE ( 'NONE', #94, #48 ) ;
#174 = VECTOR ( 'NONE', #90, 1000.000000000000114 ) ;
#175 = DIRECTION ( 'NONE',  ( 0.000000000000000000, -0.8660254037844388186, -0.4999999999999997224 ) ) ;
#176 = AXIS2_PLACEMENT_3D ( 'NONE', #491, #22, #976 ) ;
#177 = VERTEX_POINT ( 'NONE', #716 ) ;
#178 = ADVANCED_FACE ( 'NONE', ( #393 ), #235, .T. ) ;
#179 = DIRECTION ( 'NONE',  ( 0.000000000000000000, -9.389466242107237782E-17, 1.000000000000000000 ) ) ;
#180 = ADVANCED_FACE ( 'NONE', ( #1048 ), #308, .T. ) ;
#181 = DIRECTION ( 'NONE',  ( 1.214306433183764966E-16, -1.000000000000000000, 0.000000000000000000 ) ) ;
#182 = ORIENTED_EDGE ( 'NONE', *, *, #687, .F. ) ;
#183 = CYLINDRICAL_SURFACE ( 'NONE', #845, 3.000000000000000000 ) ;
#184 = CARTESIAN_POINT ( 'NONE',  ( -20.75915574283120790, -6.579967435894639394, 4.618802153517006737 ) ) ;
#185 = ORIENTED_EDGE ( 'NONE', *, *, #803, .F. ) ;
#186 = CARTESIAN_POINT ( 'NONE',  ( -28.75915574283120080, -6.579967435894639394, 0.000000000000000000 ) ) ;
#187 = EDGE_LOOP ( 'NONE', ( #217, #230, #306, #850 ) ) ;
#188 = FACE_OUTER_BOUND ( 'NONE', #715, .T. ) ;
#189 = AXIS2_PLACEMENT_3D ( 'NONE', #958, #143, #481 ) ;
#190 = LINE ( 'NONE', #119, #980 ) ;
#191 = AXIS2_PLACEMENT_3D ( 'NONE', #81, #84, #914 ) ;
#192 = VERTEX_POINT ( 'NONE', #894 ) ;
#193 = EDGE_CURVE ( 'NONE', #767, #40, #406, .T. ) ;
#194 = AXIS2_PLACEMENT_3D ( 'NONE', #186, #41, #936 ) ;
#195 = CARTESIAN_POINT ( 'NONE',  ( -20.75915574283120790, -2.579967435894638061, -2.309401076758505589 ) ) ;
#196 = PLANE ( 'NONE',  #707 ) ;
#197 = CARTESIAN_POINT ( 'NONE',  ( 2.240844257168802311, -6.579967435894636729, 0.000000000000000000 ) ) ;
#198 = ORIENTED_EDGE ( 'NONE', *, *, #528, .T. ) ;
#199 = CYLINDRICAL_SURFACE ( 'NONE', #969, 1.499999999999998668 ) ;
#200 = LINE ( 'NONE', #1009, #350 ) ;
#201 = VERTEX_POINT ( 'NONE', #646 ) ;
#202 = EDGE_LOOP ( 'NONE', ( #462, #842, #569, #394 ) ) ;
#203 = DIRECTION ( 'NONE',  ( 1.000000000000000000, 1.214306433183764966E-16, -0.000000000000000000 ) ) ;
#204 = CARTESIAN_POINT ( 'NONE',  ( -20.75915574283120790, -10.57996743589464295, 2.309401076758503812 ) ) ;
#205 = LINE ( 'NONE', #39, #899 ) ;
#206 = VERTEX_POINT ( 'NONE', #213 ) ;
#207 = AXIS2_PLACEMENT_3D ( 'NONE', #634, #559, #79 ) ;
#208 = CIRCLE ( 'NONE', #638, 5.112500000000002487 ) ;
#209 = PLANE ( 'NONE',  #473 ) ;
#210 = EDGE_CURVE ( 'NONE', #431, #851, #543, .T. ) ;
#211 = EDGE_CURVE ( 'NONE', #752, #363, #517, .T. ) ;
#212 = DIRECTION ( 'NONE',  ( 1.051620219116011593E-16, -0.8660254037844387076, -0.4999999999999997224 ) ) ;
#213 = CARTESIAN_POINT ( 'NONE',  ( -9.759155742831200797, -6.579967435894637617, 4.618802153517006737 ) ) ;
#214 = DIRECTION ( 'NONE',  ( 0.000000000000000000, -0.8660254037844388186, 0.4999999999999996114 ) ) ;
#215 = CARTESIAN_POINT ( 'NONE',  ( -9.759155742831200797, -9.579967435894635841, 0.000000000000000000 ) ) ;
#216 = CARTESIAN_POINT ( 'NONE',  ( -20.25915574283120080, -9.579967435894637617, 3.673940397442059868E-16 ) ) ;
#217 = ORIENTED_EDGE ( 'NONE', *, *, #9, .T. ) ;
#218 = DIRECTION ( 'NONE',  ( 1.000000000000000000, 1.214306433183764966E-16, 0.000000000000000000 ) ) ;
#219 = CARTESIAN_POINT ( 'NONE',  ( -13.75915574283120080, -2.329967435894636729, -2.165063509461099045 ) ) ;
#220 = DIRECTION ( 'NONE',  ( -1.000000000000000000, -1.214306433183764966E-16, -0.000000000000000000 ) ) ;
#221 = EDGE_CURVE ( 'NONE', #363, #752, #471, .T. ) ;
#222 = AXIS2_PLACEMENT_3D ( 'NONE', #495, #660, #254 ) ;
#223 = CARTESIAN_POINT ( 'NONE',  ( -28.75915574283120080, -5.079967435894641170, 1.836970198721028948E-16 ) ) ;
#224 = CIRCLE ( 'NONE', #866, 5.112499999999998934 ) ;
#225 = LOCAL_TIME ( 14, 41, 21.00000000000000000, #87 ) ;
#226 = LINE ( 'NONE', #400, #242 ) ;
#227 = DIRECTION ( 'NONE',  ( -1.000000000000000000, -1.214306433183764966E-16, -0.000000000000000000 ) ) ;
#228 = EDGE_CURVE ( 'NONE', #40, #885, #901, .T. ) ;
#229 = ORIENTED_EDGE ( 'NONE', *, *, #451, .T. ) ;
#230 = ORIENTED_EDGE ( 'NONE', *, *, #378, .T. ) ;
#231 = EDGE_CURVE ( 'NONE', #851, #267, #12, .T. ) ;
#232 = CALENDAR_DATE ( 2025, 1, 5 ) ;
#233 = DIRECTION ( 'NONE',  ( 0.000000000000000000, 0.000000000000000000, -1.000000000000000000 ) ) ;
#234 = ORIENTED_EDGE ( 'NONE', *, *, #627, .T. ) ;
#235 = CYLINDRICAL_SURFACE ( 'NONE', #584, 3.000000000000000000 ) ;
#236 = ORIENTED_EDGE ( 'NONE', *, *, #137, .T. ) ;
#237 = PERSON_AND_ORGANIZATION ( #795, #389 ) ;
#238 = CARTESIAN_POINT ( 'NONE',  ( -28.75915574283120080, -6.579967435894639394, -1.499999999999998224 ) ) ;
#239 = CARTESIAN_POINT ( 'NONE',  ( -28.75915574283120080, -9.579967435894637617, 0.000000000000000000 ) ) ;
#240 = EDGE_LOOP ( 'NONE', ( #777, #729, #51, #113 ) ) ;
#241 = MECHANICAL_CONTEXT ( 'NONE', #718, 'mechanical' ) ;
#242 = VECTOR ( 'NONE', #723, 1000.000000000000114 ) ;
#243 = DIRECTION ( 'NONE',  ( 0.000000000000000000, 0.000000000000000000, -1.000000000000000000 ) ) ;
#244 = LOCAL_TIME ( 14, 41, 21.00000000000000000, #990 ) ;
#245 = EDGE_CURVE ( 'NONE', #158, #858, #164, .T. ) ;
#246 = DIRECTION ( 'NONE',  ( 1.051620219116011470E-16, -0.8660254037844385966, -0.4999999999999999445 ) ) ;
#247 = ORIENTED_EDGE ( 'NONE', *, *, #773, .F. ) ;
#248 = PERSON_AND_ORGANIZATION ( #795, #389 ) ;
#249 = CARTESIAN_POINT ( 'NONE',  ( -13.75915574283120080, -6.579967435894636729, -4.618802153517009401 ) ) ;
#250 = CARTESIAN_POINT ( 'NONE',  ( -9.759155742831200797, -3.329967435894636285, 6.495190528383290030 ) ) ;
#251 = VERTEX_POINT ( 'NONE', #422 ) ;
#252 = PERSON_AND_ORGANIZATION ( #795, #389 ) ;
#253 = CARTESIAN_POINT ( 'NONE',  ( -13.75915574283120080, -10.57996743589464295, 0.000000000000000000 ) ) ;
#254 = DIRECTION ( 'NONE',  ( -1.214306433183764966E-16, 1.000000000000000000, 0.000000000000000000 ) ) ;
#255 = ORIENTED_EDGE ( 'NONE', *, *, #331, .T. ) ;
#256 = EDGE_CURVE ( 'NONE', #500, #408, #915, .T. ) ;
#257 = FACE_OUTER_BOUND ( 'NONE', #149, .T. ) ;
#258 = VECTOR ( 'NONE', #697, 1000.000000000000114 ) ;
#259 = LOCAL_TIME ( 14, 41, 21.00000000000000000, #730 ) ;
#260 = ORIENTED_EDGE ( 'NONE', *, *, #42, .T. ) ;
#261 = DIRECTION ( 'NONE',  ( -1.000000000000000000, -1.214306433183764966E-16, -0.000000000000000000 ) ) ;
#262 = ORIENTED_EDGE ( 'NONE', *, *, #832, .T. ) ;
#263 = VERTEX_POINT ( 'NONE', #336 ) ;
#264 = DIRECTION ( 'NONE',  ( 0.000000000000000000, 0.000000000000000000, -1.000000000000000000 ) ) ;
#265 = ORIENTED_EDGE ( 'NONE', *, *, #512, .F. ) ;
#266 = CARTESIAN_POINT ( 'NONE',  ( -33.64665574283120719, -6.579967435894639394, 5.112500000000001599 ) ) ;
#267 = VERTEX_POINT ( 'NONE', #825 ) ;
#268 = FACE_OUTER_BOUND ( 'NONE', #17, .T. ) ;
#269 = ORIENTED_EDGE ( 'NONE', *, *, #1006, .F. ) ;
#270 = ORIENTED_EDGE ( 'NONE', *, *, #672, .F. ) ;
#271 = PLANE ( 'NONE',  #570 ) ;
#272 = EDGE_CURVE ( 'NONE', #288, #931, #649, .T. ) ;
#273 = DIRECTION ( 'NONE',  ( 1.000000000000000000, 1.214306433183764966E-16, -0.000000000000000000 ) ) ;
#274 = AXIS2_PLACEMENT_3D ( 'NONE', #319, #220, #138 ) ;
#275 = EDGE_CURVE ( 'NONE', #931, #201, #817, .T. ) ;
#276 = ORIENTED_EDGE ( 'NONE', *, *, #360, .T. ) ;
#277 = AXIS2_PLACEMENT_3D ( 'NONE', #648, #821, #419 ) ;
#278 = ORIENTED_EDGE ( 'NONE', *, *, #470, .T. ) ;
#279 = VECTOR ( 'NONE', #722, 1000.000000000000000 ) ;
#280 = CARTESIAN_POINT ( 'NONE',  ( 6.240844257168801867, -10.57996743589463939, 2.309401076758503812 ) ) ;
#281 = DIRECTION ( 'NONE',  ( -1.214306433183764966E-16, 1.000000000000000000, 9.389466242107237782E-17 ) ) ;
#282 = ORIENTED_EDGE ( 'NONE', *, *, #228, .T. ) ;
#283 = EDGE_LOOP ( 'NONE', ( #247, #944, #764, #863, #737 ) ) ;
#284 = VERTEX_POINT ( 'NONE', #574 ) ;
#285 = VERTEX_POINT ( 'NONE', #977 ) ;
#286 = CARTESIAN_POINT ( 'NONE',  ( 2.240844257168801867, -3.579967435894638950, 0.000000000000000000 ) ) ;
#287 = CARTESIAN_POINT ( 'NONE',  ( 21.24084425716880276, -6.579967435894634065, 0.000000000000000000 ) ) ;
#288 = VERTEX_POINT ( 'NONE', #411 ) ;
#289 = ORIENTED_EDGE ( 'NONE', *, *, #256, .T. ) ;
#290 = ADVANCED_FACE ( 'NONE', ( #85 ), #168, .T. ) ;
#291 = ADVANCED_FACE ( 'NONE', ( #23, #345 ), #736, .F. ) ;
#292 = CARTESIAN_POINT ( 'NONE',  ( 21.24084425716880276, -5.079967435894634065, 1.836970198721030181E-16 ) ) ;
#293 = LINE ( 'NONE', #879, #434 ) ;
#294 = DIRECTION ( 'NONE',  ( -1.051620219116011470E-16, 0.8660254037844385966, 0.4999999999999999445 ) ) ;
#295 = ORIENTED_EDGE ( 'NONE', *, *, #1008, .F. ) ;
#296 = VECTOR ( 'NONE', #246, 1000.000000000000114 ) ;
#297 = CIRCLE ( 'NONE', #636, 1.499999999999998668 ) ;
#298 = DIRECTION ( 'NONE',  ( -6.071532165918821133E-17, 0.4999999999999996114, 0.8660254037844388186 ) ) ;
#299 = VERTEX_POINT ( 'NONE', #742 ) ;
#300 = DIRECTION ( 'NONE',  ( 1.000000000000000000, 0.000000000000000000, 0.000000000000000000 ) ) ;
#301 = DIRECTION ( 'NONE',  ( 0.9486832980505137680, -0.3162277660168382187, 3.872673214540392245E-17 ) ) ;
#302 = VERTEX_POINT ( 'NONE', #509 ) ;
#303 = DIRECTION ( 'NONE',  ( 0.000000000000000000, 0.8660254037844385966, 0.4999999999999999445 ) ) ;
#304 = ADVANCED_BREP_SHAPE_REPRESENTATION ( 'H2_D\X2\00e9\X0\faut_sldprt', ( #738, #920 ), #317 ) ;
#305 = FACE_OUTER_BOUND ( 'NONE', #283, .T. ) ;
#306 = ORIENTED_EDGE ( 'NONE', *, *, #470, .F. ) ;
#307 = ADVANCED_FACE ( 'NONE', ( #669, #589 ), #922, .F. ) ;
#308 = SPHERICAL_SURFACE ( 'NONE', #207, 5.112500000000001599 ) ;
#309 = DIRECTION ( 'NONE',  ( 0.000000000000000000, 1.000000000000000000, 0.000000000000000000 ) ) ;
#310 = EDGE_CURVE ( 'NONE', #752, #1032, #987, .T. ) ;
#311 = LINE ( 'NONE', #156, #727 ) ;
#312 = CARTESIAN_POINT ( 'NONE',  ( -20.75915574283120790, -2.579967435894638506, 2.309401076758504701 ) ) ;
#313 = VECTOR ( 'NONE', #172, 1000.000000000000000 ) ;
#314 = CIRCLE ( 'NONE', #760, 2.999999999999999112 ) ;
#315 = DIRECTION ( 'NONE',  ( 1.051620219116011716E-16, -0.8660254037844388186, 0.4999999999999996114 ) ) ;
#316 = CIRCLE ( 'NONE', #191, 2.999999999999997335 ) ;
#317 =( GEOMETRIC_REPRESENTATION_CONTEXT ( 3 ) GLOBAL_UNCERTAINTY_ASSIGNED_CONTEXT ( ( #97 ) ) GLOBAL_UNIT_ASSIGNED_CONTEXT ( ( #535, #971, #409 ) ) REPRESENTATION_CONTEXT ( 'NONE', 'WORKASPACE' ) );
#318 = CARTESIAN_POINT ( 'NONE',  ( -28.75915574283120080, -6.579967435894639394, 0.000000000000000000 ) ) ;
#319 = CARTESIAN_POINT ( 'NONE',  ( -28.75915574283120080, -6.579967435894639394, 0.000000000000000000 ) ) ;
#320 = EDGE_CURVE ( 'NONE', #285, #206, #664, .T. ) ;
#321 = PERSON_AND_ORGANIZATION_ROLE ( 'creator' ) ;
#322 = FACE_OUTER_BOUND ( 'NONE', #357, .T. ) ;
#323 = DIRECTION ( 'NONE',  ( 1.877893248421448543E-16, -0.8660254037844388186, 0.4999999999999996114 ) ) ;
#324 = EDGE_LOOP ( 'NONE', ( #784, #415, #534, #125 ) ) ;
#325 = ADVANCED_FACE ( 'NONE', ( #99 ), #127, .T. ) ;
#326 = PERSON_AND_ORGANIZATION ( #795, #389 ) ;
#327 = EDGE_CURVE ( 'NONE', #617, #626, #351, .T. ) ;
#328 = DIRECTION ( 'NONE',  ( 0.000000000000000000, 0.8660254037844387076, -0.4999999999999997224 ) ) ;
#329 = CARTESIAN_POINT ( 'NONE',  ( -24.75915574283120080, -6.579967435894638506, 0.000000000000000000 ) ) ;
#330 = ORIENTED_EDGE ( 'NONE', *, *, #637, .F. ) ;
#331 = EDGE_CURVE ( 'NONE', #284, #54, #926, .T. ) ;
#332 = DATE_AND_TIME ( #80, #814 ) ;
#333 = VECTOR ( 'NONE', #401, 1000.000000000000000 ) ;
#334 = AXIS2_PLACEMENT_3D ( 'NONE', #318, #152, #558 ) ;
#335 = DIRECTION ( 'NONE',  ( 1.000000000000000000, 1.214306433183764966E-16, -0.000000000000000000 ) ) ;
#336 = CARTESIAN_POINT ( 'NONE',  ( -13.75915574283120080, -9.579967435894637617, 0.000000000000000000 ) ) ;
#337 = ORIENTED_EDGE ( 'NONE', *, *, #578, .F. ) ;
#338 = PERSON_AND_ORGANIZATION_ROLE ( 'classification_officer' ) ;
#339 = DIRECTION ( 'NONE',  ( 0.000000000000000000, -1.000000000000000000, 0.000000000000000000 ) ) ;
#340 = CARTESIAN_POINT ( 'NONE',  ( -9.759155742831200797, 0.4200325641053612724, 0.000000000000000000 ) ) ;
#341 = ADVANCED_FACE ( 'NONE', ( #609 ), #47, .T. ) ;
#342 = EDGE_LOOP ( 'NONE', ( #681, #695, #44, #913 ) ) ;
#343 = PERSON_AND_ORGANIZATION ( #795, #389 ) ;
#344 = DIRECTION ( 'NONE',  ( -1.000000000000000000, -1.214306433183764966E-16, -0.000000000000000000 ) ) ;
#345 = FACE_OUTER_BOUND ( 'NONE', #133, .T. ) ;
#346 = ADVANCED_FACE ( 'NONE', ( #132 ), #196, .T. ) ;
#347 = EDGE_LOOP ( 'NONE', ( #751, #1011, #438, #448, #1015, #904 ) ) ;
#348 = LINE ( 'NONE', #696, #490 ) ;
#349 = AXIS2_PLACEMENT_3D ( 'NONE', #522, #789, #532 ) ;
#350 = VECTOR ( 'NONE', #273, 1000.000000000000000 ) ;
#351 = LINE ( 'NONE', #239, #402 ) ;
#352 = ORIENTED_EDGE ( 'NONE', *, *, #231, .T. ) ;
#353 = PRODUCT_DEFINITION_SHAPE ( 'NONE', 'NONE',  #659 ) ;
#354 = CARTESIAN_POINT ( 'NONE',  ( 26.12834425716880205, -6.579967435894634065, 0.000000000000000000 ) ) ;
#355 = FACE_OUTER_BOUND ( 'NONE', #1028, .T. ) ;
#356 = ORIENTED_EDGE ( 'NONE', *, *, #607, .F. ) ;
#357 = EDGE_LOOP ( 'NONE', ( #679, #924, #383, #593 ) ) ;
#358 = EDGE_CURVE ( 'NONE', #408, #626, #502, .T. ) ;
#359 = FACE_OUTER_BOUND ( 'NONE', #661, .T. ) ;
#360 = EDGE_CURVE ( 'NONE', #1032, #192, #314, .T. ) ;
#361 = DIRECTION ( 'NONE',  ( -1.000000000000000000, -1.214306433183764966E-16, -0.000000000000000000 ) ) ;
#362 = ORIENTED_EDGE ( 'NONE', *, *, #122, .F. ) ;
#363 = VERTEX_POINT ( 'NONE', #460 ) ;
#364 = LINE ( 'NONE', #941, #31 ) ;
#365 = APPROVAL ( #667, 'UNSPECIFIED' ) ;
#366 = CARTESIAN_POINT ( 'NONE',  ( -20.75915574283120790, -6.579967435894637617, -4.618802153517009401 ) ) ;
#367 = ORIENTED_EDGE ( 'NONE', *, *, #137, .F. ) ;
#368 = ORIENTED_EDGE ( 'NONE', *, *, #407, .F. ) ;
#369 = VECTOR ( 'NONE', #175, 1000.000000000000000 ) ;
#370 = ORIENTED_EDGE ( 'NONE', *, *, #687, .T. ) ;
#371 = VECTOR ( 'NONE', #136, 1000.000000000000000 ) ;
#372 = EDGE_LOOP ( 'NONE', ( #799, #699, #539, #872 ) ) ;
#373 = CIRCLE ( 'NONE', #903, 1.499999999999999556 ) ;
#374 = DIRECTION ( 'NONE',  ( -1.214306433183764966E-16, 1.000000000000000000, 0.000000000000000000 ) ) ;
#375 = DIRECTION ( 'NONE',  ( 1.051620219116011716E-16, -0.8660254037844388186, 0.4999999999999996114 ) ) ;
#376 = EDGE_LOOP ( 'NONE', ( #703, #260, #658, #96 ) ) ;
#377 = ORIENTED_EDGE ( 'NONE', *, *, #327, .T. ) ;
#378 = EDGE_CURVE ( 'NONE', #598, #446, #43, .T. ) ;
#379 = DIRECTION ( 'NONE',  ( -1.000000000000000000, -1.214306433183764966E-16, -0.000000000000000000 ) ) ;
#380 = CARTESIAN_POINT ( 'NONE',  ( 2.240844257168801867, -3.579967435894639394, 3.673940397442057403E-16 ) ) ;
#381 = ORIENTED_EDGE ( 'NONE', *, *, #193, .T. ) ;
#382 = ORIENTED_EDGE ( 'NONE', *, *, #819, .F. ) ;
#383 = ORIENTED_EDGE ( 'NONE', *, *, #228, .F. ) ;
#384 = PLANE ( 'NONE',  #983 ) ;
#385 = DIRECTION ( 'NONE',  ( 1.000000000000000000, 1.214306433183764966E-16, 0.000000000000000000 ) ) ;
#386 = DIRECTION ( 'NONE',  ( -1.000000000000000000, -1.214306433183764966E-16, -0.000000000000000000 ) ) ;
#387 = ORIENTED_EDGE ( 'NONE', *, *, #803, .T. ) ;
#388 = AXIS2_PLACEMENT_3D ( 'NONE', #184, #860, #124 ) ;
#389 = ORGANIZATION ( 'UNSPECIFIED', 'UNSPECIFIED', '' ) ;
#390 = CARTESIAN_POINT ( 'NONE',  ( -20.75915574283120790, -6.579967435894637617, -4.618802153517009401 ) ) ;
#391 = EDGE_CURVE ( 'NONE', #1012, #680, #1035, .T. ) ;
#392 = CARTESIAN_POINT ( 'NONE',  ( -13.75915574283120080, -2.579967435894637173, 9.389466242107247643E-17 ) ) ;
#393 = FACE_OUTER_BOUND ( 'NONE', #240, .T. ) ;
#394 = ORIENTED_EDGE ( 'NONE', *, *, #912, .T. ) ;
#395 = CARTESIAN_POINT ( 'NONE',  ( -20.75915574283120790, -10.57996743589464295, 2.309401076758503812 ) ) ;
#396 = ADVANCED_FACE ( 'NONE', ( #355 ), #603, .T. ) ;
#397 = DIRECTION ( 'NONE',  ( 0.000000000000000000, -1.000000000000000000, 0.000000000000000000 ) ) ;
#398 = FACE_OUTER_BOUND ( 'NONE', #494, .T. ) ;
#399 = CARTESIAN_POINT ( 'NONE',  ( -28.75915574283120080, -6.579967435894639394, 0.000000000000000000 ) ) ;
#400 = CARTESIAN_POINT ( 'NONE',  ( -9.759155742831200797, 0.6700325641053629377, 0.4330127018922226290 ) ) ;
#401 = DIRECTION ( 'NONE',  ( -1.000000000000000000, -1.214306433183764966E-16, -0.000000000000000000 ) ) ;
#402 = VECTOR ( 'NONE', #567, 1000.000000000000000 ) ;
#403 = VECTOR ( 'NONE', #824, 1000.000000000000000 ) ;
#404 = CALENDAR_DATE ( 2025, 1, 5 ) ;
#405 = DIRECTION ( 'NONE',  ( 0.000000000000000000, -1.000000000000000000, 0.000000000000000000 ) ) ;
#406 = LINE ( 'NONE', #732, #780 ) ;
#407 = EDGE_CURVE ( 'NONE', #1000, #431, #200, .T. ) ;
#408 = VERTEX_POINT ( 'NONE', #50 ) ;
#409 =( NAMED_UNIT ( * ) SI_UNIT ( $, .STERADIAN. ) SOLID_ANGLE_UNIT ( ) );
#410 = LINE ( 'NONE', #8, #403 ) ;
#411 = CARTESIAN_POINT ( 'NONE',  ( 17.24084425716879920, -8.079967435894634065, 0.000000000000000000 ) ) ;
#412 = CARTESIAN_POINT ( 'NONE',  ( -20.75915574283120790, -10.57996743589464295, -2.309401076758504701 ) ) ;
#413 = VERTEX_POINT ( 'NONE', #948 ) ;
#414 = CARTESIAN_POINT ( 'NONE',  ( -28.75915574283120080, -3.579967435894642058, 3.673940397442057403E-16 ) ) ;
#415 = ORIENTED_EDGE ( 'NONE', *, *, #122, .T. ) ;
#416 = PERSON_AND_ORGANIZATION_ROLE ( 'design_owner' ) ;
#417 = CIRCLE ( 'NONE', #349, 3.000000000000000000 ) ;
#418 = AXIS2_PLACEMENT_3D ( 'NONE', #897, #608, #1021 ) ;
#419 = DIRECTION ( 'NONE',  ( 0.000000000000000000, -0.8660254037844387076, -0.4999999999999997224 ) ) ;
#420 = ADVANCED_FACE ( 'NONE', ( #268 ), #596, .T. ) ;
#421 = AXIS2_PLACEMENT_3D ( 'NONE', #865, #805, #135 ) ;
#422 = CARTESIAN_POINT ( 'NONE',  ( 17.24084425716879920, -5.079967435894635841, 1.836970198721028208E-16 ) ) ;
#423 = EDGE_LOOP ( 'NONE', ( #255, #1024, #665, #724 ) ) ;
#424 = CARTESIAN_POINT ( 'NONE',  ( 6.240844257168801867, -10.57996743589463939, -2.309401076758504701 ) ) ;
#425 = EDGE_CURVE ( 'NONE', #158, #885, #452, .T. ) ;
#426 = DIRECTION ( 'NONE',  ( -1.000000000000000000, -1.214306433183764966E-16, -0.000000000000000000 ) ) ;
#427 = ORIENTED_EDGE ( 'NONE', *, *, #272, .F. ) ;
#428 = DIRECTION ( 'NONE',  ( -1.000000000000000000, -1.214306433183764966E-16, -0.000000000000000000 ) ) ;
#429 = ORIENTED_EDGE ( 'NONE', *, *, #484, .F. ) ;
#430 = CARTESIAN_POINT ( 'NONE',  ( -20.25915574283120080, -6.579967435894638506, 0.000000000000000000 ) ) ;
#431 = VERTEX_POINT ( 'NONE', #117 ) ;
#432 = CARTESIAN_POINT ( 'NONE',  ( -9.759155742831200797, -6.579967435894636729, -4.618802153517009401 ) ) ;
#433 = VECTOR ( 'NONE', #592, 1000.000000000000000 ) ;
#434 = VECTOR ( 'NONE', #708, 1000.000000000000000 ) ;
#435 = DIRECTION ( 'NONE',  ( 0.000000000000000000, -1.000000000000000000, 0.000000000000000000 ) ) ;
#436 = VECTOR ( 'NONE', #792, 1000.000000000000000 ) ;
#437 = DIRECTION ( 'NONE',  ( 1.445602896647340889E-16, -1.000000000000000000, 0.000000000000000000 ) ) ;
#438 = ORIENTED_EDGE ( 'NONE', *, *, #86, .F. ) ;
#439 = EDGE_CURVE ( 'NONE', #54, #158, #929, .T. ) ;
#440 = LINE ( 'NONE', #591, #747 ) ;
#441 = CARTESIAN_POINT ( 'NONE',  ( 6.240844257168801867, -10.57996743589463939, -2.309401076758504701 ) ) ;
#442 = ORIENTED_EDGE ( 'NONE', *, *, #32, .F. ) ;
#443 = ORIENTED_EDGE ( 'NONE', *, *, #560, .T. ) ;
#444 = CARTESIAN_POINT ( 'NONE',  ( 2.240844257168802311, -10.57996743589463939, -2.309401076758504701 ) ) ;
#445 = DIRECTION ( 'NONE',  ( 0.000000000000000000, -1.000000000000000000, 0.000000000000000000 ) ) ;
#446 = VERTEX_POINT ( 'NONE', #1027 ) ;
#447 = CARTESIAN_POINT ( 'NONE',  ( -20.75915574283120790, -2.579967435894638506, 2.309401076758504701 ) ) ;
#448 = ORIENTED_EDGE ( 'NONE', *, *, #627, .F. ) ;
#449 = DIRECTION ( 'NONE',  ( -1.000000000000000000, -1.214306433183764966E-16, -0.000000000000000000 ) ) ;
#450 = VECTOR ( 'NONE', #67, 1000.000000000000000 ) ;
#451 = EDGE_CURVE ( 'NONE', #299, #1012, #709, .T. ) ;
#452 = LINE ( 'NONE', #204, #91 ) ;
#453 = VECTOR ( 'NONE', #335, 1000.000000000000000 ) ;
#454 = ORIENTED_EDGE ( 'NONE', *, *, #832, .F. ) ;
#455 = AXIS2_PLACEMENT_3D ( 'NONE', #412, #986, #328 ) ;
#456 = ORIENTED_EDGE ( 'NONE', *, *, #439, .F. ) ;
#457 = SECURITY_CLASSIFICATION ( '', '', #74 ) ;
#458 = ADVANCED_FACE ( 'NONE', ( #188 ), #537, .T. ) ;
#459 = CARTESIAN_POINT ( 'NONE',  ( 21.24084425716880276, -6.579967435894634065, 0.000000000000000000 ) ) ;
#460 = CARTESIAN_POINT ( 'NONE',  ( -24.75915574283120080, -8.079967435894637617, 0.000000000000000000 ) ) ;
#461 = ORIENTED_EDGE ( 'NONE', *, *, #30, .T. ) ;
#462 = ORIENTED_EDGE ( 'NONE', *, *, #852, .T. ) ;
#463 = CARTESIAN_POINT ( 'NONE',  ( -9.759155742831200797, -2.579967435894637173, 2.309401076758504701 ) ) ;
#464 = CARTESIAN_POINT ( 'NONE',  ( 21.24084425716880276, -6.579967435894634065, 0.000000000000000000 ) ) ;
#465 = DIRECTION ( 'NONE',  ( -1.000000000000000000, -1.214306433183764966E-16, -0.000000000000000000 ) ) ;
#466 = EDGE_LOOP ( 'NONE', ( #1034, #579, #507, #36 ) ) ;
#467 = CARTESIAN_POINT ( 'NONE',  ( 12.74084425716880098, -6.579967435894634953, 0.000000000000000000 ) ) ;
#468 = DIRECTION ( 'NONE',  ( 1.445602896647340889E-16, -1.000000000000000000, 0.000000000000000000 ) ) ;
#469 = CARTESIAN_POINT ( 'NONE',  ( -20.75915574283120790, -6.579967435894637617, -4.618802153517009401 ) ) ;
#470 = EDGE_CURVE ( 'NONE', #651, #446, #111, .T. ) ;
#471 = CIRCLE ( 'NONE', #883, 1.499999999999997780 ) ;
#472 = VECTOR ( 'NONE', #77, 1000.000000000000227 ) ;
#473 = AXIS2_PLACEMENT_3D ( 'NONE', #395, #628, #218 ) ;
#474 = APPROVAL ( #21, 'UNSPECIFIED' ) ;
#475 = FACE_OUTER_BOUND ( 'NONE', #376, .T. ) ;
#476 = DIRECTION ( 'NONE',  ( 0.000000000000000000, 1.000000000000000000, 0.000000000000000000 ) ) ;
#477 = CARTESIAN_POINT ( 'NONE',  ( -28.75915574283120080, -6.579967435894639394, 0.000000000000000000 ) ) ;
#478 = ORIENTED_EDGE ( 'NONE', *, *, #1006, .T. ) ;
#479 = CARTESIAN_POINT ( 'NONE',  ( -13.75915574283120080, -2.329967435894638506, 2.165063509461098601 ) ) ;
#480 = FACE_OUTER_BOUND ( 'NONE', #342, .T. ) ;
#481 = DIRECTION ( 'NONE',  ( 0.000000000000000000, -0.8660254037844388186, 0.4999999999999996114 ) ) ;
#482 = DIRECTION ( 'NONE',  ( 0.000000000000000000, -1.000000000000000000, 0.000000000000000000 ) ) ;
#483 = EDGE_CURVE ( 'NONE', #834, #818, #690, .T. ) ;
#484 = EDGE_CURVE ( 'NONE', #299, #24, #967, .T. ) ;
#485 = FACE_OUTER_BOUND ( 'NONE', #955, .T. ) ;
#486 = AXIS2_PLACEMENT_3D ( 'NONE', #855, #942, #871 ) ;
#487 = EDGE_LOOP ( 'NONE', ( #552, #20 ) ) ;
#488 = AXIS2_PLACEMENT_3D ( 'NONE', #807, #476, #300 ) ;
#489 = DATE_TIME_ROLE ( 'creation_date' ) ;
#490 = VECTOR ( 'NONE', #524, 1000.000000000000114 ) ;
#491 = CARTESIAN_POINT ( 'NONE',  ( -28.75915574283120080, -6.579967435894639394, 0.000000000000000000 ) ) ;
#492 = CARTESIAN_POINT ( 'NONE',  ( -28.75915574283120080, -9.579967435894637617, 0.000000000000000000 ) ) ;
#493 = DIRECTION ( 'NONE',  ( -1.051620219116011593E-16, 0.8660254037844387076, -0.4999999999999997224 ) ) ;
#494 = EDGE_LOOP ( 'NONE', ( #362, #759, #970, #787 ) ) ;
#495 = CARTESIAN_POINT ( 'NONE',  ( -13.75915574283120080, -3.579967435894638506, 0.000000000000000000 ) ) ;
#496 = EDGE_CURVE ( 'NONE', #1040, #288, #311, .T. ) ;
#497 = APPROVAL_ROLE ( '' ) ;
#498 = DIRECTION ( 'NONE',  ( 0.000000000000000000, -1.000000000000000000, 0.000000000000000000 ) ) ;
#499 = DIRECTION ( 'NONE',  ( -1.000000000000000000, -1.214306433183764966E-16, 0.000000000000000000 ) ) ;
#500 = VERTEX_POINT ( 'NONE', #380 ) ;
#501 = DIRECTION ( 'NONE',  ( 0.000000000000000000, 0.000000000000000000, 1.000000000000000000 ) ) ;
#502 = CIRCLE ( 'NONE', #27, 2.999999999999999112 ) ;
#503 = VECTOR ( 'NONE', #212, 1000.000000000000114 ) ;
#504 = CARTESIAN_POINT ( 'NONE',  ( -28.75915574283120080, -8.079967435894637617, 0.000000000000000000 ) ) ;
#505 = AXIS2_PLACEMENT_3D ( 'NONE', #390, #545, #303 ) ;
#506 = CARTESIAN_POINT ( 'NONE',  ( -9.759155742831200797, -3.329967435894636729, -6.495190528383290918 ) ) ;
#507 = ORIENTED_EDGE ( 'NONE', *, *, #994, .T. ) ;
#508 = LINE ( 'NONE', #566, #472 ) ;
#509 = CARTESIAN_POINT ( 'NONE',  ( -13.75915574283120080, -6.579967435894638506, 4.618802153517006737 ) ) ;
#510 = ORIENTED_EDGE ( 'NONE', *, *, #211, .F. ) ;
#511 = DIRECTION ( 'NONE',  ( -1.000000000000000000, 1.696551076749932839E-16, 0.000000000000000000 ) ) ;
#512 = EDGE_CURVE ( 'NONE', #302, #206, #293, .T. ) ;
#513 = DIRECTION ( 'NONE',  ( 6.071532165918822365E-17, -0.4999999999999997780, -0.8660254037844388186 ) ) ;
#514 = ADVANCED_FACE ( 'NONE', ( #57 ), #148, .T. ) ;
#515 = DIRECTION ( 'NONE',  ( 1.000000000000000000, 1.214306433183764966E-16, -0.000000000000000000 ) ) ;
#516 = DIRECTION ( 'NONE',  ( -1.000000000000000000, -1.214306433183764966E-16, -0.000000000000000000 ) ) ;
#517 = CIRCLE ( 'NONE', #601, 1.499999999999997780 ) ;
#518 = ADVANCED_FACE ( 'NONE', ( #305 ), #551, .T. ) ;
#519 = AXIS2_PLACEMENT_3D ( 'NONE', #741, #748, #339 ) ;
#520 = CARTESIAN_POINT ( 'NONE',  ( -28.75915574283120080, -6.579967435894639394, 0.000000000000000000 ) ) ;
#521 = AXIS2_PLACEMENT_3D ( 'NONE', #399, #1049, #550 ) ;
#522 = CARTESIAN_POINT ( 'NONE',  ( -13.75915574283120080, -6.579967435894637617, 0.000000000000000000 ) ) ;
#523 = ORIENTED_EDGE ( 'NONE', *, *, #898, .F. ) ;
#524 = DIRECTION ( 'NONE',  ( -0.9486832980505137680, 0.3162277660168382742, 3.872673214540392861E-17 ) ) ;
#525 = DIRECTION ( 'NONE',  ( 0.000000000000000000, -1.000000000000000000, 0.000000000000000000 ) ) ;
#526 = ORIENTED_EDGE ( 'NONE', *, *, #623, .T. ) ;
#527 = DIRECTION ( 'NONE',  ( -1.000000000000000000, -1.214306433183764966E-16, -0.000000000000000000 ) ) ;
#528 = EDGE_CURVE ( 'NONE', #834, #923, #224, .T. ) ;
#529 = FACE_BOUND ( 'NONE', #487, .T. ) ;
#530 = DIRECTION ( 'NONE',  ( -1.000000000000000000, -1.214306433183764966E-16, -0.000000000000000000 ) ) ;
#531 = EDGE_LOOP ( 'NONE', ( #58, #510, #1061, #276 ) ) ;
#532 = DIRECTION ( 'NONE',  ( 0.000000000000000000, -1.000000000000000000, 0.000000000000000000 ) ) ;
#533 = VERTEX_POINT ( 'NONE', #889 ) ;
#534 = ORIENTED_EDGE ( 'NONE', *, *, #900, .F. ) ;
#535 =( LENGTH_UNIT ( ) NAMED_UNIT ( * ) SI_UNIT ( .MILLI., .METRE. ) );
#536 = VECTOR ( 'NONE', #294, 1000.000000000000114 ) ;
#537 = CYLINDRICAL_SURFACE ( 'NONE', #602, 1.499999999999998668 ) ;
#538 = VECTOR ( 'NONE', #1026, 1000.000000000000000 ) ;
#539 = ORIENTED_EDGE ( 'NONE', *, *, #3, .F. ) ;
#540 = EDGE_LOOP ( 'NONE', ( #118, #772 ) ) ;
#541 = LINE ( 'NONE', #223, #436 ) ;
#542 = CARTESIAN_POINT ( 'NONE',  ( 12.74084425716880098, -3.579967435894635397, 3.673940397442059375E-16 ) ) ;
#543 = LINE ( 'NONE', #877, #296 ) ;
#544 = ORIENTED_EDGE ( 'NONE', *, *, #42, .F. ) ;
#545 = DIRECTION ( 'NONE',  ( -6.071532165918826063E-17, 0.5000000000000000000, -0.8660254037844387076 ) ) ;
#546 = CARTESIAN_POINT ( 'NONE',  ( 26.12834425716880205, -6.579967435894634065, -5.112500000000001599 ) ) ;
#547 = DIRECTION ( 'NONE',  ( 1.000000000000000000, 1.214306433183764966E-16, -0.000000000000000000 ) ) ;
#548 = ORIENTED_EDGE ( 'NONE', *, *, #562, .T. ) ;
#549 = ADVANCED_FACE ( 'NONE', ( #480 ), #1039, .T. ) ;
#550 = DIRECTION ( 'NONE',  ( 0.000000000000000000, -1.000000000000000000, 0.000000000000000000 ) ) ;
#551 = SPHERICAL_SURFACE ( 'NONE', #488, 5.112500000000001599 ) ;
#552 = ORIENTED_EDGE ( 'NONE', *, *, #560, .F. ) ;
#553 = LINE ( 'NONE', #726, #333 ) ;
#554 = AXIS2_PLACEMENT_3D ( 'NONE', #150, #1041, #153 ) ;
#555 = CIRCLE ( 'NONE', #519, 3.000000000000000000 ) ;
#556 = CC_DESIGN_PERSON_AND_ORGANIZATION_ASSIGNMENT ( #647, #338, ( #457 ) ) ;
#557 = AXIS2_PLACEMENT_3D ( 'NONE', #639, #618, #63 ) ;
#558 = DIRECTION ( 'NONE',  ( 0.000000000000000000, -1.000000000000000000, 0.000000000000000000 ) ) ;
#559 = DIRECTION ( 'NONE',  ( 0.000000000000000000, 1.000000000000000000, 0.000000000000000000 ) ) ;
#560 = EDGE_CURVE ( 'NONE', #617, #500, #781, .T. ) ;
#561 = APPROVAL_ROLE ( '' ) ;
#562 = EDGE_CURVE ( 'NONE', #302, #778, #962, .T. ) ;
#563 = CARTESIAN_POINT ( 'NONE',  ( -13.75915574283120080, -6.329967435894636729, 4.763139720814414169 ) ) ;
#564 = DIRECTION ( 'NONE',  ( 1.000000000000000000, 0.000000000000000000, 0.000000000000000000 ) ) ;
#565 = CC_DESIGN_PERSON_AND_ORGANIZATION_ASSIGNMENT ( #7, #905, ( #1001 ) ) ;
#566 = CARTESIAN_POINT ( 'NONE',  ( 6.240844257168801867, -6.579967435894634953, -4.618802153517009401 ) ) ;
#567 = DIRECTION ( 'NONE',  ( -1.000000000000000000, -1.214306433183764966E-16, -0.000000000000000000 ) ) ;
#568 = VECTOR ( 'NONE', #890, 1000.000000000000000 ) ;
#569 = ORIENTED_EDGE ( 'NONE', *, *, #791, .T. ) ;
#570 = AXIS2_PLACEMENT_3D ( 'NONE', #195, #763, #757 ) ;
#571 = APPLICATION_PROTOCOL_DEFINITION ( 'international standard', 'config_control_design', 1994, #718 ) ;
#572 = VECTOR ( 'NONE', #802, 1000.000000000000000 ) ;
#573 = CARTESIAN_POINT ( 'NONE',  ( -20.75915574283120790, -10.57996743589464295, 2.309401076758503812 ) ) ;
#574 = CARTESIAN_POINT ( 'NONE',  ( 2.240844257168802311, -2.579967435894635841, 2.309401076758504701 ) ) ;
#575 = VERTEX_POINT ( 'NONE', #542 ) ;
#576 = CARTESIAN_POINT ( 'NONE',  ( 26.12834425716880205, -6.579967435894634065, 0.000000000000000000 ) ) ;
#577 = CARTESIAN_POINT ( 'NONE',  ( 17.24084425716879920, -8.079967435894634065, 0.000000000000000000 ) ) ;
#578 = EDGE_CURVE ( 'NONE', #744, #1000, #619, .T. ) ;
#579 = ORIENTED_EDGE ( 'NONE', *, *, #16, .T. ) ;
#580 = APPROVAL_STATUS ( 'not_yet_approved' ) ;
#581 = CARTESIAN_POINT ( 'NONE',  ( 6.240844257168802756, -3.579967435894638506, 3.673940397442057403E-16 ) ) ;
#582 = DIRECTION ( 'NONE',  ( 0.000000000000000000, 1.000000000000000000, 0.000000000000000000 ) ) ;
#583 = EDGE_LOOP ( 'NONE', ( #735, #750, #429, #116, #105 ) ) ;
#584 = AXIS2_PLACEMENT_3D ( 'NONE', #812, #227, #721 ) ;
#585 = VECTOR ( 'NONE', #798, 1000.000000000000114 ) ;
#586 = VECTOR ( 'NONE', #315, 1000.000000000000114 ) ;
#587 = CARTESIAN_POINT ( 'NONE',  ( 6.240844257168800979, -2.579967435894634953, 2.309401076758504701 ) ) ;
#588 = CC_DESIGN_SECURITY_CLASSIFICATION ( #457, ( #1001 ) ) ;
#589 = FACE_OUTER_BOUND ( 'NONE', #347, .T. ) ;
#590 = ORIENTED_EDGE ( 'NONE', *, *, #900, .T. ) ;
#591 = CARTESIAN_POINT ( 'NONE',  ( -20.75915574283120790, -10.57996743589464295, -2.309401076758504701 ) ) ;
#592 = DIRECTION ( 'NONE',  ( 1.000000000000000000, 1.214306433183764966E-16, -0.000000000000000000 ) ) ;
#593 = ORIENTED_EDGE ( 'NONE', *, *, #823, .F. ) ;
#594 = FACE_OUTER_BOUND ( 'NONE', #949, .T. ) ;
#595 = PRODUCT_RELATED_PRODUCT_CATEGORY ( 'detail', '', ( #666 ) ) ;
#596 = PLANE ( 'NONE',  #388 ) ;
#597 = EDGE_LOOP ( 'NONE', ( #676, #769, #523, #427 ) ) ;
#598 = VERTEX_POINT ( 'NONE', #640 ) ;
#599 = ORIENTED_EDGE ( 'NONE', *, *, #327, .F. ) ;
#600 = CARTESIAN_POINT ( 'NONE',  ( -28.75915574283120080, -6.579967435894639394, 0.000000000000000000 ) ) ;
#601 = AXIS2_PLACEMENT_3D ( 'NONE', #833, #911, #82 ) ;
#602 = AXIS2_PLACEMENT_3D ( 'NONE', #520, #848, #786 ) ;
#603 = PLANE ( 'NONE',  #673 ) ;
#604 = APPROVAL_PERSON_ORGANIZATION ( #733, #365, #497 ) ;
#605 = ORIENTED_EDGE ( 'NONE', *, *, #320, .T. ) ;
#606 = VERTEX_POINT ( 'NONE', #546 ) ;
#607 = EDGE_CURVE ( 'NONE', #1000, #533, #884, .T. ) ;
#608 = DIRECTION ( 'NONE',  ( -1.000000000000000000, -1.214306433183764966E-16, -0.000000000000000000 ) ) ;
#609 = FACE_OUTER_BOUND ( 'NONE', #918, .T. ) ;
#610 = ADVANCED_FACE ( 'NONE', ( #633 ), #719, .T. ) ;
#611 = EDGE_LOOP ( 'NONE', ( #443, #289, #756, #599 ) ) ;
#612 = ORIENTED_EDGE ( 'NONE', *, *, #992, .F. ) ;
#613 = ADVANCED_FACE ( 'NONE', ( #71 ), #800, .T. ) ;
#614 = DIRECTION ( 'NONE',  ( 0.000000000000000000, -1.000000000000000000, 0.000000000000000000 ) ) ;
#615 = DIRECTION ( 'NONE',  ( -1.000000000000000000, -1.214306433183764966E-16, -0.000000000000000000 ) ) ;
#616 = ORIENTED_EDGE ( 'NONE', *, *, #656, .T. ) ;
#617 = VERTEX_POINT ( 'NONE', #1050 ) ;
#618 = DIRECTION ( 'NONE',  ( -1.000000000000000000, -1.214306433183764966E-16, -0.000000000000000000 ) ) ;
#619 = LINE ( 'NONE', #219, #585 ) ;
#620 = CARTESIAN_POINT ( 'NONE',  ( 6.240844257168801867, -6.579967435894636729, 4.618802153517006737 ) ) ;
#621 = AXIS2_PLACEMENT_3D ( 'NONE', #946, #428, #846 ) ;
#622 = CARTESIAN_POINT ( 'NONE',  ( -20.75915574283120790, -10.57996743589464295, -2.309401076758504701 ) ) ;
#623 = EDGE_CURVE ( 'NONE', #702, #923, #934, .T. ) ;
#624 = CARTESIAN_POINT ( 'NONE',  ( -33.64665574283120719, -6.579967435894639394, 0.000000000000000000 ) ) ;
#625 = LINE ( 'NONE', #469, #450 ) ;
#626 = VERTEX_POINT ( 'NONE', #215 ) ;
#627 = EDGE_CURVE ( 'NONE', #206, #1010, #226, .T. ) ;
#628 = DIRECTION ( 'NONE',  ( 1.214306433183764966E-16, -1.000000000000000000, 0.000000000000000000 ) ) ;
#629 = DIRECTION ( 'NONE',  ( 1.224646799147353207E-16, 1.000000000000000000, -0.000000000000000000 ) ) ;
#630 = EDGE_LOOP ( 'NONE', ( #234, #367, #1023, #112 ) ) ;
#631 = FACE_OUTER_BOUND ( 'NONE', #423, .T. ) ;
#632 = CARTESIAN_POINT ( 'NONE',  ( -13.75915574283120080, -10.57996743589464295, -2.309401076758504701 ) ) ;
#633 = FACE_OUTER_BOUND ( 'NONE', #202, .T. ) ;
#634 = CARTESIAN_POINT ( 'NONE',  ( 26.12834425716880205, -6.579967435894634065, 0.000000000000000000 ) ) ;
#635 = CIRCLE ( 'NONE', #75, 2.999999999999996447 ) ;
#636 = AXIS2_PLACEMENT_3D ( 'NONE', #991, #731, #405 ) ;
#637 = EDGE_CURVE ( 'NONE', #752, #177, #1031, .T. ) ;
#638 = AXIS2_PLACEMENT_3D ( 'NONE', #354, #49, #511 ) ;
#639 = CARTESIAN_POINT ( 'NONE',  ( -28.75915574283120080, -6.579967435894639394, 0.000000000000000000 ) ) ;
#640 = CARTESIAN_POINT ( 'NONE',  ( 2.240844257168802311, -6.579967435894636729, -4.618802153517009401 ) ) ;
#641 = EDGE_LOOP ( 'NONE', ( #60, #1002 ) ) ;
#642 = CARTESIAN_POINT ( 'NONE',  ( 2.240844257168802311, -10.57996743589463939, 2.309401076758503812 ) ) ;
#643 = ORIENTED_EDGE ( 'NONE', *, *, #9, .F. ) ;
#644 = EDGE_CURVE ( 'NONE', #680, #1040, #1057, .T. ) ;
#645 = PLANE ( 'NONE',  #277 ) ;
#646 = CARTESIAN_POINT ( 'NONE',  ( 6.240844257168802756, -9.579967435894632288, 0.000000000000000000 ) ) ;
#647 = PERSON_AND_ORGANIZATION ( #795, #389 ) ;
#648 = CARTESIAN_POINT ( 'NONE',  ( -20.75915574283120790, -6.579967435894639394, 4.618802153517006737 ) ) ;
#649 = LINE ( 'NONE', #577, #797 ) ;
#650 = VECTOR ( 'NONE', #515, 1000.000000000000000 ) ;
#651 = VERTEX_POINT ( 'NONE', #424 ) ;
#652 = DESIGN_CONTEXT ( 'detailed design', #960, 'design' ) ;
#653 = AXIS2_PLACEMENT_3D ( 'NONE', #876, #957, #385 ) ;
#654 = DATE_AND_TIME ( #404, #1059 ) ;
#655 = CIRCLE ( 'NONE', #557, 1.500000000000000444 ) ;
#656 = EDGE_CURVE ( 'NONE', #766, #201, #316, .T. ) ;
#657 = PLANE ( 'NONE',  #455 ) ;
#658 = ORIENTED_EDGE ( 'NONE', *, *, #806, .F. ) ;
#659 = PRODUCT_DEFINITION ( 'UNKNOWN', '', #1001, #652 ) ;
#660 = DIRECTION ( 'NONE',  ( 1.000000000000000000, 1.214306433183764966E-16, 0.000000000000000000 ) ) ;
#661 = EDGE_LOOP ( 'NONE', ( #139, #368, #943, #236 ) ) ;
#662 = COORDINATED_UNIVERSAL_TIME_OFFSET ( 1, 0, .AHEAD. ) ;
#663 = LINE ( 'NONE', #253, #128 ) ;
#664 = LINE ( 'NONE', #250, #951 ) ;
#665 = ORIENTED_EDGE ( 'NONE', *, *, #193, .F. ) ;
#666 = PRODUCT ( 'H2_D\X2\00e9\X0\faut_sldprt', 'H2_D\X2\00e9\X0\faut_sldprt', '', ( #241 ) ) ;
#667 = APPROVAL_STATUS ( 'not_yet_approved' ) ;
#668 = LINE ( 'NONE', #921, #999 ) ;
#669 = FACE_BOUND ( 'NONE', #641, .T. ) ;
#670 = ORIENTED_EDGE ( 'NONE', *, *, #256, .F. ) ;
#671 = AXIS2_PLACEMENT_3D ( 'NONE', #973, #465, #964 ) ;
#672 = EDGE_CURVE ( 'NONE', #1047, #744, #173, .T. ) ;
#673 = AXIS2_PLACEMENT_3D ( 'NONE', #1014, #281, #692 ) ;
#674 = FACE_OUTER_BOUND ( 'NONE', #861, .T. ) ;
#675 = DIRECTION ( 'NONE',  ( 0.000000000000000000, 0.8660254037844388186, -0.4999999999999997780 ) ) ;
#676 = ORIENTED_EDGE ( 'NONE', *, *, #819, .T. ) ;
#677 = DIRECTION ( 'NONE',  ( -1.000000000000000000, -1.214306433183764966E-16, 0.000000000000000000 ) ) ;
#678 = CARTESIAN_POINT ( 'NONE',  ( -20.75915574283120790, -10.57996743589464295, -2.309401076758504701 ) ) ;
#679 = ORIENTED_EDGE ( 'NONE', *, *, #439, .T. ) ;
#680 = VERTEX_POINT ( 'NONE', #171 ) ;
#681 = ORIENTED_EDGE ( 'NONE', *, *, #210, .T. ) ;
#682 = DIRECTION ( 'NONE',  ( 0.000000000000000000, -1.000000000000000000, 0.000000000000000000 ) ) ;
#683 = ADVANCED_FACE ( 'NONE', ( #322 ), #645, .T. ) ;
#684 = DIRECTION ( 'NONE',  ( 1.224646799147353207E-16, 1.000000000000000000, -0.000000000000000000 ) ) ;
#685 = LINE ( 'NONE', #1033, #536 ) ;
#686 = EDGE_LOOP ( 'NONE', ( #857, #198, #843, #827, #262 ) ) ;
#687 = EDGE_CURVE ( 'NONE', #251, #288, #297, .T. ) ;
#688 = DIRECTION ( 'NONE',  ( 0.000000000000000000, -1.000000000000000000, 0.000000000000000000 ) ) ;
#689 = VECTOR ( 'NONE', #755, 1000.000000000000000 ) ;
#690 = CIRCLE ( 'NONE', #106, 5.112500000000001599 ) ;
#691 = EDGE_CURVE ( 'NONE', #778, #285, #18, .T. ) ;
#692 = DIRECTION ( 'NONE',  ( -1.000000000000000000, -1.214306433183764966E-16, 0.000000000000000000 ) ) ;
#693 = EDGE_LOOP ( 'NONE', ( #278, #83, #387, #381, #282, #839 ) ) ;
#694 = VERTEX_POINT ( 'NONE', #753 ) ;
#695 = ORIENTED_EDGE ( 'NONE', *, *, #151, .F. ) ;
#696 = CARTESIAN_POINT ( 'NONE',  ( 17.24084425716879920, -5.079967435894635841, 1.836970198721028208E-16 ) ) ;
#697 = DIRECTION ( 'NONE',  ( 1.051620219116011593E-16, -0.8660254037844387076, -0.4999999999999997224 ) ) ;
#698 = ORIENTED_EDGE ( 'NONE', *, *, #691, .T. ) ;
#699 = ORIENTED_EDGE ( 'NONE', *, *, #945, .T. ) ;
#700 = CARTESIAN_POINT ( 'NONE',  ( 2.240844257168801867, -2.579967435894635397, 9.389466242107271062E-17 ) ) ;
#701 = DIRECTION ( 'NONE',  ( -1.000000000000000000, 1.696551076749932839E-16, 0.000000000000000000 ) ) ;
#702 = VERTEX_POINT ( 'NONE', #910 ) ;
#703 = ORIENTED_EDGE ( 'NONE', *, *, #32, .T. ) ;
#704 = ADVANCED_FACE ( 'NONE', ( #816 ), #906, .T. ) ;
#705 = EDGE_CURVE ( 'NONE', #694, #1032, #410, .T. ) ;
#706 = CARTESIAN_POINT ( 'NONE',  ( -20.75915574283120790, -2.579967435894638506, 2.309401076758504701 ) ) ;
#707 = AXIS2_PLACEMENT_3D ( 'NONE', #678, #513, #776 ) ;
#708 = DIRECTION ( 'NONE',  ( 1.000000000000000000, 1.214306433183764966E-16, -0.000000000000000000 ) ) ;
#709 = CIRCLE ( 'NONE', #64, 1.499999999999999556 ) ;
#710 = CONICAL_SURFACE ( 'NONE', #869, 3.000000000000000000, 0.3217505543966425741 ) ;
#711 = ORIENTED_EDGE ( 'NONE', *, *, #221, .T. ) ;
#712 = EDGE_CURVE ( 'NONE', #192, #1032, #161, .T. ) ;
#713 = LINE ( 'NONE', #622, #279 ) ;
#714 = CARTESIAN_POINT ( 'NONE',  ( 2.240844257168802311, -6.579967435894636729, 0.000000000000000000 ) ) ;
#715 = EDGE_LOOP ( 'NONE', ( #330, #35, #837, #612, #454 ) ) ;
#716 = CARTESIAN_POINT ( 'NONE',  ( -28.75915574283120080, -5.079967435894640282, 1.836970198721029441E-16 ) ) ;
#717 = LINE ( 'NONE', #700, #572 ) ;
#718 = APPLICATION_CONTEXT ( 'configuration controlled 3d designs of mechanical parts and assemblies' ) ;
#719 = PLANE ( 'NONE',  #653 ) ;
#720 = CC_DESIGN_PERSON_AND_ORGANIZATION_ASSIGNMENT ( #248, #416, ( #666 ) ) ;
#721 = DIRECTION ( 'NONE',  ( 0.000000000000000000, -1.000000000000000000, 0.000000000000000000 ) ) ;
#722 = DIRECTION ( 'NONE',  ( 1.000000000000000000, 1.214306433183764966E-16, -0.000000000000000000 ) ) ;
#723 = DIRECTION ( 'NONE',  ( -1.051620219116011716E-16, 0.8660254037844388186, -0.4999999999999996114 ) ) ;
#724 = ORIENTED_EDGE ( 'NONE', *, *, #30, .F. ) ;
#725 = VECTOR ( 'NONE', #301, 1000.000000000000114 ) ;
#726 = CARTESIAN_POINT ( 'NONE',  ( -28.75915574283120080, -3.579967435894641614, 3.673940397442057896E-16 ) ) ;
#727 = VECTOR ( 'NONE', #810, 1000.000000000000000 ) ;
#728 = CC_DESIGN_APPROVAL ( #144, ( #457 ) ) ;
#729 = ORIENTED_EDGE ( 'NONE', *, *, #705, .T. ) ;
#730 = COORDINATED_UNIVERSAL_TIME_OFFSET ( 1, 0, .AHEAD. ) ;
#731 = DIRECTION ( 'NONE',  ( -1.000000000000000000, -1.214306433183764966E-16, -0.000000000000000000 ) ) ;
#732 = CARTESIAN_POINT ( 'NONE',  ( 6.240844257168800979, -2.579967435894634953, 2.309401076758504701 ) ) ;
#733 = PERSON_AND_ORGANIZATION ( #795, #389 ) ;
#734 = DIRECTION ( 'NONE',  ( 0.000000000000000000, -1.000000000000000000, 0.000000000000000000 ) ) ;
#735 = ORIENTED_EDGE ( 'NONE', *, *, #853, .F. ) ;
#736 = PLANE ( 'NONE',  #222 ) ;
#737 = ORIENTED_EDGE ( 'NONE', *, *, #484, .T. ) ;
#738 = MANIFOLD_SOLID_BREP ( 'Enlèv. mat.-Extru.3', #844 ) ;
#739 = DATE_AND_TIME ( #232, #225 ) ;
#740 = EDGE_CURVE ( 'NONE', #363, #413, #5, .T. ) ;
#741 = CARTESIAN_POINT ( 'NONE',  ( -13.75915574283120080, -6.579967435894637617, 0.000000000000000000 ) ) ;
#742 = CARTESIAN_POINT ( 'NONE',  ( 21.24084425716880276, -6.579967435894633176, 1.500000000000003775 ) ) ;
#743 = VECTOR ( 'NONE', #55, 1000.000000000000000 ) ;
#744 = VERTEX_POINT ( 'NONE', #249 ) ;
#745 = ORIENTED_EDGE ( 'NONE', *, *, #637, .T. ) ;
#746 = AXIS2_PLACEMENT_3D ( 'NONE', #464, #1, #498 ) ;
#747 = VECTOR ( 'NONE', #203, 1000.000000000000000 ) ;
#748 = DIRECTION ( 'NONE',  ( -1.000000000000000000, -1.214306433183764966E-16, -0.000000000000000000 ) ) ;
#749 = CARTESIAN_POINT ( 'NONE',  ( 6.240844257168801867, -6.579967435894636729, 4.618802153517006737 ) ) ;
#750 = ORIENTED_EDGE ( 'NONE', *, *, #773, .T. ) ;
#751 = ORIENTED_EDGE ( 'NONE', *, *, #231, .F. ) ;
#752 = VERTEX_POINT ( 'NONE', #979 ) ;
#753 = CARTESIAN_POINT ( 'NONE',  ( -13.75915574283120080, -3.579967435894638061, 3.673940397442060854E-16 ) ) ;
#754 = ADVANCED_FACE ( 'NONE', ( #257 ), #657, .T. ) ;
#755 = DIRECTION ( 'NONE',  ( -1.000000000000000000, -1.214306433183764966E-16, -0.000000000000000000 ) ) ;
#756 = ORIENTED_EDGE ( 'NONE', *, *, #169, .F. ) ;
#757 = DIRECTION ( 'NONE',  ( -1.000000000000000000, -1.214306433183764966E-16, 0.000000000000000000 ) ) ;
#758 = DIRECTION ( 'NONE',  ( 1.000000000000000000, 1.214306433183764966E-16, 0.000000000000000000 ) ) ;
#759 = ORIENTED_EDGE ( 'NONE', *, *, #1008, .T. ) ;
#760 = AXIS2_PLACEMENT_3D ( 'NONE', #34, #1022, #841 ) ;
#761 = AXIS2_PLACEMENT_3D ( 'NONE', #1046, #69, #482 ) ;
#762 = AXIS2_PLACEMENT_3D ( 'NONE', #25, #677, #1007 ) ;
#763 = DIRECTION ( 'NONE',  ( -1.214306433183764966E-16, 1.000000000000000000, 9.389466242107237782E-17 ) ) ;
#764 = ORIENTED_EDGE ( 'NONE', *, *, #391, .F. ) ;
#765 = CARTESIAN_POINT ( 'NONE',  ( -9.759155742831200797, -6.579967435894636729, 0.000000000000000000 ) ) ;
#766 = VERTEX_POINT ( 'NONE', #581 ) ;
#767 = VERTEX_POINT ( 'NONE', #587 ) ;
#768 = CARTESIAN_POINT ( 'NONE',  ( -28.75915574283120080, -6.579967435894639394, 0.000000000000000000 ) ) ;
#769 = ORIENTED_EDGE ( 'NONE', *, *, #849, .T. ) ;
#770 = DIRECTION ( 'NONE',  ( 0.000000000000000000, -1.000000000000000000, 0.000000000000000000 ) ) ;
#771 = CARTESIAN_POINT ( 'NONE',  ( 26.12834425716880205, -6.579967435894634065, 5.112500000000001599 ) ) ;
#772 = ORIENTED_EDGE ( 'NONE', *, *, #16, .F. ) ;
#773 = EDGE_CURVE ( 'NONE', #606, #24, #902, .T. ) ;
#774 = FACE_OUTER_BOUND ( 'NONE', #466, .T. ) ;
#775 = CC_DESIGN_DATE_AND_TIME_ASSIGNMENT ( #166, #489, ( #659 ) ) ;
#776 = DIRECTION ( 'NONE',  ( 0.000000000000000000, 0.8660254037844387076, -0.4999999999999997224 ) ) ;
#777 = ORIENTED_EDGE ( 'NONE', *, *, #788, .T. ) ;
#778 = VERTEX_POINT ( 'NONE', #167 ) ;
#779 = DIRECTION ( 'NONE',  ( 1.000000000000000000, 1.214306433183764966E-16, 0.000000000000000000 ) ) ;
#780 = VECTOR ( 'NONE', #323, 1000.000000000000114 ) ;
#781 = CIRCLE ( 'NONE', #28, 2.999999999999996447 ) ;
#782 = DIRECTION ( 'NONE',  ( 1.000000000000000000, 1.214306433183764966E-16, -0.000000000000000000 ) ) ;
#783 = DIRECTION ( 'NONE',  ( 0.000000000000000000, 0.000000000000000000, -1.000000000000000000 ) ) ;
#784 = ORIENTED_EDGE ( 'NONE', *, *, #898, .T. ) ;
#785 = FACE_OUTER_BOUND ( 'NONE', #974, .T. ) ;
#786 = DIRECTION ( 'NONE',  ( 0.000000000000000000, -1.000000000000000000, 0.000000000000000000 ) ) ;
#787 = ORIENTED_EDGE ( 'NONE', *, *, #656, .F. ) ;
#788 = EDGE_CURVE ( 'NONE', #263, #694, #555, .T. ) ;
#789 = DIRECTION ( 'NONE',  ( -1.000000000000000000, -1.214306433183764966E-16, -0.000000000000000000 ) ) ;
#790 = EDGE_LOOP ( 'NONE', ( #590, #616 ) ) ;
#791 = EDGE_CURVE ( 'NONE', #778, #1047, #663, .T. ) ;
#792 = DIRECTION ( 'NONE',  ( -1.000000000000000000, -1.214306433183764966E-16, -0.000000000000000000 ) ) ;
#793 = DIRECTION ( 'NONE',  ( -6.071532165918826063E-17, 0.5000000000000000000, -0.8660254037844387076 ) ) ;
#794 = DIRECTION ( 'NONE',  ( 0.000000000000000000, -1.000000000000000000, 0.000000000000000000 ) ) ;
#795 = PERSON ( 'UNSPECIFIED', 'UNSPECIFIED', 'UNSPECIFIED', ('UNSPECIFIED'), ('UNSPECIFIED'), ('UNSPECIFIED') ) ;
#796 = DIRECTION ( 'NONE',  ( -1.000000000000000000, -1.214306433183764966E-16, -0.000000000000000000 ) ) ;
#797 = VECTOR ( 'NONE', #95, 1000.000000000000114 ) ;
#798 = DIRECTION ( 'NONE',  ( -1.051620219116011470E-16, 0.8660254037844385966, 0.4999999999999999445 ) ) ;
#799 = ORIENTED_EDGE ( 'NONE', *, *, #245, .T. ) ;
#800 = CONICAL_SURFACE ( 'NONE', #761, 1.499999999999998668, 0.3217505543966426296 ) ;
#801 = PLANE ( 'NONE',  #189 ) ;
#802 = DIRECTION ( 'NONE',  ( 1.140168926195260892E-32, -9.389466242107237782E-17, 1.000000000000000000 ) ) ;
#803 = EDGE_CURVE ( 'NONE', #165, #767, #668, .T. ) ;
#804 = LINE ( 'NONE', #216, #725 ) ;
#805 = DIRECTION ( 'NONE',  ( -1.000000000000000000, -1.214306433183764966E-16, -0.000000000000000000 ) ) ;
#806 = EDGE_CURVE ( 'NONE', #446, #165, #508, .T. ) ;
#807 = CARTESIAN_POINT ( 'NONE',  ( 26.12834425716880205, -6.579967435894634065, 0.000000000000000000 ) ) ;
#808 = CYLINDRICAL_SURFACE ( 'NONE', #1018, 2.999999999999998224 ) ;
#809 = ORIENTED_EDGE ( 'NONE', *, *, #1044, .F. ) ;
#810 = DIRECTION ( 'NONE',  ( -1.000000000000000000, -1.214306433183764966E-16, -0.000000000000000000 ) ) ;
#811 = AXIS2_PLACEMENT_3D ( 'NONE', #340, #499, #181 ) ;
#812 = CARTESIAN_POINT ( 'NONE',  ( -28.75915574283120080, -6.579967435894639394, 0.000000000000000000 ) ) ;
#813 = VECTOR ( 'NONE', #675, 1000.000000000000114 ) ;
#814 = LOCAL_TIME ( 14, 41, 21.00000000000000000, #662 ) ;
#815 = CARTESIAN_POINT ( 'NONE',  ( 0.000000000000000000, 0.000000000000000000, 0.000000000000000000 ) ) ;
#816 = FACE_OUTER_BOUND ( 'NONE', #950, .T. ) ;
#817 = LINE ( 'NONE', #492, #689 ) ;
#818 = VERTEX_POINT ( 'NONE', #238 ) ;
#819 = EDGE_CURVE ( 'NONE', #288, #251, #886, .T. ) ;
#820 = APPROVAL_ROLE ( '' ) ;
#821 = DIRECTION ( 'NONE',  ( 6.071532165918822365E-17, -0.4999999999999997780, 0.8660254037844388186 ) ) ;
#822 = CARTESIAN_POINT ( 'NONE',  ( -33.64665574283120719, -6.579967435894639394, 0.000000000000000000 ) ) ;
#823 = EDGE_CURVE ( 'NONE', #54, #40, #1013, .T. ) ;
#824 = DIRECTION ( 'NONE',  ( -1.000000000000000000, -1.214306433183764966E-16, -0.000000000000000000 ) ) ;
#825 = CARTESIAN_POINT ( 'NONE',  ( -9.759155742831199021, -10.57996743589464117, -2.309401076758504701 ) ) ;
#826 = VECTOR ( 'NONE', #375, 1000.000000000000114 ) ;
#827 = ORIENTED_EDGE ( 'NONE', *, *, #88, .T. ) ;
#828 = AXIS2_PLACEMENT_3D ( 'NONE', #966, #397, #233 ) ;
#829 = APPLICATION_PROTOCOL_DEFINITION ( 'international standard', 'config_control_design', 1994, #960 ) ;
#830 = CC_DESIGN_APPROVAL ( #365, ( #1001 ) ) ;
#831 = DIRECTION ( 'NONE',  ( 0.000000000000000000, 0.000000000000000000, -1.000000000000000000 ) ) ;
#832 = EDGE_CURVE ( 'NONE', #177, #818, #1037, .T. ) ;
#833 = CARTESIAN_POINT ( 'NONE',  ( -24.75915574283120080, -6.579967435894638506, 0.000000000000000000 ) ) ;
#834 = VERTEX_POINT ( 'NONE', #110 ) ;
#835 = ADVANCED_FACE ( 'NONE', ( #359 ), #271, .T. ) ;
#836 = FACE_OUTER_BOUND ( 'NONE', #693, .T. ) ;
#837 = ORIENTED_EDGE ( 'NONE', *, *, #740, .T. ) ;
#838 = CARTESIAN_POINT ( 'NONE',  ( -20.25915574283120080, -3.579967435894638950, 0.000000000000000000 ) ) ;
#839 = ORIENTED_EDGE ( 'NONE', *, *, #3, .T. ) ;
#840 = PLANE ( 'NONE',  #762 ) ;
#841 = DIRECTION ( 'NONE',  ( 0.000000000000000000, -1.000000000000000000, 0.000000000000000000 ) ) ;
#842 = ORIENTED_EDGE ( 'NONE', *, *, #691, .F. ) ;
#843 = ORIENTED_EDGE ( 'NONE', *, *, #623, .F. ) ;
#844 = CLOSED_SHELL ( 'NONE', ( #178, #988, #140, #290, #930, #870, #613, #514, #518, #916, #180, #874, #341, #72, #346, #1045, #683, #114, #396, #963, #888, #704, #307, #549, #835, #1062, #420, #610, #754, #100, #458, #325, #867, #291 ) ) ;
#845 = AXIS2_PLACEMENT_3D ( 'NONE', #600, #854, #33 ) ;
#846 = DIRECTION ( 'NONE',  ( 0.000000000000000000, -1.000000000000000000, 0.000000000000000000 ) ) ;
#847 = VERTEX_POINT ( 'NONE', #102 ) ;
#848 = DIRECTION ( 'NONE',  ( -1.000000000000000000, -1.214306433183764966E-16, -0.000000000000000000 ) ) ;
#849 = EDGE_CURVE ( 'NONE', #251, #575, #348, .T. ) ;
#850 = ORIENTED_EDGE ( 'NONE', *, *, #945, .F. ) ;
#851 = VERTEX_POINT ( 'NONE', #432 ) ;
#852 = EDGE_CURVE ( 'NONE', #267, #285, #364, .T. ) ;
#853 = EDGE_CURVE ( 'NONE', #606, #680, #208, .T. ) ;
#854 = DIRECTION ( 'NONE',  ( -1.000000000000000000, -1.214306433183764966E-16, -0.000000000000000000 ) ) ;
#855 = CARTESIAN_POINT ( 'NONE',  ( 17.24084425716879920, -6.579967435894634953, 0.000000000000000000 ) ) ;
#856 = ORIENTED_EDGE ( 'NONE', *, *, #310, .F. ) ;
#857 = ORIENTED_EDGE ( 'NONE', *, *, #483, .F. ) ;
#858 = VERTEX_POINT ( 'NONE', #444 ) ;
#859 = PLANE ( 'NONE',  #92 ) ;
#860 = DIRECTION ( 'NONE',  ( 6.071532165918822365E-17, -0.4999999999999997780, 0.8660254037844388186 ) ) ;
#861 = EDGE_LOOP ( 'NONE', ( #947, #984, #107, #46, #182 ) ) ;
#862 = LINE ( 'NONE', #447, #743 ) ;
#863 = ORIENTED_EDGE ( 'NONE', *, *, #451, .F. ) ;
#864 = AXIS2_PLACEMENT_3D ( 'NONE', #430, #758, #26 ) ;
#865 = CARTESIAN_POINT ( 'NONE',  ( -28.75915574283120080, -6.579967435894639394, 0.000000000000000000 ) ) ;
#866 = AXIS2_PLACEMENT_3D ( 'NONE', #624, #629, #66 ) ;
#867 = ADVANCED_FACE ( 'NONE', ( #774 ), #183, .T. ) ;
#868 = ORIENTED_EDGE ( 'NONE', *, *, #1060, .T. ) ;
#869 = AXIS2_PLACEMENT_3D ( 'NONE', #52, #878, #309 ) ;
#870 = ADVANCED_FACE ( 'NONE', ( #115 ), #98, .T. ) ;
#871 = DIRECTION ( 'NONE',  ( 0.000000000000000000, -1.000000000000000000, 0.000000000000000000 ) ) ;
#872 = ORIENTED_EDGE ( 'NONE', *, *, #425, .F. ) ;
#873 = ORIENTED_EDGE ( 'NONE', *, *, #975, .T. ) ;
#874 = ADVANCED_FACE ( 'NONE', ( #674 ), #199, .T. ) ;
#875 = DIRECTION ( 'NONE',  ( -1.000000000000000000, -1.214306433183764966E-16, -0.000000000000000000 ) ) ;
#876 = CARTESIAN_POINT ( 'NONE',  ( -20.75915574283120790, -10.57996743589464295, 2.309401076758503812 ) ) ;
#877 = CARTESIAN_POINT ( 'NONE',  ( -9.759155742831200797, 0.6700325641053631598, -0.4330127018922227400 ) ) ;
#878 = DIRECTION ( 'NONE',  ( 1.000000000000000000, 1.214306433183764966E-16, 0.000000000000000000 ) ) ;
#879 = CARTESIAN_POINT ( 'NONE',  ( -20.75915574283120790, -6.579967435894639394, 4.618802153517006737 ) ) ;
#880 = FACE_OUTER_BOUND ( 'NONE', #891, .T. ) ;
#881 = CC_DESIGN_PERSON_AND_ORGANIZATION_ASSIGNMENT ( #343, #159, ( #659 ) ) ;
#882 = LINE ( 'NONE', #961, #163 ) ;
#883 = AXIS2_PLACEMENT_3D ( 'NONE', #329, #426, #6 ) ;
#884 = LINE ( 'NONE', #392, #146 ) ;
#885 = VERTEX_POINT ( 'NONE', #280 ) ;
#886 = CIRCLE ( 'NONE', #418, 1.499999999999998668 ) ;
#887 = LINE ( 'NONE', #59, #568 ) ;
#888 = ADVANCED_FACE ( 'NONE', ( #529, #594 ), #859, .F. ) ;
#889 = CARTESIAN_POINT ( 'NONE',  ( -13.75915574283120080, -2.579967435894637617, 2.309401076758504701 ) ) ;
#890 = DIRECTION ( 'NONE',  ( -1.140168926195260892E-32, 9.389466242107237782E-17, -1.000000000000000000 ) ) ;
#891 = EDGE_LOOP ( 'NONE', ( #29, #101, #134, #131, #526 ) ) ;
#892 = DATE_AND_TIME ( #909, #259 ) ;
#893 = DIRECTION ( 'NONE',  ( 1.140168926195260892E-32, -9.389466242107237782E-17, 1.000000000000000000 ) ) ;
#894 = CARTESIAN_POINT ( 'NONE',  ( -20.25915574283120080, -9.579967435894637617, 3.673940397442059868E-16 ) ) ;
#895 = ORIENTED_EDGE ( 'NONE', *, *, #849, .F. ) ;
#896 = APPROVAL_DATE_TIME ( #332, #474 ) ;
#897 = CARTESIAN_POINT ( 'NONE',  ( 17.24084425716879920, -6.579967435894634953, 0.000000000000000000 ) ) ;
#898 = EDGE_CURVE ( 'NONE', #931, #575, #109, .T. ) ;
#899 = VECTOR ( 'NONE', #954, 1000.000000000000114 ) ;
#900 = EDGE_CURVE ( 'NONE', #201, #766, #78, .T. ) ;
#901 = LINE ( 'NONE', #749, #369 ) ;
#902 = CIRCLE ( 'NONE', #982, 5.112500000000001599 ) ;
#903 = AXIS2_PLACEMENT_3D ( 'NONE', #459, #875, #1036 ) ;
#904 = ORIENTED_EDGE ( 'NONE', *, *, #852, .F. ) ;
#905 = PERSON_AND_ORGANIZATION_ROLE ( 'design_supplier' ) ;
#906 = CYLINDRICAL_SURFACE ( 'NONE', #176, 2.999999999999998224 ) ;
#907 = CARTESIAN_POINT ( 'NONE',  ( 2.240844257168802756, -10.57996743589463939, 0.000000000000000000 ) ) ;
#908 = ORIENTED_EDGE ( 'NONE', *, *, #496, .F. ) ;
#909 = CALENDAR_DATE ( 2025, 1, 5 ) ;
#910 = CARTESIAN_POINT ( 'NONE',  ( -28.75915574283120080, -6.579967435894639394, 1.499999999999998224 ) ) ;
#911 = DIRECTION ( 'NONE',  ( -1.000000000000000000, -1.214306433183764966E-16, -0.000000000000000000 ) ) ;
#912 = EDGE_CURVE ( 'NONE', #1047, #267, #440, .T. ) ;
#913 = ORIENTED_EDGE ( 'NONE', *, *, #407, .T. ) ;
#914 = DIRECTION ( 'NONE',  ( 0.000000000000000000, -1.000000000000000000, 0.000000000000000000 ) ) ;
#915 = LINE ( 'NONE', #414, #313 ) ;
#916 = ADVANCED_FACE ( 'NONE', ( #925, #836 ), #840, .F. ) ;
#917 = AXIS2_PLACEMENT_3D ( 'NONE', #937, #361, #525 ) ;
#918 = EDGE_LOOP ( 'NONE', ( #895, #370, #11, #295 ) ) ;
#919 = VECTOR ( 'NONE', #162, 1000.000000000000000 ) ;
#920 = AXIS2_PLACEMENT_3D ( 'NONE', #815, #501, #564 ) ;
#921 = CARTESIAN_POINT ( 'NONE',  ( 6.240844257168800979, -2.579967435894634509, -2.309401076758505589 ) ) ;
#922 = PLANE ( 'NONE',  #811 ) ;
#923 = VERTEX_POINT ( 'NONE', #266 ) ;
#924 = ORIENTED_EDGE ( 'NONE', *, *, #425, .T. ) ;
#925 = FACE_BOUND ( 'NONE', #790, .T. ) ;
#926 = LINE ( 'NONE', #53, #826 ) ;
#927 = ORIENTED_EDGE ( 'NONE', *, *, #245, .F. ) ;
#928 = CARTESIAN_POINT ( 'NONE',  ( -20.75915574283120790, -6.579967435894639394, 4.618802153517006737 ) ) ;
#929 = LINE ( 'NONE', #103, #258 ) ;
#930 = ADVANCED_FACE ( 'NONE', ( #145 ), #130, .T. ) ;
#931 = VERTEX_POINT ( 'NONE', #965 ) ;
#932 = ORIENTED_EDGE ( 'NONE', *, *, #791, .F. ) ;
#933 = CIRCLE ( 'NONE', #998, 1.500000000000000444 ) ;
#934 = CIRCLE ( 'NONE', #828, 5.112500000000001599 ) ;
#935 = CIRCLE ( 'NONE', #65, 3.000000000000000000 ) ;
#936 = DIRECTION ( 'NONE',  ( 0.000000000000000000, -1.000000000000000000, 0.000000000000000000 ) ) ;
#937 = CARTESIAN_POINT ( 'NONE',  ( 21.24084425716880276, -6.579967435894634065, 0.000000000000000000 ) ) ;
#938 = ORIENTED_EDGE ( 'NONE', *, *, #331, .F. ) ;
#939 = CARTESIAN_POINT ( 'NONE',  ( 2.240844257168802311, -6.579967435894636729, 4.618802153517006737 ) ) ;
#940 = ORIENTED_EDGE ( 'NONE', *, *, #562, .F. ) ;
#941 = CARTESIAN_POINT ( 'NONE',  ( -9.759155742831199021, -10.57996743589463939, 0.000000000000000000 ) ) ;
#942 = DIRECTION ( 'NONE',  ( -1.000000000000000000, -1.214306433183764966E-16, -0.000000000000000000 ) ) ;
#943 = ORIENTED_EDGE ( 'NONE', *, *, #607, .T. ) ;
#944 = ORIENTED_EDGE ( 'NONE', *, *, #853, .T. ) ;
#945 = EDGE_CURVE ( 'NONE', #858, #651, #713, .T. ) ;
#946 = CARTESIAN_POINT ( 'NONE',  ( 6.240844257168802756, -6.579967435894635841, 0.000000000000000000 ) ) ;
#947 = ORIENTED_EDGE ( 'NONE', *, *, #1060, .F. ) ;
#948 = CARTESIAN_POINT ( 'NONE',  ( -28.75915574283120080, -8.079967435894639394, 0.000000000000000000 ) ) ;
#949 = EDGE_LOOP ( 'NONE', ( #643, #927, #456, #938, #269, #442 ) ) ;
#950 = EDGE_LOOP ( 'NONE', ( #670, #15, #377, #1017 ) ) ;
#951 = VECTOR ( 'NONE', #993, 1000.000000000000114 ) ;
#952 = FACE_OUTER_BOUND ( 'NONE', #372, .T. ) ;
#953 = CARTESIAN_POINT ( 'NONE',  ( -28.75915574283120080, -5.079967435894641170, 1.836970198721028208E-16 ) ) ;
#954 = DIRECTION ( 'NONE',  ( -1.051620219116011593E-16, 0.8660254037844387076, -0.4999999999999997224 ) ) ;
#955 = EDGE_LOOP ( 'NONE', ( #711, #745, #1051, #809, #93 ) ) ;
#956 = CARTESIAN_POINT ( 'NONE',  ( -20.25915574283120080, -3.579967435894638950, 0.000000000000000000 ) ) ;
#957 = DIRECTION ( 'NONE',  ( 1.214306433183764966E-16, -1.000000000000000000, 0.000000000000000000 ) ) ;
#958 = CARTESIAN_POINT ( 'NONE',  ( -20.75915574283120790, -2.579967435894638506, 2.309401076758504701 ) ) ;
#959 = ORIENTED_EDGE ( 'NONE', *, *, #672, .T. ) ;
#960 = APPLICATION_CONTEXT ( 'configuration controlled 3d designs of mechanical parts and assemblies' ) ;
#961 = CARTESIAN_POINT ( 'NONE',  ( -28.75915574283120080, -9.579967435894639394, 0.000000000000000000 ) ) ;
#962 = LINE ( 'NONE', #563, #503 ) ;
#963 = ADVANCED_FACE ( 'NONE', ( #475 ), #1053, .T. ) ;
#964 = DIRECTION ( 'NONE',  ( 0.000000000000000000, -1.000000000000000000, 0.000000000000000000 ) ) ;
#965 = CARTESIAN_POINT ( 'NONE',  ( 12.74084425716880098, -9.579967435894634065, 0.000000000000000000 ) ) ;
#966 = CARTESIAN_POINT ( 'NONE',  ( -33.64665574283120719, -6.579967435894639394, 0.000000000000000000 ) ) ;
#967 = CIRCLE ( 'NONE', #13, 5.112500000000002487 ) ;
#968 = LINE ( 'NONE', #312, #104 ) ;
#969 = AXIS2_PLACEMENT_3D ( 'NONE', #768, #261, #688 ) ;
#970 = ORIENTED_EDGE ( 'NONE', *, *, #275, .T. ) ;
#971 =( NAMED_UNIT ( * ) PLANE_ANGLE_UNIT ( ) SI_UNIT ( $, .RADIAN. ) );
#972 = DIRECTION ( 'NONE',  ( -1.000000000000000000, -1.214306433183764966E-16, -0.000000000000000000 ) ) ;
#973 = CARTESIAN_POINT ( 'NONE',  ( -9.759155742831200797, -6.579967435894636729, 0.000000000000000000 ) ) ;
#974 = EDGE_LOOP ( 'NONE', ( #120, #989, #1042, #856 ) ) ;
#975 = EDGE_CURVE ( 'NONE', #1040, #299, #373, .T. ) ;
#976 = DIRECTION ( 'NONE',  ( 0.000000000000000000, -1.000000000000000000, 0.000000000000000000 ) ) ;
#977 = CARTESIAN_POINT ( 'NONE',  ( -9.759155742831200797, -10.57996743589464117, 2.309401076758503812 ) ) ;
#978 = COORDINATED_UNIVERSAL_TIME_OFFSET ( 1, 0, .AHEAD. ) ;
#979 = CARTESIAN_POINT ( 'NONE',  ( -24.75915574283120080, -5.079967435894641170, 1.836970198721028701E-16 ) ) ;
#980 = VECTOR ( 'NONE', #783, 1000.000000000000000 ) ;
#981 = DIRECTION ( 'NONE',  ( 0.9486832980505136570, 0.3162277660168383298, 0.000000000000000000 ) ) ;
#982 = AXIS2_PLACEMENT_3D ( 'NONE', #576, #89, #243 ) ;
#983 = AXIS2_PLACEMENT_3D ( 'NONE', #706, #298, #214 ) ;
#984 = ORIENTED_EDGE ( 'NONE', *, *, #391, .T. ) ;
#985 = SHAPE_DEFINITION_REPRESENTATION ( #353, #304 ) ;
#986 = DIRECTION ( 'NONE',  ( 6.071532165918822365E-17, -0.4999999999999997780, -0.8660254037844388186 ) ) ;
#987 = LINE ( 'NONE', #838, #160 ) ;
#988 = ADVANCED_FACE ( 'NONE', ( #785 ), #710, .T. ) ;
#989 = ORIENTED_EDGE ( 'NONE', *, *, #121, .T. ) ;
#990 = COORDINATED_UNIVERSAL_TIME_OFFSET ( 1, 0, .AHEAD. ) ;
#991 = CARTESIAN_POINT ( 'NONE',  ( 17.24084425716879920, -6.579967435894634953, 0.000000000000000000 ) ) ;
#992 = EDGE_CURVE ( 'NONE', #818, #413, #1020, .T. ) ;
#993 = DIRECTION ( 'NONE',  ( -1.051620219116011593E-16, 0.8660254037844387076, 0.4999999999999997224 ) ) ;
#994 = EDGE_CURVE ( 'NONE', #263, #192, #882, .T. ) ;
#995 = ORIENTED_EDGE ( 'NONE', *, *, #1025, .F. ) ;
#996 = CARTESIAN_POINT ( 'NONE',  ( -20.25915574283120080, -6.579967435894638506, 0.000000000000000000 ) ) ;
#997 = DIRECTION ( 'NONE',  ( 0.000000000000000000, 0.000000000000000000, -1.000000000000000000 ) ) ;
#998 = AXIS2_PLACEMENT_3D ( 'NONE', #477, #1052, #157 ) ;
#999 = VECTOR ( 'NONE', #179, 1000.000000000000000 ) ;
#1000 = VERTEX_POINT ( 'NONE', #141 ) ;
#1001 = PRODUCT_DEFINITION_FORMATION_WITH_SPECIFIED_SOURCE ( 'ANY', '', #666, .NOT_KNOWN. ) ;
#1002 = ORIENTED_EDGE ( 'NONE', *, *, #358, .T. ) ;
#1003 = DIRECTION ( 'NONE',  ( 0.000000000000000000, 0.000000000000000000, 1.000000000000000000 ) ) ;
#1004 = CARTESIAN_POINT ( 'NONE',  ( -33.64665574283120719, -6.579967435894639394, 0.000000000000000000 ) ) ;
#1005 = ORIENTED_EDGE ( 'NONE', *, *, #912, .F. ) ;
#1006 = EDGE_CURVE ( 'NONE', #847, #284, #717, .T. ) ;
#1007 = DIRECTION ( 'NONE',  ( 1.214306433183764966E-16, -1.000000000000000000, 0.000000000000000000 ) ) ;
#1008 = EDGE_CURVE ( 'NONE', #575, #931, #935, .T. ) ;
#1009 = CARTESIAN_POINT ( 'NONE',  ( -20.75915574283120790, -2.579967435894638061, -2.309401076758505589 ) ) ;
#1010 = VERTEX_POINT ( 'NONE', #463 ) ;
#1011 = ORIENTED_EDGE ( 'NONE', *, *, #210, .F. ) ;
#1012 = VERTEX_POINT ( 'NONE', #292 ) ;
#1013 = LINE ( 'NONE', #928, #538 ) ;
#1014 = CARTESIAN_POINT ( 'NONE',  ( -20.75915574283120790, -2.579967435894638061, -2.309401076758505589 ) ) ;
#1015 = ORIENTED_EDGE ( 'NONE', *, *, #320, .F. ) ;
#1016 = CARTESIAN_POINT ( 'NONE',  ( -20.75915574283120790, -2.579967435894638061, -2.309401076758505589 ) ) ;
#1017 = ORIENTED_EDGE ( 'NONE', *, *, #358, .F. ) ;
#1018 = AXIS2_PLACEMENT_3D ( 'NONE', #70, #386, #794 ) ;
#1019 = AXIS2_PLACEMENT_3D ( 'NONE', #996, #344, #734 ) ;
#1020 = CIRCLE ( 'NONE', #521, 1.500000000000000444 ) ;
#1021 = DIRECTION ( 'NONE',  ( 0.000000000000000000, -1.000000000000000000, 0.000000000000000000 ) ) ;
#1022 = DIRECTION ( 'NONE',  ( -1.000000000000000000, -1.214306433183764966E-16, -0.000000000000000000 ) ) ;
#1023 = ORIENTED_EDGE ( 'NONE', *, *, #1025, .T. ) ;
#1024 = ORIENTED_EDGE ( 'NONE', *, *, #823, .T. ) ;
#1025 = EDGE_CURVE ( 'NONE', #533, #302, #68, .T. ) ;
#1026 = DIRECTION ( 'NONE',  ( 1.000000000000000000, 1.214306433183764966E-16, -0.000000000000000000 ) ) ;
#1027 = CARTESIAN_POINT ( 'NONE',  ( 6.240844257168801867, -6.579967435894636729, -4.618802153517011178 ) ) ;
#1028 = EDGE_LOOP ( 'NONE', ( #478, #461, #185, #544 ) ) ;
#1029 = ORIENTED_EDGE ( 'NONE', *, *, #151, .T. ) ;
#1030 = DIRECTION ( 'NONE',  ( 0.000000000000000000, -1.000000000000000000, 0.000000000000000000 ) ) ;
#1031 = LINE ( 'NONE', #953, #371 ) ;
#1032 = VERTEX_POINT ( 'NONE', #956 ) ;
#1033 = CARTESIAN_POINT ( 'NONE',  ( 2.240844257168801867, -2.329967435894636729, -2.165063509461100377 ) ) ;
#1034 = ORIENTED_EDGE ( 'NONE', *, *, #705, .F. ) ;
#1035 = CIRCLE ( 'NONE', #917, 1.499999999999999556 ) ;
#1036 = DIRECTION ( 'NONE',  ( 0.000000000000000000, -1.000000000000000000, 0.000000000000000000 ) ) ;
#1037 = CIRCLE ( 'NONE', #76, 1.500000000000000444 ) ;
#1038 = APPROVAL_PERSON_ORGANIZATION ( #237, #474, #561 ) ;
#1039 = PLANE ( 'NONE',  #1055 ) ;
#1040 = VERTEX_POINT ( 'NONE', #1043 ) ;
#1041 = DIRECTION ( 'NONE',  ( 0.000000000000000000, 1.000000000000000000, 0.000000000000000000 ) ) ;
#1042 = ORIENTED_EDGE ( 'NONE', *, *, #712, .T. ) ;
#1043 = CARTESIAN_POINT ( 'NONE',  ( 21.24084425716880276, -8.079967435894634065, 0.000000000000000000 ) ) ;
#1044 = EDGE_CURVE ( 'NONE', #413, #702, #655, .T. ) ;
#1045 = ADVANCED_FACE ( 'NONE', ( #952 ), #209, .T. ) ;
#1046 = CARTESIAN_POINT ( 'NONE',  ( 17.24084425716879920, -6.579967435894634953, 0.000000000000000000 ) ) ;
#1047 = VERTEX_POINT ( 'NONE', #632 ) ;
#1048 = FACE_OUTER_BOUND ( 'NONE', #583, .T. ) ;
#1049 = DIRECTION ( 'NONE',  ( -1.000000000000000000, -1.214306433183764966E-16, -0.000000000000000000 ) ) ;
#1050 = CARTESIAN_POINT ( 'NONE',  ( 2.240844257168802756, -9.579967435894632288, 0.000000000000000000 ) ) ;
#1051 = ORIENTED_EDGE ( 'NONE', *, *, #88, .F. ) ;
#1052 = DIRECTION ( 'NONE',  ( -1.000000000000000000, -1.214306433183764966E-16, -0.000000000000000000 ) ) ;
#1053 = PLANE ( 'NONE',  #505 ) ;
#1054 = CIRCLE ( 'NONE', #671, 2.999999999999999112 ) ;
#1055 = AXIS2_PLACEMENT_3D ( 'NONE', #142, #793, #1056 ) ;
#1056 = DIRECTION ( 'NONE',  ( 0.000000000000000000, 0.8660254037844385966, 0.4999999999999999445 ) ) ;
#1057 = CIRCLE ( 'NONE', #746, 1.499999999999999556 ) ;
#1058 = CYLINDRICAL_SURFACE ( 'NONE', #274, 1.499999999999998668 ) ;
#1059 = LOCAL_TIME ( 14, 41, 21.00000000000000000, #978 ) ;
#1060 = EDGE_CURVE ( 'NONE', #1012, #251, #541, .T. ) ;
#1061 = ORIENTED_EDGE ( 'NONE', *, *, #310, .T. ) ;
#1062 = ADVANCED_FACE ( 'NONE', ( #56 ), #384, .T. ) ;
#1063 = APPROVAL_DATE_TIME ( #892, #144 ) ;
ENDSEC;
END-ISO-10303-21;
