ISO-10303-21;
HEADER;
FILE_DESCRIPTION (( 'STEP AP203' ),
    '1' );
FILE_NAME ('LOWER-ARME_Défaut_sldprt.STEP',
    '2025-05-01T13:41:22',
    ( '' ),
    ( '' ),
    'SwSTEP 2.0',
    'SolidWorks 2022',
    '' );
FILE_SCHEMA (( 'CONFIG_CONTROL_DESIGN' ));
ENDSEC;

DATA;
#1 = CARTESIAN_POINT ( 'NONE',  ( -130.0863557858376680, 5.561312607944732811, 0.000000000000000000 ) ) ;
#2 = DIRECTION ( 'NONE',  ( 0.000000000000000000, -0.8660254037844383745, -0.5000000000000003331 ) ) ;
#3 = MECHANICAL_CONTEXT ( 'NONE', #709, 'mechanical' ) ;
#4 = ORIENTED_EDGE ( 'NONE', *, *, #669, .T. ) ;
#5 = DIRECTION ( 'NONE',  ( 0.000000000000000000, 0.4999999999999995559, 0.8660254037844389297 ) ) ;
#6 = EDGE_CURVE ( 'NONE', #355, #273, #117, .T. ) ;
#7 = CARTESIAN_POINT ( 'NONE',  ( 129.9136442141623604, 5.561312607944732811, 2.499999999999999556 ) ) ;
#8 = EDGE_LOOP ( 'NONE', ( #268, #422 ) ) ;
#9 = DIRECTION ( 'NONE',  ( 0.000000000000000000, 0.000000000000000000, -1.000000000000000000 ) ) ;
#10 = EDGE_CURVE ( 'NONE', #408, #361, #391, .T. ) ;
#11 = CIRCLE ( 'NONE', #468, 2.499999999999999556 ) ;
#12 = APPROVAL_ROLE ( '' ) ;
#13 = VERTEX_POINT ( 'NONE', #681 ) ;
#14 = PRODUCT ( 'LOWER-ARME_D\X2\00e9\X0\faut_sldprt', 'LOWER-ARME_D\X2\00e9\X0\faut_sldprt', '', ( #3 ) ) ;
#15 = DIRECTION ( 'NONE',  ( -1.000000000000000000, 0.000000000000000000, 0.000000000000000000 ) ) ;
#16 = DIRECTION ( 'NONE',  ( 1.000000000000000000, -0.000000000000000000, -0.000000000000000000 ) ) ;
#17 = ORIENTED_EDGE ( 'NONE', *, *, #239, .T. ) ;
#18 = ADVANCED_FACE ( 'NONE', ( #621, #142 ), #376, .T. ) ;
#19 = APPROVAL_STATUS ( 'not_yet_approved' ) ;
#20 = ORIENTED_EDGE ( 'NONE', *, *, #646, .F. ) ;
#21 = VECTOR ( 'NONE', #419, 1000.000000000000000 ) ;
#22 = VERTEX_POINT ( 'NONE', #450 ) ;
#23 = VECTOR ( 'NONE', #211, 1000.000000000000000 ) ;
#24 = CARTESIAN_POINT ( 'NONE',  ( -110.0863557858376396, 2.611312607944727748, 1.703183294109398727 ) ) ;
#25 = CALENDAR_DATE ( 2025, 1, 5 ) ;
#26 = ORIENTED_EDGE ( 'NONE', *, *, #617, .F. ) ;
#27 = CARTESIAN_POINT ( 'NONE',  ( 133.9136442141623604, 8.061312607944731923, 0.000000000000000000 ) ) ;
#28 = ADVANCED_FACE ( 'NONE', ( #161 ), #578, .T. ) ;
#29 = ORIENTED_EDGE ( 'NONE', *, *, #198, .T. ) ;
#30 = DIRECTION ( 'NONE',  ( 0.000000000000000000, 1.273147965031489564E-16, -1.000000000000000000 ) ) ;
#31 = EDGE_CURVE ( 'NONE', #499, #90, #380, .T. ) ;
#32 = PERSON_AND_ORGANIZATION_ROLE ( 'classification_officer' ) ;
#33 = ORIENTED_EDGE ( 'NONE', *, *, #294, .F. ) ;
#34 = VECTOR ( 'NONE', #525, 1000.000000000000000 ) ;
#35 = CIRCLE ( 'NONE', #455, 2.499999999999999556 ) ;
#36 = CARTESIAN_POINT ( 'NONE',  ( 129.9136442141623604, 5.561312607944733699, -3.406366588218795233 ) ) ;
#37 = ORIENTED_EDGE ( 'NONE', *, *, #156, .F. ) ;
#38 = DIRECTION ( 'NONE',  ( 0.000000000000000000, 0.000000000000000000, -1.000000000000000000 ) ) ;
#39 = DIRECTION ( 'NONE',  ( 0.000000000000000000, -1.273147965031489564E-16, 1.000000000000000000 ) ) ;
#40 = CC_DESIGN_DATE_AND_TIME_ASSIGNMENT ( #659, #722, ( #603 ) ) ;
#41 = LINE ( 'NONE', #112, #246 ) ;
#42 = LINE ( 'NONE', #265, #359 ) ;
#43 = ORIENTED_EDGE ( 'NONE', *, *, #124, .F. ) ;
#44 = LINE ( 'NONE', #735, #397 ) ;
#45 = VECTOR ( 'NONE', #214, 1000.000000000000000 ) ;
#46 = ORIENTED_EDGE ( 'NONE', *, *, #280, .F. ) ;
#47 = VECTOR ( 'NONE', #276, 1000.000000000000000 ) ;
#48 = ADVANCED_FACE ( 'NONE', ( #739 ), #461, .T. ) ;
#49 = DIRECTION ( 'NONE',  ( 1.000000000000000000, -0.000000000000000000, -0.000000000000000000 ) ) ;
#50 = FACE_OUTER_BOUND ( 'NONE', #416, .T. ) ;
#51 = CARTESIAN_POINT ( 'NONE',  ( -124.0863557858377106, 2.611312607944727748, 1.703183294109398727 ) ) ;
#52 = DIRECTION ( 'NONE',  ( 0.000000000000000000, -0.4999999999999998335, -0.8660254037844388186 ) ) ;
#53 = DIRECTION ( 'NONE',  ( -1.000000000000000000, 0.000000000000000000, 0.000000000000000000 ) ) ;
#54 = ORIENTED_EDGE ( 'NONE', *, *, #255, .T. ) ;
#55 = CC_DESIGN_PERSON_AND_ORGANIZATION_ASSIGNMENT ( #667, #247, ( #139 ) ) ;
#56 = CARTESIAN_POINT ( 'NONE',  ( 159.8618291690142144, 5.561312607944732811, 0.000000000000000000 ) ) ;
#57 = CARTESIAN_POINT ( 'NONE',  ( 133.9136442141623604, 8.511312607944738318, 1.703183294109398727 ) ) ;
#58 = DIRECTION ( 'NONE',  ( 0.000000000000000000, -0.8660254037844389297, 0.4999999999999996114 ) ) ;
#59 = AXIS2_PLACEMENT_3D ( 'NONE', #514, #746, #520 ) ;
#60 = DIRECTION ( 'NONE',  ( 1.000000000000000000, -0.000000000000000000, -0.000000000000000000 ) ) ;
#61 = CARTESIAN_POINT ( 'NONE',  ( -114.0863557858376396, 2.611312607944728192, -1.703183294109396950 ) ) ;
#62 = APPROVAL_PERSON_ORGANIZATION ( #552, #441, #482 ) ;
#63 =( NAMED_UNIT ( * ) PLANE_ANGLE_UNIT ( ) SI_UNIT ( $, .RADIAN. ) );
#64 = EDGE_LOOP ( 'NONE', ( #345, #94, #243, #725 ) ) ;
#65 = ADVANCED_FACE ( 'NONE', ( #50 ), #338, .T. ) ;
#66 = CARTESIAN_POINT ( 'NONE',  ( 133.9136442141623604, 5.561312607944732811, -2.499999999999999556 ) ) ;
#67 = ORIENTED_EDGE ( 'NONE', *, *, #699, .T. ) ;
#68 = CALENDAR_DATE ( 2025, 1, 5 ) ;
#69 = ORIENTED_EDGE ( 'NONE', *, *, #272, .F. ) ;
#70 = CYLINDRICAL_SURFACE ( 'NONE', #234, 2.499999999999999556 ) ;
#71 = VECTOR ( 'NONE', #383, 1000.000000000000000 ) ;
#72 = CARTESIAN_POINT ( 'NONE',  ( -114.0863557858376396, 8.511312607944740094, -1.703183294109394952 ) ) ;
#73 = VERTEX_POINT ( 'NONE', #510 ) ;
#74 = EDGE_CURVE ( 'NONE', #676, #371, #580, .T. ) ;
#75 = DESIGN_CONTEXT ( 'detailed design', #252, 'design' ) ;
#76 = DIRECTION ( 'NONE',  ( 1.000000000000000000, -0.000000000000000000, -0.000000000000000000 ) ) ;
#77 = ORIENTED_EDGE ( 'NONE', *, *, #294, .T. ) ;
#78 = ORIENTED_EDGE ( 'NONE', *, *, #646, .T. ) ;
#79 = CARTESIAN_POINT ( 'NONE',  ( 133.9136442141623604, 5.561312607944732811, 2.499999999999999556 ) ) ;
#80 = AXIS2_PLACEMENT_3D ( 'NONE', #224, #524, #691 ) ;
#81 = VERTEX_POINT ( 'NONE', #748 ) ;
#82 = AXIS2_PLACEMENT_3D ( 'NONE', #439, #157, #316 ) ;
#83 = EDGE_CURVE ( 'NONE', #81, #203, #399, .T. ) ;
#84 = PLANE ( 'NONE',  #245 ) ;
#85 = APPROVAL_DATE_TIME ( #199, #441 ) ;
#86 = ORIENTED_EDGE ( 'NONE', *, *, #467, .T. ) ;
#87 = ADVANCED_FACE ( 'NONE', ( #633, #523 ), #690, .T. ) ;
#88 = EDGE_CURVE ( 'NONE', #273, #429, #629, .T. ) ;
#89 = ORIENTED_EDGE ( 'NONE', *, *, #703, .T. ) ;
#90 = VERTEX_POINT ( 'NONE', #110 ) ;
#91 = AXIS2_PLACEMENT_3D ( 'NONE', #278, #677, #618 ) ;
#92 = LINE ( 'NONE', #317, #194 ) ;
#93 = VECTOR ( 'NONE', #407, 999.9999999999998863 ) ;
#94 = ORIENTED_EDGE ( 'NONE', *, *, #688, .T. ) ;
#95 = DIRECTION ( 'NONE',  ( 0.000000000000000000, -0.8660254037844384856, -0.5000000000000002220 ) ) ;
#96 = CARTESIAN_POINT ( 'NONE',  ( -114.0863557858376396, 13.15825229981486189, -0.9797285878997712416 ) ) ;
#97 = LINE ( 'NONE', #562, #23 ) ;
#98 = VERTEX_POINT ( 'NONE', #452 ) ;
#99 = ORIENTED_EDGE ( 'NONE', *, *, #680, .F. ) ;
#100 = FACE_OUTER_BOUND ( 'NONE', #716, .T. ) ;
#101 = CARTESIAN_POINT ( 'NONE',  ( -110.0863557858376396, 2.611312607944728192, -1.703183294109396950 ) ) ;
#102 = VERTEX_POINT ( 'NONE', #105 ) ;
#103 = CARTESIAN_POINT ( 'NONE',  ( -110.0863557858376396, 8.061312607944731923, 0.000000000000000000 ) ) ;
#104 = LINE ( 'NONE', #684, #148 ) ;
#105 = CARTESIAN_POINT ( 'NONE',  ( -110.0863557858376396, 8.511312607944740094, -1.703183294109395174 ) ) ;
#106 = AXIS2_PLACEMENT_3D ( 'NONE', #630, #173, #113 ) ;
#107 = CC_DESIGN_SECURITY_CLASSIFICATION ( #603, ( #139 ) ) ;
#108 = LINE ( 'NONE', #181, #34 ) ;
#109 = CARTESIAN_POINT ( 'NONE',  ( -124.0863557858377106, 8.511312607944740094, -1.703183294109394952 ) ) ;
#110 = CARTESIAN_POINT ( 'NONE',  ( 149.9136442141623320, 5.561312607944732811, -2.499999999999999556 ) ) ;
#111 = ADVANCED_FACE ( 'NONE', ( #685 ), #164, .T. ) ;
#112 = CARTESIAN_POINT ( 'NONE',  ( 129.9136442141623604, 12.64696961511572582, 0.6845393922567376555 ) ) ;
#113 = DIRECTION ( 'NONE',  ( 0.000000000000000000, -0.8660254037844389297, 0.4999999999999995559 ) ) ;
#114 = CALENDAR_DATE ( 2025, 1, 5 ) ;
#115 = ORIENTED_EDGE ( 'NONE', *, *, #688, .F. ) ;
#116 = CARTESIAN_POINT ( 'NONE',  ( 133.9136442141623604, 5.561312607944733699, -3.406366588218795233 ) ) ;
#117 = CIRCLE ( 'NONE', #256, 2.499999999999999556 ) ;
#118 = CARTESIAN_POINT ( 'NONE',  ( 133.9136442141623604, 8.511312607944740094, -1.703183294109394952 ) ) ;
#119 = FACE_OUTER_BOUND ( 'NONE', #381, .T. ) ;
#120 = ORIENTED_EDGE ( 'NONE', *, *, #463, .T. ) ;
#121 = LINE ( 'NONE', #51, #47 ) ;
#122 = PERSON_AND_ORGANIZATION_ROLE ( 'creator' ) ;
#123 = ORIENTED_EDGE ( 'NONE', *, *, #280, .T. ) ;
#124 = EDGE_CURVE ( 'NONE', #557, #587, #169, .T. ) ;
#125 = CARTESIAN_POINT ( 'NONE',  ( 129.9136442141623604, 5.561312607944732811, -2.499999999999999556 ) ) ;
#126 = EDGE_LOOP ( 'NONE', ( #608, #29, #89, #593 ) ) ;
#127 = CLOSED_SHELL ( 'NONE', ( #189, #742, #136, #87, #565, #65, #600, #212, #111, #48, #555, #496, #18, #28, #226, #550, #321, #143, #420, #192, #572, #354, #134, #217 ) ) ;
#128 = LINE ( 'NONE', #344, #93 ) ;
#129 = ORIENTED_EDGE ( 'NONE', *, *, #336, .T. ) ;
#130 = CARTESIAN_POINT ( 'NONE',  ( 129.9136442141623604, 13.04218861750605640, 0.000000000000000000 ) ) ;
#131 = ORIENTED_EDGE ( 'NONE', *, *, #351, .F. ) ;
#132 = VERTEX_POINT ( 'NONE', #530 ) ;
#133 = CARTESIAN_POINT ( 'NONE',  ( -114.0863557858376396, 5.561312607944730146, 3.406366588218797453 ) ) ;
#134 = ADVANCED_FACE ( 'NONE', ( #339 ), #647, .T. ) ;
#135 = ORIENTED_EDGE ( 'NONE', *, *, #249, .T. ) ;
#136 = ADVANCED_FACE ( 'NONE', ( #170 ), #70, .T. ) ;
#137 = AXIS2_PLACEMENT_3D ( 'NONE', #521, #750, #623 ) ;
#138 = VERTEX_POINT ( 'NONE', #743 ) ;
#139 = PRODUCT_DEFINITION_FORMATION_WITH_SPECIFIED_SOURCE ( 'ANY', '', #14, .NOT_KNOWN. ) ;
#140 = DIRECTION ( 'NONE',  ( -0.000000000000000000, 0.000000000000000000, -1.000000000000000000 ) ) ;
#141 = DIRECTION ( 'NONE',  ( 1.000000000000000000, -0.000000000000000000, -0.000000000000000000 ) ) ;
#142 = FACE_OUTER_BOUND ( 'NONE', #620, .T. ) ;
#143 = ADVANCED_FACE ( 'NONE', ( #175 ), #517, .T. ) ;
#144 = DIRECTION ( 'NONE',  ( 1.000000000000000000, -0.000000000000000000, -0.000000000000000000 ) ) ;
#145 = CARTESIAN_POINT ( 'NONE',  ( -124.0863557858377106, 5.561312607944733699, -3.406366588218795233 ) ) ;
#146 = ORIENTED_EDGE ( 'NONE', *, *, #10, .F. ) ;
#147 = CARTESIAN_POINT ( 'NONE',  ( 129.9136442141623604, 2.611312607944727748, 1.703183294109398727 ) ) ;
#148 = VECTOR ( 'NONE', #162, 1000.000000000000114 ) ;
#149 = LINE ( 'NONE', #96, #71 ) ;
#150 = ORIENTED_EDGE ( 'NONE', *, *, #475, .F. ) ;
#151 = ORIENTED_EDGE ( 'NONE', *, *, #31, .T. ) ;
#152 = LINE ( 'NONE', #564, #719 ) ;
#153 = CARTESIAN_POINT ( 'NONE',  ( -110.0863557858376396, 8.511312607944740094, 2.291666337056716861E-16 ) ) ;
#154 = ORIENTED_EDGE ( 'NONE', *, *, #291, .F. ) ;
#155 = ORIENTED_EDGE ( 'NONE', *, *, #650, .F. ) ;
#156 = EDGE_CURVE ( 'NONE', #373, #203, #710, .T. ) ;
#157 = DIRECTION ( 'NONE',  ( 0.000000000000000000, 0.5000000000000003331, -0.8660254037844385966 ) ) ;
#158 = DIRECTION ( 'NONE',  ( 0.000000000000000000, 5.092591860125961213E-16, -1.000000000000000000 ) ) ;
#159 = DIRECTION ( 'NONE',  ( 1.000000000000000000, -0.000000000000000000, -0.000000000000000000 ) ) ;
#160 = EDGE_LOOP ( 'NONE', ( #308, #131, #732, #20 ) ) ;
#161 = FACE_OUTER_BOUND ( 'NONE', #126, .T. ) ;
#162 = DIRECTION ( 'NONE',  ( 0.000000000000000000, 0.8660254037844384856, 0.5000000000000002220 ) ) ;
#163 = EDGE_CURVE ( 'NONE', #98, #81, #331, .T. ) ;
#164 = PLANE ( 'NONE',  #346 ) ;
#165 = VECTOR ( 'NONE', #570, 1000.000000000000000 ) ;
#166 = CARTESIAN_POINT ( 'NONE',  ( -124.0863557858377106, 8.511312607944738318, 1.703183294109398727 ) ) ;
#167 = CIRCLE ( 'NONE', #303, 2.499999999999999556 ) ;
#168 = FACE_OUTER_BOUND ( 'NONE', #290, .T. ) ;
#169 = LINE ( 'NONE', #334, #165 ) ;
#170 = FACE_OUTER_BOUND ( 'NONE', #193, .T. ) ;
#171 = ORIENTED_EDGE ( 'NONE', *, *, #631, .T. ) ;
#172 = CARTESIAN_POINT ( 'NONE',  ( -110.0863557858376396, 5.961312607944732278, -3.637306695894643838 ) ) ;
#173 = DIRECTION ( 'NONE',  ( 0.000000000000000000, 0.4999999999999995559, 0.8660254037844389297 ) ) ;
#174 = DATE_TIME_ROLE ( 'creation_date' ) ;
#175 = FACE_OUTER_BOUND ( 'NONE', #298, .T. ) ;
#176 = DIRECTION ( 'NONE',  ( 0.000000000000000000, 1.273147965031489564E-16, -1.000000000000000000 ) ) ;
#177 = AXIS2_PLACEMENT_3D ( 'NONE', #402, #751, #342 ) ;
#178 = LINE ( 'NONE', #692, #653 ) ;
#179 = DIRECTION ( 'NONE',  ( 1.000000000000000000, 0.000000000000000000, 0.000000000000000000 ) ) ;
#180 = ORIENTED_EDGE ( 'NONE', *, *, #395, .T. ) ;
#181 = CARTESIAN_POINT ( 'NONE',  ( 129.9136442141623604, 8.511312607944740094, -2.307390228553196132E-15 ) ) ;
#182 = ORIENTED_EDGE ( 'NONE', *, *, #362, .F. ) ;
#183 = FACE_OUTER_BOUND ( 'NONE', #503, .T. ) ;
#184 = ORIENTED_EDGE ( 'NONE', *, *, #665, .T. ) ;
#185 = CC_DESIGN_PERSON_AND_ORGANIZATION_ASSIGNMENT ( #357, #592, ( #139 ) ) ;
#186 = CARTESIAN_POINT ( 'NONE',  ( -114.0863557858376396, 5.561312607944732811, 2.499999999999999556 ) ) ;
#187 = AXIS2_PLACEMENT_3D ( 'NONE', #459, #352, #590 ) ;
#188 = ORIENTED_EDGE ( 'NONE', *, *, #375, .F. ) ;
#189 = ADVANCED_FACE ( 'NONE', ( #581 ), #228, .T. ) ;
#190 = VERTEX_POINT ( 'NONE', #116 ) ;
#191 = CARTESIAN_POINT ( 'NONE',  ( -114.0863557858376396, 10.20825229981485016, 6.089278470227972306 ) ) ;
#192 = ADVANCED_FACE ( 'NONE', ( #585 ), #231, .T. ) ;
#193 = EDGE_LOOP ( 'NONE', ( #366, #543, #37, #670 ) ) ;
#194 = VECTOR ( 'NONE', #141, 1000.000000000000000 ) ;
#195 = ORIENTED_EDGE ( 'NONE', *, *, #534, .T. ) ;
#196 = CC_DESIGN_APPROVAL ( #441, ( #603 ) ) ;
#197 = DIRECTION ( 'NONE',  ( -0.000000000000000000, -0.8660254037844383745, -0.5000000000000003331 ) ) ;
#198 = EDGE_CURVE ( 'NONE', #273, #355, #504, .T. ) ;
#199 = DATE_AND_TIME ( #25, #225 ) ;
#200 = ORIENTED_EDGE ( 'NONE', *, *, #463, .F. ) ;
#201 = PLANE ( 'NONE',  #82 ) ;
#202 = CARTESIAN_POINT ( 'NONE',  ( 159.8618291690142144, 5.561312607944732811, -2.499999999999999556 ) ) ;
#203 = VERTEX_POINT ( 'NONE', #186 ) ;
#204 = CARTESIAN_POINT ( 'NONE',  ( -124.0863557858377106, 8.511312607944738318, 1.703183294109398727 ) ) ;
#205 = LINE ( 'NONE', #153, #431 ) ;
#206 = VERTEX_POINT ( 'NONE', #24 ) ;
#207 = AXIS2_PLACEMENT_3D ( 'NONE', #712, #360, #426 ) ;
#208 = CARTESIAN_POINT ( 'NONE',  ( -124.0863557858377106, 2.611312607944728192, -1.703183294109396950 ) ) ;
#209 = LINE ( 'NONE', #377, #662 ) ;
#210 = LOCAL_TIME ( 14, 41, 22.00000000000000000, #242 ) ;
#211 = DIRECTION ( 'NONE',  ( 1.000000000000000000, -0.000000000000000000, -0.000000000000000000 ) ) ;
#212 = ADVANCED_FACE ( 'NONE', ( #706 ), #84, .T. ) ;
#213 = DIRECTION ( 'NONE',  ( 0.000000000000000000, 0.000000000000000000, -1.000000000000000000 ) ) ;
#214 = DIRECTION ( 'NONE',  ( 0.000000000000000000, 1.273147965031489564E-16, -1.000000000000000000 ) ) ;
#215 = VERTEX_POINT ( 'NONE', #133 ) ;
#216 = EDGE_CURVE ( 'NONE', #683, #465, #367, .T. ) ;
#217 = ADVANCED_FACE ( 'NONE', ( #535, #651 ), #664, .T. ) ;
#218 = LINE ( 'NONE', #682, #663 ) ;
#219 = DIRECTION ( 'NONE',  ( 1.000000000000000000, -0.000000000000000000, -0.000000000000000000 ) ) ;
#220 = ADVANCED_BREP_SHAPE_REPRESENTATION ( 'LOWER-ARME_D\X2\00e9\X0\faut_sldprt', ( #378, #547 ), #412 ) ;
#221 = DIRECTION ( 'NONE',  ( 0.000000000000000000, 0.000000000000000000, -1.000000000000000000 ) ) ;
#222 = DIRECTION ( 'NONE',  ( 0.000000000000000000, -0.5000000000000004441, 0.8660254037844384856 ) ) ;
#223 = VECTOR ( 'NONE', #229, 1000.000000000000000 ) ;
#224 = CARTESIAN_POINT ( 'NONE',  ( -114.0863557858376396, 5.561312607944732811, 0.000000000000000000 ) ) ;
#225 = LOCAL_TIME ( 14, 41, 22.00000000000000000, #490 ) ;
#226 = ADVANCED_FACE ( 'NONE', ( #541, #183 ), #372, .T. ) ;
#227 = DIRECTION ( 'NONE',  ( 0.000000000000000000, 0.000000000000000000, -1.000000000000000000 ) ) ;
#228 = CYLINDRICAL_SURFACE ( 'NONE', #286, 2.499999999999999556 ) ;
#229 = DIRECTION ( 'NONE',  ( 1.000000000000000000, -0.000000000000000000, -0.000000000000000000 ) ) ;
#230 = CARTESIAN_POINT ( 'NONE',  ( 159.8618291690142144, 5.561312607944732811, -2.499999999999999556 ) ) ;
#231 = PLANE ( 'NONE',  #409 ) ;
#232 = APPROVAL_DATE_TIME ( #289, #356 ) ;
#233 = ORIENTED_EDGE ( 'NONE', *, *, #475, .T. ) ;
#234 = AXIS2_PLACEMENT_3D ( 'NONE', #281, #511, #9 ) ;
#235 = VECTOR ( 'NONE', #445, 1000.000000000000114 ) ;
#236 = LOCAL_TIME ( 14, 41, 22.00000000000000000, #250 ) ;
#237 = DATE_AND_TIME ( #114, #471 ) ;
#238 = ORIENTED_EDGE ( 'NONE', *, *, #266, .T. ) ;
#239 = EDGE_CURVE ( 'NONE', #81, #98, #269, .T. ) ;
#240 = PERSON_AND_ORGANIZATION_ROLE ( 'design_owner' ) ;
#241 = ORIENTED_EDGE ( 'NONE', *, *, #489, .T. ) ;
#242 = COORDINATED_UNIVERSAL_TIME_OFFSET ( 1, 0, .AHEAD. ) ;
#243 = ORIENTED_EDGE ( 'NONE', *, *, #730, .T. ) ;
#244 = DIRECTION ( 'NONE',  ( 0.000000000000000000, 0.000000000000000000, 1.000000000000000000 ) ) ;
#245 = AXIS2_PLACEMENT_3D ( 'NONE', #430, #538, #487 ) ;
#246 = VECTOR ( 'NONE', #95, 1000.000000000000114 ) ;
#247 = PERSON_AND_ORGANIZATION_ROLE ( 'design_supplier' ) ;
#248 = EDGE_LOOP ( 'NONE', ( #604, #660, #625, #526 ) ) ;
#249 = EDGE_CURVE ( 'NONE', #683, #371, #594, .T. ) ;
#250 = COORDINATED_UNIVERSAL_TIME_OFFSET ( 1, 0, .AHEAD. ) ;
#251 = VERTEX_POINT ( 'NONE', #79 ) ;
#252 = APPLICATION_CONTEXT ( 'configuration controlled 3d designs of mechanical parts and assemblies' ) ;
#253 = EDGE_LOOP ( 'NONE', ( #77, #151 ) ) ;
#254 = FACE_OUTER_BOUND ( 'NONE', #253, .T. ) ;
#255 = EDGE_CURVE ( 'NONE', #384, #557, #546, .T. ) ;
#256 = AXIS2_PLACEMENT_3D ( 'NONE', #497, #433, #213 ) ;
#257 = AXIS2_PLACEMENT_3D ( 'NONE', #145, #379, #390 ) ;
#258 = APPROVAL_STATUS ( 'not_yet_approved' ) ;
#259 = ORIENTED_EDGE ( 'NONE', *, *, #88, .T. ) ;
#260 = VECTOR ( 'NONE', #473, 1000.000000000000000 ) ;
#261 = CARTESIAN_POINT ( 'NONE',  ( -110.0863557858376396, 5.561312607944732811, 2.499999999999999556 ) ) ;
#262 = ORIENTED_EDGE ( 'NONE', *, *, #704, .T. ) ;
#263 = DIRECTION ( 'NONE',  ( -0.000000000000000000, 0.000000000000000000, -1.000000000000000000 ) ) ;
#264 = CARTESIAN_POINT ( 'NONE',  ( -114.0863557858376396, 13.15825229981485833, 0.9797285878997764597 ) ) ;
#265 = CARTESIAN_POINT ( 'NONE',  ( -110.0863557858376396, 8.911312607944733344, -1.472243186433547901 ) ) ;
#266 = EDGE_CURVE ( 'NONE', #132, #215, #715, .T. ) ;
#267 = FACE_OUTER_BOUND ( 'NONE', #597, .T. ) ;
#268 = ORIENTED_EDGE ( 'NONE', *, *, #6, .F. ) ;
#269 = CIRCLE ( 'NONE', #207, 2.499999999999999556 ) ;
#270 = CARTESIAN_POINT ( 'NONE',  ( -124.0863557858377106, 2.611312607944728192, -1.703183294109396950 ) ) ;
#271 = DIRECTION ( 'NONE',  ( 0.000000000000000000, 0.8660254037844387076, -0.4999999999999998335 ) ) ;
#272 = EDGE_CURVE ( 'NONE', #203, #373, #638, .T. ) ;
#273 = VERTEX_POINT ( 'NONE', #261 ) ;
#274 = CARTESIAN_POINT ( 'NONE',  ( 129.9136442141623604, 5.561312607944730146, 3.406366588218797453 ) ) ;
#275 = CARTESIAN_POINT ( 'NONE',  ( 133.9136442141623604, 8.511312607944738318, 1.703183294109398727 ) ) ;
#276 = DIRECTION ( 'NONE',  ( 1.000000000000000000, -0.000000000000000000, -0.000000000000000000 ) ) ;
#277 = DIRECTION ( 'NONE',  ( 0.000000000000000000, 0.000000000000000000, -1.000000000000000000 ) ) ;
#278 = CARTESIAN_POINT ( 'NONE',  ( -124.0863557858377106, 8.511312607944740094, -1.703183294109394952 ) ) ;
#279 = CARTESIAN_POINT ( 'NONE',  ( -124.0863557858377106, 5.561312607944730146, 3.406366588218797453 ) ) ;
#280 = EDGE_CURVE ( 'NONE', #332, #190, #726, .T. ) ;
#281 = CARTESIAN_POINT ( 'NONE',  ( 159.8618291690142144, 5.561312607944732811, 0.000000000000000000 ) ) ;
#282 = ORIENTED_EDGE ( 'NONE', *, *, #534, .F. ) ;
#283 = FACE_OUTER_BOUND ( 'NONE', #701, .T. ) ;
#284 = LINE ( 'NONE', #264, #315 ) ;
#285 = DIRECTION ( 'NONE',  ( 1.000000000000000000, -0.000000000000000000, -0.000000000000000000 ) ) ;
#286 = AXIS2_PLACEMENT_3D ( 'NONE', #347, #405, #637 ) ;
#287 = CIRCLE ( 'NONE', #481, 2.499999999999999556 ) ;
#288 = EDGE_LOOP ( 'NONE', ( #389, #123, #184, #195, #738, #542 ) ) ;
#289 = DATE_AND_TIME ( #421, #674 ) ;
#290 = EDGE_LOOP ( 'NONE', ( #120, #358, #146, #328 ) ) ;
#291 = EDGE_CURVE ( 'NONE', #711, #429, #368, .T. ) ;
#292 = ORIENTED_EDGE ( 'NONE', *, *, #665, .F. ) ;
#293 = VECTOR ( 'NONE', #30, 1000.000000000000000 ) ;
#294 = EDGE_CURVE ( 'NONE', #90, #499, #11, .T. ) ;
#295 = PRODUCT_DEFINITION_SHAPE ( 'NONE', 'NONE',  #723 ) ;
#296 = CARTESIAN_POINT ( 'NONE',  ( 159.8618291690142144, 5.561312607944732811, -2.499999999999999556 ) ) ;
#297 = ORIENTED_EDGE ( 'NONE', *, *, #239, .F. ) ;
#298 = EDGE_LOOP ( 'NONE', ( #135, #717, #634, #645 ) ) ;
#299 = EDGE_LOOP ( 'NONE', ( #241, #744, #150, #43 ) ) ;
#300 = PRODUCT_RELATED_PRODUCT_CATEGORY ( 'detail', '', ( #14 ) ) ;
#301 = ORIENTED_EDGE ( 'NONE', *, *, #351, .T. ) ;
#302 = AXIS2_PLACEMENT_3D ( 'NONE', #446, #159, #38 ) ;
#303 = AXIS2_PLACEMENT_3D ( 'NONE', #740, #500, #509 ) ;
#304 = ORIENTED_EDGE ( 'NONE', *, *, #124, .T. ) ;
#305 = DIRECTION ( 'NONE',  ( 0.000000000000000000, -0.8660254037844388186, 0.4999999999999998335 ) ) ;
#306 = ORIENTED_EDGE ( 'NONE', *, *, #428, .T. ) ;
#307 = CARTESIAN_POINT ( 'NONE',  ( -124.0863557858377106, 8.511312607944740094, -1.703183294109394952 ) ) ;
#308 = ORIENTED_EDGE ( 'NONE', *, *, #650, .T. ) ;
#309 = DIRECTION ( 'NONE',  ( 1.000000000000000000, -0.000000000000000000, -0.000000000000000000 ) ) ;
#310 = CARTESIAN_POINT ( 'NONE',  ( 133.9136442141623604, 2.611312607944728192, -1.703183294109396950 ) ) ;
#311 = FACE_OUTER_BOUND ( 'NONE', #160, .T. ) ;
#312 = APPROVAL ( #654, 'UNSPECIFIED' ) ;
#313 = AXIS2_PLACEMENT_3D ( 'NONE', #614, #144, #558 ) ;
#314 = VECTOR ( 'NONE', #329, 1000.000000000000114 ) ;
#315 = VECTOR ( 'NONE', #569, 1000.000000000000114 ) ;
#316 = DIRECTION ( 'NONE',  ( 0.000000000000000000, 0.8660254037844384856, 0.5000000000000002220 ) ) ;
#317 = CARTESIAN_POINT ( 'NONE',  ( -124.0863557858377106, 2.611312607944727748, 1.703183294109398727 ) ) ;
#318 = LINE ( 'NONE', #737, #410 ) ;
#319 = CARTESIAN_POINT ( 'NONE',  ( 133.9136442141623604, 5.561312607944730146, 3.406366588218797453 ) ) ;
#320 = VERTEX_POINT ( 'NONE', #607 ) ;
#321 = ADVANCED_FACE ( 'NONE', ( #495 ), #666, .T. ) ;
#322 = PLANE ( 'NONE',  #91 ) ;
#323 = DIRECTION ( 'NONE',  ( 0.000000000000000000, 0.8660254037844383745, 0.5000000000000003331 ) ) ;
#324 = CARTESIAN_POINT ( 'NONE',  ( -124.0863557858377106, 2.611312607944728192, -1.703183294109396950 ) ) ;
#325 = EDGE_CURVE ( 'NONE', #206, #361, #498, .T. ) ;
#326 = LINE ( 'NONE', #333, #45 ) ;
#327 = DIRECTION ( 'NONE',  ( 0.000000000000000000, -0.8660254037844389297, 0.4999999999999995559 ) ) ;
#328 = ORIENTED_EDGE ( 'NONE', *, *, #704, .F. ) ;
#329 = DIRECTION ( 'NONE',  ( 0.000000000000000000, -0.8660254037844383745, -0.5000000000000003331 ) ) ;
#330 = LINE ( 'NONE', #627, #370 ) ;
#331 = CIRCLE ( 'NONE', #698, 2.499999999999999556 ) ;
#332 = VERTEX_POINT ( 'NONE', #310 ) ;
#333 = CARTESIAN_POINT ( 'NONE',  ( 133.9136442141623604, 2.611312607944727748, 1.703183294109398727 ) ) ;
#334 = CARTESIAN_POINT ( 'NONE',  ( 129.9136442141623604, 2.611312607944726860, -1.328004856506879140E-15 ) ) ;
#335 = DIRECTION ( 'NONE',  ( 0.000000000000000000, -0.5000000000000004441, 0.8660254037844384856 ) ) ;
#336 = EDGE_CURVE ( 'NONE', #320, #206, #209, .T. ) ;
#337 = PLANE ( 'NONE',  #369 ) ;
#338 = CYLINDRICAL_SURFACE ( 'NONE', #177, 2.499999999999999556 ) ;
#339 = FACE_OUTER_BOUND ( 'NONE', #64, .T. ) ;
#340 = VERTEX_POINT ( 'NONE', #609 ) ;
#341 = PLANE ( 'NONE',  #137 ) ;
#342 = DIRECTION ( 'NONE',  ( 0.000000000000000000, 0.000000000000000000, -1.000000000000000000 ) ) ;
#343 = ORIENTED_EDGE ( 'NONE', *, *, #571, .T. ) ;
#344 = CARTESIAN_POINT ( 'NONE',  ( -114.0863557858376396, 10.20825229981485904, -6.089278470227966089 ) ) ;
#345 = ORIENTED_EDGE ( 'NONE', *, *, #631, .F. ) ;
#346 = AXIS2_PLACEMENT_3D ( 'NONE', #279, #222, #458 ) ;
#347 = CARTESIAN_POINT ( 'NONE',  ( 159.8618291690142144, 5.561312607944732811, 0.000000000000000000 ) ) ;
#348 = ORGANIZATION ( 'UNSPECIFIED', 'UNSPECIFIED', '' ) ;
#349 = DIRECTION ( 'NONE',  ( 0.000000000000000000, -5.092591860125961213E-16, 1.000000000000000000 ) ) ;
#350 = ORIENTED_EDGE ( 'NONE', *, *, #703, .F. ) ;
#351 = EDGE_CURVE ( 'NONE', #102, #138, #205, .T. ) ;
#352 = DIRECTION ( 'NONE',  ( 1.000000000000000000, -0.000000000000000000, -0.000000000000000000 ) ) ;
#353 = LINE ( 'NONE', #296, #260 ) ;
#354 = ADVANCED_FACE ( 'NONE', ( #254 ), #671, .T. ) ;
#355 = VERTEX_POINT ( 'NONE', #619 ) ;
#356 = APPROVAL ( #19, 'UNSPECIFIED' ) ;
#357 = PERSON_AND_ORGANIZATION ( #492, #348 ) ;
#358 = ORIENTED_EDGE ( 'NONE', *, *, #467, .F. ) ;
#359 = VECTOR ( 'NONE', #512, 1000.000000000000114 ) ;
#360 = DIRECTION ( 'NONE',  ( 1.000000000000000000, -0.000000000000000000, -0.000000000000000000 ) ) ;
#361 = VERTEX_POINT ( 'NONE', #101 ) ;
#362 = EDGE_CURVE ( 'NONE', #132, #206, #92, .T. ) ;
#363 = CARTESIAN_POINT ( 'NONE',  ( 129.9136442141623604, 12.64696961511572937, -0.6845393922567323264 ) ) ;
#364 = ORIENTED_EDGE ( 'NONE', *, *, #488, .F. ) ;
#365 = CARTESIAN_POINT ( 'NONE',  ( -124.0863557858377106, 5.561312607944730146, 3.406366588218797453 ) ) ;
#366 = ORIENTED_EDGE ( 'NONE', *, *, #163, .T. ) ;
#367 = LINE ( 'NONE', #363, #21 ) ;
#368 = CIRCLE ( 'NONE', #313, 2.499999999999999556 ) ;
#369 = AXIS2_PLACEMENT_3D ( 'NONE', #270, #456, #689 ) ;
#370 = VECTOR ( 'NONE', #60, 1000.000000000000000 ) ;
#371 = VERTEX_POINT ( 'NONE', #720 ) ;
#372 = PLANE ( 'NONE',  #545 ) ;
#373 = VERTEX_POINT ( 'NONE', #440 ) ;
#374 = LINE ( 'NONE', #554, #718 ) ;
#375 = EDGE_CURVE ( 'NONE', #138, #320, #374, .T. ) ;
#376 = PLANE ( 'NONE',  #672 ) ;
#377 = CARTESIAN_POINT ( 'NONE',  ( -110.0863557858376396, 5.961312607944727837, 3.637306695894646502 ) ) ;
#378 = MANIFOLD_SOLID_BREP ( 'Enlèv. mat.-Extru.1', #127 ) ;
#379 = DIRECTION ( 'NONE',  ( 0.000000000000000000, 0.5000000000000003331, -0.8660254037844385966 ) ) ;
#380 = CIRCLE ( 'NONE', #59, 2.499999999999999556 ) ;
#381 = EDGE_LOOP ( 'NONE', ( #673, #259, #154, #350 ) ) ;
#382 = DIRECTION ( 'NONE',  ( 1.000000000000000000, -0.000000000000000000, -0.000000000000000000 ) ) ;
#383 = DIRECTION ( 'NONE',  ( 0.000000000000000000, 0.8660254037844389297, -0.4999999999999995559 ) ) ;
#384 = VERTEX_POINT ( 'NONE', #36 ) ;
#385 = EDGE_CURVE ( 'NONE', #215, #340, #149, .T. ) ;
#386 = EDGE_LOOP ( 'NONE', ( #394, #708 ) ) ;
#387 = DIRECTION ( 'NONE',  ( 0.000000000000000000, 0.8660254037844387076, -0.4999999999999997780 ) ) ;
#388 = CARTESIAN_POINT ( 'NONE',  ( 149.9136442141623320, 8.061312607944731923, 0.000000000000000000 ) ) ;
#389 = ORIENTED_EDGE ( 'NONE', *, *, #606, .T. ) ;
#390 = DIRECTION ( 'NONE',  ( 0.000000000000000000, 0.8660254037844384856, 0.5000000000000002220 ) ) ;
#391 = LINE ( 'NONE', #324, #731 ) ;
#392 = DIRECTION ( 'NONE',  ( 1.000000000000000000, -0.000000000000000000, -0.000000000000000000 ) ) ;
#393 = CARTESIAN_POINT ( 'NONE',  ( -110.0863557858376396, 2.611312607944727748, -6.938656409421623830E-16 ) ) ;
#394 = ORIENTED_EDGE ( 'NONE', *, *, #156, .T. ) ;
#395 = EDGE_CURVE ( 'NONE', #98, #373, #724, .T. ) ;
#396 = VECTOR ( 'NONE', #285, 1000.000000000000000 ) ;
#397 = VECTOR ( 'NONE', #49, 1000.000000000000000 ) ;
#398 = DIRECTION ( 'NONE',  ( 1.000000000000000000, -0.000000000000000000, -0.000000000000000000 ) ) ;
#399 = LINE ( 'NONE', #741, #396 ) ;
#400 = LINE ( 'NONE', #172, #749 ) ;
#401 = LINE ( 'NONE', #579, #235 ) ;
#402 = CARTESIAN_POINT ( 'NONE',  ( 159.8618291690142144, 5.561312607944732811, 0.000000000000000000 ) ) ;
#403 = DIRECTION ( 'NONE',  ( 0.000000000000000000, 0.000000000000000000, -1.000000000000000000 ) ) ;
#404 = COORDINATED_UNIVERSAL_TIME_OFFSET ( 1, 0, .AHEAD. ) ;
#405 = DIRECTION ( 'NONE',  ( 1.000000000000000000, -0.000000000000000000, -0.000000000000000000 ) ) ;
#406 = EDGE_CURVE ( 'NONE', #22, #102, #42, .T. ) ;
#407 = DIRECTION ( 'NONE',  ( 0.000000000000000000, -0.8660254037844388186, 0.4999999999999998335 ) ) ;
#408 = VERTEX_POINT ( 'NONE', #61 ) ;
#409 = AXIS2_PLACEMENT_3D ( 'NONE', #466, #696, #176 ) ;
#410 = VECTOR ( 'NONE', #39, 1000.000000000000000 ) ;
#411 = CARTESIAN_POINT ( 'NONE',  ( -110.0863557858376396, 5.561312607944732811, 0.000000000000000000 ) ) ;
#412 =( GEOMETRIC_REPRESENTATION_CONTEXT ( 3 ) GLOBAL_UNCERTAINTY_ASSIGNED_CONTEXT ( ( #652 ) ) GLOBAL_UNIT_ASSIGNED_CONTEXT ( ( #596, #63, #539 ) ) REPRESENTATION_CONTEXT ( 'NONE', 'WORKASPACE' ) );
#413 = CARTESIAN_POINT ( 'NONE',  ( 129.9136442141623604, 8.511312607944738318, 1.703183294109398727 ) ) ;
#414 = EDGE_CURVE ( 'NONE', #465, #658, #108, .T. ) ;
#415 = APPLICATION_PROTOCOL_DEFINITION ( 'international standard', 'config_control_design', 1994, #252 ) ;
#416 = EDGE_LOOP ( 'NONE', ( #649, #17, #180, #69 ) ) ;
#417 = APPLICATION_PROTOCOL_DEFINITION ( 'international standard', 'config_control_design', 1994, #709 ) ;
#418 = ORIENTED_EDGE ( 'NONE', *, *, #255, .F. ) ;
#419 = DIRECTION ( 'NONE',  ( 0.000000000000000000, 0.8660254037844389297, -0.4999999999999995559 ) ) ;
#420 = ADVANCED_FACE ( 'NONE', ( #283 ), #588, .T. ) ;
#421 = CALENDAR_DATE ( 2025, 1, 5 ) ;
#422 = ORIENTED_EDGE ( 'NONE', *, *, #198, .F. ) ;
#423 = VECTOR ( 'NONE', #271, 1000.000000000000000 ) ;
#424 = VECTOR ( 'NONE', #349, 1000.000000000000000 ) ;
#425 = ORIENTED_EDGE ( 'NONE', *, *, #406, .F. ) ;
#426 = DIRECTION ( 'NONE',  ( 0.000000000000000000, 0.000000000000000000, -1.000000000000000000 ) ) ;
#427 = ORIENTED_EDGE ( 'NONE', *, *, #675, .T. ) ;
#428 = EDGE_CURVE ( 'NONE', #215, #320, #518, .T. ) ;
#429 = VERTEX_POINT ( 'NONE', #7 ) ;
#430 = CARTESIAN_POINT ( 'NONE',  ( -124.0863557858377106, 2.611312607944727748, 1.703183294109398727 ) ) ;
#431 = VECTOR ( 'NONE', #506, 1000.000000000000000 ) ;
#432 = AXIS2_PLACEMENT_3D ( 'NONE', #208, #52, #387 ) ;
#433 = DIRECTION ( 'NONE',  ( 1.000000000000000000, -0.000000000000000000, -0.000000000000000000 ) ) ;
#434 = CC_DESIGN_PERSON_AND_ORGANIZATION_ASSIGNMENT ( #528, #122, ( #723 ) ) ;
#435 = CARTESIAN_POINT ( 'NONE',  ( 149.9136442141623320, 5.561312607944732811, 0.000000000000000000 ) ) ;
#436 = SHAPE_DEFINITION_REPRESENTATION ( #295, #220 ) ;
#437 = EDGE_LOOP ( 'NONE', ( #343, #171, #33, #605 ) ) ;
#438 = DIRECTION ( 'NONE',  ( 0.000000000000000000, -5.092591860125961213E-16, 1.000000000000000000 ) ) ;
#439 = CARTESIAN_POINT ( 'NONE',  ( -124.0863557858377106, 5.561312607944733699, -3.406366588218795233 ) ) ;
#440 = CARTESIAN_POINT ( 'NONE',  ( -114.0863557858376396, 5.561312607944732811, -2.499999999999999556 ) ) ;
#441 = APPROVAL ( #258, 'UNSPECIFIED' ) ;
#442 = AXIS2_PLACEMENT_3D ( 'NONE', #624, #53, #516 ) ;
#443 = DIRECTION ( 'NONE',  ( -0.000000000000000000, 0.000000000000000000, -1.000000000000000000 ) ) ;
#444 = AXIS2_PLACEMENT_3D ( 'NONE', #536, #76, #693 ) ;
#445 = DIRECTION ( 'NONE',  ( 0.000000000000000000, 0.8660254037844383745, 0.5000000000000003331 ) ) ;
#446 = CARTESIAN_POINT ( 'NONE',  ( -114.0863557858376396, 5.561312607944732811, 0.000000000000000000 ) ) ;
#447 = ORIENTED_EDGE ( 'NONE', *, *, #622, .T. ) ;
#448 = FACE_OUTER_BOUND ( 'NONE', #640, .T. ) ;
#449 = ORIENTED_EDGE ( 'NONE', *, *, #375, .T. ) ;
#450 = CARTESIAN_POINT ( 'NONE',  ( -110.0863557858376396, 5.561312607944733699, -3.406366588218795233 ) ) ;
#451 = LINE ( 'NONE', #109, #656 ) ;
#452 = CARTESIAN_POINT ( 'NONE',  ( -130.0863557858376680, 5.561312607944732811, -2.499999999999999556 ) ) ;
#453 = LINE ( 'NONE', #319, #314 ) ;
#454 = AXIS2_PLACEMENT_3D ( 'NONE', #697, #335, #2 ) ;
#455 = AXIS2_PLACEMENT_3D ( 'NONE', #613, #398, #227 ) ;
#456 = DIRECTION ( 'NONE',  ( 0.000000000000000000, -0.4999999999999998335, -0.8660254037844388186 ) ) ;
#457 = CC_DESIGN_DATE_AND_TIME_ASSIGNMENT ( #636, #174, ( #723 ) ) ;
#458 = DIRECTION ( 'NONE',  ( 0.000000000000000000, -0.8660254037844383745, -0.5000000000000003331 ) ) ;
#459 = CARTESIAN_POINT ( 'NONE',  ( 159.8618291690142144, 5.561312607944732811, 0.000000000000000000 ) ) ;
#460 = CARTESIAN_POINT ( 'NONE',  ( -124.0863557858377106, 5.561312607944730146, 3.406366588218797453 ) ) ;
#461 = PLANE ( 'NONE',  #106 ) ;
#462 = DIRECTION ( 'NONE',  ( 1.000000000000000000, -0.000000000000000000, -0.000000000000000000 ) ) ;
#463 = EDGE_CURVE ( 'NONE', #73, #22, #178, .T. ) ;
#464 = LINE ( 'NONE', #118, #424 ) ;
#465 = VERTEX_POINT ( 'NONE', #413 ) ;
#466 = CARTESIAN_POINT ( 'NONE',  ( -124.0863557858377106, 2.611312607944727748, 1.703183294109398727 ) ) ;
#467 = EDGE_CURVE ( 'NONE', #361, #22, #400, .T. ) ;
#468 = AXIS2_PLACEMENT_3D ( 'NONE', #435, #501, #729 ) ;
#469 = CYLINDRICAL_SURFACE ( 'NONE', #444, 2.499999999999999556 ) ;
#470 = ORIENTED_EDGE ( 'NONE', *, *, #163, .F. ) ;
#471 = LOCAL_TIME ( 14, 41, 22.00000000000000000, #404 ) ;
#472 = DIRECTION ( 'NONE',  ( 1.000000000000000000, -0.000000000000000000, -0.000000000000000000 ) ) ;
#473 = DIRECTION ( 'NONE',  ( 1.000000000000000000, -0.000000000000000000, -0.000000000000000000 ) ) ;
#474 = EDGE_LOOP ( 'NONE', ( #695, #655, #182, #364 ) ) ;
#475 = EDGE_CURVE ( 'NONE', #587, #13, #121, .T. ) ;
#476 = CARTESIAN_POINT ( 'NONE',  ( 0.000000000000000000, 0.000000000000000000, 0.000000000000000000 ) ) ;
#477 = VERTEX_POINT ( 'NONE', #745 ) ;
#478 = ORIENTED_EDGE ( 'NONE', *, *, #216, .T. ) ;
#479 = VECTOR ( 'NONE', #58, 1000.000000000000000 ) ;
#480 = DIRECTION ( 'NONE',  ( 0.000000000000000000, 0.000000000000000000, -1.000000000000000000 ) ) ;
#481 = AXIS2_PLACEMENT_3D ( 'NONE', #728, #462, #221 ) ;
#482 = APPROVAL_ROLE ( '' ) ;
#483 = ORIENTED_EDGE ( 'NONE', *, *, #414, .T. ) ;
#484 = CARTESIAN_POINT ( 'NONE',  ( 129.9136442141623604, 9.696969615115726526, -5.794089274584927729 ) ) ;
#485 = EDGE_CURVE ( 'NONE', #371, #13, #453, .T. ) ;
#486 = EDGE_LOOP ( 'NONE', ( #447, #292, #549, #551 ) ) ;
#487 = DIRECTION ( 'NONE',  ( 0.000000000000000000, 1.273147965031489564E-16, -1.000000000000000000 ) ) ;
#488 = EDGE_CURVE ( 'NONE', #408, #132, #318, .T. ) ;
#489 = EDGE_CURVE ( 'NONE', #557, #332, #97, .T. ) ;
#490 = COORDINATED_UNIVERSAL_TIME_OFFSET ( 1, 0, .AHEAD. ) ;
#491 = DIRECTION ( 'NONE',  ( 1.000000000000000000, 0.000000000000000000, -0.000000000000000000 ) ) ;
#492 = PERSON ( 'UNSPECIFIED', 'UNSPECIFIED', 'UNSPECIFIED', ('UNSPECIFIED'), ('UNSPECIFIED'), ('UNSPECIFIED') ) ;
#493 = SECURITY_CLASSIFICATION_LEVEL ( 'unclassified' ) ;
#494 = ORIENTED_EDGE ( 'NONE', *, *, #489, .F. ) ;
#495 = FACE_OUTER_BOUND ( 'NONE', #577, .T. ) ;
#496 = ADVANCED_FACE ( 'NONE', ( #267 ), #502, .T. ) ;
#497 = CARTESIAN_POINT ( 'NONE',  ( -110.0863557858376396, 5.561312607944732811, 0.000000000000000000 ) ) ;
#498 = LINE ( 'NONE', #393, #293 ) ;
#499 = VERTEX_POINT ( 'NONE', #582 ) ;
#500 = DIRECTION ( 'NONE',  ( 1.000000000000000000, -0.000000000000000000, -0.000000000000000000 ) ) ;
#501 = DIRECTION ( 'NONE',  ( 1.000000000000000000, -0.000000000000000000, -0.000000000000000000 ) ) ;
#502 = PLANE ( 'NONE',  #257 ) ;
#503 = EDGE_LOOP ( 'NONE', ( #427, #54, #304, #705, #478, #483 ) ) ;
#504 = CIRCLE ( 'NONE', #556, 2.499999999999999556 ) ;
#505 = PLANE ( 'NONE',  #432 ) ;
#506 = DIRECTION ( 'NONE',  ( 0.000000000000000000, -5.092591860125961213E-16, 1.000000000000000000 ) ) ;
#507 = ORIENTED_EDGE ( 'NONE', *, *, #513, .T. ) ;
#508 = DIRECTION ( 'NONE',  ( 1.000000000000000000, -0.000000000000000000, -0.000000000000000000 ) ) ;
#509 = DIRECTION ( 'NONE',  ( 0.000000000000000000, 0.000000000000000000, -1.000000000000000000 ) ) ;
#510 = CARTESIAN_POINT ( 'NONE',  ( -114.0863557858376396, 5.561312607944733699, -3.406366588218794789 ) ) ;
#511 = DIRECTION ( 'NONE',  ( 1.000000000000000000, -0.000000000000000000, -0.000000000000000000 ) ) ;
#512 = DIRECTION ( 'NONE',  ( 0.000000000000000000, 0.8660254037844384856, 0.5000000000000002220 ) ) ;
#513 = EDGE_CURVE ( 'NONE', #384, #190, #330, .T. ) ;
#514 = CARTESIAN_POINT ( 'NONE',  ( 149.9136442141623320, 5.561312607944732811, 0.000000000000000000 ) ) ;
#515 = CARTESIAN_POINT ( 'NONE',  ( 129.9136442141623604, 2.611312607944728192, -1.703183294109396950 ) ) ;
#516 = DIRECTION ( 'NONE',  ( 0.000000000000000000, 0.000000000000000000, 1.000000000000000000 ) ) ;
#517 = PLANE ( 'NONE',  #610 ) ;
#518 = LINE ( 'NONE', #460, #223 ) ;
#519 = VECTOR ( 'NONE', #219, 1000.000000000000000 ) ;
#520 = DIRECTION ( 'NONE',  ( 0.000000000000000000, 0.000000000000000000, -1.000000000000000000 ) ) ;
#521 = CARTESIAN_POINT ( 'NONE',  ( -130.0863557858377249, 8.061312607944731923, 0.000000000000000000 ) ) ;
#522 = CC_DESIGN_APPROVAL ( #312, ( #139 ) ) ;
#523 = FACE_OUTER_BOUND ( 'NONE', #601, .T. ) ;
#524 = DIRECTION ( 'NONE',  ( 1.000000000000000000, -0.000000000000000000, -0.000000000000000000 ) ) ;
#525 = DIRECTION ( 'NONE',  ( 0.000000000000000000, 5.092591860125961213E-16, -1.000000000000000000 ) ) ;
#526 = ORIENTED_EDGE ( 'NONE', *, *, #266, .F. ) ;
#527 = LINE ( 'NONE', #204, #611 ) ;
#528 = PERSON_AND_ORGANIZATION ( #492, #348 ) ;
#529 = ORIENTED_EDGE ( 'NONE', *, *, #249, .F. ) ;
#530 = CARTESIAN_POINT ( 'NONE',  ( -114.0863557858376396, 2.611312607944727748, 1.703183294109398727 ) ) ;
#531 = AXIS2_PLACEMENT_3D ( 'NONE', #388, #491, #263 ) ;
#532 = PERSON_AND_ORGANIZATION ( #492, #348 ) ;
#533 = EDGE_LOOP ( 'NONE', ( #589, #115 ) ) ;
#534 = EDGE_CURVE ( 'NONE', #477, #676, #464, .T. ) ;
#535 = FACE_BOUND ( 'NONE', #533, .T. ) ;
#536 = CARTESIAN_POINT ( 'NONE',  ( 159.8618291690142144, 5.561312607944732811, 0.000000000000000000 ) ) ;
#537 = VERTEX_POINT ( 'NONE', #66 ) ;
#538 = DIRECTION ( 'NONE',  ( 0.000000000000000000, -1.000000000000000000, -1.273147965031489564E-16 ) ) ;
#539 =( NAMED_UNIT ( * ) SI_UNIT ( $, .STERADIAN. ) SOLID_ANGLE_UNIT ( ) );
#540 = ORIENTED_EDGE ( 'NONE', *, *, #680, .T. ) ;
#541 = FACE_BOUND ( 'NONE', #568, .T. ) ;
#542 = ORIENTED_EDGE ( 'NONE', *, *, #485, .T. ) ;
#543 = ORIENTED_EDGE ( 'NONE', *, *, #83, .T. ) ;
#544 = EDGE_CURVE ( 'NONE', #465, #676, #527, .T. ) ;
#545 = AXIS2_PLACEMENT_3D ( 'NONE', #130, #15, #244 ) ;
#546 = LINE ( 'NONE', #484, #700 ) ;
#547 = AXIS2_PLACEMENT_3D ( 'NONE', #476, #586, #179 ) ;
#548 = PERSON_AND_ORGANIZATION ( #492, #348 ) ;
#549 = ORIENTED_EDGE ( 'NONE', *, *, #513, .F. ) ;
#550 = ADVANCED_FACE ( 'NONE', ( #553 ), #201, .T. ) ;
#551 = ORIENTED_EDGE ( 'NONE', *, *, #675, .F. ) ;
#552 = PERSON_AND_ORGANIZATION ( #492, #348 ) ;
#553 = FACE_OUTER_BOUND ( 'NONE', #486, .T. ) ;
#554 = CARTESIAN_POINT ( 'NONE',  ( -110.0863557858376396, 8.911312607944733344, 1.472243186433551010 ) ) ;
#555 = ADVANCED_FACE ( 'NONE', ( #311 ), #322, .T. ) ;
#556 = AXIS2_PLACEMENT_3D ( 'NONE', #411, #642, #480 ) ;
#557 = VERTEX_POINT ( 'NONE', #515 ) ;
#558 = DIRECTION ( 'NONE',  ( 0.000000000000000000, 0.000000000000000000, -1.000000000000000000 ) ) ;
#559 = DIRECTION ( 'NONE',  ( 1.000000000000000000, 0.000000000000000000, -0.000000000000000000 ) ) ;
#560 = CARTESIAN_POINT ( 'NONE',  ( -124.0863557858377106, 8.511312607944738318, 1.703183294109398727 ) ) ;
#561 = DIRECTION ( 'NONE',  ( 1.000000000000000000, -0.000000000000000000, -0.000000000000000000 ) ) ;
#562 = CARTESIAN_POINT ( 'NONE',  ( -124.0863557858377106, 2.611312607944728192, -1.703183294109396950 ) ) ;
#563 = ORIENTED_EDGE ( 'NONE', *, *, #325, .T. ) ;
#564 = CARTESIAN_POINT ( 'NONE',  ( -124.0863557858377106, 8.511312607944740094, -1.703183294109394952 ) ) ;
#565 = ADVANCED_FACE ( 'NONE', ( #100 ), #341, .T. ) ;
#566 = ORIENTED_EDGE ( 'NONE', *, *, #385, .F. ) ;
#567 = AXIS2_PLACEMENT_3D ( 'NONE', #307, #736, #438 ) ;
#568 = EDGE_LOOP ( 'NONE', ( #612, #4 ) ) ;
#569 = DIRECTION ( 'NONE',  ( 0.000000000000000000, -0.8660254037844384856, -0.5000000000000002220 ) ) ;
#570 = DIRECTION ( 'NONE',  ( 0.000000000000000000, -1.273147965031489564E-16, 1.000000000000000000 ) ) ;
#571 = EDGE_CURVE ( 'NONE', #537, #251, #287, .T. ) ;
#572 = ADVANCED_FACE ( 'NONE', ( #448 ), #337, .T. ) ;
#573 = DIRECTION ( 'NONE',  ( 1.000000000000000000, -0.000000000000000000, -0.000000000000000000 ) ) ;
#574 = DIRECTION ( 'NONE',  ( 1.000000000000000000, -0.000000000000000000, -0.000000000000000000 ) ) ;
#575 = CARTESIAN_POINT ( 'NONE',  ( 159.8618291690142144, 5.561312607944732811, 2.499999999999999556 ) ) ;
#576 = DIRECTION ( 'NONE',  ( 0.000000000000000000, -0.8660254037844389297, 0.4999999999999995559 ) ) ;
#577 = EDGE_LOOP ( 'NONE', ( #714, #282, #616, #598 ) ) ;
#578 = CYLINDRICAL_SURFACE ( 'NONE', #583, 2.499999999999999556 ) ;
#579 = CARTESIAN_POINT ( 'NONE',  ( 129.9136442141623604, 9.696969615115717644, 5.794089274584933058 ) ) ;
#580 = LINE ( 'NONE', #275, #479 ) ;
#581 = FACE_OUTER_BOUND ( 'NONE', #437, .T. ) ;
#582 = CARTESIAN_POINT ( 'NONE',  ( 149.9136442141623320, 5.561312607944732811, 2.499999999999999556 ) ) ;
#583 = AXIS2_PLACEMENT_3D ( 'NONE', #56, #508, #277 ) ;
#584 = ORIENTED_EDGE ( 'NONE', *, *, #485, .F. ) ;
#585 = FACE_OUTER_BOUND ( 'NONE', #299, .T. ) ;
#586 = DIRECTION ( 'NONE',  ( 0.000000000000000000, 0.000000000000000000, 1.000000000000000000 ) ) ;
#587 = VERTEX_POINT ( 'NONE', #147 ) ;
#588 = PLANE ( 'NONE',  #454 ) ;
#589 = ORIENTED_EDGE ( 'NONE', *, *, #571, .F. ) ;
#590 = DIRECTION ( 'NONE',  ( 0.000000000000000000, 0.000000000000000000, -1.000000000000000000 ) ) ;
#591 = VECTOR ( 'NONE', #599, 1000.000000000000000 ) ;
#592 = PERSON_AND_ORGANIZATION_ROLE ( 'creator' ) ;
#593 = ORIENTED_EDGE ( 'NONE', *, *, #669, .F. ) ;
#594 = LINE ( 'NONE', #365, #591 ) ;
#595 = CC_DESIGN_PERSON_AND_ORGANIZATION_ASSIGNMENT ( #707, #240, ( #14 ) ) ;
#596 =( LENGTH_UNIT ( ) NAMED_UNIT ( * ) SI_UNIT ( .MILLI., .METRE. ) );
#597 = EDGE_LOOP ( 'NONE', ( #67, #425, #200, #99 ) ) ;
#598 = ORIENTED_EDGE ( 'NONE', *, *, #414, .F. ) ;
#599 = DIRECTION ( 'NONE',  ( 1.000000000000000000, -0.000000000000000000, -0.000000000000000000 ) ) ;
#600 = ADVANCED_FACE ( 'NONE', ( #168 ), #505, .T. ) ;
#601 = EDGE_LOOP ( 'NONE', ( #540, #262, #615, #238, #734, #78 ) ) ;
#602 = AXIS2_PLACEMENT_3D ( 'NONE', #27, #657, #140 ) ;
#603 = SECURITY_CLASSIFICATION ( '', '', #493 ) ;
#604 = ORIENTED_EDGE ( 'NONE', *, *, #362, .T. ) ;
#605 = ORIENTED_EDGE ( 'NONE', *, *, #730, .F. ) ;
#606 = EDGE_CURVE ( 'NONE', #13, #332, #326, .T. ) ;
#607 = CARTESIAN_POINT ( 'NONE',  ( -110.0863557858376396, 5.561312607944730146, 3.406366588218797453 ) ) ;
#608 = ORIENTED_EDGE ( 'NONE', *, *, #88, .F. ) ;
#609 = CARTESIAN_POINT ( 'NONE',  ( -114.0863557858376396, 8.511312607944738318, 1.703183294109398727 ) ) ;
#610 = AXIS2_PLACEMENT_3D ( 'NONE', #166, #5, #576 ) ;
#611 = VECTOR ( 'NONE', #309, 1000.000000000000000 ) ;
#612 = ORIENTED_EDGE ( 'NONE', *, *, #291, .T. ) ;
#613 = CARTESIAN_POINT ( 'NONE',  ( 129.9136442141623604, 5.561312607944732811, 0.000000000000000000 ) ) ;
#614 = CARTESIAN_POINT ( 'NONE',  ( 129.9136442141623604, 5.561312607944732811, 0.000000000000000000 ) ) ;
#615 = ORIENTED_EDGE ( 'NONE', *, *, #488, .T. ) ;
#616 = ORIENTED_EDGE ( 'NONE', *, *, #622, .F. ) ;
#617 = EDGE_CURVE ( 'NONE', #587, #683, #401, .T. ) ;
#618 = DIRECTION ( 'NONE',  ( 0.000000000000000000, -5.092591860125961213E-16, 1.000000000000000000 ) ) ;
#619 = CARTESIAN_POINT ( 'NONE',  ( -110.0863557858376396, 5.561312607944732811, -2.499999999999999556 ) ) ;
#620 = EDGE_LOOP ( 'NONE', ( #563, #86, #661, #301, #449, #129 ) ) ;
#621 = FACE_BOUND ( 'NONE', #8, .T. ) ;
#622 = EDGE_CURVE ( 'NONE', #658, #477, #152, .T. ) ;
#623 = DIRECTION ( 'NONE',  ( 0.000000000000000000, 0.000000000000000000, 1.000000000000000000 ) ) ;
#624 = CARTESIAN_POINT ( 'NONE',  ( -114.0863557858376396, 13.72389886377156643, 0.000000000000000000 ) ) ;
#625 = ORIENTED_EDGE ( 'NONE', *, *, #428, .F. ) ;
#626 = VECTOR ( 'NONE', #323, 1000.000000000000114 ) ;
#627 = CARTESIAN_POINT ( 'NONE',  ( -124.0863557858377106, 5.561312607944733699, -3.406366588218795233 ) ) ;
#628 = LINE ( 'NONE', #560, #687 ) ;
#629 = LINE ( 'NONE', #575, #519 ) ;
#630 = CARTESIAN_POINT ( 'NONE',  ( -124.0863557858377106, 8.511312607944738318, 1.703183294109398727 ) ) ;
#631 = EDGE_CURVE ( 'NONE', #251, #499, #44, .T. ) ;
#632 = CARTESIAN_POINT ( 'NONE',  ( 129.9136442141623604, 8.511312607944740094, -1.703183294109394952 ) ) ;
#633 = FACE_BOUND ( 'NONE', #386, .T. ) ;
#634 = ORIENTED_EDGE ( 'NONE', *, *, #544, .F. ) ;
#635 = CC_DESIGN_PERSON_AND_ORGANIZATION_ASSIGNMENT ( #548, #32, ( #603 ) ) ;
#636 = DATE_AND_TIME ( #68, #210 ) ;
#637 = DIRECTION ( 'NONE',  ( 0.000000000000000000, 0.000000000000000000, -1.000000000000000000 ) ) ;
#638 = CIRCLE ( 'NONE', #302, 2.499999999999999556 ) ;
#639 = COORDINATED_UNIVERSAL_TIME_OFFSET ( 1, 0, .AHEAD. ) ;
#640 = EDGE_LOOP ( 'NONE', ( #507, #46, #494, #418 ) ) ;
#641 = CC_DESIGN_APPROVAL ( #356, ( #723 ) ) ;
#642 = DIRECTION ( 'NONE',  ( 1.000000000000000000, -0.000000000000000000, -0.000000000000000000 ) ) ;
#643 = DIRECTION ( 'NONE',  ( 0.000000000000000000, 0.8660254037844388186, -0.4999999999999998335 ) ) ;
#644 = PERSON_AND_ORGANIZATION ( #492, #348 ) ;
#645 = ORIENTED_EDGE ( 'NONE', *, *, #216, .F. ) ;
#646 = EDGE_CURVE ( 'NONE', #340, #727, #218, .T. ) ;
#647 = CYLINDRICAL_SURFACE ( 'NONE', #187, 2.499999999999999556 ) ;
#648 = APPROVAL_DATE_TIME ( #237, #312 ) ;
#649 = ORIENTED_EDGE ( 'NONE', *, *, #83, .F. ) ;
#650 = EDGE_CURVE ( 'NONE', #340, #138, #628, .T. ) ;
#651 = FACE_OUTER_BOUND ( 'NONE', #288, .T. ) ;
#652 = UNCERTAINTY_MEASURE_WITH_UNIT (LENGTH_MEASURE( 1.000000000000000082E-05 ), #596, 'distance_accuracy_value', 'NONE');
#653 = VECTOR ( 'NONE', #573, 1000.000000000000000 ) ;
#654 = APPROVAL_STATUS ( 'not_yet_approved' ) ;
#655 = ORIENTED_EDGE ( 'NONE', *, *, #325, .F. ) ;
#656 = VECTOR ( 'NONE', #574, 1000.000000000000000 ) ;
#657 = DIRECTION ( 'NONE',  ( 1.000000000000000000, 0.000000000000000000, -0.000000000000000000 ) ) ;
#658 = VERTEX_POINT ( 'NONE', #632 ) ;
#659 = DATE_AND_TIME ( #713, #236 ) ;
#660 = ORIENTED_EDGE ( 'NONE', *, *, #336, .F. ) ;
#661 = ORIENTED_EDGE ( 'NONE', *, *, #406, .T. ) ;
#662 = VECTOR ( 'NONE', #197, 1000.000000000000114 ) ;
#663 = VECTOR ( 'NONE', #158, 1000.000000000000000 ) ;
#664 = PLANE ( 'NONE',  #602 ) ;
#665 = EDGE_CURVE ( 'NONE', #190, #477, #104, .T. ) ;
#666 = PLANE ( 'NONE',  #567 ) ;
#667 = PERSON_AND_ORGANIZATION ( #492, #348 ) ;
#668 = DIRECTION ( 'NONE',  ( 1.000000000000000000, -0.000000000000000000, -0.000000000000000000 ) ) ;
#669 = EDGE_CURVE ( 'NONE', #429, #711, #35, .T. ) ;
#670 = ORIENTED_EDGE ( 'NONE', *, *, #395, .F. ) ;
#671 = PLANE ( 'NONE',  #531 ) ;
#672 = AXIS2_PLACEMENT_3D ( 'NONE', #103, #559, #443 ) ;
#673 = ORIENTED_EDGE ( 'NONE', *, *, #6, .T. ) ;
#674 = LOCAL_TIME ( 14, 41, 22.00000000000000000, #639 ) ;
#675 = EDGE_CURVE ( 'NONE', #658, #384, #41, .T. ) ;
#676 = VERTEX_POINT ( 'NONE', #57 ) ;
#677 = DIRECTION ( 'NONE',  ( 0.000000000000000000, 1.000000000000000000, 5.092591860125961213E-16 ) ) ;
#678 = CARTESIAN_POINT ( 'NONE',  ( 133.9136442141623604, 2.611312607944728192, -1.703183294109396950 ) ) ;
#679 = EDGE_LOOP ( 'NONE', ( #306, #188, #155, #566 ) ) ;
#680 = EDGE_CURVE ( 'NONE', #727, #73, #284, .T. ) ;
#681 = CARTESIAN_POINT ( 'NONE',  ( 133.9136442141623604, 2.611312607944727748, 1.703183294109398727 ) ) ;
#682 = CARTESIAN_POINT ( 'NONE',  ( -114.0863557858376396, 8.511312607944740094, -2.654557433662816430E-15 ) ) ;
#683 = VERTEX_POINT ( 'NONE', #274 ) ;
#684 = CARTESIAN_POINT ( 'NONE',  ( 133.9136442141623604, 5.561312607944733699, -3.406366588218795233 ) ) ;
#685 = FACE_OUTER_BOUND ( 'NONE', #248, .T. ) ;
#686 = VECTOR ( 'NONE', #561, 1000.000000000000000 ) ;
#687 = VECTOR ( 'NONE', #392, 1000.000000000000000 ) ;
#688 = EDGE_CURVE ( 'NONE', #251, #537, #167, .T. ) ;
#689 = DIRECTION ( 'NONE',  ( 0.000000000000000000, 0.8660254037844387076, -0.4999999999999997780 ) ) ;
#690 = PLANE ( 'NONE',  #442 ) ;
#691 = DIRECTION ( 'NONE',  ( 0.000000000000000000, 0.000000000000000000, -1.000000000000000000 ) ) ;
#692 = CARTESIAN_POINT ( 'NONE',  ( -124.0863557858377106, 5.561312607944733699, -3.406366588218795233 ) ) ;
#693 = DIRECTION ( 'NONE',  ( 0.000000000000000000, 0.000000000000000000, -1.000000000000000000 ) ) ;
#694 = APPROVAL_ROLE ( '' ) ;
#695 = ORIENTED_EDGE ( 'NONE', *, *, #10, .T. ) ;
#696 = DIRECTION ( 'NONE',  ( 0.000000000000000000, -1.000000000000000000, -1.273147965031489564E-16 ) ) ;
#697 = CARTESIAN_POINT ( 'NONE',  ( -124.0863557858377106, 5.561312607944730146, 3.406366588218797453 ) ) ;
#698 = AXIS2_PLACEMENT_3D ( 'NONE', #1, #472, #403 ) ;
#699 = EDGE_CURVE ( 'NONE', #727, #102, #451, .T. ) ;
#700 = VECTOR ( 'NONE', #305, 999.9999999999998863 ) ;
#701 = EDGE_LOOP ( 'NONE', ( #233, #584, #529, #26 ) ) ;
#702 = APPROVAL_PERSON_ORGANIZATION ( #532, #312, #12 ) ;
#703 = EDGE_CURVE ( 'NONE', #355, #711, #747, .T. ) ;
#704 = EDGE_CURVE ( 'NONE', #73, #408, #128, .T. ) ;
#705 = ORIENTED_EDGE ( 'NONE', *, *, #617, .T. ) ;
#706 = FACE_OUTER_BOUND ( 'NONE', #474, .T. ) ;
#707 = PERSON_AND_ORGANIZATION ( #492, #348 ) ;
#708 = ORIENTED_EDGE ( 'NONE', *, *, #272, .T. ) ;
#709 = APPLICATION_CONTEXT ( 'configuration controlled 3d designs of mechanical parts and assemblies' ) ;
#710 = CIRCLE ( 'NONE', #80, 2.499999999999999556 ) ;
#711 = VERTEX_POINT ( 'NONE', #125 ) ;
#712 = CARTESIAN_POINT ( 'NONE',  ( -130.0863557858376680, 5.561312607944732811, 0.000000000000000000 ) ) ;
#713 = CALENDAR_DATE ( 2025, 1, 5 ) ;
#714 = ORIENTED_EDGE ( 'NONE', *, *, #544, .T. ) ;
#715 = LINE ( 'NONE', #191, #626 ) ;
#716 = EDGE_LOOP ( 'NONE', ( #470, #297 ) ) ;
#717 = ORIENTED_EDGE ( 'NONE', *, *, #74, .F. ) ;
#718 = VECTOR ( 'NONE', #327, 1000.000000000000000 ) ;
#719 = VECTOR ( 'NONE', #382, 1000.000000000000000 ) ;
#720 = CARTESIAN_POINT ( 'NONE',  ( 133.9136442141623604, 5.561312607944730146, 3.406366588218797453 ) ) ;
#721 = APPROVAL_PERSON_ORGANIZATION ( #644, #356, #694 ) ;
#722 = DATE_TIME_ROLE ( 'classification_date' ) ;
#723 = PRODUCT_DEFINITION ( 'UNKNOWN', '', #139, #75 ) ;
#724 = LINE ( 'NONE', #202, #686 ) ;
#725 = ORIENTED_EDGE ( 'NONE', *, *, #31, .F. ) ;
#726 = LINE ( 'NONE', #678, #423 ) ;
#727 = VERTEX_POINT ( 'NONE', #72 ) ;
#728 = CARTESIAN_POINT ( 'NONE',  ( 133.9136442141623604, 5.561312607944732811, 0.000000000000000000 ) ) ;
#729 = DIRECTION ( 'NONE',  ( 0.000000000000000000, 0.000000000000000000, -1.000000000000000000 ) ) ;
#730 = EDGE_CURVE ( 'NONE', #537, #90, #353, .T. ) ;
#731 = VECTOR ( 'NONE', #668, 1000.000000000000000 ) ;
#732 = ORIENTED_EDGE ( 'NONE', *, *, #699, .F. ) ;
#733 = VECTOR ( 'NONE', #16, 1000.000000000000000 ) ;
#734 = ORIENTED_EDGE ( 'NONE', *, *, #385, .T. ) ;
#735 = CARTESIAN_POINT ( 'NONE',  ( 159.8618291690142144, 5.561312607944732811, 2.499999999999999556 ) ) ;
#736 = DIRECTION ( 'NONE',  ( 0.000000000000000000, 1.000000000000000000, 5.092591860125961213E-16 ) ) ;
#737 = CARTESIAN_POINT ( 'NONE',  ( -114.0863557858376396, 2.611312607944726860, -1.414796657784284018E-15 ) ) ;
#738 = ORIENTED_EDGE ( 'NONE', *, *, #74, .T. ) ;
#739 = FACE_OUTER_BOUND ( 'NONE', #679, .T. ) ;
#740 = CARTESIAN_POINT ( 'NONE',  ( 133.9136442141623604, 5.561312607944732811, 0.000000000000000000 ) ) ;
#741 = CARTESIAN_POINT ( 'NONE',  ( 159.8618291690142144, 5.561312607944732811, 2.499999999999999556 ) ) ;
#742 = ADVANCED_FACE ( 'NONE', ( #119 ), #469, .T. ) ;
#743 = CARTESIAN_POINT ( 'NONE',  ( -110.0863557858376396, 8.511312607944738318, 1.703183294109398727 ) ) ;
#744 = ORIENTED_EDGE ( 'NONE', *, *, #606, .F. ) ;
#745 = CARTESIAN_POINT ( 'NONE',  ( 133.9136442141623604, 8.511312607944740094, -1.703183294109395174 ) ) ;
#746 = DIRECTION ( 'NONE',  ( 1.000000000000000000, -0.000000000000000000, -0.000000000000000000 ) ) ;
#747 = LINE ( 'NONE', #230, #733 ) ;
#748 = CARTESIAN_POINT ( 'NONE',  ( -130.0863557858376680, 5.561312607944732811, 2.499999999999999556 ) ) ;
#749 = VECTOR ( 'NONE', #643, 999.9999999999998863 ) ;
#750 = DIRECTION ( 'NONE',  ( -1.000000000000000000, 0.000000000000000000, 0.000000000000000000 ) ) ;
#751 = DIRECTION ( 'NONE',  ( 1.000000000000000000, -0.000000000000000000, -0.000000000000000000 ) ) ;
ENDSEC;
END-ISO-10303-21;
