ISO-10303-21;
HEADER;
FILE_DESCRIPTION (( 'STEP AP203' ),
    '1' );
FILE_NAME ('O_Défaut_sldprt.STEP',
    '2025-05-01T13:41:27',
    ( '' ),
    ( '' ),
    'SwSTEP 2.0',
    'SolidWorks 2022',
    '' );
FILE_SCHEMA (( 'CONFIG_CONTROL_DESIGN' ));
ENDSEC;

DATA;
#1 = AXIS2_PLACEMENT_3D ( 'NONE', #4, #355, #92 ) ;
#2 = CARTESIAN_POINT ( 'NONE',  ( 3.999999999999996447, -6.928203230275510549, 8.000000000000000000 ) ) ;
#3 = DIRECTION ( 'NONE',  ( 0.000000000000000000, 0.000000000000000000, -1.000000000000000000 ) ) ;
#4 = CARTESIAN_POINT ( 'NONE',  ( 3.999999999999994227, 6.928203230275509661, 8.000000000000000000 ) ) ;
#5 = AXIS2_PLACEMENT_3D ( 'NONE', #80, #344, #189 ) ;
#6 = DIRECTION ( 'NONE',  ( -0.8660254037844390407, 0.4999999999999994449, 0.000000000000000000 ) ) ;
#7 = DIRECTION ( 'NONE',  ( -1.000000000000000000, 0.000000000000000000, 0.000000000000000000 ) ) ;
#8 = SECURITY_CLASSIFICATION_LEVEL ( 'unclassified' ) ;
#9 = VERTEX_POINT ( 'NONE', #19 ) ;
#10 = CC_DESIGN_APPROVAL ( #87, ( #134 ) ) ;
#11 = PERSON_AND_ORGANIZATION ( #269, #104 ) ;
#12 = MANIFOLD_SOLID_BREP ( 'Boss.-Extru.2', #253 ) ;
#13 = PRODUCT_DEFINITION_SHAPE ( 'NONE', 'NONE',  #134 ) ;
#14 = ORIENTED_EDGE ( 'NONE', *, *, #24, .F. ) ;
#15 = VECTOR ( 'NONE', #192, 1000.000000000000000 ) ;
#16 = ORIENTED_EDGE ( 'NONE', *, *, #91, .T. ) ;
#17 = ORIENTED_EDGE ( 'NONE', *, *, #243, .T. ) ;
#18 = DIRECTION ( 'NONE',  ( -1.000000000000000000, 0.000000000000000000, 0.000000000000000000 ) ) ;
#19 = CARTESIAN_POINT ( 'NONE',  ( -3.999999999999998224, -6.928203230275509661, 8.000000000000000000 ) ) ;
#20 = ORIENTED_EDGE ( 'NONE', *, *, #249, .F. ) ;
#21 = VECTOR ( 'NONE', #321, 1000.000000000000000 ) ;
#22 = CARTESIAN_POINT ( 'NONE',  ( 0.000000000000000000, 0.000000000000000000, -3.000000000000000000 ) ) ;
#23 = DIRECTION ( 'NONE',  ( 0.4999999999999993894, 0.8660254037844389297, 0.000000000000000000 ) ) ;
#24 = EDGE_CURVE ( 'NONE', #67, #359, #303, .T. ) ;
#25 = EDGE_LOOP ( 'NONE', ( #47, #254, #376, #337 ) ) ;
#26 = DIRECTION ( 'NONE',  ( -0.000000000000000000, -0.000000000000000000, -1.000000000000000000 ) ) ;
#27 = CARTESIAN_POINT ( 'NONE',  ( -8.000000000000000000, 1.696902781366444266E-16, 8.000000000000000000 ) ) ;
#28 = CARTESIAN_POINT ( 'NONE',  ( 0.000000000000000000, 0.000000000000000000, 8.000000000000000000 ) ) ;
#29 = LINE ( 'NONE', #62, #338 ) ;
#30 = PLANE ( 'NONE',  #38 ) ;
#31 = DIRECTION ( 'NONE',  ( -0.000000000000000000, -0.000000000000000000, 1.000000000000000000 ) ) ;
#32 = VECTOR ( 'NONE', #291, 1000.000000000000227 ) ;
#33 = CARTESIAN_POINT ( 'NONE',  ( 7.999999999999992895, 3.469011639898463385E-15, 8.000000000000000000 ) ) ;
#34 = PERSON_AND_ORGANIZATION ( #269, #104 ) ;
#35 = AXIS2_PLACEMENT_3D ( 'NONE', #207, #329, #299 ) ;
#36 = CC_DESIGN_SECURITY_CLASSIFICATION ( #56, ( #68 ) ) ;
#37 = PERSON_AND_ORGANIZATION ( #269, #104 ) ;
#38 = AXIS2_PLACEMENT_3D ( 'NONE', #33, #146, #353 ) ;
#39 = PERSON_AND_ORGANIZATION ( #269, #104 ) ;
#40 = ORIENTED_EDGE ( 'NONE', *, *, #277, .T. ) ;
#41 = APPROVAL_DATE_TIME ( #274, #214 ) ;
#42 = EDGE_LOOP ( 'NONE', ( #211, #139 ) ) ;
#43 = ADVANCED_FACE ( 'NONE', ( #227 ), #339, .F. ) ;
#44 = CARTESIAN_POINT ( 'NONE',  ( -8.000000000000000000, 1.696902781366444266E-16, 8.000000000000000000 ) ) ;
#45 = ORIENTED_EDGE ( 'NONE', *, *, #225, .T. ) ;
#46 = CARTESIAN_POINT ( 'NONE',  ( 7.999999999999992895, 3.469011639898463385E-15, 8.000000000000000000 ) ) ;
#47 = ORIENTED_EDGE ( 'NONE', *, *, #270, .T. ) ;
#48 = PERSON_AND_ORGANIZATION_ROLE ( 'design_owner' ) ;
#49 = LINE ( 'NONE', #237, #255 ) ;
#50 = LINE ( 'NONE', #46, #287 ) ;
#51 = FACE_OUTER_BOUND ( 'NONE', #244, .T. ) ;
#52 = DIRECTION ( 'NONE',  ( -0.4999999999999993894, -0.8660254037844389297, 0.000000000000000000 ) ) ;
#53 = DIRECTION ( 'NONE',  ( 0.4999999999999993894, 0.8660254037844389297, 0.000000000000000000 ) ) ;
#54 = FACE_OUTER_BOUND ( 'NONE', #183, .T. ) ;
#55 = EDGE_CURVE ( 'NONE', #157, #252, #320, .T. ) ;
#56 = SECURITY_CLASSIFICATION ( '', '', #8 ) ;
#57 = AXIS2_PLACEMENT_3D ( 'NONE', #78, #197, #177 ) ;
#58 = CARTESIAN_POINT ( 'NONE',  ( -3.999999999999998224, -6.928203230275509661, 0.000000000000000000 ) ) ;
#59 = APPLICATION_PROTOCOL_DEFINITION ( 'international standard', 'config_control_design', 1994, #126 ) ;
#60 = CARTESIAN_POINT ( 'NONE',  ( -10.00000000000000000, 1.224646799147353256E-15, -3.000000000000000000 ) ) ;
#61 = CC_DESIGN_PERSON_AND_ORGANIZATION_ASSIGNMENT ( #236, #48, ( #71 ) ) ;
#62 = CARTESIAN_POINT ( 'NONE',  ( -3.999999999999998224, -6.928203230275509661, 8.000000000000000000 ) ) ;
#63 = LINE ( 'NONE', #58, #222 ) ;
#64 = DATE_AND_TIME ( #360, #325 ) ;
#65 = PERSON_AND_ORGANIZATION ( #269, #104 ) ;
#66 = ADVANCED_FACE ( 'NONE', ( #51 ), #30, .F. ) ;
#67 = VERTEX_POINT ( 'NONE', #180 ) ;
#68 = PRODUCT_DEFINITION_FORMATION_WITH_SPECIFIED_SOURCE ( 'ANY', '', #71, .NOT_KNOWN. ) ;
#69 = VECTOR ( 'NONE', #190, 1000.000000000000000 ) ;
#70 = APPROVAL_ROLE ( '' ) ;
#71 = PRODUCT ( 'O_D\X2\00e9\X0\faut_sldprt', 'O_D\X2\00e9\X0\faut_sldprt', '', ( #179 ) ) ;
#72 = ORIENTED_EDGE ( 'NONE', *, *, #106, .T. ) ;
#73 = EDGE_LOOP ( 'NONE', ( #318, #14, #84, #217 ) ) ;
#74 = ORIENTED_EDGE ( 'NONE', *, *, #125, .T. ) ;
#75 = DIRECTION ( 'NONE',  ( 1.000000000000000000, 0.000000000000000000, 0.000000000000000000 ) ) ;
#76 = LINE ( 'NONE', #317, #234 ) ;
#77 = ORIENTED_EDGE ( 'NONE', *, *, #352, .F. ) ;
#78 = CARTESIAN_POINT ( 'NONE',  ( 0.000000000000000000, 0.000000000000000000, -3.000000000000000000 ) ) ;
#79 = LINE ( 'NONE', #44, #276 ) ;
#80 = CARTESIAN_POINT ( 'NONE',  ( -3.999999999999998224, -6.928203230275509661, 8.000000000000000000 ) ) ;
#81 = LINE ( 'NONE', #208, #165 ) ;
#82 = CARTESIAN_POINT ( 'NONE',  ( -10.00000000000000000, 1.224646799147353256E-15, 0.000000000000000000 ) ) ;
#83 = PERSON_AND_ORGANIZATION_ROLE ( 'creator' ) ;
#84 = ORIENTED_EDGE ( 'NONE', *, *, #311, .T. ) ;
#85 = PLANE ( 'NONE',  #90 ) ;
#86 = CARTESIAN_POINT ( 'NONE',  ( -4.000000000000000888, 6.928203230275509661, 0.000000000000000000 ) ) ;
#87 = APPROVAL ( #137, 'UNSPECIFIED' ) ;
#88 = CARTESIAN_POINT ( 'NONE',  ( 0.000000000000000000, 0.000000000000000000, -3.000000000000000000 ) ) ;
#89 = DIRECTION ( 'NONE',  ( -0.000000000000000000, -0.000000000000000000, 1.000000000000000000 ) ) ;
#90 = AXIS2_PLACEMENT_3D ( 'NONE', #271, #6, #52 ) ;
#91 = EDGE_CURVE ( 'NONE', #187, #282, #260, .T. ) ;
#92 = DIRECTION ( 'NONE',  ( 0.000000000000000000, -0.000000000000000000, -1.000000000000000000 ) ) ;
#93 = LINE ( 'NONE', #140, #148 ) ;
#94 = PLANE ( 'NONE',  #1 ) ;
#95 = EDGE_LOOP ( 'NONE', ( #374, #167, #191, #380 ) ) ;
#96 = EDGE_CURVE ( 'NONE', #252, #157, #205, .T. ) ;
#97 = APPROVAL_DATE_TIME ( #64, #111 ) ;
#98 = ORIENTED_EDGE ( 'NONE', *, *, #243, .F. ) ;
#99 = CC_DESIGN_PERSON_AND_ORGANIZATION_ASSIGNMENT ( #37, #278, ( #56 ) ) ;
#100 = DIRECTION ( 'NONE',  ( 0.000000000000000000, 0.000000000000000000, -1.000000000000000000 ) ) ;
#101 = AXIS2_PLACEMENT_3D ( 'NONE', #170, #324, #75 ) ;
#102 = DIRECTION ( 'NONE',  ( -0.5000000000000001110, 0.8660254037844385966, 0.000000000000000000 ) ) ;
#103 = COORDINATED_UNIVERSAL_TIME_OFFSET ( 1, 0, .AHEAD. ) ;
#104 = ORGANIZATION ( 'UNSPECIFIED', 'UNSPECIFIED', '' ) ;
#105 = EDGE_LOOP ( 'NONE', ( #133, #285 ) ) ;
#106 = EDGE_CURVE ( 'NONE', #9, #308, #49, .T. ) ;
#107 = DIRECTION ( 'NONE',  ( 0.5000000000000001110, -0.8660254037844384856, 0.000000000000000000 ) ) ;
#108 = APPROVAL_DATE_TIME ( #284, #87 ) ;
#109 = VERTEX_POINT ( 'NONE', #206 ) ;
#110 = CARTESIAN_POINT ( 'NONE',  ( -8.000000000000000000, 1.696902781366444266E-16, 8.000000000000000000 ) ) ;
#111 = APPROVAL ( #357, 'UNSPECIFIED' ) ;
#112 = ORIENTED_EDGE ( 'NONE', *, *, #270, .F. ) ;
#113 = APPROVAL_ROLE ( '' ) ;
#114 = UNCERTAINTY_MEASURE_WITH_UNIT (LENGTH_MEASURE( 1.000000000000000082E-05 ), #149, 'distance_accuracy_value', 'NONE');
#115 = LINE ( 'NONE', #312, #69 ) ;
#116 = DIRECTION ( 'NONE',  ( -1.000000000000000000, 0.000000000000000000, -0.000000000000000000 ) ) ;
#117 = EDGE_CURVE ( 'NONE', #109, #372, #328, .T. ) ;
#118 =( GEOMETRIC_REPRESENTATION_CONTEXT ( 3 ) GLOBAL_UNCERTAINTY_ASSIGNED_CONTEXT ( ( #114 ) ) GLOBAL_UNIT_ASSIGNED_CONTEXT ( ( #149, #354, #323 ) ) REPRESENTATION_CONTEXT ( 'NONE', 'WORKASPACE' ) );
#119 = FACE_OUTER_BOUND ( 'NONE', #221, .T. ) ;
#120 = VECTOR ( 'NONE', #26, 1000.000000000000000 ) ;
#121 = FACE_BOUND ( 'NONE', #193, .T. ) ;
#122 = LINE ( 'NONE', #60, #341 ) ;
#123 = VECTOR ( 'NONE', #233, 1000.000000000000000 ) ;
#124 = COORDINATED_UNIVERSAL_TIME_OFFSET ( 1, 0, .AHEAD. ) ;
#125 = EDGE_CURVE ( 'NONE', #359, #252, #122, .T. ) ;
#126 = APPLICATION_CONTEXT ( 'configuration controlled 3d designs of mechanical parts and assemblies' ) ;
#127 = VERTEX_POINT ( 'NONE', #194 ) ;
#128 = AXIS2_PLACEMENT_3D ( 'NONE', #28, #265, #261 ) ;
#129 = VERTEX_POINT ( 'NONE', #375 ) ;
#130 = EDGE_CURVE ( 'NONE', #250, #308, #343, .T. ) ;
#131 = ORIENTED_EDGE ( 'NONE', *, *, #117, .F. ) ;
#132 = VECTOR ( 'NONE', #263, 1000.000000000000000 ) ;
#133 = ORIENTED_EDGE ( 'NONE', *, *, #55, .F. ) ;
#134 = PRODUCT_DEFINITION ( 'UNKNOWN', '', #68, #173 ) ;
#135 = AXIS2_PLACEMENT_3D ( 'NONE', #298, #3, #7 ) ;
#136 = ORIENTED_EDGE ( 'NONE', *, *, #311, .F. ) ;
#137 = APPROVAL_STATUS ( 'not_yet_approved' ) ;
#138 = DIRECTION ( 'NONE',  ( -0.000000000000000000, -0.000000000000000000, -1.000000000000000000 ) ) ;
#139 = ORIENTED_EDGE ( 'NONE', *, *, #184, .T. ) ;
#140 = CARTESIAN_POINT ( 'NONE',  ( 3.999999999999996447, -6.928203230275510549, 8.000000000000000000 ) ) ;
#141 = EDGE_CURVE ( 'NONE', #342, #286, #93, .T. ) ;
#142 = FACE_OUTER_BOUND ( 'NONE', #73, .T. ) ;
#143 = LINE ( 'NONE', #86, #132 ) ;
#144 = CARTESIAN_POINT ( 'NONE',  ( 0.000000000000000000, 0.000000000000000000, -3.000000000000000000 ) ) ;
#145 = EDGE_CURVE ( 'NONE', #342, #129, #319, .T. ) ;
#146 = DIRECTION ( 'NONE',  ( -0.8660254037844385966, -0.5000000000000001110, 0.000000000000000000 ) ) ;
#147 = FACE_OUTER_BOUND ( 'NONE', #25, .T. ) ;
#148 = VECTOR ( 'NONE', #23, 1000.000000000000114 ) ;
#149 =( LENGTH_UNIT ( ) NAMED_UNIT ( * ) SI_UNIT ( .MILLI., .METRE. ) );
#150 = FACE_OUTER_BOUND ( 'NONE', #42, .T. ) ;
#151 = COORDINATED_UNIVERSAL_TIME_OFFSET ( 1, 0, .AHEAD. ) ;
#152 = LOCAL_TIME ( 14, 41, 27.00000000000000000, #159 ) ;
#153 = ADVANCED_FACE ( 'NONE', ( #147 ), #85, .F. ) ;
#154 = ORIENTED_EDGE ( 'NONE', *, *, #336, .F. ) ;
#155 = EDGE_LOOP ( 'NONE', ( #369, #186, #77, #72 ) ) ;
#156 = CALENDAR_DATE ( 2025, 1, 5 ) ;
#157 = VERTEX_POINT ( 'NONE', #228 ) ;
#158 = CALENDAR_DATE ( 2025, 1, 5 ) ;
#159 = COORDINATED_UNIVERSAL_TIME_OFFSET ( 1, 0, .AHEAD. ) ;
#160 = ORIENTED_EDGE ( 'NONE', *, *, #91, .F. ) ;
#161 = LINE ( 'NONE', #169, #123 ) ;
#162 = VECTOR ( 'NONE', #53, 1000.000000000000114 ) ;
#163 = DIRECTION ( 'NONE',  ( -0.000000000000000000, -0.000000000000000000, -1.000000000000000000 ) ) ;
#164 = ORIENTED_EDGE ( 'NONE', *, *, #239, .T. ) ;
#165 = VECTOR ( 'NONE', #229, 1000.000000000000114 ) ;
#166 = LINE ( 'NONE', #199, #162 ) ;
#167 = ORIENTED_EDGE ( 'NONE', *, *, #225, .F. ) ;
#168 = PLANE ( 'NONE',  #175 ) ;
#169 = CARTESIAN_POINT ( 'NONE',  ( 3.999999999999994227, 6.928203230275509661, 0.000000000000000000 ) ) ;
#170 = CARTESIAN_POINT ( 'NONE',  ( 0.000000000000000000, 0.000000000000000000, 0.000000000000000000 ) ) ;
#171 = ADVANCED_FACE ( 'NONE', ( #121, #378 ), #168, .F. ) ;
#172 = DIRECTION ( 'NONE',  ( 1.000000000000000000, -1.084202172485505174E-16, 0.000000000000000000 ) ) ;
#173 = DESIGN_CONTEXT ( 'detailed design', #216, 'design' ) ;
#174 = AXIS2_PLACEMENT_3D ( 'NONE', #144, #262, #264 ) ;
#175 = AXIS2_PLACEMENT_3D ( 'NONE', #240, #356, #116 ) ;
#176 = EDGE_CURVE ( 'NONE', #286, #187, #81, .T. ) ;
#177 = DIRECTION ( 'NONE',  ( -1.000000000000000000, 0.000000000000000000, -0.000000000000000000 ) ) ;
#178 = CC_DESIGN_PERSON_AND_ORGANIZATION_ASSIGNMENT ( #39, #185, ( #68 ) ) ;
#179 = MECHANICAL_CONTEXT ( 'NONE', #126, 'mechanical' ) ;
#180 = CARTESIAN_POINT ( 'NONE',  ( 10.00000000000000000, 0.000000000000000000, -3.000000000000000000 ) ) ;
#181 = CARTESIAN_POINT ( 'NONE',  ( 3.999999999999994227, 6.928203230275509661, 8.000000000000000000 ) ) ;
#182 = PERSON_AND_ORGANIZATION_ROLE ( 'design_supplier' ) ;
#183 = EDGE_LOOP ( 'NONE', ( #188, #224, #98, #45 ) ) ;
#184 = EDGE_CURVE ( 'NONE', #359, #67, #215, .T. ) ;
#185 = PERSON_AND_ORGANIZATION_ROLE ( 'creator' ) ;
#186 = ORIENTED_EDGE ( 'NONE', *, *, #145, .F. ) ;
#187 = VERTEX_POINT ( 'NONE', #181 ) ;
#188 = ORIENTED_EDGE ( 'NONE', *, *, #130, .T. ) ;
#189 = DIRECTION ( 'NONE',  ( -1.000000000000000000, 1.084202172485505174E-16, 0.000000000000000000 ) ) ;
#190 = DIRECTION ( 'NONE',  ( -0.4999999999999998890, -0.8660254037844387076, 0.000000000000000000 ) ) ;
#191 = ORIENTED_EDGE ( 'NONE', *, *, #239, .F. ) ;
#192 = DIRECTION ( 'NONE',  ( -0.000000000000000000, -0.000000000000000000, -1.000000000000000000 ) ) ;
#193 = EDGE_LOOP ( 'NONE', ( #112, #200, #257, #272, #154, #315 ) ) ;
#194 = CARTESIAN_POINT ( 'NONE',  ( 7.999999999999992895, 3.469011639898463385E-15, 0.000000000000000000 ) ) ;
#195 = VECTOR ( 'NONE', #89, 1000.000000000000000 ) ;
#196 = DIRECTION ( 'NONE',  ( -1.000000000000000000, 0.000000000000000000, 0.000000000000000000 ) ) ;
#197 = DIRECTION ( 'NONE',  ( 0.000000000000000000, 0.000000000000000000, -1.000000000000000000 ) ) ;
#198 = AXIS2_PLACEMENT_3D ( 'NONE', #201, #349, #330 ) ;
#199 = CARTESIAN_POINT ( 'NONE',  ( 3.999999999999996447, -6.928203230275510549, 0.000000000000000000 ) ) ;
#200 = ORIENTED_EDGE ( 'NONE', *, *, #203, .F. ) ;
#201 = CARTESIAN_POINT ( 'NONE',  ( 0.000000000000000000, 0.000000000000000000, -3.000000000000000000 ) ) ;
#202 = CYLINDRICAL_SURFACE ( 'NONE', #174, 10.00000000000000000 ) ;
#203 = EDGE_CURVE ( 'NONE', #308, #129, #63, .T. ) ;
#204 = LOCAL_TIME ( 14, 41, 27.00000000000000000, #103 ) ;
#205 = CIRCLE ( 'NONE', #135, 10.00000000000000000 ) ;
#206 = CARTESIAN_POINT ( 'NONE',  ( -4.000000000000000888, 6.928203230275509661, 8.000000000000000000 ) ) ;
#207 = CARTESIAN_POINT ( 'NONE',  ( -8.000000000000000000, 1.696902781366444266E-16, 8.000000000000000000 ) ) ;
#208 = CARTESIAN_POINT ( 'NONE',  ( 7.999999999999992895, 3.469011639898463385E-15, 8.000000000000000000 ) ) ;
#209 = ADVANCED_FACE ( 'NONE', ( #150 ), #273, .T. ) ;
#210 = PRODUCT_RELATED_PRODUCT_CATEGORY ( 'detail', '', ( #71 ) ) ;
#211 = ORIENTED_EDGE ( 'NONE', *, *, #24, .T. ) ;
#212 = DATE_TIME_ROLE ( 'classification_date' ) ;
#213 = CC_DESIGN_APPROVAL ( #214, ( #68 ) ) ;
#214 = APPROVAL ( #358, 'UNSPECIFIED' ) ;
#215 = CIRCLE ( 'NONE', #198, 10.00000000000000000 ) ;
#216 = APPLICATION_CONTEXT ( 'configuration controlled 3d designs of mechanical parts and assemblies' ) ;
#217 = ORIENTED_EDGE ( 'NONE', *, *, #55, .T. ) ;
#218 = CARTESIAN_POINT ( 'NONE',  ( 7.999999999999992895, 3.469011639898463385E-15, 0.000000000000000000 ) ) ;
#219 = DIRECTION ( 'NONE',  ( -1.000000000000000000, 0.000000000000000000, 0.000000000000000000 ) ) ;
#220 = CARTESIAN_POINT ( 'NONE',  ( 3.999999999999994227, 6.928203230275509661, 0.000000000000000000 ) ) ;
#221 = EDGE_LOOP ( 'NONE', ( #364, #131, #20, #16 ) ) ;
#222 = VECTOR ( 'NONE', #300, 1000.000000000000000 ) ;
#223 = PERSON_AND_ORGANIZATION ( #269, #104 ) ;
#224 = ORIENTED_EDGE ( 'NONE', *, *, #106, .F. ) ;
#225 = EDGE_CURVE ( 'NONE', #363, #250, #296, .T. ) ;
#226 = CARTESIAN_POINT ( 'NONE',  ( -4.000000000000000888, 6.928203230275509661, 8.000000000000000000 ) ) ;
#227 = FACE_OUTER_BOUND ( 'NONE', #155, .T. ) ;
#228 = CARTESIAN_POINT ( 'NONE',  ( 10.00000000000000000, 0.000000000000000000, 0.000000000000000000 ) ) ;
#229 = DIRECTION ( 'NONE',  ( -0.5000000000000001110, 0.8660254037844385966, 0.000000000000000000 ) ) ;
#230 = FACE_OUTER_BOUND ( 'NONE', #246, .T. ) ;
#231 = ADVANCED_FACE ( 'NONE', ( #251 ), #347, .F. ) ;
#232 = FACE_OUTER_BOUND ( 'NONE', #279, .T. ) ;
#233 = DIRECTION ( 'NONE',  ( -1.000000000000000000, 0.000000000000000000, 0.000000000000000000 ) ) ;
#234 = VECTOR ( 'NONE', #18, 1000.000000000000000 ) ;
#235 = CARTESIAN_POINT ( 'NONE',  ( 10.00000000000000000, 0.000000000000000000, -3.000000000000000000 ) ) ;
#236 = PERSON_AND_ORGANIZATION ( #269, #104 ) ;
#237 = CARTESIAN_POINT ( 'NONE',  ( -3.999999999999998224, -6.928203230275509661, 8.000000000000000000 ) ) ;
#238 = DIRECTION ( 'NONE',  ( -0.000000000000000000, -0.000000000000000000, 1.000000000000000000 ) ) ;
#239 = EDGE_CURVE ( 'NONE', #109, #363, #115, .T. ) ;
#240 = CARTESIAN_POINT ( 'NONE',  ( 0.000000000000000000, 0.000000000000000000, 0.000000000000000000 ) ) ;
#241 = CC_DESIGN_DATE_AND_TIME_ASSIGNMENT ( #281, #362, ( #134 ) ) ;
#242 = DATE_AND_TIME ( #305, #345 ) ;
#243 = EDGE_CURVE ( 'NONE', #363, #9, #79, .T. ) ;
#244 = EDGE_LOOP ( 'NONE', ( #40, #160, #289, #275 ) ) ;
#245 = APPROVAL_PERSON_ORGANIZATION ( #34, #111, #70 ) ;
#246 = EDGE_LOOP ( 'NONE', ( #247, #368, #302, #164, #17, #313 ) ) ;
#247 = ORIENTED_EDGE ( 'NONE', *, *, #141, .T. ) ;
#248 = AXIS2_PLACEMENT_3D ( 'NONE', #310, #259, #196 ) ;
#249 = EDGE_CURVE ( 'NONE', #187, #109, #76, .T. ) ;
#250 = VERTEX_POINT ( 'NONE', #314 ) ;
#251 = FACE_OUTER_BOUND ( 'NONE', #95, .T. ) ;
#252 = VERTEX_POINT ( 'NONE', #82 ) ;
#253 = CLOSED_SHELL ( 'NONE', ( #383, #153, #66, #340, #231, #348, #43, #322, #367, #209, #171 ) ) ;
#254 = ORIENTED_EDGE ( 'NONE', *, *, #256, .F. ) ;
#255 = VECTOR ( 'NONE', #292, 1000.000000000000000 ) ;
#256 = EDGE_CURVE ( 'NONE', #286, #127, #50, .T. ) ;
#257 = ORIENTED_EDGE ( 'NONE', *, *, #130, .F. ) ;
#258 = CARTESIAN_POINT ( 'NONE',  ( 3.999999999999996447, -6.928203230275510549, 8.000000000000000000 ) ) ;
#259 = DIRECTION ( 'NONE',  ( 0.000000000000000000, 0.000000000000000000, -1.000000000000000000 ) ) ;
#260 = LINE ( 'NONE', #268, #21 ) ;
#261 = DIRECTION ( 'NONE',  ( 1.000000000000000000, 0.000000000000000000, -0.000000000000000000 ) ) ;
#262 = DIRECTION ( 'NONE',  ( -0.000000000000000000, -0.000000000000000000, 1.000000000000000000 ) ) ;
#263 = DIRECTION ( 'NONE',  ( -0.4999999999999998890, -0.8660254037844387076, 0.000000000000000000 ) ) ;
#264 = DIRECTION ( 'NONE',  ( 1.000000000000000000, 0.000000000000000000, 0.000000000000000000 ) ) ;
#265 = DIRECTION ( 'NONE',  ( 0.000000000000000000, -0.000000000000000000, 1.000000000000000000 ) ) ;
#266 = PLANE ( 'NONE',  #35 ) ;
#267 = AXIS2_PLACEMENT_3D ( 'NONE', #88, #238, #361 ) ;
#268 = CARTESIAN_POINT ( 'NONE',  ( 3.999999999999994227, 6.928203230275509661, 8.000000000000000000 ) ) ;
#269 = PERSON ( 'UNSPECIFIED', 'UNSPECIFIED', 'UNSPECIFIED', ('UNSPECIFIED'), ('UNSPECIFIED'), ('UNSPECIFIED') ) ;
#270 = EDGE_CURVE ( 'NONE', #129, #127, #166, .T. ) ;
#271 = CARTESIAN_POINT ( 'NONE',  ( 3.999999999999996447, -6.928203230275510549, 8.000000000000000000 ) ) ;
#272 = ORIENTED_EDGE ( 'NONE', *, *, #283, .F. ) ;
#273 = PLANE ( 'NONE',  #57 ) ;
#274 = DATE_AND_TIME ( #309, #370 ) ;
#275 = ORIENTED_EDGE ( 'NONE', *, *, #256, .T. ) ;
#276 = VECTOR ( 'NONE', #107, 1000.000000000000227 ) ;
#277 = EDGE_CURVE ( 'NONE', #127, #282, #293, .T. ) ;
#278 = PERSON_AND_ORGANIZATION_ROLE ( 'classification_officer' ) ;
#279 = EDGE_LOOP ( 'NONE', ( #334, #74, #332, #136 ) ) ;
#280 = AXIS2_PLACEMENT_3D ( 'NONE', #22, #100, #219 ) ;
#281 = DATE_AND_TIME ( #158, #152 ) ;
#282 = VERTEX_POINT ( 'NONE', #220 ) ;
#283 = EDGE_CURVE ( 'NONE', #372, #250, #143, .T. ) ;
#284 = DATE_AND_TIME ( #156, #204 ) ;
#285 = ORIENTED_EDGE ( 'NONE', *, *, #96, .F. ) ;
#286 = VERTEX_POINT ( 'NONE', #379 ) ;
#287 = VECTOR ( 'NONE', #163, 1000.000000000000000 ) ;
#288 = VECTOR ( 'NONE', #102, 1000.000000000000114 ) ;
#289 = ORIENTED_EDGE ( 'NONE', *, *, #176, .F. ) ;
#290 = APPLICATION_PROTOCOL_DEFINITION ( 'international standard', 'config_control_design', 1994, #216 ) ;
#291 = DIRECTION ( 'NONE',  ( 0.5000000000000001110, -0.8660254037844384856, 0.000000000000000000 ) ) ;
#292 = DIRECTION ( 'NONE',  ( -0.000000000000000000, -0.000000000000000000, -1.000000000000000000 ) ) ;
#293 = LINE ( 'NONE', #218, #288 ) ;
#294 = CARTESIAN_POINT ( 'NONE',  ( -10.00000000000000000, 1.224646799147353256E-15, -3.000000000000000000 ) ) ;
#295 = CARTESIAN_POINT ( 'NONE',  ( -3.999999999999998224, -6.928203230275509661, 0.000000000000000000 ) ) ;
#296 = LINE ( 'NONE', #110, #15 ) ;
#297 = CC_DESIGN_APPROVAL ( #111, ( #56 ) ) ;
#298 = CARTESIAN_POINT ( 'NONE',  ( 0.000000000000000000, 0.000000000000000000, 0.000000000000000000 ) ) ;
#299 = DIRECTION ( 'NONE',  ( -0.5000000000000002220, 0.8660254037844385966, 0.000000000000000000 ) ) ;
#300 = DIRECTION ( 'NONE',  ( 1.000000000000000000, -1.084202172485505174E-16, 0.000000000000000000 ) ) ;
#301 = APPROVAL_ROLE ( '' ) ;
#302 = ORIENTED_EDGE ( 'NONE', *, *, #249, .T. ) ;
#303 = CIRCLE ( 'NONE', #280, 10.00000000000000000 ) ;
#304 = APPROVAL_PERSON_ORGANIZATION ( #65, #214, #301 ) ;
#305 = CALENDAR_DATE ( 2025, 1, 5 ) ;
#306 = CC_DESIGN_DATE_AND_TIME_ASSIGNMENT ( #242, #212, ( #56 ) ) ;
#307 = COORDINATED_UNIVERSAL_TIME_OFFSET ( 1, 0, .AHEAD. ) ;
#308 = VERTEX_POINT ( 'NONE', #295 ) ;
#309 = CALENDAR_DATE ( 2025, 1, 5 ) ;
#310 = CARTESIAN_POINT ( 'NONE',  ( 0.000000000000000000, 0.000000000000000000, 0.000000000000000000 ) ) ;
#311 = EDGE_CURVE ( 'NONE', #67, #157, #382, .T. ) ;
#312 = CARTESIAN_POINT ( 'NONE',  ( -4.000000000000000888, 6.928203230275509661, 8.000000000000000000 ) ) ;
#313 = ORIENTED_EDGE ( 'NONE', *, *, #352, .T. ) ;
#314 = CARTESIAN_POINT ( 'NONE',  ( -8.000000000000000000, 1.696902781366444266E-16, 0.000000000000000000 ) ) ;
#315 = ORIENTED_EDGE ( 'NONE', *, *, #277, .F. ) ;
#316 = CARTESIAN_POINT ( 'NONE',  ( -4.000000000000000888, 6.928203230275509661, 8.000000000000000000 ) ) ;
#317 = CARTESIAN_POINT ( 'NONE',  ( 3.999999999999994227, 6.928203230275509661, 8.000000000000000000 ) ) ;
#318 = ORIENTED_EDGE ( 'NONE', *, *, #125, .F. ) ;
#319 = LINE ( 'NONE', #258, #335 ) ;
#320 = CIRCLE ( 'NONE', #248, 10.00000000000000000 ) ;
#321 = DIRECTION ( 'NONE',  ( -0.000000000000000000, -0.000000000000000000, -1.000000000000000000 ) ) ;
#322 = ADVANCED_FACE ( 'NONE', ( #230 ), #326, .T. ) ;
#323 =( NAMED_UNIT ( * ) SI_UNIT ( $, .STERADIAN. ) SOLID_ANGLE_UNIT ( ) );
#324 = DIRECTION ( 'NONE',  ( 0.000000000000000000, 0.000000000000000000, 1.000000000000000000 ) ) ;
#325 = LOCAL_TIME ( 14, 41, 27.00000000000000000, #151 ) ;
#326 = PLANE ( 'NONE',  #128 ) ;
#327 = AXIS2_PLACEMENT_3D ( 'NONE', #226, #371, #366 ) ;
#328 = LINE ( 'NONE', #316, #120 ) ;
#329 = DIRECTION ( 'NONE',  ( 0.8660254037844385966, 0.5000000000000002220, -0.000000000000000000 ) ) ;
#330 = DIRECTION ( 'NONE',  ( -1.000000000000000000, 0.000000000000000000, 0.000000000000000000 ) ) ;
#331 = SHAPE_DEFINITION_REPRESENTATION ( #13, #373 ) ;
#332 = ORIENTED_EDGE ( 'NONE', *, *, #96, .T. ) ;
#333 = CC_DESIGN_PERSON_AND_ORGANIZATION_ASSIGNMENT ( #11, #182, ( #68 ) ) ;
#334 = ORIENTED_EDGE ( 'NONE', *, *, #184, .F. ) ;
#335 = VECTOR ( 'NONE', #138, 1000.000000000000000 ) ;
#336 = EDGE_CURVE ( 'NONE', #282, #372, #161, .T. ) ;
#337 = ORIENTED_EDGE ( 'NONE', *, *, #145, .T. ) ;
#338 = VECTOR ( 'NONE', #172, 1000.000000000000000 ) ;
#339 = PLANE ( 'NONE',  #5 ) ;
#340 = ADVANCED_FACE ( 'NONE', ( #119 ), #94, .F. ) ;
#341 = VECTOR ( 'NONE', #31, 1000.000000000000000 ) ;
#342 = VERTEX_POINT ( 'NONE', #2 ) ;
#343 = LINE ( 'NONE', #346, #32 ) ;
#344 = DIRECTION ( 'NONE',  ( 1.084202172485505174E-16, 1.000000000000000000, -0.000000000000000000 ) ) ;
#345 = LOCAL_TIME ( 14, 41, 27.00000000000000000, #124 ) ;
#346 = CARTESIAN_POINT ( 'NONE',  ( -8.000000000000000000, 1.696902781366444266E-16, 0.000000000000000000 ) ) ;
#347 = PLANE ( 'NONE',  #327 ) ;
#348 = ADVANCED_FACE ( 'NONE', ( #54 ), #266, .F. ) ;
#349 = DIRECTION ( 'NONE',  ( 0.000000000000000000, 0.000000000000000000, -1.000000000000000000 ) ) ;
#350 = APPROVAL_PERSON_ORGANIZATION ( #377, #87, #113 ) ;
#351 = CYLINDRICAL_SURFACE ( 'NONE', #267, 10.00000000000000000 ) ;
#352 = EDGE_CURVE ( 'NONE', #9, #342, #29, .T. ) ;
#353 = DIRECTION ( 'NONE',  ( 0.5000000000000001110, -0.8660254037844385966, 0.000000000000000000 ) ) ;
#354 =( NAMED_UNIT ( * ) PLANE_ANGLE_UNIT ( ) SI_UNIT ( $, .RADIAN. ) );
#355 = DIRECTION ( 'NONE',  ( 0.000000000000000000, -1.000000000000000000, 0.000000000000000000 ) ) ;
#356 = DIRECTION ( 'NONE',  ( 0.000000000000000000, 0.000000000000000000, -1.000000000000000000 ) ) ;
#357 = APPROVAL_STATUS ( 'not_yet_approved' ) ;
#358 = APPROVAL_STATUS ( 'not_yet_approved' ) ;
#359 = VERTEX_POINT ( 'NONE', #294 ) ;
#360 = CALENDAR_DATE ( 2025, 1, 5 ) ;
#361 = DIRECTION ( 'NONE',  ( 1.000000000000000000, 0.000000000000000000, 0.000000000000000000 ) ) ;
#362 = DATE_TIME_ROLE ( 'creation_date' ) ;
#363 = VERTEX_POINT ( 'NONE', #27 ) ;
#364 = ORIENTED_EDGE ( 'NONE', *, *, #336, .T. ) ;
#365 = CC_DESIGN_PERSON_AND_ORGANIZATION_ASSIGNMENT ( #223, #83, ( #134 ) ) ;
#366 = DIRECTION ( 'NONE',  ( 0.4999999999999998890, 0.8660254037844387076, 0.000000000000000000 ) ) ;
#367 = ADVANCED_FACE ( 'NONE', ( #142 ), #202, .T. ) ;
#368 = ORIENTED_EDGE ( 'NONE', *, *, #176, .T. ) ;
#369 = ORIENTED_EDGE ( 'NONE', *, *, #203, .T. ) ;
#370 = LOCAL_TIME ( 14, 41, 27.00000000000000000, #307 ) ;
#371 = DIRECTION ( 'NONE',  ( 0.8660254037844387076, -0.4999999999999998890, 0.000000000000000000 ) ) ;
#372 = VERTEX_POINT ( 'NONE', #381 ) ;
#373 = ADVANCED_BREP_SHAPE_REPRESENTATION ( 'O_D\X2\00e9\X0\faut_sldprt', ( #12, #101 ), #118 ) ;
#374 = ORIENTED_EDGE ( 'NONE', *, *, #283, .T. ) ;
#375 = CARTESIAN_POINT ( 'NONE',  ( 3.999999999999996447, -6.928203230275510549, 0.000000000000000000 ) ) ;
#376 = ORIENTED_EDGE ( 'NONE', *, *, #141, .F. ) ;
#377 = PERSON_AND_ORGANIZATION ( #269, #104 ) ;
#378 = FACE_OUTER_BOUND ( 'NONE', #105, .T. ) ;
#379 = CARTESIAN_POINT ( 'NONE',  ( 7.999999999999992895, 3.469011639898463385E-15, 8.000000000000000000 ) ) ;
#380 = ORIENTED_EDGE ( 'NONE', *, *, #117, .T. ) ;
#381 = CARTESIAN_POINT ( 'NONE',  ( -4.000000000000000888, 6.928203230275509661, 0.000000000000000000 ) ) ;
#382 = LINE ( 'NONE', #235, #195 ) ;
#383 = ADVANCED_FACE ( 'NONE', ( #232 ), #351, .T. ) ;
ENDSEC;
END-ISO-10303-21;
