ISO-10303-21;
HEADER;
FILE_DESCRIPTION (( 'STEP AP203' ),
    '1' );
FILE_NAME ('Spherical-Joint_Défaut_sldprt.STEP',
    '2025-05-01T13:41:29',
    ( '' ),
    ( '' ),
    'SwSTEP 2.0',
    'SolidWorks 2022',
    '' );
FILE_SCHEMA (( 'CONFIG_CONTROL_DESIGN' ));
ENDSEC;

DATA;
#1 = ORIENTED_EDGE ( 'NONE', *, *, #91, .F. ) ;
#2 = DIRECTION ( 'NONE',  ( 0.000000000000000000, -0.000000000000000000, -1.000000000000000000 ) ) ;
#3 = PERSON_AND_ORGANIZATION ( #854, #592 ) ;
#4 = FACE_OUTER_BOUND ( 'NONE', #658, .T. ) ;
#5 = VERTEX_POINT ( 'NONE', #644 ) ;
#6 = FACE_BOUND ( 'NONE', #114, .T. ) ;
#7 = SHAPE_DEFINITION_REPRESENTATION ( #706, #894 ) ;
#8 = CARTESIAN_POINT ( 'NONE',  ( 6.509176087547936973, -3.829898031890516474, 1.300215732754256948 ) ) ;
#9 = CIRCLE ( 'NONE', #544, 5.000000000000000000 ) ;
#10 = AXIS2_PLACEMENT_3D ( 'NONE', #587, #84, #20 ) ;
#11 = CARTESIAN_POINT ( 'NONE',  ( 7.000000000000000000, 6.676529270871762733, -4.536335007355644322 ) ) ;
#12 = PLANE ( 'NONE',  #24 ) ;
#13 = ORIENTED_EDGE ( 'NONE', *, *, #31, .T. ) ;
#14 = PERSON_AND_ORGANIZATION ( #854, #592 ) ;
#15 = CC_DESIGN_PERSON_AND_ORGANIZATION_ASSIGNMENT ( #3, #704, ( #662 ) ) ;
#16 = DIRECTION ( 'NONE',  ( 0.4999999999999998890, 0.000000000000000000, -0.8660254037844387076 ) ) ;
#17 = CARTESIAN_POINT ( 'NONE',  ( 3.500000000000000000, 10.00533071582423972, -0.03633500735564492573 ) ) ;
#18 = FACE_OUTER_BOUND ( 'NONE', #825, .T. ) ;
#19 = CARTESIAN_POINT ( 'NONE',  ( 3.500000000000000444, 10.00533071582423972, -2.536335007355644322 ) ) ;
#20 = DIRECTION ( 'NONE',  ( 0.000000000000000000, 0.000000000000000000, -1.000000000000000000 ) ) ;
#21 = DIRECTION ( 'NONE',  ( -1.224646799147353207E-16, -1.000000000000000000, -0.000000000000000000 ) ) ;
#22 = AXIS2_PLACEMENT_3D ( 'NONE', #663, #735, #588 ) ;
#23 = DIRECTION ( 'NONE',  ( 0.000000000000000000, 0.000000000000000000, 1.000000000000000000 ) ) ;
#24 = AXIS2_PLACEMENT_3D ( 'NONE', #340, #708, #562 ) ;
#25 = CARTESIAN_POINT ( 'NONE',  ( 0.09363341178120432318, 26.00533071582424682, -0.03633500735564392653 ) ) ;
#26 = EDGE_CURVE ( 'NONE', #379, #512, #503, .T. ) ;
#27 = ADVANCED_FACE ( 'NONE', ( #783 ), #439, .F. ) ;
#28 = FACE_OUTER_BOUND ( 'NONE', #135, .T. ) ;
#29 = EDGE_CURVE ( 'NONE', #863, #697, #137, .T. ) ;
#30 = LINE ( 'NONE', #102, #81 ) ;
#31 = EDGE_CURVE ( 'NONE', #753, #389, #89, .T. ) ;
#32 = CARTESIAN_POINT ( 'NONE',  ( 0.5332233568173343485, 3.628175596539390479, 1.787184997547575538 ) ) ;
#33 = VECTOR ( 'NONE', #805, 1000.000000000000000 ) ;
#34 = PRODUCT_DEFINITION_FORMATION_WITH_SPECIFIED_SOURCE ( 'ANY', '', #374, .NOT_KNOWN. ) ;
#35 = VECTOR ( 'NONE', #853, 1000.000000000000000 ) ;
#36 = ADVANCED_FACE ( 'NONE', ( #850 ), #855, .F. ) ;
#37 = LOCAL_TIME ( 14, 41, 29.00000000000000000, #491 ) ;
#38 = CC_DESIGN_PERSON_AND_ORGANIZATION_ASSIGNMENT ( #72, #289, ( #374 ) ) ;
#39 = DIRECTION ( 'NONE',  ( -0.000000000000000000, 1.000000000000000000, -0.000000000000000000 ) ) ;
#40 = CARTESIAN_POINT ( 'NONE',  ( 0.5636284700263403113, 4.010276251716895501, 0.5262480571140798480 ) ) ;
#41 = CYLINDRICAL_SURFACE ( 'NONE', #700, 8.071826212435928127 ) ;
#42 = CARTESIAN_POINT ( 'NONE',  ( 5.203183294109397394, 26.00533071582424682, 2.913664992644358520 ) ) ;
#43 = DIRECTION ( 'NONE',  ( -1.000000000000000000, -0.000000000000000000, -0.000000000000000000 ) ) ;
#44 = CARTESIAN_POINT ( 'NONE',  ( 7.000000000000000000, 0.000000000000000000, 4.035913106217962287 ) ) ;
#45 = ORIENTED_EDGE ( 'NONE', *, *, #913, .F. ) ;
#46 = DIRECTION ( 'NONE',  ( -0.000000000000000000, 0.000000000000000000, 1.000000000000000000 ) ) ;
#47 = DIRECTION ( 'NONE',  ( 0.000000000000000000, -0.000000000000000000, 1.000000000000000000 ) ) ;
#48 = FACE_OUTER_BOUND ( 'NONE', #334, .T. ) ;
#49 = VECTOR ( 'NONE', #612, 1000.000000000000000 ) ;
#50 = CIRCLE ( 'NONE', #564, 8.071826212435928127 ) ;
#51 = CARTESIAN_POINT ( 'NONE',  ( 0.6731151028401861636, -1.045014957682276480, -3.907267593665887162 ) ) ;
#52 = CARTESIAN_POINT ( 'NONE',  ( 7.000000000000000000, 30.00533071582424682, 4.463664992644359231 ) ) ;
#53 = ADVANCED_FACE ( 'NONE', ( #573, #145 ), #155, .T. ) ;
#54 = VERTEX_POINT ( 'NONE', #423 ) ;
#55 = CYLINDRICAL_SURFACE ( 'NONE', #197, 8.071826212435928127 ) ;
#56 = EDGE_LOOP ( 'NONE', ( #799, #488, #838, #537, #628, #582 ) ) ;
#57 = VERTEX_POINT ( 'NONE', #221 ) ;
#58 = CARTESIAN_POINT ( 'NONE',  ( 0.000000000000000000, 4.942568067166679760E-16, -4.035913106217962287 ) ) ;
#59 = CARTESIAN_POINT ( 'NONE',  ( 0.5275722707126008215, -3.502371678939282695, 2.022996844180681819 ) ) ;
#60 = ORIENTED_EDGE ( 'NONE', *, *, #549, .F. ) ;
#61 = CARTESIAN_POINT ( 'NONE',  ( 6.906366588218795677, 26.00533071582424682, -0.03633500735564536288 ) ) ;
#62 = ORIENTED_EDGE ( 'NONE', *, *, #363, .F. ) ;
#63 = APPROVAL_STATUS ( 'not_yet_approved' ) ;
#64 = AXIS2_PLACEMENT_3D ( 'NONE', #718, #366, #638 ) ;
#65 = AXIS2_PLACEMENT_3D ( 'NONE', #724, #655, #248 ) ;
#66 = CARTESIAN_POINT ( 'NONE',  ( 0.6368875432159869510, -3.211185961156872271, -2.458861273063823738 ) ) ;
#67 = ORIENTED_EDGE ( 'NONE', *, *, #351, .T. ) ;
#68 = CARTESIAN_POINT ( 'NONE',  ( 5.203183294109397394, 30.00533071582424682, 2.913664992644358520 ) ) ;
#69 = DATE_AND_TIME ( #709, #383 ) ;
#70 = EDGE_LOOP ( 'NONE', ( #425, #149, #233, #493, #632, #167 ) ) ;
#71 = CARTESIAN_POINT ( 'NONE',  ( 6.520950963664202682, 3.626895924875861432, 1.790057249630588876 ) ) ;
#72 = PERSON_AND_ORGANIZATION ( #854, #592 ) ;
#73 = ORIENTED_EDGE ( 'NONE', *, *, #332, .T. ) ;
#74 = CARTESIAN_POINT ( 'NONE',  ( 6.490618244676754856, -4.009347455743714761, 0.5320864875433510832 ) ) ;
#75 = DIRECTION ( 'NONE',  ( -1.000000000000000000, -0.000000000000000000, -0.000000000000000000 ) ) ;
#76 = CARTESIAN_POINT ( 'NONE',  ( 6.509193705007123576, 3.829649502159520491, 1.300947230845852065 ) ) ;
#77 = ORIENTED_EDGE ( 'NONE', *, *, #26, .T. ) ;
#78 = ADVANCED_FACE ( 'NONE', ( #434, #861 ), #499, .T. ) ;
#79 = MECHANICAL_CONTEXT ( 'NONE', #568, 'mechanical' ) ;
#80 = CARTESIAN_POINT ( 'NONE',  ( 6.377750420873693926, -0.2632286843305045587, -4.035913106217962287 ) ) ;
#81 = VECTOR ( 'NONE', #667, 1000.000000000000000 ) ;
#82 = AXIS2_PLACEMENT_3D ( 'NONE', #345, #629, #2 ) ;
#83 = ORIENTED_EDGE ( 'NONE', *, *, #589, .F. ) ;
#84 = DIRECTION ( 'NONE',  ( 1.000000000000000000, 0.000000000000000000, 0.000000000000000000 ) ) ;
#85 = CYLINDRICAL_SURFACE ( 'NONE', #241, 8.071826212435928127 ) ;
#86 = DIRECTION ( 'NONE',  ( 0.000000000000000000, 1.000000000000000000, 0.000000000000000000 ) ) ;
#87 = CARTESIAN_POINT ( 'NONE',  ( 0.000000000000000000, 30.00533071582424682, -4.536335007355645210 ) ) ;
#88 = CARTESIAN_POINT ( 'NONE',  ( 0.6260836100298612372, 3.501997016456352974, -2.023316841957810919 ) ) ;
#89 = LINE ( 'NONE', #11, #395 ) ;
#90 = CARTESIAN_POINT ( 'NONE',  ( 6.906366588218795677, 26.00533071582424682, -0.03633500735564536288 ) ) ;
#91 = EDGE_CURVE ( 'NONE', #697, #809, #649, .T. ) ;
#92 = EDGE_CURVE ( 'NONE', #495, #768, #791, .T. ) ;
#93 = AXIS2_PLACEMENT_3D ( 'NONE', #513, #521, #803 ) ;
#94 = CARTESIAN_POINT ( 'NONE',  ( 7.000000000000000000, 0.000000000000000000, 4.035913106217962287 ) ) ;
#95 = VECTOR ( 'NONE', #821, 1000.000000000000000 ) ;
#96 = LINE ( 'NONE', #660, #138 ) ;
#97 = CYLINDRICAL_SURFACE ( 'NONE', #22, 4.035913106217962287 ) ;
#98 = EDGE_CURVE ( 'NONE', #5, #295, #30, .T. ) ;
#99 = CARTESIAN_POINT ( 'NONE',  ( 0.5122012021026565165, 3.040926774092175044, 2.666598274788952061 ) ) ;
#100 = ADVANCED_FACE ( 'NONE', ( #28 ), #370, .F. ) ;
#101 = CC_DESIGN_PERSON_AND_ORGANIZATION_ASSIGNMENT ( #14, #779, ( #34 ) ) ;
#102 = CARTESIAN_POINT ( 'NONE',  ( 7.000000000000000000, 0.000000000000000000, 8.071826212435928127 ) ) ;
#103 = AXIS2_PLACEMENT_3D ( 'NONE', #183, #394, #529 ) ;
#104 = VECTOR ( 'NONE', #650, 1000.000000000000000 ) ;
#105 = DIRECTION ( 'NONE',  ( -1.000000000000000000, -0.000000000000000000, -0.000000000000000000 ) ) ;
#106 = VERTEX_POINT ( 'NONE', #168 ) ;
#107 = CARTESIAN_POINT ( 'NONE',  ( 7.000000000000000000, 0.000000000000000000, 0.000000000000000000 ) ) ;
#108 = DIRECTION ( 'NONE',  ( 0.5000000000000002220, 0.000000000000000000, 0.8660254037844384856 ) ) ;
#109 = FACE_OUTER_BOUND ( 'NONE', #70, .T. ) ;
#110 = ORIENTED_EDGE ( 'NONE', *, *, #586, .T. ) ;
#111 = CARTESIAN_POINT ( 'NONE',  ( 1.796816705890601273, 30.00533071582424682, -2.986335007355649385 ) ) ;
#112 = DIRECTION ( 'NONE',  ( 0.000000000000000000, 1.000000000000000000, 0.000000000000000000 ) ) ;
#113 = DIRECTION ( 'NONE',  ( 0.000000000000000000, 1.000000000000000000, 0.000000000000000000 ) ) ;
#114 = EDGE_LOOP ( 'NONE', ( #211, #209, #845, #673, #750, #83 ) ) ;
#115 = EDGE_CURVE ( 'NONE', #196, #450, #590, .T. ) ;
#116 = EDGE_CURVE ( 'NONE', #57, #826, #508, .T. ) ;
#117 = CARTESIAN_POINT ( 'NONE',  ( 0.000000000000000000, 0.000000000000000000, 0.000000000000000000 ) ) ;
#118 = CARTESIAN_POINT ( 'NONE',  ( 0.6711721979986109421, 1.299741932244667941, -3.830075549655074685 ) ) ;
#119 = ORIENTED_EDGE ( 'NONE', *, *, #116, .F. ) ;
#120 = CARTESIAN_POINT ( 'NONE',  ( 1.796816705890602606, 30.00533071582424682, 2.913664992644358520 ) ) ;
#121 = VERTEX_POINT ( 'NONE', #810 ) ;
#122 = AXIS2_PLACEMENT_3D ( 'NONE', #290, #365, #299 ) ;
#123 = DIRECTION ( 'NONE',  ( 0.000000000000000000, 0.000000000000000000, -1.000000000000000000 ) ) ;
#124 = LINE ( 'NONE', #327, #49 ) ;
#125 = ORIENTED_EDGE ( 'NONE', *, *, #520, .T. ) ;
#126 = CARTESIAN_POINT ( 'NONE',  ( 6.452149715013375086, 3.907184818747327260, -1.044838649205265257 ) ) ;
#127 = ORIENTED_EDGE ( 'NONE', *, *, #860, .T. ) ;
#128 = ADVANCED_FACE ( 'NONE', ( #654 ), #375, .F. ) ;
#129 = CARTESIAN_POINT ( 'NONE',  ( 0.6555790896569381188, -2.462811211806899436, -3.208436013477792503 ) ) ;
#130 = ORIENTED_EDGE ( 'NONE', *, *, #870, .F. ) ;
#131 = CARTESIAN_POINT ( 'NONE',  ( 3.500000000000000000, 10.00533071582423972, -0.03633500735564492573 ) ) ;
#132 = ORIENTED_EDGE ( 'NONE', *, *, #608, .F. ) ;
#133 = DATE_TIME_ROLE ( 'classification_date' ) ;
#134 = CARTESIAN_POINT ( 'NONE',  ( 0.4992776702311610415, -2.460162898496363937, 3.210269366757298126 ) ) ;
#135 = EDGE_LOOP ( 'NONE', ( #274, #625, #336, #596 ) ) ;
#136 = DIRECTION ( 'NONE',  ( 1.000000000000000000, 0.000000000000000000, 0.000000000000000000 ) ) ;
#137 = CIRCLE ( 'NONE', #283, 2.499999999999999556 ) ;
#138 = VECTOR ( 'NONE', #205, 1000.000000000000000 ) ;
#139 = CARTESIAN_POINT ( 'NONE',  ( 6.402673582279757802, -2.665028188142674281, -3.042571805897201109 ) ) ;
#140 = APPROVAL_PERSON_ORGANIZATION ( #634, #397, #152 ) ;
#141 = ORIENTED_EDGE ( 'NONE', *, *, #184, .T. ) ;
#142 = DIRECTION ( 'NONE',  ( -1.000000000000000000, 0.000000000000000000, 1.273147965031489810E-16 ) ) ;
#143 = APPLICATION_PROTOCOL_DEFINITION ( 'international standard', 'config_control_design', 1994, #613 ) ;
#144 = LINE ( 'NONE', #215, #448 ) ;
#145 = FACE_BOUND ( 'NONE', #840, .T. ) ;
#146 = DIRECTION ( 'NONE',  ( 1.000000000000000000, 0.000000000000000000, 0.000000000000000000 ) ) ;
#147 = DATE_TIME_ROLE ( 'creation_date' ) ;
#148 = CARTESIAN_POINT ( 'NONE',  ( 6.541897463556563430, -3.041408661467267294, 2.666315809433583262 ) ) ;
#149 = ORIENTED_EDGE ( 'NONE', *, *, #746, .T. ) ;
#150 = CARTESIAN_POINT ( 'NONE',  ( 6.571305047258016785, 1.046908242403207900, 3.906823539892044561 ) ) ;
#151 = ORIENTED_EDGE ( 'NONE', *, *, #364, .F. ) ;
#152 = APPROVAL_ROLE ( '' ) ;
#153 = CIRCLE ( 'NONE', #470, 2.499999999999999556 ) ;
#154 = APPROVAL_PERSON_ORGANIZATION ( #571, #620, #910 ) ;
#155 = PLANE ( 'NONE',  #64 ) ;
#156 = CARTESIAN_POINT ( 'NONE',  ( 3.527052665939840903, 0.000000000000000000, 0.07182621243592354765 ) ) ;
#157 = ORIENTED_EDGE ( 'NONE', *, *, #653, .F. ) ;
#158 = CARTESIAN_POINT ( 'NONE',  ( 6.569495663466810242, -1.299425268393226807, 3.830128871318541517 ) ) ;
#159 = CARTESIAN_POINT ( 'NONE',  ( 0.6081910475198611943, 3.830449775326588924, -1.298477804826295046 ) ) ;
#160 = ORIENTED_EDGE ( 'NONE', *, *, #218, .F. ) ;
#161 = DIRECTION ( 'NONE',  ( 0.000000000000000000, 0.000000000000000000, -1.000000000000000000 ) ) ;
#162 = EDGE_CURVE ( 'NONE', #202, #685, #9, .T. ) ;
#163 = EDGE_CURVE ( 'NONE', #785, #121, #174, .T. ) ;
#164 = EDGE_LOOP ( 'NONE', ( #872, #170, #472, #907 ) ) ;
#165 = LINE ( 'NONE', #301, #505 ) ;
#166 = LINE ( 'NONE', #87, #528 ) ;
#167 = ORIENTED_EDGE ( 'NONE', *, *, #198, .T. ) ;
#168 = CARTESIAN_POINT ( 'NONE',  ( 7.000000000000000000, 30.00533071582424682, 4.463664992644359231 ) ) ;
#169 = VECTOR ( 'NONE', #142, 1000.000000000000000 ) ;
#170 = ORIENTED_EDGE ( 'NONE', *, *, #467, .T. ) ;
#171 = EDGE_CURVE ( 'NONE', #730, #691, #165, .T. ) ;
#172 = CARTESIAN_POINT ( 'NONE',  ( 0.4923492755750058514, 2.022239299763721743, 3.502664396189690166 ) ) ;
#173 = APPROVAL ( #566, 'UNSPECIFIED' ) ;
#174 = LINE ( 'NONE', #867, #773 ) ;
#175 = CARTESIAN_POINT ( 'NONE',  ( 7.000000000000000000, 0.000000000000000000, 0.000000000000000000 ) ) ;
#176 = ORIENTED_EDGE ( 'NONE', *, *, #250, .F. ) ;
#177 = CARTESIAN_POINT ( 'NONE',  ( 0.6763549110059882130, 4.942566095856351189E-16, -4.035913106217962287 ) ) ;
#178 = DIRECTION ( 'NONE',  ( -0.000000000000000000, 1.000000000000000000, -0.000000000000000000 ) ) ;
#179 = CIRCLE ( 'NONE', #485, 4.035913106217962287 ) ;
#180 = CIRCLE ( 'NONE', #506, 8.071826212435928127 ) ;
#181 = CARTESIAN_POINT ( 'NONE',  ( 6.377750420873692150, 4.942558658601954510E-16, -4.035913106217962287 ) ) ;
#182 = FACE_OUTER_BOUND ( 'NONE', #398, .T. ) ;
#183 = CARTESIAN_POINT ( 'NONE',  ( 0.000000000000000000, 0.000000000000000000, 0.000000000000000000 ) ) ;
#184 = EDGE_CURVE ( 'NONE', #405, #680, #584, .T. ) ;
#185 = DIRECTION ( 'NONE',  ( -0.000000000000000000, -1.000000000000000000, -0.000000000000000000 ) ) ;
#186 = ORIENTED_EDGE ( 'NONE', *, *, #115, .F. ) ;
#187 = ADVANCED_FACE ( 'NONE', ( #304 ), #97, .F. ) ;
#188 = CARTESIAN_POINT ( 'NONE',  ( 3.527052665939840903, 0.000000000000000000, 0.07182621243592354765 ) ) ;
#189 = LINE ( 'NONE', #320, #816 ) ;
#190 = EDGE_LOOP ( 'NONE', ( #127, #793, #194, #382 ) ) ;
#191 = CARTESIAN_POINT ( 'NONE',  ( 7.000000000000000000, 6.725330715824242134, 4.463664992644353902 ) ) ;
#192 = CARTESIAN_POINT ( 'NONE',  ( 0.6757106831597731178, -0.5252263707655172587, -4.010353297372165393 ) ) ;
#193 = CARTESIAN_POINT ( 'NONE',  ( 3.527052665939840459, 0.000000000000000000, -4.928173787564076314 ) ) ;
#194 = ORIENTED_EDGE ( 'NONE', *, *, #237, .F. ) ;
#195 = CARTESIAN_POINT ( 'NONE',  ( 6.433794408463112902, 3.626914250563582076, -1.789981129642993274 ) ) ;
#196 = VERTEX_POINT ( 'NONE', #94 ) ;
#197 = AXIS2_PLACEMENT_3D ( 'NONE', #175, #105, #453 ) ;
#198 = EDGE_CURVE ( 'NONE', #897, #685, #347, .T. ) ;
#199 = APPROVAL_PERSON_ORGANIZATION ( #431, #173, #630 ) ;
#200 = CARTESIAN_POINT ( 'NONE',  ( 0.5331904500674422565, -3.627495308317644884, 1.788556798458165842 ) ) ;
#201 = EDGE_CURVE ( 'NONE', #318, #352, #459, .T. ) ;
#202 = VERTEX_POINT ( 'NONE', #193 ) ;
#203 = CARTESIAN_POINT ( 'NONE',  ( 6.573747868815788209, 0.5253322219465234033, 4.010400615456155116 ) ) ;
#204 = ORIENTED_EDGE ( 'NONE', *, *, #777, .F. ) ;
#205 = DIRECTION ( 'NONE',  ( -1.000000000000000000, -0.000000000000000000, -0.000000000000000000 ) ) ;
#206 = ORIENTED_EDGE ( 'NONE', *, *, #98, .T. ) ;
#207 = LINE ( 'NONE', #481, #169 ) ;
#208 = ORIENTED_EDGE ( 'NONE', *, *, #522, .F. ) ;
#209 = ORIENTED_EDGE ( 'NONE', *, *, #860, .F. ) ;
#210 = DIRECTION ( 'NONE',  ( 0.000000000000000000, 0.000000000000000000, 1.000000000000000000 ) ) ;
#211 = ORIENTED_EDGE ( 'NONE', *, *, #636, .F. ) ;
#212 = PERSON_AND_ORGANIZATION ( #854, #592 ) ;
#213 = VECTOR ( 'NONE', #731, 1000.000000000000000 ) ;
#214 = CIRCLE ( 'NONE', #342, 5.000000000000000888 ) ;
#215 = CARTESIAN_POINT ( 'NONE',  ( 5.203183294109397394, 30.00533071582424682, 2.913664992644358520 ) ) ;
#216 = DIRECTION ( 'NONE',  ( -0.000000000000000000, 3.717986712841047268E-17, 1.000000000000000000 ) ) ;
#217 = CARTESIAN_POINT ( 'NONE',  ( 6.574349024770971717, -1.413704375383367543E-20, 4.035913106217962287 ) ) ;
#218 = EDGE_CURVE ( 'NONE', #476, #54, #189, .T. ) ;
#219 = CALENDAR_DATE ( 2025, 1, 5 ) ;
#220 = CARTESIAN_POINT ( 'NONE',  ( 0.000000000000000000, 0.000000000000000000, 0.000000000000000000 ) ) ;
#221 = CARTESIAN_POINT ( 'NONE',  ( 7.000000000000000000, 9.885136134333363465E-16, -8.071826212435928127 ) ) ;
#222 = LINE ( 'NONE', #908, #774 ) ;
#223 = CARTESIAN_POINT ( 'NONE',  ( 6.452190185275375356, -3.907748402045436720, -1.043194488020609212 ) ) ;
#224 = EDGE_LOOP ( 'NONE', ( #541, #623, #511, #419, #331, #465 ) ) ;
#225 = DIRECTION ( 'NONE',  ( -1.000000000000000000, 0.000000000000000000, 1.273147965031489810E-16 ) ) ;
#226 = VECTOR ( 'NONE', #523, 1000.000000000000000 ) ;
#227 = CARTESIAN_POINT ( 'NONE',  ( 6.526577561136350347, -3.501085173093125391, 2.024859197558384505 ) ) ;
#228 = CIRCLE ( 'NONE', #835, 5.000000000000000888 ) ;
#229 = CARTESIAN_POINT ( 'NONE',  ( 0.4992887861329038390, 2.460749485394294833, 3.209800870455278510 ) ) ;
#230 = CARTESIAN_POINT ( 'NONE',  ( 0.000000000000000000, 26.00533071582424682, 0.000000000000000000 ) ) ;
#231 = CARTESIAN_POINT ( 'NONE',  ( 3.500000000000000444, 10.00533071582423972, -2.536335007355644322 ) ) ;
#232 = ORIENTED_EDGE ( 'NONE', *, *, #278, .F. ) ;
#233 = ORIENTED_EDGE ( 'NONE', *, *, #447, .T. ) ;
#234 = DIRECTION ( 'NONE',  ( 0.000000000000000000, 0.000000000000000000, 1.000000000000000000 ) ) ;
#235 = DIRECTION ( 'NONE',  ( 1.000000000000000000, -1.224646799147352961E-16, 0.000000000000000000 ) ) ;
#236 = CARTESIAN_POINT ( 'NONE',  ( 0.4797563071087108111, -1.769531761824702189E-21, 4.035913106217962287 ) ) ;
#237 = EDGE_CURVE ( 'NONE', #760, #476, #464, .T. ) ;
#238 = EDGE_CURVE ( 'NONE', #768, #495, #239, .T. ) ;
#239 = CIRCLE ( 'NONE', #103, 4.035913106217962287 ) ;
#240 = CARTESIAN_POINT ( 'NONE',  ( 7.000000000000000000, 9.885136134333363465E-16, -8.071826212435928127 ) ) ;
#241 = AXIS2_PLACEMENT_3D ( 'NONE', #631, #502, #726 ) ;
#242 = CARTESIAN_POINT ( 'NONE',  ( 0.5699836318145646841, 4.035834245548389099, 0.2643175542413033763 ) ) ;
#243 = CARTESIAN_POINT ( 'NONE',  ( 3.500000000000000000, 10.00533071582423972, -0.03633500735564492573 ) ) ;
#244 = PLANE ( 'NONE',  #471 ) ;
#245 = DIRECTION ( 'NONE',  ( 0.000000000000000000, 2.235468396877327937E-16, -1.000000000000000000 ) ) ;
#246 = CARTESIAN_POINT ( 'NONE',  ( 3.500000000000000000, 26.00533071582424682, -0.03633500735564492573 ) ) ;
#247 = EDGE_LOOP ( 'NONE', ( #441, #260, #208, #67 ) ) ;
#248 = DIRECTION ( 'NONE',  ( 0.4999999999999998890, 0.000000000000000000, -0.8660254037844387076 ) ) ;
#249 = CARTESIAN_POINT ( 'NONE',  ( 0.6513929271711554891, 2.666763373403637782, -3.041017206045645072 ) ) ;
#250 = EDGE_CURVE ( 'NONE', #196, #553, #179, .T. ) ;
#251 = EDGE_CURVE ( 'NONE', #685, #495, #525, .T. ) ;
#252 = CARTESIAN_POINT ( 'NONE',  ( 1.796816705890602606, 26.00533071582424682, 2.913664992644358520 ) ) ;
#253 = EDGE_LOOP ( 'NONE', ( #909, #204, #535, #288 ) ) ;
#254 = CARTESIAN_POINT ( 'NONE',  ( 0.000000000000000000, 30.00533071582424682, 4.463664992644359231 ) ) ;
#255 = DIRECTION ( 'NONE',  ( 0.4999999999999998890, 0.000000000000000000, -0.8660254037844387076 ) ) ;
#256 = CARTESIAN_POINT ( 'NONE',  ( 6.391145870809384455, 2.021728821776023644, -3.503109512102176026 ) ) ;
#257 = CARTESIAN_POINT ( 'NONE',  ( 0.5699369065884047902, -4.035715631872934139, 0.2662409848787546385 ) ) ;
#258 = DIRECTION ( 'NONE',  ( -0.5000000000000001110, 0.000000000000000000, -0.8660254037844385966 ) ) ;
#259 = ADVANCED_FACE ( 'NONE', ( #748 ), #388, .T. ) ;
#260 = ORIENTED_EDGE ( 'NONE', *, *, #184, .F. ) ;
#261 = CARTESIAN_POINT ( 'NONE',  ( 6.428058419784327349, 3.502916932312811760, -2.021836051679857249 ) ) ;
#262 = CARTESIAN_POINT ( 'NONE',  ( 0.09363341178120432318, 30.00533071582424682, -0.03633500735564392653 ) ) ;
#263 = EDGE_CURVE ( 'NONE', #476, #579, #891, .T. ) ;
#264 = CIRCLE ( 'NONE', #298, 2.499999999999999556 ) ;
#265 = ORIENTED_EDGE ( 'NONE', *, *, #92, .T. ) ;
#266 = CARTESIAN_POINT ( 'NONE',  ( 6.503018520661399293, 3.907192098882791953, 1.044795861786640412 ) ) ;
#267 = ORIENTED_EDGE ( 'NONE', *, *, #328, .T. ) ;
#268 = VECTOR ( 'NONE', #210, 1000.000000000000000 ) ;
#269 = CARTESIAN_POINT ( 'NONE',  ( 0.000000000000000000, 9.885136134333363465E-16, -8.071826212435928127 ) ) ;
#270 = ORIENTED_EDGE ( 'NONE', *, *, #847, .T. ) ;
#271 = CARTESIAN_POINT ( 'NONE',  ( 6.471195041110044066, 4.035898084389804019, -0.2667142600152159759 ) ) ;
#272 = DATE_AND_TIME ( #642, #721 ) ;
#273 = CARTESIAN_POINT ( 'NONE',  ( 1.796816705890602606, 26.00533071582424682, 2.913664992644358520 ) ) ;
#274 = ORIENTED_EDGE ( 'NONE', *, *, #780, .F. ) ;
#275 = LINE ( 'NONE', #784, #701 ) ;
#276 = COORDINATED_UNIVERSAL_TIME_OFFSET ( 1, 0, .AHEAD. ) ;
#277 = CARTESIAN_POINT ( 'NONE',  ( 6.433936013615543459, -3.629613487040065145, -1.784247299836807299 ) ) ;
#278 = EDGE_CURVE ( 'NONE', #106, #785, #684, .T. ) ;
#279 = DIRECTION ( 'NONE',  ( 0.000000000000000000, 1.000000000000000000, 0.000000000000000000 ) ) ;
#280 = CARTESIAN_POINT ( 'NONE',  ( 6.569480987992767140, 1.301007201388339141, 3.829507587476454589 ) ) ;
#281 = EDGE_CURVE ( 'NONE', #389, #691, #124, .T. ) ;
#282 = ORIENTED_EDGE ( 'NONE', *, *, #515, .F. ) ;
#283 = AXIS2_PLACEMENT_3D ( 'NONE', #17, #279, #728 ) ;
#284 = AXIS2_PLACEMENT_3D ( 'NONE', #90, #883, #818 ) ;
#285 = CARTESIAN_POINT ( 'NONE',  ( 6.428157338130385590, -3.505386489498264702, -2.017844413608970822 ) ) ;
#286 = ORIENTED_EDGE ( 'NONE', *, *, #98, .F. ) ;
#287 = CARTESIAN_POINT ( 'NONE',  ( 6.526507342892674757, 3.502851023119498475, 2.021925332656909990 ) ) ;
#288 = ORIENTED_EDGE ( 'NONE', *, *, #278, .T. ) ;
#289 = PERSON_AND_ORGANIZATION_ROLE ( 'design_owner' ) ;
#290 = CARTESIAN_POINT ( 'NONE',  ( 3.500000000000000000, 26.00533071582424682, -0.03633500735564492573 ) ) ;
#291 = ORIENTED_EDGE ( 'NONE', *, *, #281, .T. ) ;
#292 = DIRECTION ( 'NONE',  ( -0.8660254037844385966, 0.000000000000000000, 0.5000000000000003331 ) ) ;
#293 = EDGE_LOOP ( 'NONE', ( #368, #696, #707, #186 ) ) ;
#294 = CARTESIAN_POINT ( 'NONE',  ( 6.464922911041181663, -4.010570531312857234, -0.5235229955696050208 ) ) ;
#295 = VERTEX_POINT ( 'NONE', #540 ) ;
#296 = CARTESIAN_POINT ( 'NONE',  ( 1.796816705890601273, 30.00533071582424682, -2.986335007355649385 ) ) ;
#297 = ORIENTED_EDGE ( 'NONE', *, *, #781, .F. ) ;
#298 = AXIS2_PLACEMENT_3D ( 'NONE', #246, #185, #812 ) ;
#299 = DIRECTION ( 'NONE',  ( 0.000000000000000000, 0.000000000000000000, 1.000000000000000000 ) ) ;
#300 = CIRCLE ( 'NONE', #605, 8.071826212435928127 ) ;
#301 = CARTESIAN_POINT ( 'NONE',  ( 7.000000000000000000, 30.00533071582424682, -4.536335007355645210 ) ) ;
#302 = DIRECTION ( 'NONE',  ( 0.000000000000000000, 1.000000000000000000, 0.000000000000000000 ) ) ;
#303 = DIRECTION ( 'NONE',  ( -1.000000000000000000, -0.000000000000000000, -0.000000000000000000 ) ) ;
#304 = FACE_OUTER_BOUND ( 'NONE', #474, .T. ) ;
#305 = AXIS2_PLACEMENT_3D ( 'NONE', #873, #451, #234 ) ;
#306 = CARTESIAN_POINT ( 'NONE',  ( 0.5448988531160160464, 3.829338819600825339, 1.301480917832161799 ) ) ;
#307 = AXIS2_PLACEMENT_3D ( 'NONE', #273, #46, #319 ) ;
#308 = CARTESIAN_POINT ( 'NONE',  ( 3.527052665939840459, 0.000000000000000000, 5.071826212435923686 ) ) ;
#309 = FACE_OUTER_BOUND ( 'NONE', #483, .T. ) ;
#310 = CARTESIAN_POINT ( 'NONE',  ( 0.5827931149352807427, 4.035991605979985408, -0.2619037675947655242 ) ) ;
#311 = SPHERICAL_SURFACE ( 'NONE', #560, 5.000000000000000000 ) ;
#312 = ORIENTED_EDGE ( 'NONE', *, *, #781, .T. ) ;
#313 = ADVANCED_FACE ( 'NONE', ( #402 ), #690, .F. ) ;
#314 = CARTESIAN_POINT ( 'NONE',  ( 6.377750420873692150, 4.942558658601954510E-16, -4.035913106217962287 ) ) ;
#315 = ADVANCED_FACE ( 'NONE', ( #109 ), #311, .F. ) ;
#316 = DIRECTION ( 'NONE',  ( 1.000000000000000000, 0.000000000000000000, 0.000000000000000000 ) ) ;
#317 = LINE ( 'NONE', #191, #621 ) ;
#318 = VERTEX_POINT ( 'NONE', #815 ) ;
#319 = DIRECTION ( 'NONE',  ( 1.000000000000000000, 0.000000000000000000, 0.000000000000000000 ) ) ;
#320 = CARTESIAN_POINT ( 'NONE',  ( 6.906366588218795677, 26.00533071582424682, -0.03633500735564536288 ) ) ;
#321 = AXIS2_PLACEMENT_3D ( 'NONE', #561, #216, #577 ) ;
#322 = AXIS2_PLACEMENT_3D ( 'NONE', #741, #302, #387 ) ;
#323 = DIRECTION ( 'NONE',  ( -1.000000000000000000, -0.000000000000000000, -0.000000000000000000 ) ) ;
#324 = ORIENTED_EDGE ( 'NONE', *, *, #467, .F. ) ;
#325 = B_SPLINE_CURVE_WITH_KNOTS ( 'NONE', 3,
 ( #458, #695, #192, #51, #616, #767, #619, #129, #468, #843, #66, #611, #543, #411, #890, #390, #326, #257, #463, #479, #539, #200, #59, #751, #401, #627, #134, #699, #828, #337, #895, #906, #343, #550 ),
 .UNSPECIFIED., .F., .F.,
 ( 4, 2, 2, 2, 2, 2, 2, 2, 2, 2, 2, 2, 2, 2, 2, 2, 4 ),
 ( 0.02208271733650536001, 0.02287130531271582001, 0.02365989328892628002, 0.02444848126513674003, 0.02523706924134720003, 0.02602565721755766004, 0.02681424519376812005, 0.02760283316997858005, 0.02839142114618904006, 0.02918000912239950007, 0.02996859709860996007, 0.03075718507482042008, 0.03154577305103088009, 0.03233436102724134009, 0.03312294900345180010, 0.03391153697966226011, 0.03470012495587272011 ),
 .UNSPECIFIED. ) ;
#326 = CARTESIAN_POINT ( 'NONE',  ( 0.5827520322339091452, -4.036108334934710662, -0.2602199685714722821 ) ) ;
#327 = CARTESIAN_POINT ( 'NONE',  ( 0.000000000000000000, 6.676529270871762733, -4.536335007355644322 ) ) ;
#328 = EDGE_CURVE ( 'NONE', #106, #789, #317, .T. ) ;
#329 = ORIENTED_EDGE ( 'NONE', *, *, #29, .F. ) ;
#330 = CARTESIAN_POINT ( 'NONE',  ( 3.500000000000000000, 26.00533071582424682, 2.463664992644354790 ) ) ;
#331 = ORIENTED_EDGE ( 'NONE', *, *, #201, .T. ) ;
#332 = EDGE_CURVE ( 'NONE', #697, #863, #153, .T. ) ;
#333 = DIRECTION ( 'NONE',  ( -1.000000000000000000, 0.000000000000000000, 0.000000000000000000 ) ) ;
#334 = EDGE_LOOP ( 'NONE', ( #132, #646, #312, #575 ) ) ;
#335 = CARTESIAN_POINT ( 'NONE',  ( 6.490542117059483473, 4.009733695717793367, 0.5289462919842987665 ) ) ;
#336 = ORIENTED_EDGE ( 'NONE', *, *, #238, .F. ) ;
#337 = CARTESIAN_POINT ( 'NONE',  ( 0.4846217548679229159, -1.300965715920988197, 3.829616777246702242 ) ) ;
#338 = VECTOR ( 'NONE', #668, 1000.000000000000000 ) ;
#339 = ORIENTED_EDGE ( 'NONE', *, *, #263, .T. ) ;
#340 = CARTESIAN_POINT ( 'NONE',  ( 1.796816705890601273, 26.00533071582424682, -2.986335007355649385 ) ) ;
#341 = VERTEX_POINT ( 'NONE', #308 ) ;
#342 = AXIS2_PLACEMENT_3D ( 'NONE', #188, #21, #643 ) ;
#343 = CARTESIAN_POINT ( 'NONE',  ( 0.4797563071086019537, -0.2663564634515495633, 4.035913106217962287 ) ) ;
#344 = ORIENTED_EDGE ( 'NONE', *, *, #238, .T. ) ;
#345 = CARTESIAN_POINT ( 'NONE',  ( 7.000000000000000000, 30.00533071582424682, -4.536335007355645210 ) ) ;
#346 = SECURITY_CLASSIFICATION_LEVEL ( 'unclassified' ) ;
#347 = B_SPLINE_CURVE_WITH_KNOTS ( 'NONE', 3,
 ( #236, #811, #449, #378, #876, #661, #172, #229, #736, #99, #380, #737, #32, #306, #594, #40, #242, #310, #598, #798, #159, #727, #88, #606, #884, #249, #830, #456, #822, #118, #671, #677, #757, #896 ),
 .UNSPECIFIED., .F., .F.,
 ( 4, 2, 2, 2, 2, 2, 2, 2, 2, 2, 2, 2, 2, 2, 2, 2, 4 ),
 ( 0.009463082424169707435, 0.01025180960619068680, 0.01104053678821166444, 0.01182926397023264208, 0.01261799115225362145, 0.01340671833427459908, 0.01419544551629557672, 0.01498417269831655435, 0.01577289988033753199, 0.01656162706235850962, 0.01735035424437948726, 0.01813908142640046836, 0.01892780860842144600, 0.01971653579044242710, 0.02050526297246340474, 0.02129399015448438237, 0.02208271733650536001 ),
 .UNSPECIFIED. ) ;
#348 = EDGE_CURVE ( 'NONE', #352, #379, #602, .T. ) ;
#349 = CARTESIAN_POINT ( 'NONE',  ( 6.564721148153938479, -1.787643675014336964, 3.628046759652897801 ) ) ;
#350 = ADVANCED_FACE ( 'NONE', ( #48 ), #55, .T. ) ;
#351 = EDGE_CURVE ( 'NONE', #54, #720, #832, .T. ) ;
#352 = VERTEX_POINT ( 'NONE', #252 ) ;
#353 = LINE ( 'NONE', #841, #268 ) ;
#354 = APPROVAL_DATE_TIME ( #69, #620 ) ;
#355 = CARTESIAN_POINT ( 'NONE',  ( 6.391185320486450827, -2.024093789508996988, -3.501534463170508094 ) ) ;
#356 = CARTESIAN_POINT ( 'NONE',  ( 1.796816705890602606, 30.00533071582424682, 2.913664992644358520 ) ) ;
#357 = DIRECTION ( 'NONE',  ( 0.000000000000000000, 0.000000000000000000, 1.000000000000000000 ) ) ;
#358 = APPROVAL_DATE_TIME ( #842, #397 ) ;
#359 = AXIS2_PLACEMENT_3D ( 'NONE', #880, #245, #692 ) ;
#360 = CARTESIAN_POINT ( 'NONE',  ( 6.574349024770971717, -0.2631012394772239138, 4.035913106217963175 ) ) ;
#361 = ORIENTED_EDGE ( 'NONE', *, *, #201, .F. ) ;
#362 = DIRECTION ( 'NONE',  ( 0.000000000000000000, 0.000000000000000000, -1.000000000000000000 ) ) ;
#363 = EDGE_CURVE ( 'NONE', #760, #512, #678, .T. ) ;
#364 = EDGE_CURVE ( 'NONE', #318, #831, #530, .T. ) ;
#365 = DIRECTION ( 'NONE',  ( -0.000000000000000000, -1.000000000000000000, -0.000000000000000000 ) ) ;
#366 = DIRECTION ( 'NONE',  ( 1.000000000000000000, 0.000000000000000000, 0.000000000000000000 ) ) ;
#367 = DIRECTION ( 'NONE',  ( 1.000000000000000000, 0.000000000000000000, 0.000000000000000000 ) ) ;
#368 = ORIENTED_EDGE ( 'NONE', *, *, #250, .T. ) ;
#369 = CARTESIAN_POINT ( 'NONE',  ( 6.537021484749478084, -3.208950185148608192, 2.461765802919526180 ) ) ;
#370 = CYLINDRICAL_SURFACE ( 'NONE', #305, 4.035913106217962287 ) ;
#371 = PLANE ( 'NONE',  #65 ) ;
#372 = VECTOR ( 'NONE', #255, 1000.000000000000000 ) ;
#373 = CIRCLE ( 'NONE', #622, 8.071826212435928127 ) ;
#374 = PRODUCT ( 'Spherical-Joint_D\X2\00e9\X0\faut_sldprt', 'Spherical-Joint_D\X2\00e9\X0\faut_sldprt', '', ( #79 ) ) ;
#375 = CYLINDRICAL_SURFACE ( 'NONE', #93, 2.499999999999999556 ) ;
#376 = CARTESIAN_POINT ( 'NONE',  ( 0.000000000000000000, 30.00533071582424682, -4.536335007355645210 ) ) ;
#377 = EDGE_CURVE ( 'NONE', #897, #768, #386, .T. ) ;
#378 = CARTESIAN_POINT ( 'NONE',  ( 0.4827938856769293796, 1.045157960506182482, 3.907094947708587451 ) ) ;
#379 = VERTEX_POINT ( 'NONE', #120 ) ;
#380 = CARTESIAN_POINT ( 'NONE',  ( 0.5170450907774519766, 3.207901282954162880, 2.463386478427445958 ) ) ;
#381 = MANIFOLD_SOLID_BREP ( 'Enlèv. mat.-Extru.2', #886 ) ;
#382 = ORIENTED_EDGE ( 'NONE', *, *, #363, .T. ) ;
#383 = LOCAL_TIME ( 14, 41, 29.00000000000000000, #626 ) ;
#384 = DIRECTION ( 'NONE',  ( 0.000000000000000000, 0.000000000000000000, -1.000000000000000000 ) ) ;
#385 = B_SPLINE_CURVE_WITH_KNOTS ( 'NONE', 3,
 ( #181, #743, #460, #749, #609, #892, #256, #536, #824, #615, #898, #261, #195, #473, #126, #404, #271, #500, #335, #266, #76, #71, #287, #618, #408, #788, #547, #624, #776, #280, #150, #203, #477, #765 ),
 .UNSPECIFIED., .F., .F.,
 ( 4, 2, 2, 2, 2, 2, 2, 2, 2, 2, 2, 2, 2, 2, 2, 2, 4 ),
 ( 0.003156786521209976187, 0.003945716216602532071, 0.004734645911995087955, 0.005523575607387643839, 0.006312505302780200590, 0.007101434998172756474, 0.007890364693565311491, 0.008679294388957866507, 0.009468224084350424993, 0.01025715377974298001, 0.01104608347513553676, 0.01183501317052809178, 0.01262394286592064679, 0.01341287256131320355, 0.01420180225670575856, 0.01499073195209831358, 0.01577966164749087033 ),
 .UNSPECIFIED. ) ;
#386 = LINE ( 'NONE', #44, #338 ) ;
#387 = DIRECTION ( 'NONE',  ( 0.000000000000000000, 0.000000000000000000, 1.000000000000000000 ) ) ;
#388 = PLANE ( 'NONE',  #874 ) ;
#389 = VERTEX_POINT ( 'NONE', #686 ) ;
#390 = CARTESIAN_POINT ( 'NONE',  ( 0.5892820588410895288, -4.009958318125850241, -0.5275957702346257827 ) ) ;
#391 = DIRECTION ( 'NONE',  ( 0.000000000000000000, 0.000000000000000000, -1.000000000000000000 ) ) ;
#392 = DIRECTION ( 'NONE',  ( -0.000000000000000000, 1.000000000000000000, -0.000000000000000000 ) ) ;
#393 = DIRECTION ( 'NONE',  ( 1.000000000000000000, 0.000000000000000000, 0.000000000000000000 ) ) ;
#394 = DIRECTION ( 'NONE',  ( 1.000000000000000000, 0.000000000000000000, 0.000000000000000000 ) ) ;
#395 = VECTOR ( 'NONE', #428, 1000.000000000000000 ) ;
#396 = CIRCLE ( 'NONE', #322, 5.000000000000000000 ) ;
#397 = APPROVAL ( #496, 'UNSPECIFIED' ) ;
#398 = EDGE_LOOP ( 'NONE', ( #130, #725, #679, #462, #297, #157 ) ) ;
#399 = FACE_OUTER_BOUND ( 'NONE', #400, .T. ) ;
#400 = EDGE_LOOP ( 'NONE', ( #119, #801, #206, #693 ) ) ;
#401 = CARTESIAN_POINT ( 'NONE',  ( 0.5121754051538578434, -3.039955670941863364, 2.667681421736700198 ) ) ;
#402 = FACE_OUTER_BOUND ( 'NONE', #253, .T. ) ;
#403 = ORIENTED_EDGE ( 'NONE', *, *, #745, .T. ) ;
#404 = CARTESIAN_POINT ( 'NONE',  ( 6.464792150170085350, 4.009748165980425050, -0.5288673332124952386 ) ) ;
#405 = VERTEX_POINT ( 'NONE', #672 ) ;
#406 = PLANE ( 'NONE',  #307 ) ;
#407 = ORIENTED_EDGE ( 'NONE', *, *, #445, .F. ) ;
#408 = CARTESIAN_POINT ( 'NONE',  ( 6.541946635031955282, 3.039364046262136743, 2.668382545879098178 ) ) ;
#409 = ORIENTED_EDGE ( 'NONE', *, *, #674, .F. ) ;
#410 = COORDINATED_UNIVERSAL_TIME_OFFSET ( 1, 0, .AHEAD. ) ;
#411 = CARTESIAN_POINT ( 'NONE',  ( 0.6081406823369636117, -3.831163542554691048, -1.296431719803381233 ) ) ;
#412 = CIRCLE ( 'NONE', #581, 4.035913106217962287 ) ;
#413 = ORIENTED_EDGE ( 'NONE', *, *, #29, .T. ) ;
#414 = PLANE ( 'NONE',  #82 ) ;
#415 = VERTEX_POINT ( 'NONE', #330 ) ;
#416 = AXIS2_PLACEMENT_3D ( 'NONE', #25, #292, #670 ) ;
#417 = ADVANCED_FACE ( 'NONE', ( #399 ), #41, .T. ) ;
#418 = CARTESIAN_POINT ( 'NONE',  ( 6.381011276500389684, -1.047822108140562758, -3.906431303098430341 ) ) ;
#419 = ORIENTED_EDGE ( 'NONE', *, *, #549, .T. ) ;
#420 = DIRECTION ( 'NONE',  ( -0.000000000000000000, 1.000000000000000000, -0.000000000000000000 ) ) ;
#421 = DIRECTION ( 'NONE',  ( 1.000000000000000000, 0.000000000000000000, 0.000000000000000000 ) ) ;
#422 = CARTESIAN_POINT ( 'NONE',  ( 6.571295358320919711, -1.047944619625396534, 3.906412962766134811 ) ) ;
#423 = CARTESIAN_POINT ( 'NONE',  ( 5.203183294109396506, 26.00533071582424682, -2.986335007355649829 ) ) ;
#424 = DIRECTION ( 'NONE',  ( -1.273147965031489810E-16, 0.000000000000000000, -1.000000000000000000 ) ) ;
#425 = ORIENTED_EDGE ( 'NONE', *, *, #162, .F. ) ;
#426 = PERSON_AND_ORGANIZATION ( #854, #592 ) ;
#427 =( LENGTH_UNIT ( ) NAMED_UNIT ( * ) SI_UNIT ( .MILLI., .METRE. ) );
#428 = DIRECTION ( 'NONE',  ( -1.000000000000000000, -0.000000000000000000, -0.000000000000000000 ) ) ;
#429 = DIRECTION ( 'NONE',  ( 0.000000000000000000, 0.000000000000000000, -1.000000000000000000 ) ) ;
#430 = CC_DESIGN_DATE_AND_TIME_ASSIGNMENT ( #478, #133, ( #758 ) ) ;
#431 = PERSON_AND_ORGANIZATION ( #854, #592 ) ;
#432 = VECTOR ( 'NONE', #911, 1000.000000000000000 ) ;
#433 = CARTESIAN_POINT ( 'NONE',  ( 6.554804953746995011, -2.461311674853923659, 3.209312574874749302 ) ) ;
#434 = FACE_OUTER_BOUND ( 'NONE', #224, .T. ) ;
#435 = DIRECTION ( 'NONE',  ( -1.224646799147353207E-16, -1.000000000000000000, -0.000000000000000000 ) ) ;
#436 = DESIGN_CONTEXT ( 'detailed design', #613, 'design' ) ;
#437 = CARTESIAN_POINT ( 'NONE',  ( 6.378414499352214051, -0.5305873802364767799, -4.009565279187911280 ) ) ;
#438 = DIRECTION ( 'NONE',  ( 0.000000000000000000, 1.000000000000000000, 0.000000000000000000 ) ) ;
#439 = PLANE ( 'NONE',  #321 ) ;
#440 = LINE ( 'NONE', #813, #104 ) ;
#441 = ORIENTED_EDGE ( 'NONE', *, *, #589, .T. ) ;
#442 = ORIENTED_EDGE ( 'NONE', *, *, #498, .T. ) ;
#443 = CARTESIAN_POINT ( 'NONE',  ( 3.527052665939840903, 0.000000000000000000, 0.07182621243592354765 ) ) ;
#444 = FACE_BOUND ( 'NONE', #533, .T. ) ;
#445 = EDGE_CURVE ( 'NONE', #415, #809, #264, .T. ) ;
#446 = AXIS2_PLACEMENT_3D ( 'NONE', #230, #86, #787 ) ;
#447 = EDGE_CURVE ( 'NONE', #775, #450, #385, .T. ) ;
#448 = VECTOR ( 'NONE', #16, 1000.000000000000000 ) ;
#449 = CARTESIAN_POINT ( 'NONE',  ( 0.4803743817942889849, 0.5293269556094543082, 4.009683162905098186 ) ) ;
#450 = VERTEX_POINT ( 'NONE', #217 ) ;
#451 = DIRECTION ( 'NONE',  ( -1.000000000000000000, -0.000000000000000000, -0.000000000000000000 ) ) ;
#452 = CARTESIAN_POINT ( 'NONE',  ( 7.000000000000000000, 0.000000000000000000, 4.035913106217962287 ) ) ;
#453 = DIRECTION ( 'NONE',  ( 0.000000000000000000, 0.000000000000000000, 1.000000000000000000 ) ) ;
#454 = DIRECTION ( 'NONE',  ( 0.000000000000000000, 0.000000000000000000, -1.000000000000000000 ) ) ;
#455 = CIRCLE ( 'NONE', #122, 2.499999999999999556 ) ;
#456 = CARTESIAN_POINT ( 'NONE',  ( 0.6629089548668345433, 2.024860797336260010, -3.501093661722235684 ) ) ;
#457 = CARTESIAN_POINT ( 'NONE',  ( 0.09363341178120432318, 26.00533071582424682, -0.03633500735564392653 ) ) ;
#458 = CARTESIAN_POINT ( 'NONE',  ( 0.6763549110059882130, 4.942566095856351189E-16, -4.035913106217962287 ) ) ;
#459 = LINE ( 'NONE', #742, #580 ) ;
#460 = CARTESIAN_POINT ( 'NONE',  ( 6.378394112842165953, 0.5253512991213026284, -4.010374641282417940 ) ) ;
#461 = ORIENTED_EDGE ( 'NONE', *, *, #847, .F. ) ;
#462 = ORIENTED_EDGE ( 'NONE', *, *, #281, .F. ) ;
#463 = CARTESIAN_POINT ( 'NONE',  ( 0.5635868193922073388, -4.010015736667692288, 0.5279676236728827465 ) ) ;
#464 = LINE ( 'NONE', #601, #372 ) ;
#465 = ORIENTED_EDGE ( 'NONE', *, *, #827, .T. ) ;
#466 = CARTESIAN_POINT ( 'NONE',  ( 1.796816705890602606, 26.00533071582424682, 2.913664992644358520 ) ) ;
#467 = EDGE_CURVE ( 'NONE', #553, #196, #412, .T. ) ;
#468 = CARTESIAN_POINT ( 'NONE',  ( 0.6513724118790745754, -2.667747842258473945, -3.040196542286014214 ) ) ;
#469 = DIRECTION ( 'NONE',  ( -1.000000000000000000, -0.000000000000000000, -0.000000000000000000 ) ) ;
#470 = AXIS2_PLACEMENT_3D ( 'NONE', #243, #113, #885 ) ;
#471 = AXIS2_PLACEMENT_3D ( 'NONE', #524, #719, #362 ) ;
#472 = ORIENTED_EDGE ( 'NONE', *, *, #115, .T. ) ;
#473 = CARTESIAN_POINT ( 'NONE',  ( 6.445843177709627447, 3.829488392906227112, -1.301367770469082474 ) ) ;
#474 = EDGE_LOOP ( 'NONE', ( #744, #687, #902, #899 ) ) ;
#475 = CARTESIAN_POINT ( 'NONE',  ( 3.500000000000000444, 26.00533071582424682, -2.536335007355644322 ) ) ;
#476 = VERTEX_POINT ( 'NONE', #61 ) ;
#477 = CARTESIAN_POINT ( 'NONE',  ( 6.574349024770972605, 0.2632798975705608613, 4.035913106217962287 ) ) ;
#478 = DATE_AND_TIME ( #219, #37 ) ;
#479 = CARTESIAN_POINT ( 'NONE',  ( 0.5510011140627554260, -3.906399293361514591, 1.048341824403659084 ) ) ;
#480 = EDGE_LOOP ( 'NONE', ( #1, #329, #614, #45 ) ) ;
#481 = CARTESIAN_POINT ( 'NONE',  ( 5.203183294109396506, 26.00533071582424682, -2.986335007355649829 ) ) ;
#482 = ADVANCED_FACE ( 'NONE', ( #552 ), #851, .F. ) ;
#483 = EDGE_LOOP ( 'NONE', ( #714, #548, #160, #339 ) ) ;
#484 = CARTESIAN_POINT ( 'NONE',  ( 6.382930553470076873, -1.299333441080182228, -3.830177920252483048 ) ) ;
#485 = AXIS2_PLACEMENT_3D ( 'NONE', #752, #316, #391 ) ;
#486 = ORIENTED_EDGE ( 'NONE', *, *, #515, .T. ) ;
#487 = FACE_OUTER_BOUND ( 'NONE', #247, .T. ) ;
#488 = ORIENTED_EDGE ( 'NONE', *, *, #162, .T. ) ;
#489 = AXIS2_PLACEMENT_3D ( 'NONE', #131, #420, #357 ) ;
#490 = CC_DESIGN_APPROVAL ( #397, ( #758 ) ) ;
#491 = COORDINATED_UNIVERSAL_TIME_OFFSET ( 1, 0, .AHEAD. ) ;
#492 = CARTESIAN_POINT ( 'NONE',  ( 6.550847982816258686, -2.664997365759897097, 3.042563998041190487 ) ) ;
#493 = ORIENTED_EDGE ( 'NONE', *, *, #858, .T. ) ;
#494 = CARTESIAN_POINT ( 'NONE',  ( 5.203183294109396506, 26.00533071582424682, -2.986335007355649829 ) ) ;
#495 = VERTEX_POINT ( 'NONE', #58 ) ;
#496 = APPROVAL_STATUS ( 'not_yet_approved' ) ;
#497 = CARTESIAN_POINT ( 'NONE',  ( 6.417172299698692406, -3.210046992563771351, -2.460696816721266611 ) ) ;
#498 = EDGE_CURVE ( 'NONE', #831, #379, #222, .T. ) ;
#499 = PLANE ( 'NONE',  #446 ) ;
#500 = CARTESIAN_POINT ( 'NONE',  ( 6.484169046906246514, 4.035928115232696456, 0.2662594463131743860 ) ) ;
#501 = EDGE_LOOP ( 'NONE', ( #110, #232, #546, #563 ) ) ;
#502 = DIRECTION ( 'NONE',  ( -1.000000000000000000, -0.000000000000000000, -0.000000000000000000 ) ) ;
#503 = LINE ( 'NONE', #356, #681 ) ;
#504 = LINE ( 'NONE', #794, #640 ) ;
#505 = VECTOR ( 'NONE', #869, 1000.000000000000000 ) ;
#506 = AXIS2_PLACEMENT_3D ( 'NONE', #698, #146, #837 ) ;
#507 = CARTESIAN_POINT ( 'NONE',  ( 6.520934415953195007, -3.627236412088591599, 1.789367457287414087 ) ) ;
#508 = LINE ( 'NONE', #240, #637 ) ;
#509 = DIRECTION ( 'NONE',  ( -0.000000000000000000, 1.000000000000000000, -0.000000000000000000 ) ) ;
#510 = CARTESIAN_POINT ( 'NONE',  ( 7.000000000000000000, 0.000000000000000000, 0.000000000000000000 ) ) ;
#511 = ORIENTED_EDGE ( 'NONE', *, *, #522, .T. ) ;
#512 = VERTEX_POINT ( 'NONE', #68 ) ;
#513 = CARTESIAN_POINT ( 'NONE',  ( 3.500000000000000000, 10.00533071582423972, -0.03633500735564492573 ) ) ;
#514 = CARTESIAN_POINT ( 'NONE',  ( 5.203183294109396506, 30.00533071582424682, -2.986335007355649829 ) ) ;
#515 = EDGE_CURVE ( 'NONE', #789, #5, #180, .T. ) ;
#516 = ADVANCED_FACE ( 'NONE', ( #703 ), #12, .F. ) ;
#517 = DIRECTION ( 'NONE',  ( 1.000000000000000000, 0.000000000000000000, 0.000000000000000000 ) ) ;
#518 = ORIENTED_EDGE ( 'NONE', *, *, #808, .T. ) ;
#519 = DIRECTION ( 'NONE',  ( -0.000000000000000000, -1.000000000000000000, -2.235468396877327937E-16 ) ) ;
#520 = EDGE_CURVE ( 'NONE', #730, #106, #353, .T. ) ;
#521 = DIRECTION ( 'NONE',  ( -0.000000000000000000, 1.000000000000000000, -0.000000000000000000 ) ) ;
#522 = EDGE_CURVE ( 'NONE', #54, #405, #207, .T. ) ;
#523 = DIRECTION ( 'NONE',  ( -0.000000000000000000, 1.000000000000000000, -0.000000000000000000 ) ) ;
#524 = CARTESIAN_POINT ( 'NONE',  ( 0.000000000000000000, 0.000000000000000000, 0.000000000000000000 ) ) ;
#525 = LINE ( 'NONE', #819, #603 ) ;
#526 = CARTESIAN_POINT ( 'NONE',  ( 3.527052665939840903, 0.000000000000000000, 0.07182621243592354765 ) ) ;
#527 = LINE ( 'NONE', #862, #740 ) ;
#528 = VECTOR ( 'NONE', #597, 1000.000000000000000 ) ;
#529 = DIRECTION ( 'NONE',  ( 0.000000000000000000, 0.000000000000000000, -1.000000000000000000 ) ) ;
#530 = LINE ( 'NONE', #457, #833 ) ;
#531 = LINE ( 'NONE', #604, #95 ) ;
#532 = CARTESIAN_POINT ( 'NONE',  ( 6.906366588218795677, 26.00533071582424682, -0.03633500735564536288 ) ) ;
#533 = EDGE_LOOP ( 'NONE', ( #344, #265 ) ) ;
#534 = ADVANCED_FACE ( 'NONE', ( #6, #769 ), #414, .F. ) ;
#535 = ORIENTED_EDGE ( 'NONE', *, *, #328, .F. ) ;
#536 = CARTESIAN_POINT ( 'NONE',  ( 6.398539900783004164, 2.463454461241513460, -3.207889617797016424 ) ) ;
#537 = ORIENTED_EDGE ( 'NONE', *, *, #607, .T. ) ;
#538 = ORIENTED_EDGE ( 'NONE', *, *, #348, .T. ) ;
#539 = CARTESIAN_POINT ( 'NONE',  ( 0.5448613101308737994, -3.828804610617225102, 1.303039863892788253 ) ) ;
#540 = CARTESIAN_POINT ( 'NONE',  ( 0.000000000000000000, 0.000000000000000000, 8.071826212435928127 ) ) ;
#541 = ORIENTED_EDGE ( 'NONE', *, *, #237, .T. ) ;
#542 = CARTESIAN_POINT ( 'NONE',  ( 5.203183294109397394, 26.00533071582424682, 2.913664992644358520 ) ) ;
#543 = CARTESIAN_POINT ( 'NONE',  ( 0.6201962181345946901, -3.629202786680469472, -1.785339303063500971 ) ) ;
#544 = AXIS2_PLACEMENT_3D ( 'NONE', #443, #438, #23 ) ;
#545 = AXIS2_PLACEMENT_3D ( 'NONE', #715, #857, #421 ) ;
#546 = ORIENTED_EDGE ( 'NONE', *, *, #520, .F. ) ;
#547 = CARTESIAN_POINT ( 'NONE',  ( 6.554771310113534533, 2.463414343447037691, 3.207892860141663416 ) ) ;
#548 = ORIENTED_EDGE ( 'NONE', *, *, #351, .F. ) ;
#549 = EDGE_CURVE ( 'NONE', #405, #318, #275, .T. ) ;
#550 = CARTESIAN_POINT ( 'NONE',  ( 0.4797563071087108111, -1.769531761824702189E-21, 4.035913106217962287 ) ) ;
#551 = ORIENTED_EDGE ( 'NONE', *, *, #827, .F. ) ;
#552 = FACE_OUTER_BOUND ( 'NONE', #558, .T. ) ;
#553 = VERTEX_POINT ( 'NONE', #846 ) ;
#554 = PERSON_AND_ORGANIZATION_ROLE ( 'design_supplier' ) ;
#555 = FACE_OUTER_BOUND ( 'NONE', #56, .T. ) ;
#556 = EDGE_LOOP ( 'NONE', ( #413, #73 ) ) ;
#557 = DIRECTION ( 'NONE',  ( -0.4999999999999995559, 0.000000000000000000, 0.8660254037844389297 ) ) ;
#558 = EDGE_LOOP ( 'NONE', ( #617, #882, #407, #409 ) ) ;
#559 = DIRECTION ( 'NONE',  ( 0.000000000000000000, 0.000000000000000000, -1.000000000000000000 ) ) ;
#560 = AXIS2_PLACEMENT_3D ( 'NONE', #526, #761, #595 ) ;
#561 = CARTESIAN_POINT ( 'NONE',  ( 7.000000000000000000, 6.676529270871762733, -4.536335007355644322 ) ) ;
#562 = DIRECTION ( 'NONE',  ( -0.4999999999999995559, 0.000000000000000000, 0.8660254037844389297 ) ) ;
#563 = ORIENTED_EDGE ( 'NONE', *, *, #171, .T. ) ;
#564 = AXIS2_PLACEMENT_3D ( 'NONE', #220, #864, #559 ) ;
#565 = ADVANCED_FACE ( 'NONE', ( #487 ), #633, .F. ) ;
#566 = APPROVAL_STATUS ( 'not_yet_approved' ) ;
#567 = LINE ( 'NONE', #705, #35 ) ;
#568 = APPLICATION_CONTEXT ( 'configuration controlled 3d designs of mechanical parts and assemblies' ) ;
#569 = DIRECTION ( 'NONE',  ( 0.000000000000000000, 0.000000000000000000, 1.000000000000000000 ) ) ;
#570 = DIRECTION ( 'NONE',  ( -1.000000000000000000, 0.000000000000000000, 1.273147965031489810E-16 ) ) ;
#571 = PERSON_AND_ORGANIZATION ( #854, #592 ) ;
#572 = CARTESIAN_POINT ( 'NONE',  ( 6.377750420873692150, 4.942558658601954510E-16, -4.035913106217962287 ) ) ;
#573 = FACE_OUTER_BOUND ( 'NONE', #739, .T. ) ;
#574 = CARTESIAN_POINT ( 'NONE',  ( 7.000000000000000000, 0.000000000000000000, 0.000000000000000000 ) ) ;
#575 = ORIENTED_EDGE ( 'NONE', *, *, #31, .F. ) ;
#576 = CARTESIAN_POINT ( 'NONE',  ( 6.412071026672764518, -3.041963330175076141, -2.665722704165935486 ) ) ;
#577 = DIRECTION ( 'NONE',  ( 0.000000000000000000, -1.000000000000000000, 3.717986712841047268E-17 ) ) ;
#578 = DIRECTION ( 'NONE',  ( 0.000000000000000000, 0.000000000000000000, 1.000000000000000000 ) ) ;
#579 = VERTEX_POINT ( 'NONE', #639 ) ;
#580 = VECTOR ( 'NONE', #108, 1000.000000000000114 ) ;
#581 = AXIS2_PLACEMENT_3D ( 'NONE', #713, #136, #429 ) ;
#582 = ORIENTED_EDGE ( 'NONE', *, *, #871, .T. ) ;
#583 =( NAMED_UNIT ( * ) PLANE_ANGLE_UNIT ( ) SI_UNIT ( $, .RADIAN. ) );
#584 = LINE ( 'NONE', #659, #213 ) ;
#585 = ADVANCED_FACE ( 'NONE', ( #856 ), #371, .F. ) ;
#586 = EDGE_CURVE ( 'NONE', #691, #785, #166, .T. ) ;
#587 = CARTESIAN_POINT ( 'NONE',  ( 0.000000000000000000, 0.000000000000000000, 0.000000000000000000 ) ) ;
#588 = DIRECTION ( 'NONE',  ( 0.000000000000000000, 0.000000000000000000, 1.000000000000000000 ) ) ;
#589 = EDGE_CURVE ( 'NONE', #720, #680, #527, .T. ) ;
#590 = LINE ( 'NONE', #452, #33 ) ;
#591 = VECTOR ( 'NONE', #392, 1000.000000000000000 ) ;
#592 = ORGANIZATION ( 'UNSPECIFIED', 'UNSPECIFIED', '' ) ;
#593 = CC_DESIGN_PERSON_AND_ORGANIZATION_ASSIGNMENT ( #426, #766, ( #758 ) ) ;
#594 = CARTESIAN_POINT ( 'NONE',  ( 0.5510171779662507152, 3.906613558249417917, 1.047675111474291265 ) ) ;
#595 = DIRECTION ( 'NONE',  ( -1.000000000000000000, 0.000000000000000000, 0.000000000000000000 ) ) ;
#596 = ORIENTED_EDGE ( 'NONE', *, *, #377, .F. ) ;
#597 = DIRECTION ( 'NONE',  ( 0.000000000000000000, 0.000000000000000000, 1.000000000000000000 ) ) ;
#598 = CARTESIAN_POINT ( 'NONE',  ( 0.5893182737583426700, 4.009784795351253983, -0.5290776495807902879 ) ) ;
#599 = DIRECTION ( 'NONE',  ( -0.000000000000000000, 1.000000000000000000, -0.000000000000000000 ) ) ;
#600 = PLANE ( 'NONE',  #416 ) ;
#601 = CARTESIAN_POINT ( 'NONE',  ( 5.203183294109397394, 26.00533071582424682, 2.913664992644358520 ) ) ;
#602 = LINE ( 'NONE', #466, #226 ) ;
#603 = VECTOR ( 'NONE', #469, 1000.000000000000000 ) ;
#604 = CARTESIAN_POINT ( 'NONE',  ( 7.000000000000000000, 6.676529270871762733, -4.536335007355644322 ) ) ;
#605 = AXIS2_PLACEMENT_3D ( 'NONE', #510, #367, #454 ) ;
#606 = CARTESIAN_POINT ( 'NONE',  ( 0.6369352851698659723, 3.209726485024861464, -2.460782403535362040 ) ) ;
#607 = EDGE_CURVE ( 'NONE', #897, #341, #396, .T. ) ;
#608 = EDGE_CURVE ( 'NONE', #57, #753, #300, .T. ) ;
#609 = CARTESIAN_POINT ( 'NONE',  ( 6.382947874638805530, 1.301061768962288756, -3.829488727353236310 ) ) ;
#610 = EDGE_LOOP ( 'NONE', ( #291, #669, #461, #13 ) ) ;
#611 = CARTESIAN_POINT ( 'NONE',  ( 0.6260382771953505454, -3.503042847625663203, -2.021485801335920485 ) ) ;
#612 = DIRECTION ( 'NONE',  ( 0.000000000000000000, 1.000000000000000000, -3.717986712841047268E-17 ) ) ;
#613 = APPLICATION_CONTEXT ( 'configuration controlled 3d designs of mechanical parts and assemblies' ) ;
#614 = ORIENTED_EDGE ( 'NONE', *, *, #674, .T. ) ;
#615 = CARTESIAN_POINT ( 'NONE',  ( 6.412002148421868775, 3.039261863608897496, -2.668485572802194561 ) ) ;
#616 = CARTESIAN_POINT ( 'NONE',  ( 0.6711612766293048038, -1.300597950481518827, -3.829640532178059775 ) ) ;
#617 = ORIENTED_EDGE ( 'NONE', *, *, #332, .F. ) ;
#618 = CARTESIAN_POINT ( 'NONE',  ( 6.536993120509222877, 3.209940005510088401, 2.460575644444803256 ) ) ;
#619 = CARTESIAN_POINT ( 'NONE',  ( 0.6629867630647597876, -2.019924095335589698, -3.504198534139544741 ) ) ;
#620 = APPROVAL ( #63, 'UNSPECIFIED' ) ;
#621 = VECTOR ( 'NONE', #878, 1000.000000000000000 ) ;
#622 = AXIS2_PLACEMENT_3D ( 'NONE', #117, #393, #123 ) ;
#623 = ORIENTED_EDGE ( 'NONE', *, *, #218, .T. ) ;
#624 = CARTESIAN_POINT ( 'NONE',  ( 6.561758705440119854, 2.022264321230061057, 3.502775163313852858 ) ) ;
#625 = ORIENTED_EDGE ( 'NONE', *, *, #251, .T. ) ;
#626 = COORDINATED_UNIVERSAL_TIME_OFFSET ( 1, 0, .AHEAD. ) ;
#627 = CARTESIAN_POINT ( 'NONE',  ( 0.5033214069259718260, -2.667778748559453739, 3.039870260044875039 ) ) ;
#628 = ORIENTED_EDGE ( 'NONE', *, *, #858, .F. ) ;
#629 = DIRECTION ( 'NONE',  ( 0.000000000000000000, -1.000000000000000000, 0.000000000000000000 ) ) ;
#630 = APPROVAL_ROLE ( '' ) ;
#631 = CARTESIAN_POINT ( 'NONE',  ( 7.000000000000000000, 0.000000000000000000, 0.000000000000000000 ) ) ;
#632 = ORIENTED_EDGE ( 'NONE', *, *, #607, .F. ) ;
#633 = PLANE ( 'NONE',  #734 ) ;
#634 = PERSON_AND_ORGANIZATION ( #854, #592 ) ;
#635 = CARTESIAN_POINT ( 'NONE',  ( 6.445911642486739979, -3.830315393745393315, -1.298582487451280132 ) ) ;
#636 = EDGE_CURVE ( 'NONE', #579, #720, #440, .T. ) ;
#637 = VECTOR ( 'NONE', #303, 1000.000000000000000 ) ;
#638 = DIRECTION ( 'NONE',  ( 0.000000000000000000, 0.000000000000000000, -1.000000000000000000 ) ) ;
#639 = CARTESIAN_POINT ( 'NONE',  ( 6.906366588218795677, 30.00533071582424682, -0.03633500735564492573 ) ) ;
#640 = VECTOR ( 'NONE', #39, 1000.000000000000000 ) ;
#641 = CC_DESIGN_APPROVAL ( #620, ( #34 ) ) ;
#642 = CALENDAR_DATE ( 2025, 1, 5 ) ;
#643 = DIRECTION ( 'NONE',  ( 1.000000000000000000, -1.224646799147352961E-16, 0.000000000000000000 ) ) ;
#644 = CARTESIAN_POINT ( 'NONE',  ( 7.000000000000000000, 0.000000000000000000, 8.071826212435928127 ) ) ;
#645 = DIRECTION ( 'NONE',  ( -1.000000000000000000, -0.000000000000000000, -0.000000000000000000 ) ) ;
#646 = ORIENTED_EDGE ( 'NONE', *, *, #116, .T. ) ;
#647 = CALENDAR_DATE ( 2025, 1, 5 ) ;
#648 = CARTESIAN_POINT ( 'NONE',  ( 6.484131773886995909, -4.035821310790876026, 0.2647318194860317497 ) ) ;
#649 = LINE ( 'NONE', #19, #806 ) ;
#650 = DIRECTION ( 'NONE',  ( -0.5000000000000001110, 0.000000000000000000, -0.8660254037844385966 ) ) ;
#651 = EDGE_LOOP ( 'NONE', ( #823, #893 ) ) ;
#652 = CARTESIAN_POINT ( 'NONE',  ( 6.388013920020039649, -1.788023267197018429, -3.627878593318829559 ) ) ;
#653 = EDGE_CURVE ( 'NONE', #295, #826, #657, .T. ) ;
#654 = FACE_OUTER_BOUND ( 'NONE', #480, .T. ) ;
#655 = DIRECTION ( 'NONE',  ( 0.8660254037844387076, 0.000000000000000000, 0.4999999999999998890 ) ) ;
#656 = AXIS2_PLACEMENT_3D ( 'NONE', #712, #75, #569 ) ;
#657 = CIRCLE ( 'NONE', #10, 8.071826212435928127 ) ;
#658 = EDGE_LOOP ( 'NONE', ( #286, #282, #887, #764 ) ) ;
#659 = CARTESIAN_POINT ( 'NONE',  ( 1.796816705890601273, 26.00533071582424682, -2.986335007355649385 ) ) ;
#660 = CARTESIAN_POINT ( 'NONE',  ( 7.000000000000000000, 6.725330715824242134, 4.463664992644353902 ) ) ;
#661 = CARTESIAN_POINT ( 'NONE',  ( 0.4894152365247133041, 1.790394863511977297, 3.626733187709546780 ) ) ;
#662 = PRODUCT_DEFINITION ( 'UNKNOWN', '', #34, #436 ) ;
#663 = CARTESIAN_POINT ( 'NONE',  ( 7.000000000000000000, 0.000000000000000000, 0.000000000000000000 ) ) ;
#664 = VECTOR ( 'NONE', #599, 1000.000000000000000 ) ;
#665 = CIRCLE ( 'NONE', #683, 8.071826212435928127 ) ;
#666 = CC_DESIGN_SECURITY_CLASSIFICATION ( #758, ( #34 ) ) ;
#667 = DIRECTION ( 'NONE',  ( -1.000000000000000000, -0.000000000000000000, -0.000000000000000000 ) ) ;
#668 = DIRECTION ( 'NONE',  ( -1.000000000000000000, -0.000000000000000000, -0.000000000000000000 ) ) ;
#669 = ORIENTED_EDGE ( 'NONE', *, *, #171, .F. ) ;
#670 = DIRECTION ( 'NONE',  ( 0.5000000000000002220, 0.000000000000000000, 0.8660254037844384856 ) ) ;
#671 = CARTESIAN_POINT ( 'NONE',  ( 0.6730922585143758186, 1.048050858826472753, -3.906359904079502066 ) ) ;
#672 = CARTESIAN_POINT ( 'NONE',  ( 1.796816705890601273, 26.00533071582424682, -2.986335007355649385 ) ) ;
#673 = ORIENTED_EDGE ( 'NONE', *, *, #498, .F. ) ;
#674 = EDGE_CURVE ( 'NONE', #863, #415, #504, .T. ) ;
#675 = ADVANCED_FACE ( 'NONE', ( #309 ), #879, .F. ) ;
#676 = CARTESIAN_POINT ( 'NONE',  ( 3.527052665939840903, 0.000000000000000000, 0.07182621243592354765 ) ) ;
#677 = CARTESIAN_POINT ( 'NONE',  ( 0.6756888178674287371, 0.5311176323012696265, -4.009485299080868259 ) ) ;
#678 = LINE ( 'NONE', #542, #664 ) ;
#679 = ORIENTED_EDGE ( 'NONE', *, *, #586, .F. ) ;
#680 = VERTEX_POINT ( 'NONE', #296 ) ;
#681 = VECTOR ( 'NONE', #723, 1000.000000000000000 ) ;
#682 = DIRECTION ( 'NONE',  ( 0.000000000000000000, -1.000000000000000000, 0.000000000000000000 ) ) ;
#683 = AXIS2_PLACEMENT_3D ( 'NONE', #574, #868, #161 ) ;
#684 = LINE ( 'NONE', #52, #733 ) ;
#685 = VERTEX_POINT ( 'NONE', #177 ) ;
#686 = CARTESIAN_POINT ( 'NONE',  ( 0.000000000000000000, 6.676529270871762733, -4.536335007355644322 ) ) ;
#687 = ORIENTED_EDGE ( 'NONE', *, *, #198, .F. ) ;
#688 = ADVANCED_FACE ( 'NONE', ( #182, #444 ), #244, .F. ) ;
#689 = DIRECTION ( 'NONE',  ( -0.4999999999999995559, 0.000000000000000000, 0.8660254037844389297 ) ) ;
#690 = PLANE ( 'NONE',  #359 ) ;
#691 = VERTEX_POINT ( 'NONE', #376 ) ;
#692 = DIRECTION ( 'NONE',  ( 0.000000000000000000, 1.000000000000000000, 2.235468396877327937E-16 ) ) ;
#693 = ORIENTED_EDGE ( 'NONE', *, *, #653, .T. ) ;
#694 = ADVANCED_FACE ( 'NONE', ( #866 ), #729, .F. ) ;
#695 = CARTESIAN_POINT ( 'NONE',  ( 0.6763549110059879910, -0.2635095880379735855, -4.035913106217962287 ) ) ;
#696 = ORIENTED_EDGE ( 'NONE', *, *, #877, .T. ) ;
#697 = VERTEX_POINT ( 'NONE', #231 ) ;
#698 = CARTESIAN_POINT ( 'NONE',  ( 7.000000000000000000, 0.000000000000000000, 0.000000000000000000 ) ) ;
#699 = CARTESIAN_POINT ( 'NONE',  ( 0.4923346602174926145, -2.021199489073565392, 3.503281821327980161 ) ) ;
#700 = AXIS2_PLACEMENT_3D ( 'NONE', #820, #323, #881 ) ;
#701 = VECTOR ( 'NONE', #557, 1000.000000000000000 ) ;
#702 = EDGE_LOOP ( 'NONE', ( #77, #62, #551, #538 ) ) ;
#703 = FACE_OUTER_BOUND ( 'NONE', #770, .T. ) ;
#704 = PERSON_AND_ORGANIZATION_ROLE ( 'creator' ) ;
#705 = CARTESIAN_POINT ( 'NONE',  ( 7.000000000000000000, 4.942568067166679760E-16, -4.035913106217962287 ) ) ;
#706 = PRODUCT_DEFINITION_SHAPE ( 'NONE', 'NONE',  #662 ) ;
#707 = ORIENTED_EDGE ( 'NONE', *, *, #871, .F. ) ;
#708 = DIRECTION ( 'NONE',  ( -0.8660254037844389297, 0.000000000000000000, -0.4999999999999995559 ) ) ;
#709 = CALENDAR_DATE ( 2025, 1, 5 ) ;
#710 = ADVANCED_FACE ( 'NONE', ( #18 ), #600, .F. ) ;
#711 = CARTESIAN_POINT ( 'NONE',  ( 6.573729448099636663, -0.5302857667258896734, 4.009619329447255076 ) ) ;
#712 = CARTESIAN_POINT ( 'NONE',  ( 7.000000000000000000, 0.000000000000000000, 0.000000000000000000 ) ) ;
#713 = CARTESIAN_POINT ( 'NONE',  ( 7.000000000000000000, 0.000000000000000000, 0.000000000000000000 ) ) ;
#714 = ORIENTED_EDGE ( 'NONE', *, *, #636, .T. ) ;
#715 = CARTESIAN_POINT ( 'NONE',  ( 0.000000000000000000, 0.000000000000000000, 0.000000000000000000 ) ) ;
#716 = CARTESIAN_POINT ( 'NONE',  ( 3.500000000000000000, 10.00533071582423972, 2.463664992644354790 ) ) ;
#717 = AXIS2_PLACEMENT_3D ( 'NONE', #865, #517, #384 ) ;
#718 = CARTESIAN_POINT ( 'NONE',  ( 7.000000000000000000, 0.000000000000000000, 0.000000000000000000 ) ) ;
#719 = DIRECTION ( 'NONE',  ( 1.000000000000000000, 0.000000000000000000, 0.000000000000000000 ) ) ;
#720 = VERTEX_POINT ( 'NONE', #514 ) ;
#721 = LOCAL_TIME ( 14, 41, 29.00000000000000000, #276 ) ;
#722 = CARTESIAN_POINT ( 'NONE',  ( 6.503113208772010267, -3.906171135754997970, 1.048718317423382063 ) ) ;
#723 = DIRECTION ( 'NONE',  ( 1.000000000000000000, 0.000000000000000000, 0.000000000000000000 ) ) ;
#724 = CARTESIAN_POINT ( 'NONE',  ( 5.203183294109397394, 26.00533071582424682, 2.913664992644358520 ) ) ;
#725 = ORIENTED_EDGE ( 'NONE', *, *, #163, .F. ) ;
#726 = DIRECTION ( 'NONE',  ( 0.000000000000000000, 0.000000000000000000, 1.000000000000000000 ) ) ;
#727 = CARTESIAN_POINT ( 'NONE',  ( 0.6202307361682414255, 3.628493625525072819, -1.786735598920538459 ) ) ;
#728 = DIRECTION ( 'NONE',  ( 0.000000000000000000, 0.000000000000000000, 1.000000000000000000 ) ) ;
#729 = CYLINDRICAL_SURFACE ( 'NONE', #817, 4.035913106217962287 ) ;
#730 = VERTEX_POINT ( 'NONE', #800 ) ;
#731 = DIRECTION ( 'NONE',  ( -0.000000000000000000, 1.000000000000000000, -0.000000000000000000 ) ) ;
#732 = CARTESIAN_POINT ( 'NONE',  ( 0.000000000000000000, 0.000000000000000000, 4.035913106217962287 ) ) ;
#733 = VECTOR ( 'NONE', #43, 1000.000000000000000 ) ;
#734 = AXIS2_PLACEMENT_3D ( 'NONE', #494, #424, #570 ) ;
#735 = DIRECTION ( 'NONE',  ( -1.000000000000000000, -0.000000000000000000, -0.000000000000000000 ) ) ;
#736 = CARTESIAN_POINT ( 'NONE',  ( 0.5033363493680653722, 2.668519602170839722, 3.039240881754528445 ) ) ;
#737 = CARTESIAN_POINT ( 'NONE',  ( 0.5275840180766969700, 3.502623270465474725, 2.022506812960557010 ) ) ;
#738 = CARTESIAN_POINT ( 'NONE',  ( 5.203183294109396506, 26.00533071582424682, -2.986335007355649829 ) ) ;
#739 = EDGE_LOOP ( 'NONE', ( #486, #403, #762, #270, #125, #267 ) ) ;
#740 = VECTOR ( 'NONE', #225, 1000.000000000000000 ) ;
#741 = CARTESIAN_POINT ( 'NONE',  ( 3.527052665939840903, 0.000000000000000000, 0.07182621243592354765 ) ) ;
#742 = CARTESIAN_POINT ( 'NONE',  ( 0.09363341178120432318, 26.00533071582424682, -0.03633500735564392653 ) ) ;
#743 = CARTESIAN_POINT ( 'NONE',  ( 6.377750420873693926, 0.2634074289648771772, -4.035913106217962287 ) ) ;
#744 = ORIENTED_EDGE ( 'NONE', *, *, #251, .F. ) ;
#745 = EDGE_CURVE ( 'NONE', #5, #57, #665, .T. ) ;
#746 = EDGE_CURVE ( 'NONE', #202, #775, #228, .T. ) ;
#747 = LINE ( 'NONE', #111, #888 ) ;
#748 = FACE_OUTER_BOUND ( 'NONE', #556, .T. ) ;
#749 = CARTESIAN_POINT ( 'NONE',  ( 6.380997512639416058, 1.046240719129651220, -3.906978258010221694 ) ) ;
#750 = ORIENTED_EDGE ( 'NONE', *, *, #808, .F. ) ;
#751 = CARTESIAN_POINT ( 'NONE',  ( 0.5170186149058754177, -3.207083679395143161, 2.464495462028338579 ) ) ;
#752 = CARTESIAN_POINT ( 'NONE',  ( 7.000000000000000000, 0.000000000000000000, 0.000000000000000000 ) ) ;
#753 = VERTEX_POINT ( 'NONE', #804 ) ;
#754 = DIRECTION ( 'NONE',  ( -0.000000000000000000, 1.000000000000000000, -0.000000000000000000 ) ) ;
#755 = VECTOR ( 'NONE', #178, 1000.000000000000000 ) ;
#756 = CARTESIAN_POINT ( 'NONE',  ( 7.000000000000000000, 6.725330715824242134, 4.463664992644353902 ) ) ;
#757 = CARTESIAN_POINT ( 'NONE',  ( 0.6763549110059877689, 0.2635561041742665034, -4.035913106217964064 ) ) ;
#758 = SECURITY_CLASSIFICATION ( '', '', #346 ) ;
#759 = CC_DESIGN_PERSON_AND_ORGANIZATION_ASSIGNMENT ( #212, #554, ( #34 ) ) ;
#760 = VERTEX_POINT ( 'NONE', #42 ) ;
#761 = DIRECTION ( 'NONE',  ( 0.000000000000000000, -1.000000000000000000, 0.000000000000000000 ) ) ;
#762 = ORIENTED_EDGE ( 'NONE', *, *, #608, .T. ) ;
#763 = SPHERICAL_SURFACE ( 'NONE', #807, 5.000000000000000000 ) ;
#764 = ORIENTED_EDGE ( 'NONE', *, *, #870, .T. ) ;
#765 = CARTESIAN_POINT ( 'NONE',  ( 6.574349024770971717, -1.413704375383367543E-20, 4.035913106217962287 ) ) ;
#766 = PERSON_AND_ORGANIZATION_ROLE ( 'classification_officer' ) ;
#767 = CARTESIAN_POINT ( 'NONE',  ( 0.6661087098495496184, -1.786393783750943598, -3.628567056549149239 ) ) ;
#768 = VERTEX_POINT ( 'NONE', #732 ) ;
#769 = FACE_OUTER_BOUND ( 'NONE', #501, .T. ) ;
#770 = EDGE_LOOP ( 'NONE', ( #518, #151, #60, #141 ) ) ;
#771 = CALENDAR_DATE ( 2025, 1, 5 ) ;
#772 =( NAMED_UNIT ( * ) SI_UNIT ( $, .STERADIAN. ) SOLID_ANGLE_UNIT ( ) );
#773 = VECTOR ( 'NONE', #519, 1000.000000000000000 ) ;
#774 = VECTOR ( 'NONE', #903, 1000.000000000000114 ) ;
#775 = VERTEX_POINT ( 'NONE', #314 ) ;
#776 = CARTESIAN_POINT ( 'NONE',  ( 6.564727228020570848, 1.786940539330167610, 3.628304233316504313 ) ) ;
#777 = EDGE_CURVE ( 'NONE', #789, #121, #96, .T. ) ;
#778 = B_SPLINE_CURVE_WITH_KNOTS ( 'NONE', 3,
 ( #849, #360, #711, #422, #158, #349, #859, #433, #492, #148, #369, #227, #507, #8, #722, #74, #648, #797, #294, #223, #635, #277, #285, #497, #576, #139, #782, #355, #652, #484, #418, #437, #80, #572 ),
 .UNSPECIFIED., .F., .F.,
 ( 4, 2, 2, 2, 2, 2, 2, 2, 2, 2, 2, 2, 2, 2, 2, 2, 4 ),
 ( 0.01577966164749087033, 0.01656805598611500729, 0.01735645032473914079, 0.01814484466336327775, 0.01893323900198741125, 0.01972163334061154821, 0.02051002767923568171, 0.02129842201785981867, 0.02208681635648395564, 0.02287521069510808913, 0.02366360503373222263, 0.02445199937235635959, 0.02524039371098049656, 0.02602878804960463005, 0.02681718238822876701, 0.02760557672685290398, 0.02839397106547703747 ),
 .UNSPECIFIED. ) ;
#779 = PERSON_AND_ORGANIZATION_ROLE ( 'creator' ) ;
#780 = EDGE_CURVE ( 'NONE', #685, #897, #325, .T. ) ;
#781 = EDGE_CURVE ( 'NONE', #826, #389, #373, .T. ) ;
#782 = CARTESIAN_POINT ( 'NONE',  ( 6.398502418766787159, -2.461207041033129261, -3.209386104330331335 ) ) ;
#783 = FACE_OUTER_BOUND ( 'NONE', #610, .T. ) ;
#784 = CARTESIAN_POINT ( 'NONE',  ( 1.796816705890601273, 26.00533071582424682, -2.986335007355649385 ) ) ;
#785 = VERTEX_POINT ( 'NONE', #254 ) ;
#786 = CARTESIAN_POINT ( 'NONE',  ( 0.4797563071087108111, -1.769531761824702189E-21, 4.035913106217962287 ) ) ;
#787 = DIRECTION ( 'NONE',  ( 0.000000000000000000, -0.000000000000000000, 1.000000000000000000 ) ) ;
#788 = CARTESIAN_POINT ( 'NONE',  ( 6.550807199705605655, 2.666689188809617139, 3.040849879087930585 ) ) ;
#789 = VERTEX_POINT ( 'NONE', #756 ) ;
#790 = APPROVAL_DATE_TIME ( #272, #173 ) ;
#791 = CIRCLE ( 'NONE', #717, 4.035913106217962287 ) ;
#792 = CC_DESIGN_APPROVAL ( #173, ( #662 ) ) ;
#793 = ORIENTED_EDGE ( 'NONE', *, *, #263, .F. ) ;
#794 = CARTESIAN_POINT ( 'NONE',  ( 3.500000000000000000, 10.00533071582423972, 2.463664992644354790 ) ) ;
#795 = ORIENTED_EDGE ( 'NONE', *, *, #348, .F. ) ;
#796 = CC_DESIGN_DATE_AND_TIME_ASSIGNMENT ( #852, #147, ( #662 ) ) ;
#797 = CARTESIAN_POINT ( 'NONE',  ( 6.471311698623138042, -4.036004413806030477, -0.2619254867713587398 ) ) ;
#798 = CARTESIAN_POINT ( 'NONE',  ( 0.6020071741972763402, 3.906688265421432327, -1.046940333130071954 ) ) ;
#799 = ORIENTED_EDGE ( 'NONE', *, *, #746, .F. ) ;
#800 = CARTESIAN_POINT ( 'NONE',  ( 7.000000000000000000, 30.00533071582424682, -4.536335007355645210 ) ) ;
#801 = ORIENTED_EDGE ( 'NONE', *, *, #745, .F. ) ;
#802 = APPLICATION_PROTOCOL_DEFINITION ( 'international standard', 'config_control_design', 1994, #568 ) ;
#803 = DIRECTION ( 'NONE',  ( 0.000000000000000000, 0.000000000000000000, 1.000000000000000000 ) ) ;
#804 = CARTESIAN_POINT ( 'NONE',  ( 7.000000000000000000, 6.676529270871762733, -4.536335007355644322 ) ) ;
#805 = DIRECTION ( 'NONE',  ( -1.000000000000000000, -0.000000000000000000, -0.000000000000000000 ) ) ;
#806 = VECTOR ( 'NONE', #509, 1000.000000000000000 ) ;
#807 = AXIS2_PLACEMENT_3D ( 'NONE', #676, #682, #333 ) ;
#808 = EDGE_CURVE ( 'NONE', #680, #831, #747, .T. ) ;
#809 = VERTEX_POINT ( 'NONE', #475 ) ;
#810 = CARTESIAN_POINT ( 'NONE',  ( 0.000000000000000000, 6.725330715824242134, 4.463664992644353902 ) ) ;
#811 = CARTESIAN_POINT ( 'NONE',  ( 0.4797563071086020092, 0.2664034821336749292, 4.035913106217964064 ) ) ;
#812 = DIRECTION ( 'NONE',  ( 0.000000000000000000, 0.000000000000000000, 1.000000000000000000 ) ) ;
#813 = CARTESIAN_POINT ( 'NONE',  ( 6.906366588218795677, 30.00533071582424682, -0.03633500735564536288 ) ) ;
#814 = CARTESIAN_POINT ( 'NONE',  ( 3.500000000000000000, 10.00533071582423972, -0.03633500735564492573 ) ) ;
#815 = CARTESIAN_POINT ( 'NONE',  ( 0.09363341178120432318, 26.00533071582424682, -0.03633500735564392653 ) ) ;
#816 = VECTOR ( 'NONE', #258, 1000.000000000000000 ) ;
#817 = AXIS2_PLACEMENT_3D ( 'NONE', #107, #645, #578 ) ;
#818 = DIRECTION ( 'NONE',  ( -0.5000000000000001110, 0.000000000000000000, -0.8660254037844385966 ) ) ;
#819 = CARTESIAN_POINT ( 'NONE',  ( 7.000000000000000000, 4.942568067166679760E-16, -4.035913106217962287 ) ) ;
#820 = CARTESIAN_POINT ( 'NONE',  ( 7.000000000000000000, 0.000000000000000000, 0.000000000000000000 ) ) ;
#821 = DIRECTION ( 'NONE',  ( 0.000000000000000000, 1.000000000000000000, -3.717986712841047268E-17 ) ) ;
#822 = CARTESIAN_POINT ( 'NONE',  ( 0.6660759039102696066, 1.789353131352958481, -3.627261112439811086 ) ) ;
#823 = ORIENTED_EDGE ( 'NONE', *, *, #445, .T. ) ;
#824 = CARTESIAN_POINT ( 'NONE',  ( 6.402718727350511507, 2.666777550824773968, -3.040760665073444002 ) ) ;
#825 = EDGE_LOOP ( 'NONE', ( #442, #795, #361, #836 ) ) ;
#826 = VERTEX_POINT ( 'NONE', #269 ) ;
#827 = EDGE_CURVE ( 'NONE', #352, #760, #834, .T. ) ;
#828 = CARTESIAN_POINT ( 'NONE',  ( 0.4894042225637005861, -1.789386147913885949, 3.627199149236933540 ) ) ;
#829 = ADVANCED_FACE ( 'NONE', ( #555 ), #763, .F. ) ;
#830 = CARTESIAN_POINT ( 'NONE',  ( 0.6555884019606335045, 2.461967037991480201, -3.208806067774165882 ) ) ;
#831 = VERTEX_POINT ( 'NONE', #262 ) ;
#832 = LINE ( 'NONE', #738, #591 ) ;
#833 = VECTOR ( 'NONE', #754, 1000.000000000000000 ) ;
#834 = LINE ( 'NONE', #839, #432 ) ;
#835 = AXIS2_PLACEMENT_3D ( 'NONE', #156, #435, #235 ) ;
#836 = ORIENTED_EDGE ( 'NONE', *, *, #364, .T. ) ;
#837 = DIRECTION ( 'NONE',  ( 0.000000000000000000, 0.000000000000000000, -1.000000000000000000 ) ) ;
#838 = ORIENTED_EDGE ( 'NONE', *, *, #780, .T. ) ;
#839 = CARTESIAN_POINT ( 'NONE',  ( 1.796816705890602606, 26.00533071582424682, 2.913664992644358520 ) ) ;
#840 = EDGE_LOOP ( 'NONE', ( #176, #324 ) ) ;
#841 = CARTESIAN_POINT ( 'NONE',  ( 7.000000000000000000, 30.00533071582424682, -4.536335007355645210 ) ) ;
#842 = DATE_AND_TIME ( #771, #889 ) ;
#843 = CARTESIAN_POINT ( 'NONE',  ( 0.6419629040915363349, -3.044482907801870919, -2.662855119923883240 ) ) ;
#844 = ADVANCED_FACE ( 'NONE', ( #901 ), #406, .F. ) ;
#845 = ORIENTED_EDGE ( 'NONE', *, *, #26, .F. ) ;
#846 = CARTESIAN_POINT ( 'NONE',  ( 7.000000000000000000, 4.942568067166679760E-16, -4.035913106217962287 ) ) ;
#847 = EDGE_CURVE ( 'NONE', #753, #730, #531, .T. ) ;
#848 = COORDINATED_UNIVERSAL_TIME_OFFSET ( 1, 0, .AHEAD. ) ;
#849 = CARTESIAN_POINT ( 'NONE',  ( 6.574349024770971717, -1.413704375383367543E-20, 4.035913106217962287 ) ) ;
#850 = FACE_OUTER_BOUND ( 'NONE', #164, .T. ) ;
#851 = CYLINDRICAL_SURFACE ( 'NONE', #489, 2.499999999999999556 ) ;
#852 = DATE_AND_TIME ( #647, #905 ) ;
#853 = DIRECTION ( 'NONE',  ( -1.000000000000000000, -0.000000000000000000, -0.000000000000000000 ) ) ;
#854 = PERSON ( 'UNSPECIFIED', 'UNSPECIFIED', 'UNSPECIFIED', ('UNSPECIFIED'), ('UNSPECIFIED'), ('UNSPECIFIED') ) ;
#855 = CYLINDRICAL_SURFACE ( 'NONE', #656, 4.035913106217962287 ) ;
#856 = FACE_OUTER_BOUND ( 'NONE', #190, .T. ) ;
#857 = DIRECTION ( 'NONE',  ( 0.000000000000000000, 0.000000000000000000, 1.000000000000000000 ) ) ;
#858 = EDGE_CURVE ( 'NONE', #450, #341, #214, .T. ) ;
#859 = CARTESIAN_POINT ( 'NONE',  ( 6.561729837514366892, -2.024065460176703191, 3.501556993244731242 ) ) ;
#860 = EDGE_CURVE ( 'NONE', #512, #579, #144, .T. ) ;
#861 = FACE_BOUND ( 'NONE', #651, .T. ) ;
#862 = CARTESIAN_POINT ( 'NONE',  ( 5.203183294109396506, 30.00533071582424682, -2.986335007355649829 ) ) ;
#863 = VERTEX_POINT ( 'NONE', #716 ) ;
#864 = DIRECTION ( 'NONE',  ( 1.000000000000000000, 0.000000000000000000, 0.000000000000000000 ) ) ;
#865 = CARTESIAN_POINT ( 'NONE',  ( 0.000000000000000000, 0.000000000000000000, 0.000000000000000000 ) ) ;
#866 = FACE_OUTER_BOUND ( 'NONE', #293, .T. ) ;
#867 = CARTESIAN_POINT ( 'NONE',  ( 0.000000000000000000, 6.725330715824242134, 4.463664992644353902 ) ) ;
#868 = DIRECTION ( 'NONE',  ( 1.000000000000000000, 0.000000000000000000, 0.000000000000000000 ) ) ;
#869 = DIRECTION ( 'NONE',  ( -1.000000000000000000, -0.000000000000000000, -0.000000000000000000 ) ) ;
#870 = EDGE_CURVE ( 'NONE', #121, #295, #50, .T. ) ;
#871 = EDGE_CURVE ( 'NONE', #450, #775, #778, .T. ) ;
#872 = ORIENTED_EDGE ( 'NONE', *, *, #877, .F. ) ;
#873 = CARTESIAN_POINT ( 'NONE',  ( 7.000000000000000000, 0.000000000000000000, 0.000000000000000000 ) ) ;
#874 = AXIS2_PLACEMENT_3D ( 'NONE', #814, #112, #47 ) ;
#875 =( GEOMETRIC_REPRESENTATION_CONTEXT ( 3 ) GLOBAL_UNCERTAINTY_ASSIGNED_CONTEXT ( ( #900 ) ) GLOBAL_UNIT_ASSIGNED_CONTEXT ( ( #427, #583, #772 ) ) REPRESENTATION_CONTEXT ( 'NONE', 'WORKASPACE' ) );
#876 = CARTESIAN_POINT ( 'NONE',  ( 0.4846229339980400175, 1.301201952487435420, 3.829566667518246703 ) ) ;
#877 = EDGE_CURVE ( 'NONE', #553, #775, #567, .T. ) ;
#878 = DIRECTION ( 'NONE',  ( -0.000000000000000000, -1.000000000000000000, -2.235468396877327937E-16 ) ) ;
#879 = PLANE ( 'NONE',  #284 ) ;
#880 = CARTESIAN_POINT ( 'NONE',  ( 7.000000000000000000, 6.725330715824242134, 4.463664992644353902 ) ) ;
#881 = DIRECTION ( 'NONE',  ( 0.000000000000000000, 0.000000000000000000, 1.000000000000000000 ) ) ;
#882 = ORIENTED_EDGE ( 'NONE', *, *, #91, .T. ) ;
#883 = DIRECTION ( 'NONE',  ( 0.8660254037844385966, 0.000000000000000000, -0.5000000000000001110 ) ) ;
#884 = CARTESIAN_POINT ( 'NONE',  ( 0.6420047161642875588, 3.042970853308939905, -2.664533903538305104 ) ) ;
#885 = DIRECTION ( 'NONE',  ( 0.000000000000000000, 0.000000000000000000, 1.000000000000000000 ) ) ;
#886 = CLOSED_SHELL ( 'NONE', ( #482, #315, #694, #350, #417, #100, #187, #53, #688, #912, #27, #534, #313, #36, #829, #78, #585, #844, #710, #516, #565, #675, #259, #128 ) ) ;
#887 = ORIENTED_EDGE ( 'NONE', *, *, #777, .T. ) ;
#888 = VECTOR ( 'NONE', #689, 1000.000000000000000 ) ;
#889 = LOCAL_TIME ( 14, 41, 29.00000000000000000, #410 ) ;
#890 = CARTESIAN_POINT ( 'NONE',  ( 0.6019560344630472404, -3.907223664540851793, -1.044857045307214127 ) ) ;
#891 = LINE ( 'NONE', #532, #755 ) ;
#892 = CARTESIAN_POINT ( 'NONE',  ( 6.388003765544671531, 1.786983820323723382, -3.628282577953656940 ) ) ;
#893 = ORIENTED_EDGE ( 'NONE', *, *, #913, .T. ) ;
#894 = ADVANCED_BREP_SHAPE_REPRESENTATION ( 'Spherical-Joint_D\X2\00e9\X0\faut_sldprt', ( #381, #545 ), #875 ) ;
#895 = CARTESIAN_POINT ( 'NONE',  ( 0.4827889284223038646, -1.044383726488918640, 3.907305072485779185 ) ) ;
#896 = CARTESIAN_POINT ( 'NONE',  ( 0.6763549110059882130, 4.942566095856351189E-16, -4.035913106217962287 ) ) ;
#897 = VERTEX_POINT ( 'NONE', #786 ) ;
#898 = CARTESIAN_POINT ( 'NONE',  ( 6.417169693365491590, 3.209785217735213081, -2.460798023114594280 ) ) ;
#899 = ORIENTED_EDGE ( 'NONE', *, *, #92, .F. ) ;
#900 = UNCERTAINTY_MEASURE_WITH_UNIT (LENGTH_MEASURE( 1.000000000000000082E-05 ), #427, 'distance_accuracy_value', 'NONE');
#901 = FACE_OUTER_BOUND ( 'NONE', #702, .T. ) ;
#902 = ORIENTED_EDGE ( 'NONE', *, *, #377, .T. ) ;
#903 = DIRECTION ( 'NONE',  ( 0.5000000000000002220, 0.000000000000000000, 0.8660254037844384856 ) ) ;
#904 = PRODUCT_RELATED_PRODUCT_CATEGORY ( 'detail', '', ( #374 ) ) ;
#905 = LOCAL_TIME ( 14, 41, 29.00000000000000000, #848 ) ;
#906 = CARTESIAN_POINT ( 'NONE',  ( 0.4803715559559160186, -0.5284409464529870037, 4.009803045504836128 ) ) ;
#907 = ORIENTED_EDGE ( 'NONE', *, *, #447, .F. ) ;
#908 = CARTESIAN_POINT ( 'NONE',  ( 0.09363341178120432318, 30.00533071582424682, -0.03633500735564392653 ) ) ;
#909 = ORIENTED_EDGE ( 'NONE', *, *, #163, .T. ) ;
#910 = APPROVAL_ROLE ( '' ) ;
#911 = DIRECTION ( 'NONE',  ( 1.000000000000000000, 0.000000000000000000, 0.000000000000000000 ) ) ;
#912 = ADVANCED_FACE ( 'NONE', ( #4 ), #85, .T. ) ;
#913 = EDGE_CURVE ( 'NONE', #809, #415, #455, .T. ) ;
ENDSEC;
END-ISO-10303-21;
